<svg width="3000" height="1903" viewBox="0 0 3000 1903" fill="none" xmlns="http://www.w3.org/2000/svg">
<g clip-path="url(#clip0_2955_1927)">
<path d="M2546.31 1263.37H1750.12C1695.88 1263.37 1643.87 1288.23 1605.52 1332.47C1567.17 1376.7 1545.62 1436.7 1545.62 1499.27V1892.41H1609.78V1675.47C1609.78 1612.91 1631.32 1552.91 1669.67 1508.67C1708.02 1464.43 1760.04 1439.58 1814.27 1439.58H2482.16C2536.39 1439.58 2588.41 1464.43 2626.76 1508.67C2665.11 1552.91 2686.65 1612.91 2686.65 1675.47V1892.41H2750.81V1499.27C2750.81 1436.7 2729.26 1376.7 2690.91 1332.47C2652.56 1288.23 2600.55 1263.37 2546.31 1263.37V1263.37Z" fill="#E0DEFF"/>
<path d="M2322.35 1326.81C2437.5 1326.81 2530.85 1311.42 2530.85 1292.45C2530.85 1273.47 2437.5 1258.09 2322.35 1258.09C2207.2 1258.09 2113.85 1273.47 2113.85 1292.45C2113.85 1311.42 2207.2 1326.81 2322.35 1326.81Z" fill="#E6E6E6"/>
<path d="M2479.97 1301.06H2202.25C2133.7 1225.27 2084.68 1152.23 2123.92 1091.6C2123.92 1074.17 2129.93 1057.46 2140.61 1045.13C2151.29 1032.81 2165.78 1025.89 2180.89 1025.89H2501.33C2516.44 1025.89 2530.93 1032.81 2541.62 1045.13C2552.3 1057.46 2558.3 1074.17 2558.3 1091.6C2573.24 1160.68 2546.55 1230.52 2479.97 1301.06Z" fill="#EBD4FD"/>
<path d="M2430.09 943.159C2427.46 943.299 2424.85 942.501 2422.62 940.873C2420.39 939.245 2418.65 936.867 2417.64 934.06C2416.62 931.252 2416.37 928.152 2416.93 925.179C2417.49 922.206 2418.83 919.503 2420.77 917.438L2421.65 913.395C2421.54 913.071 2421.42 912.748 2421.3 912.425C2418.65 905.192 2414.2 899.025 2408.52 894.699C2402.83 890.373 2396.17 888.081 2389.36 888.11C2382.55 888.139 2375.9 890.489 2370.25 894.863C2364.59 899.238 2360.18 905.443 2357.58 912.698C2347.15 941.655 2333.88 970.662 2330.61 1001.28C2329.18 1014.81 2329.78 1028.53 2332.41 1041.83C2307.93 980.226 2295.22 913.275 2295.13 845.51C2295.13 828.506 2295.95 811.514 2297.59 794.615C2298.94 780.761 2300.82 767.006 2303.23 753.35C2316.35 679.251 2344.52 609.799 2385.43 550.699C2405.23 538.237 2421.24 519.074 2431.31 495.791C2434.95 487.422 2437.53 478.488 2438.96 469.266C2436.73 469.604 2430.54 430.366 2432.22 427.959C2429.11 422.511 2423.54 419.802 2420.14 414.486C2403.23 388.044 2379.94 392.661 2367.78 428.593C2341.8 443.716 2341.55 468.797 2357.49 492.919C2367.63 508.266 2369.02 529.031 2377.92 545.461C2377.01 546.813 2376.05 548.122 2375.14 549.474C2358.41 574.294 2343.82 600.946 2331.6 629.048C2334.57 597.566 2331.02 565.719 2321.24 536.127C2311.33 508.549 2292.76 485.322 2276.4 461.481C2256.75 432.843 2216.46 445.341 2213 481.644C2212.96 481.995 2212.93 482.346 2212.9 482.698C2215.33 484.279 2217.71 485.957 2220.03 487.732C2222.96 489.985 2225.22 493.205 2226.53 496.968C2227.84 500.732 2228.14 504.864 2227.38 508.824C2226.62 512.784 2224.84 516.386 2222.27 519.159C2219.7 521.932 2216.47 523.746 2213 524.364L2212.64 524.427C2213.51 534.529 2215.04 544.54 2217.22 554.373C2196.23 647.989 2241.54 682.086 2306.23 683.617C2307.66 684.462 2309.05 685.307 2310.48 686.11C2298.19 726.265 2290.49 768.091 2287.56 810.539C2285.9 835.581 2285.99 860.737 2287.85 885.762L2287.74 884.875C2283.05 857.048 2270.18 831.94 2251.31 813.791C2223.27 787.224 2183.66 777.441 2153.41 756.086C2150.2 753.705 2146.46 752.435 2142.64 752.424C2138.82 752.413 2135.08 753.663 2131.85 756.025C2128.63 758.388 2126.06 761.765 2124.44 765.758C2122.83 769.751 2122.24 774.194 2122.74 778.562C2122.78 778.873 2122.82 779.184 2122.86 779.495C2127.37 781.613 2131.76 784.053 2136.01 786.801C2138.44 788.383 2140.81 790.061 2143.14 791.836C2146.06 794.089 2148.33 797.308 2149.64 801.072C2150.95 804.836 2151.24 808.968 2150.48 812.928C2149.72 816.887 2147.94 820.49 2145.38 823.263C2142.81 826.036 2139.58 827.85 2136.11 828.468L2135.75 828.531C2135.49 828.573 2135.27 828.616 2135.02 828.658C2142.72 849.877 2153.53 869.408 2166.98 886.395C2180.1 968.118 2236.46 975.871 2296.75 952.073H2296.78C2303.4 985.229 2312.98 1017.5 2325.38 1048.37H2427.53C2427.9 1047.06 2428.23 1045.71 2428.56 1044.4C2419.1 1045.09 2409.61 1044.44 2400.29 1042.46C2407.87 1031.73 2415.45 1020.92 2423.03 1010.19C2423.2 1009.99 2423.36 1009.78 2423.51 1009.56C2427.35 1004.07 2431.23 998.618 2435.08 993.127L2435.08 993.121C2435.28 976.29 2433.61 959.499 2430.1 943.161L2430.09 943.159Z" fill="#ABE8C0"/>
<path d="M1620.62 1300.23L1657.26 1260L1540.19 1077.84L1486.12 1137.21L1620.62 1300.23Z" fill="#FFB6B6"/>
<path d="M1584.78 1284.4L1639.99 1216.11L1663.86 1245.04L1756.09 1228.28C1760.64 1227.45 1765.31 1228.32 1769.4 1230.77C1773.5 1233.21 1776.81 1237.11 1778.85 1241.88C1780.89 1246.65 1781.55 1252.04 1780.75 1257.28C1779.94 1262.52 1777.7 1267.32 1774.36 1270.99L1704.68 1347.5L1669.06 1332.07L1687.98 1365.83L1661.7 1394.68L1584.78 1284.4Z" fill="#2F2E41"/>
<path d="M1614.36 1162.94L1563.95 1242.23C1521.29 1216.01 1385.13 1111.98 1280.83 1057.48C1213.42 1022.17 1161.41 995.314 1161.41 995.314C1161.41 995.314 1154.4 1006.78 1143.22 1024.81C1102.3 1090.89 1005.65 1244.66 996.441 1238.95C984.756 1231.7 971.512 1244.65 973.162 1271.19C974.353 1290.54 945.988 1304.65 930.499 1310.94C924.68 1313.27 920.693 1314.54 920.693 1314.54C918.035 1316.49 915.377 1318.45 912.765 1320.3C827.944 1380.08 728.55 1363.22 660.272 1299.15C635.815 1276.4 615.869 1247.86 601.775 1215.46C587.682 1183.07 579.768 1147.56 578.566 1111.34L572.472 947.476L778.682 936.904L815.388 1017.3L880.505 956.092L1023.06 822.092L1075.12 773.143C1075.12 773.143 1073.75 772.932 1075.4 765.743C1081.92 761.666 1088.74 758.27 1095.79 755.594C1096.98 755.118 1098.17 754.695 1099.36 754.325C1166.5 731.49 1217.41 790.904 1217.41 790.904C1217.41 790.904 1528.8 1033.8 1541.04 1036.08C1553.27 1038.4 1560.31 1061.07 1561.78 1066.46C1563.2 1071.54 1582.69 1100.2 1591.45 1099.51C1618.76 1097.45 1614.36 1162.94 1614.36 1162.94Z" fill="#2F2E41"/>
<path d="M996.17 672.196C990.423 674.396 985.168 678.032 980.78 682.845C976.392 687.658 972.978 693.528 970.783 700.037L781.693 698.838L681.107 538.346L606.339 576.53L728.029 830.867L994.414 762.316L994.258 761.674C1000.43 764.44 1007.08 765.452 1013.66 764.625C1020.24 763.798 1026.56 761.156 1032.06 756.922C1037.57 752.688 1042.12 746.987 1045.31 740.301C1048.51 733.614 1050.26 726.138 1050.42 718.505C1050.59 710.872 1049.16 703.305 1046.25 696.445C1043.34 689.585 1039.05 683.633 1033.73 679.091C1028.41 674.549 1022.22 671.552 1015.68 670.351C1009.14 669.151 1002.45 669.784 996.17 672.196L996.17 672.196Z" fill="#FFB6B6"/>
<path d="M645.779 428.983L641.853 429.647C621.343 433.087 602.816 445.653 590.239 464.655C577.662 483.657 572.034 507.583 574.56 531.312C577.597 559.377 579.365 584.493 576.706 589.488C570.16 601.784 567.657 612.087 580.499 613.627C593.341 615.168 566.576 606.099 607.49 613.99C648.404 621.881 641.168 596.803 674.498 595.148C707.828 593.492 730.317 603.413 740.815 581.748C751.313 560.082 780.588 559.194 764.509 537.906C748.43 516.619 744.076 535.004 731.051 489.866C730.92 489.414 730.79 488.965 730.659 488.518C724.779 468.711 713.067 451.908 697.559 441.031C682.051 430.154 663.729 425.891 645.779 428.983V428.983Z" fill="#6C63FF"/>
<path d="M535.382 372.95C530.519 378.417 525.345 383.503 519.893 388.174C518.289 389.601 516.685 390.922 515.082 392.138C468.57 428.453 422.653 412.912 386.864 375.012C331.554 316.337 300.485 204.115 329.171 147.132C393.417 56.7411 476.818 76.1404 527.5 137.564C576.716 197.137 595.137 296.303 535.382 372.95Z" fill="#E0DEFF"/>
<path d="M737.303 448.212C733.362 445.305 729.421 442.504 725.388 439.808C723.601 437.006 721.768 434.257 719.889 431.562L737.303 448.212Z" fill="#F2F2F2"/>
<path d="M624.94 208.439C685.967 261.99 753.93 304.609 766.74 363.542C766.74 363.542 759.066 270.946 794.862 288.497C855.006 317.987 834.656 157.61 817.79 131.385C789.68 87.6763 694.892 62.8411 694.892 62.8411L627.65 105.421L624.94 208.439Z" fill="#2F2E41"/>
<path d="M905.971 1880.99C907.22 1885.18 909.589 1888.81 912.737 1891.35C915.885 1893.9 919.652 1895.22 923.495 1895.15L998.575 1892.92C1002.45 1892.83 1006.19 1891.3 1009.25 1888.56C1012.3 1885.81 1014.5 1882 1015.53 1877.69L1026.15 1746.64C1029.92 1748.61 1034.02 1749.58 1038.16 1749.48C1041.76 1749.38 1045.3 1748.47 1048.59 1746.79C1051.88 1745.11 1054.85 1742.69 1057.33 1739.69C1059.82 1736.68 1061.76 1733.14 1063.05 1729.27C1064.35 1725.39 1064.97 1721.27 1064.88 1717.12C1064.79 1712.97 1063.99 1708.88 1062.53 1705.09C1061.07 1701.29 1058.97 1697.87 1056.36 1695.01C1053.75 1692.15 1050.68 1689.91 1047.32 1688.42C1043.96 1686.94 1040.38 1686.23 1036.79 1686.33C1035.13 1686.33 1033.48 1686.53 1031.87 1686.92C1030.11 1684.73 1027.97 1682.98 1025.59 1681.8C1023.21 1680.62 1020.64 1680.02 1018.05 1680.05L902.562 1683.49C901.604 1683.53 900.651 1683.67 899.713 1683.9C897.181 1684.44 894.778 1685.61 892.668 1687.31C890.558 1689.02 888.79 1691.22 887.481 1693.78C886.172 1696.34 885.354 1699.2 885.082 1702.15C884.81 1705.11 885.089 1708.1 885.902 1710.92L905.971 1880.99ZM1028.33 1737.74L1035.89 1706.51C1036.75 1702.9 1036.77 1699.1 1035.95 1695.48C1036.31 1695.48 1036.64 1695.28 1037 1695.27C1042.19 1695.15 1047.2 1697.41 1050.95 1701.54C1054.69 1705.67 1056.86 1711.35 1056.99 1717.33C1057.11 1723.31 1055.17 1729.1 1051.59 1733.43C1048.02 1737.77 1043.1 1740.29 1037.92 1740.45C1034.57 1740.57 1031.25 1739.63 1028.33 1737.74V1737.74Z" fill="#7030A0"/>
<path d="M899.713 1683.9C902.173 1700.13 929.837 1711.54 963.1 1709.55C993.687 1707.93 1018.7 1695.54 1023.28 1680.85C1021.58 1680.27 1019.82 1680 1018.05 1680.05L902.562 1683.49C901.604 1683.53 900.65 1683.67 899.713 1683.9V1683.9Z" fill="white"/>
<path d="M731.206 273.423C789.415 273.423 836.603 218.991 836.603 151.845C836.603 84.6995 789.415 30.2671 731.206 30.2671C672.997 30.2671 625.81 84.6995 625.81 151.845C625.81 218.991 672.997 273.423 731.206 273.423Z" fill="#FFB6B6"/>
<path d="M693.248 105.327L689.193 125.875L760.091 144.494C760.154 140.338 760.961 136.242 762.461 132.463C763.962 128.684 766.123 125.303 768.81 122.533C767.28 130.59 767.455 138.954 769.318 146.917C807.554 171.667 805.357 180.435 836.26 174.124C840.446 175.223 844.84 174.359 848.475 171.721C852.109 169.084 854.686 164.889 855.639 160.06V160.06C868.073 97.0583 872.159 32.6666 817.81 17.0286C804.6 13.2184 790.863 12.489 777.405 14.8831C763.947 17.2771 751.039 22.7464 739.437 30.9705C727.835 39.1945 717.774 50.0078 709.843 62.776C701.911 75.5443 696.27 90.0106 693.248 105.327Z" fill="#2F2E41"/>
<path d="M1231.45 869.722C1231.2 869.376 1230.91 869.069 1230.59 868.809C1229.8 867.754 1228.84 866.888 1227.76 866.26L1220.05 861.497L1168.85 795.925C1165.89 794.144 1162.44 793.763 1159.23 794.864L1159.1 794.91L1137.17 802.735L1118.31 809.488L1091.96 818.909L912.478 883.017L794.504 925.15C791.315 926.315 788.649 928.877 787.081 932.286C785.513 935.695 785.168 939.677 786.12 943.376C786.675 945.413 787.592 947.294 788.814 948.898L792.568 953.717L800.442 963.836L818.686 1007.45L823.748 1013.96C825.361 1016.04 827.452 1017.54 829.778 1018.29C832.104 1019.05 834.568 1019.02 836.881 1018.22L1225.54 893.546C1227.56 892.792 1229.39 891.477 1230.86 889.716C1232.34 887.956 1233.41 885.804 1234 883.45C1234.58 881.097 1234.65 878.613 1234.21 876.219C1233.76 873.826 1232.82 871.594 1231.45 869.723L1231.45 869.722Z" fill="#EBD4FD"/>
<path d="M1208.37 221.101L1200.85 222.508C1198.78 222.903 1196.94 224.223 1195.72 226.18L1192.4 231.529L1162.49 317.806C1161.27 319.779 1160.78 322.228 1161.13 324.617L1164.64 349.199L1151.39 787.967C1151.73 790.236 1152.78 792.279 1154.35 793.697L1212.43 883.306L1213.78 884.549L1216.71 887.19C1218.21 888.527 1220.07 889.209 1221.96 889.118L1226.9 888.846C1228.02 888.784 1229.11 888.447 1230.11 887.859C1231.11 887.271 1231.99 886.445 1232.7 885.435C1233.4 884.435 1233.92 883.271 1234.2 882.022C1234.49 880.772 1234.53 879.467 1234.34 878.194L1217.5 228.608C1217.16 226.222 1216.01 224.09 1214.3 222.681C1212.6 221.272 1210.48 220.701 1208.41 221.094L1208.37 221.101Z" fill="#EBD4FD"/>
<path d="M1195.77 255.192L1169.27 348.3L1159.03 720.186L1200.27 762.474L1195.77 255.192Z" fill="#7030A0"/>
<path d="M669.552 303.494L635.687 285.186L602.345 352.11C602.345 352.11 512.795 499.519 511.496 605.863C510.197 712.208 526.09 743.832 526.09 743.832C526.09 743.832 487.479 777.129 506.784 797.483C526.09 817.836 568.829 826.618 536.003 835.442C503.177 844.266 511.496 933.596 548.156 949.454C584.815 965.312 781.697 965.173 781.697 965.173C779.927 958.247 779.797 950.901 781.32 943.897C782.842 936.894 785.963 930.488 790.357 925.346C805.62 907.698 819.367 920.362 805.62 892.886C791.872 865.41 768.96 881.268 787.29 844.266C805.62 807.264 805.613 796.206 805.613 796.206C805.613 796.206 795.786 535.303 739.502 446.309L740.701 443.861C742.571 414.903 736.768 385.974 724.062 360.906C711.355 335.839 692.346 315.817 669.552 303.494V303.494Z" fill="#7030A0"/>
<path d="M710.59 187.31C714.061 169.76 720.866 153.318 730.513 139.169C740.161 125.02 752.411 113.517 766.379 105.491C780.347 97.4647 795.686 93.115 811.288 92.7553C826.89 92.3957 842.367 96.0351 856.602 103.411C851.671 86.6241 841.691 72.4288 828.471 63.3958L748.667 23.4291C709.303 13.0919 646.989 -16.2479 618.557 11.8488C592.361 37.6598 605.111 88.1841 580.988 116.48C554.552 147.49 552.307 184.157 559.804 205.247C568.477 229.645 585.829 262.932 607.482 270.137C608.609 261.55 612.323 253.696 617.97 247.953C616.409 256.137 616.273 264.596 617.57 272.84L748.667 393.449C736.423 381.165 725.992 349.513 718.807 313.863C714.554 292.76 689.181 285.354 709.759 249.54C730.337 213.725 707.796 201.469 710.59 187.31Z" fill="#2F2E41"/>
<path d="M661.6 1403.08H707.425V1820.67C707.425 1827.68 705.011 1834.4 700.714 1839.36C696.417 1844.32 690.589 1847.1 684.512 1847.1C678.436 1847.1 672.608 1844.32 668.311 1839.36C664.014 1834.4 661.6 1827.68 661.6 1820.67V1403.08Z" fill="#E0DEFF"/>
<path d="M528.613 1890.57L592.733 1792.47C613.078 1761.34 632.586 1728.98 654.08 1698.96C661.717 1688.29 670.588 1677.26 681.884 1674.04C686.334 1672.72 691.021 1672.95 695.359 1674.7C700.483 1676.76 705.21 1679.96 709.278 1684.1C718.726 1694.2 726.653 1706.03 732.734 1719.13C740.738 1735.16 748.138 1751.62 755.029 1768.33C770.642 1806.39 783.34 1845.96 792.978 1886.58C797.68 1906.23 824.213 1897.89 819.491 1878.15C809.948 1838.42 797.663 1799.63 782.753 1762.16C775.492 1743.87 767.592 1725.94 759.052 1708.37C751.938 1692.77 742.973 1678.4 732.416 1665.66C721.739 1652.64 707.511 1644.25 692.112 1641.88C675.591 1639.81 660.267 1648.39 648.001 1660.46C635.677 1672.58 626.419 1688.6 616.741 1703.41L582.635 1755.59L504.872 1874.56C500.399 1881.41 503.925 1892.29 509.804 1896.26C512.972 1898.28 516.694 1898.82 520.196 1897.76C523.699 1896.7 526.713 1894.13 528.613 1890.57H528.613Z" fill="#E0DEFF"/>
<path d="M968.625 832.188C962.57 832.182 956.588 833.717 951.107 836.685C945.626 839.653 940.78 843.979 936.915 849.355L757.832 779.328L706.336 590.405L624.94 599.395L670.765 885.048L942.285 917.055L942.312 916.389C947.409 921.261 953.447 924.647 959.917 926.259C966.387 927.872 973.098 927.665 979.484 925.654C985.87 923.644 991.742 919.891 996.605 914.711C1001.47 909.53 1005.18 903.076 1007.42 895.893C1009.67 888.71 1010.38 881.009 1009.5 873.441C1008.62 865.874 1006.18 858.661 1002.37 852.413C998.567 846.165 993.514 841.066 987.64 837.546C981.767 834.025 975.245 832.188 968.625 832.188L968.625 832.188Z" fill="#FFB6B6"/>
<path d="M702.759 473.769L698.852 472.969C678.45 468.761 657.431 473.934 640.295 487.381C623.159 500.828 611.268 521.479 607.168 544.914C602.366 572.649 597.167 597.123 593.276 600.894C583.698 610.176 578.502 619.039 590.265 625.179C602.028 631.32 579.116 612.964 615.775 635.357C652.435 657.75 652.435 631.32 684.512 641.892C716.59 652.464 735.211 670.07 751.104 653.338C766.997 636.606 795.016 646.428 785.589 620.373C776.161 594.318 766.997 610.176 766.997 562.602C766.997 562.126 766.996 561.652 766.994 561.18C766.838 540.245 760.326 520.035 748.59 504.065C736.854 488.095 720.637 477.375 702.759 473.769V473.769Z" fill="#7030A0"/>
<path d="M1964.92 1374.38C2064.88 1374.38 2145.92 1359 2145.92 1340.02C2145.92 1321.05 2064.88 1305.66 1964.92 1305.66C1864.95 1305.66 1783.91 1321.05 1783.91 1340.02C1783.91 1359 1864.95 1374.38 1964.92 1374.38Z" fill="#E6E6E6"/>
<path d="M2146.86 1141.58C2146.93 1192.03 2131.12 1240.8 2102.36 1278.81C2095.2 1288.35 2087.28 1297.1 2078.71 1304.95C2065.72 1316.99 2051.33 1326.89 2035.97 1334.36H1895.2C1879.84 1326.89 1865.45 1316.99 1852.45 1304.95C1843.89 1297.1 1835.97 1288.35 1828.8 1278.81C1820.38 1267.64 1813.01 1255.47 1806.79 1242.51C1793.85 1215.41 1786.28 1185.33 1784.63 1154.44C1782.98 1123.55 1787.3 1092.62 1797.27 1063.89C1807.24 1035.16 1822.61 1009.34 1842.28 988.291C1861.94 967.243 1885.41 951.492 1911 942.174C1936.58 932.857 1963.64 930.205 1990.22 934.41C2016.8 938.615 2042.23 949.573 2064.7 966.492C2087.16 983.412 2106.09 1005.87 2120.12 1032.25C2134.14 1058.63 2142.92 1088.27 2145.82 1119.04C2146.52 1126.53 2146.87 1134.05 2146.86 1141.58Z" fill="#3F3D56"/>
<path d="M2145.82 1119.04C2107.94 1186.84 2038.24 1239.44 1953.38 1255.42C1904.34 1265.04 1854 1260.61 1806.79 1242.51C1793.85 1215.41 1786.28 1185.33 1784.63 1154.44C1782.98 1123.55 1787.3 1092.62 1797.27 1063.89C1807.24 1035.16 1822.61 1009.34 1842.28 988.291C1861.94 967.243 1885.41 951.492 1911 942.174C1936.58 932.857 1963.64 930.205 1990.22 934.41C2016.79 938.615 2042.23 949.573 2064.7 966.492C2087.16 983.412 2106.09 1005.87 2120.12 1032.25C2134.14 1058.63 2142.92 1088.27 2145.82 1119.04V1119.04Z" fill="#7030A0"/>
<path d="M1555.59 1438.4L1595.75 1402.94L1496.3 1207.35L1437.02 1259.69L1555.59 1438.4Z" fill="#FFB6B6"/>
<path d="M1521.42 1418.24L1582.66 1357.17L1603.7 1388.88L1696.96 1383.63C1701.57 1383.37 1706.12 1384.81 1709.97 1387.75C1713.81 1390.69 1716.74 1394.97 1718.32 1399.97C1719.91 1404.96 1720.07 1410.41 1718.78 1415.52C1717.49 1420.63 1714.82 1425.12 1711.16 1428.36L1634.76 1495.8L1600.78 1476.06L1616.45 1511.97L1587.65 1537.39L1521.42 1418.24Z" fill="#2F2E41"/>
<path d="M1562.13 1301.13L1504.64 1373.73C1464.66 1342.38 1338.95 1222.1 1240.33 1155.01C1176.59 1111.56 1127.38 1078.43 1127.38 1078.43C1127.38 1078.43 1119.34 1088.97 1106.55 1105.51C1059.72 1166.14 949.332 1307.06 940.705 1300.25C929.761 1291.6 915.389 1302.84 914.562 1329.42C913.948 1348.81 884.433 1359.33 868.449 1363.67C862.447 1365.26 858.365 1366.03 858.365 1366.03C855.541 1367.64 852.716 1369.26 849.947 1370.77C760.056 1419.72 662.804 1390.66 600.877 1318.51C578.678 1292.86 561.5 1262.02 550.5 1228.06C539.501 1194.11 534.934 1157.83 537.107 1121.67L546.285 957.999L752.289 973.003L781.306 1057.48L851.74 1004.68L1005.94 889.091L1062.25 846.866C1062.25 846.866 1060.9 846.485 1063.21 839.542C1070.07 836.296 1077.17 833.763 1084.42 831.975C1085.65 831.649 1086.88 831.376 1088.1 831.155C1156.97 816.758 1202.06 882.129 1202.06 882.129C1202.06 882.129 1489.07 1162.16 1501.03 1165.93C1512.97 1169.76 1517.86 1193.17 1518.82 1198.71C1519.76 1203.93 1536.48 1234.83 1545.24 1235.23C1572.59 1236.56 1562.13 1301.13 1562.13 1301.13Z" fill="#2F2E41"/>
<path d="M634.225 1487.13C591.104 1380.67 276.656 1483.59 255.989 1250.96C250.307 1183.24 294.298 1124.73 336.09 1076.73C633.355 839.598 52.9402 664.367 278.443 430.25C312.689 407.242 349.055 388.714 386.864 375.011C439.058 357.303 478.009 360.581 507.52 379.082C511.817 381.787 515.951 384.825 519.893 388.174C649.21 498.387 570.987 943.68 706.72 1081.96C758.41 1129.01 987.029 1220.14 1023.73 1291.18C1024.7 1293.09 1025.58 1295.07 1026.35 1297.1C1038.91 1324.99 755.58 1400.94 778.894 1466.25C810.971 1556.12 631.455 1687.13 634.225 1487.13Z" fill="#E0DEFF"/>
<path d="M2.41477e-05 1896.71C-0.0021116 1897.54 0.137445 1898.36 0.410751 1899.12C0.684057 1899.88 1.08562 1900.58 1.59245 1901.16C2.09927 1901.75 2.70141 1902.21 3.36401 1902.53C4.02661 1902.84 4.73671 1903 5.45344 1903H2994.55C2995.99 1903 2997.38 1902.34 2998.4 1901.16C2999.43 1899.98 3000 1898.38 3000 1896.71C3000 1895.04 2999.43 1893.44 2998.4 1892.26C2997.38 1891.08 2995.99 1890.42 2994.55 1890.42H5.45316C4.73646 1890.42 4.02629 1890.58 3.36373 1890.89C2.70117 1891.21 2.09924 1891.67 1.59245 1892.26C1.08566 1892.84 0.684048 1893.54 0.410751 1894.3C0.137453 1895.06 -0.00208709 1895.88 2.41477e-05 1896.71Z" fill="#CCCCCC"/>
<path d="M884.29 929.487C884.29 963.06 908.865 1027.52 765.146 1027.52C621.428 1027.52 363.838 963.06 363.838 929.487C363.838 895.914 480.346 868.698 624.064 868.698C767.783 868.698 884.29 895.914 884.29 929.487Z" fill="#E0DEFF"/>
</g>
<defs>
<clipPath id="clip0_2955_1927">
<rect width="3000" height="1903" fill="white"/>
</clipPath>
</defs>
</svg>
