<svg width="1000" height="770" viewBox="0 0 1000 770" fill="none" xmlns="http://www.w3.org/2000/svg">
<g clip-path="url(#clip0_2954_1527)">
<path d="M144.344 662.048V664.042C144.347 667.346 145.577 670.514 147.764 672.851C149.952 675.187 152.918 676.501 156.011 676.504H254.949C258.042 676.503 261.009 675.189 263.197 672.852C265.385 670.516 266.615 667.347 266.616 664.042V662.048C266.621 659.132 265.663 656.307 263.909 654.072C263.325 653.33 262.664 652.661 261.939 652.078H210.622C210.004 652.078 209.41 651.815 208.973 651.348C208.535 650.881 208.289 650.247 208.289 649.586H156.011C152.918 649.591 149.953 650.905 147.766 653.241C145.579 655.577 144.348 658.744 144.344 662.048V662.048Z" fill="#3F3D56"/>
<path d="M198.951 767.729H211.084V676.009H198.951V767.729Z" fill="#3F3D56"/>
<path d="M164.416 767.274C164.416 768.674 182.803 767.815 205.484 767.815C228.166 767.815 246.553 768.674 246.553 767.274C246.553 765.873 228.166 754.768 205.484 754.768C182.803 754.768 164.416 765.873 164.416 767.274Z" fill="#3F3D56"/>
<path d="M163.385 659.944L204.789 667.003L252.895 675.208L269.574 678.049C271.176 678.319 272.812 677.899 274.124 676.883C275.436 675.866 276.318 674.335 276.575 672.626L277.331 667.581L278.031 662.885L278.609 659.017C278.74 658.152 278.705 657.268 278.506 656.418C278.307 655.568 277.948 654.77 277.452 654.072C276.865 653.214 276.085 652.528 275.184 652.078H210.622C210.004 652.078 209.41 651.815 208.973 651.348C208.535 650.881 208.289 650.247 208.289 649.586V647.622C208.289 646.961 208.535 646.327 208.973 645.86C209.41 645.392 210.004 645.13 210.622 645.13H235.992L224.296 643.136L188.343 637.004L167.352 633.425C165.746 633.154 164.106 633.573 162.79 634.592C161.474 635.61 160.59 637.145 160.333 638.859L158.298 652.457C158.049 654.169 158.445 655.917 159.397 657.32C160.35 658.722 161.783 659.666 163.385 659.944V659.944Z" fill="#7030A0"/>
<path d="M252.895 658.05V734.028C252.897 735.759 253.542 737.419 254.688 738.643C255.834 739.867 257.388 740.556 259.008 740.558H271.917C273.538 740.556 275.091 739.867 276.238 738.643C277.384 737.419 278.029 735.759 278.031 734.028V658.05C278.033 656.609 277.583 655.208 276.752 654.072C276.137 653.199 275.32 652.512 274.381 652.078H256.535C255.601 652.515 254.787 653.202 254.174 654.072C253.344 655.209 252.894 656.609 252.895 658.05V658.05Z" fill="#7030A0"/>
<path d="M213.992 529.452C214.057 530.13 214.221 530.793 214.477 531.416C214.866 532.369 215.465 533.207 216.223 533.859L216.251 533.879L253.082 565.792L253.623 566.25L261.249 572.86L263.554 574.854H303.437L301.141 572.86L269.621 545.543L248.499 527.239L232.062 513.003C231.1 512.166 229.921 511.664 228.683 511.567C228.678 511.561 228.672 511.558 228.665 511.557C228.298 511.529 227.929 511.535 227.563 511.577C227.015 511.636 226.478 511.777 225.967 511.996C225.618 512.131 225.285 512.312 224.978 512.534C224.397 512.912 223.883 513.394 223.456 513.96L215.448 524.498L215.327 524.667C214.819 525.331 214.44 526.096 214.21 526.917C213.981 527.738 213.907 528.6 213.992 529.452V529.452Z" fill="#7030A0"/>
<path d="M216.251 533.879C216.945 535.733 217.955 537.433 219.228 538.894L243.748 567.028C244.341 567.609 245.035 568.06 245.791 568.354C246.547 568.648 247.35 568.78 248.153 568.742C248.957 568.704 249.746 568.497 250.475 568.133C251.204 567.768 251.858 567.254 252.4 566.619L253.082 565.792L253.38 565.433L263.974 552.741L268.529 547.278C268.832 546.941 269.095 546.566 269.313 546.162C269.425 545.962 269.527 545.753 269.621 545.543C270.003 544.612 270.178 543.599 270.134 542.583C270.103 541.718 269.91 540.869 269.565 540.086C269.22 539.304 268.731 538.603 268.127 538.026L239.697 514.817C236.56 512.248 232.61 511.082 228.683 511.567C228.679 511.561 228.672 511.558 228.665 511.557C227.792 511.674 226.931 511.867 226.088 512.135C225.715 512.245 225.351 512.385 224.978 512.534C222.567 513.503 220.43 515.116 218.771 517.22C216.966 519.486 215.776 522.236 215.332 525.173C214.888 528.11 215.206 531.121 216.251 533.879L216.251 533.879Z" fill="#2F2E41"/>
<path d="M204.608 488.397C230.445 488.397 251.391 466.025 251.391 438.427C251.391 410.83 230.445 388.458 204.608 388.458C178.771 388.458 157.826 410.83 157.826 438.427C157.826 466.025 178.771 488.397 204.608 488.397Z" fill="#7030A0"/>
<path d="M192.151 653.055L209.502 656.006L209.895 656.076L236.271 660.572L252.895 663.414L277.331 667.581L278.031 667.701L281.661 668.319L298.341 671.16C299.942 671.43 301.578 671.011 302.89 669.994C304.203 668.977 305.084 667.446 305.341 665.737L306.797 656.006L307.376 652.138C307.376 652.118 307.385 652.098 307.385 652.078H210.622C210.004 652.078 209.41 651.815 208.973 651.348C208.535 650.881 208.289 650.247 208.289 649.586V647.622C208.289 646.961 208.535 646.327 208.973 645.86C209.41 645.392 210.004 645.13 210.622 645.129H241.199V634.233L239.333 633.914L230.111 632.339L196.109 626.546C194.506 626.274 192.868 626.692 191.553 627.709C190.239 628.726 189.356 630.258 189.099 631.97L188.343 637.004L187.064 645.578C186.813 647.29 187.208 649.038 188.161 650.439C189.115 651.84 190.549 652.781 192.151 653.055V653.055Z" fill="#7030A0"/>
<path d="M140.937 608.91C140.937 649.646 144.811 674.011 204.546 667.033C204.63 667.023 204.705 667.013 204.789 667.003C215.443 665.879 225.98 663.726 236.271 660.572C241.62 658.904 246.817 656.729 251.803 654.072C252.979 653.434 254.108 652.766 255.219 652.078H210.622C210.004 652.078 209.41 651.815 208.973 651.348C208.535 650.881 208.289 650.247 208.289 649.586V647.622C208.289 646.961 208.535 646.327 208.973 645.86C209.41 645.392 210.004 645.13 210.622 645.13H241.199V582.162C241.202 580.224 241.924 578.367 243.206 576.997C244.489 575.627 246.227 574.857 248.041 574.854H272.916C272.701 574.196 272.486 573.528 272.253 572.86C269.919 565.963 267.153 559.241 263.974 552.741C259.618 543.715 254.434 535.172 248.499 527.239C244.365 521.711 239.725 516.638 234.648 512.095C225.286 503.841 215.093 498.736 204.751 498.736C166.614 498.736 140.937 568.174 140.937 608.91Z" fill="#2F2E41"/>
<path d="M203.625 456.948L203.577 455.08C206.829 454.984 209.696 454.766 211.851 453.084C212.462 452.581 212.964 451.942 213.323 451.213C213.682 450.483 213.89 449.68 213.933 448.856C213.97 448.354 213.899 447.848 213.724 447.379C213.55 446.911 213.276 446.491 212.925 446.154C211.495 444.864 209.193 445.281 207.516 446.103L206.069 446.811L208.843 425.159L210.575 425.412L208.216 443.831C209.182 443.448 210.222 443.329 211.241 443.486C212.261 443.643 213.228 444.07 214.053 444.728C214.609 445.246 215.045 445.894 215.327 446.621C215.609 447.349 215.73 448.136 215.68 448.922C215.629 450.028 215.352 451.109 214.868 452.088C214.385 453.068 213.707 453.922 212.882 454.593C210.114 456.753 206.516 456.861 203.625 456.948Z" fill="#2F2E41"/>
<path d="M228.557 427.001H219.141V428.868H228.557V427.001Z" fill="#2F2E41"/>
<path d="M198.837 427.001H189.421V428.868H198.837V427.001Z" fill="#2F2E41"/>
<path d="M167.272 424.698C170.91 418.848 177.312 416.368 183.626 415.765C190.731 415.086 197.598 416.549 204.535 417.971C212.171 419.536 220.252 421 227.945 419.022C231.349 418.181 234.529 416.526 237.246 414.181C239.964 411.836 242.147 408.863 243.633 405.486C246.449 398.896 247.056 391.472 245.351 384.461C243.341 377.015 239.26 370.399 233.648 365.488C222.576 355.373 207.592 350.827 193.181 351.256C178.824 351.651 164.947 356.863 153.518 366.152C142.069 375.776 134.013 389.261 130.664 404.406C127.162 419.427 128.303 435.254 133.916 449.525C137.07 457.34 141.631 464.384 145.15 472.002C148.427 479.094 150.951 487.34 148.912 495.251C148.015 498.78 146.293 502.008 143.908 504.631C141.523 507.253 138.552 509.185 135.276 510.245C132.276 511.085 129.101 510.863 126.229 509.611C123.358 508.359 120.944 506.144 119.352 503.301C116.056 497.749 115.977 490.477 120.926 485.994C122.174 484.845 123.628 483.979 125.199 483.449C126.77 482.919 128.425 482.736 130.065 482.911C131.704 483.085 133.293 483.614 134.735 484.466C136.177 485.317 137.442 486.472 138.452 487.862C140.46 490.648 141.359 494.167 140.954 497.656C140.71 499.419 143.237 500.18 143.483 498.4C144.073 494.71 143.418 490.917 141.634 487.695C139.851 484.473 137.054 482.032 133.742 480.807C130.431 479.582 126.82 479.652 123.552 481.006C120.285 482.359 117.574 484.908 115.901 488.198C112.917 494.192 114.527 501.422 118.316 506.545C120.271 509.275 122.92 511.344 125.948 512.507C128.975 513.67 132.252 513.877 135.386 513.102C142.283 511.401 147.925 505.546 150.578 498.666C153.532 491.006 152.179 482.458 149.299 475.025C146.186 466.991 141.564 459.785 137.909 452.042C134.599 445.046 132.493 437.471 131.69 429.678C130.085 414.03 133.41 398.258 141.139 384.855C149.018 371.66 161.042 361.898 175.054 357.323C188.964 352.55 203.981 352.974 217.635 358.526C230.96 364.134 243.827 376.355 243.672 392.769C243.606 399.78 241.169 406.931 236.141 411.607C230.133 417.196 221.766 417.674 214.212 416.802C206.611 415.924 199.229 413.553 191.595 412.948C184.954 412.422 177.791 412.969 171.862 416.493C169.101 418.137 166.75 420.466 165.008 423.284C164.071 424.79 166.341 426.194 167.272 424.698L167.272 424.698Z" fill="#2F2E41"/>
<path d="M174.716 546.999C174.79 547.18 174.874 547.356 174.967 547.527C175.061 547.706 175.164 547.879 175.276 548.046L195.735 579.5L197.322 581.942L214.01 607.584L230.111 632.338L236.626 642.368C236.801 642.641 236.998 642.898 237.214 643.136C238.222 644.268 239.577 644.975 241.032 645.129H241.199V602.35L239.333 599.479L218.397 567.297L195.913 532.732C194.987 531.311 193.57 530.339 191.975 530.031C190.379 529.722 188.734 530.102 187.4 531.087L180.503 536.202L176.797 538.953C175.625 539.824 174.776 541.105 174.396 542.575C174.016 544.044 174.129 545.609 174.716 546.999V546.999Z" fill="#7030A0"/>
<path d="M171.514 546.231L172.438 548.215L172.448 548.225L172.7 548.753L187.699 580.556C188.544 582.035 189.904 583.097 191.48 583.508C193.056 583.919 194.72 583.646 196.109 582.75L197.08 582.102L197.322 581.942L216.662 568.982C217.352 568.535 217.953 567.947 218.429 567.252C218.905 566.556 219.248 565.766 219.437 564.928C219.626 564.09 219.658 563.221 219.531 562.37C219.404 561.519 219.12 560.703 218.696 559.969L197.453 529.203C195.371 526.188 192.38 524.031 188.984 523.094C185.587 522.157 181.993 522.498 178.804 524.059C178.084 524.405 177.392 524.812 176.732 525.275C173.609 527.479 171.353 530.83 170.391 534.693C169.43 538.556 169.829 542.662 171.514 546.231V546.231Z" fill="#2F2E41"/>
<path d="M281.661 652.078V727.139C281.664 728.87 282.308 730.53 283.454 731.754C284.601 732.978 286.154 733.667 287.775 733.669H300.684C302.304 733.667 303.858 732.978 305.004 731.754C306.15 730.53 306.795 728.87 306.797 727.139V652.078H281.661Z" fill="#7030A0"/>
<path d="M206.422 647.622V649.586C206.424 650.624 206.761 651.629 207.377 652.432C207.992 653.235 208.849 653.787 209.801 653.993C209.932 654.012 210.062 654.042 210.193 654.052C210.333 654.062 210.473 654.072 210.623 654.072H354.511C356.822 654.072 359.037 653.092 360.672 651.348C362.306 649.604 363.226 647.238 363.229 644.771V582.162C363.226 579.694 362.306 577.328 360.672 575.584C359.037 573.84 356.822 572.861 354.511 572.86H248.041C245.732 572.863 243.519 573.844 241.886 575.587C240.254 577.331 239.335 579.696 239.333 582.162V643.136H210.622C209.509 643.136 208.44 643.608 207.653 644.45C206.865 645.291 206.422 646.432 206.422 647.622V647.622Z" fill="white"/>
<path d="M206.422 647.622V649.586C206.424 650.624 206.761 651.629 207.377 652.432C207.992 653.235 208.849 653.787 209.801 653.993C209.932 654.012 210.062 654.042 210.193 654.052C210.333 654.062 210.473 654.072 210.623 654.072H354.511C356.822 654.072 359.037 653.092 360.672 651.348C362.306 649.604 363.226 647.238 363.229 644.771V582.162C363.226 579.694 362.306 577.328 360.672 575.584C359.037 573.84 356.822 572.861 354.511 572.86H248.041C245.732 572.863 243.519 573.844 241.886 575.587C240.254 577.331 239.335 579.696 239.333 582.162V643.136H210.622C209.509 643.136 208.44 643.608 207.653 644.45C206.865 645.291 206.422 646.432 206.422 647.622V647.622ZM208.289 649.586V647.622C208.289 646.961 208.535 646.327 208.973 645.86C209.41 645.392 210.004 645.13 210.623 645.13H241.2V582.162C241.202 580.224 241.924 578.367 243.206 576.997C244.489 575.628 246.228 574.857 248.041 574.854H354.511C356.326 574.855 358.067 575.624 359.352 576.995C360.636 578.365 361.359 580.223 361.362 582.162V644.771C361.359 646.709 360.636 648.568 359.351 649.938C358.067 651.308 356.326 652.078 354.511 652.078H210.622C210.004 652.078 209.41 651.815 208.973 651.348C208.535 650.881 208.289 650.247 208.289 649.586Z" fill="#3F3D56"/>
<path d="M301.28 621.134C305.244 621.134 308.458 617.701 308.458 613.467C308.458 609.233 305.244 605.8 301.28 605.8C297.316 605.8 294.102 609.233 294.102 613.467C294.102 617.701 297.316 621.134 301.28 621.134Z" fill="#6C63FF"/>
<path d="M241.228 644.192H239.361V653.165H241.228V644.192Z" fill="#3F3D56"/>
<path d="M998.85 39.4046H502.161C501.857 39.4046 501.564 39.2752 501.348 39.0449C501.133 38.8146 501.012 38.5022 501.012 38.1765C501.012 37.8508 501.133 37.5385 501.348 37.3081C501.564 37.0778 501.857 36.9485 502.161 36.9485H998.85C999.155 36.9485 999.448 37.0778 999.663 37.3081C999.879 37.5385 1000 37.8508 1000 38.1765C1000 38.5022 999.879 38.8146 999.663 39.0449C999.448 39.2752 999.155 39.4046 998.85 39.4046Z" fill="#EBD4FD"/>
<path d="M545.833 22.2116C551.575 22.2116 556.23 17.2394 556.23 11.1058C556.23 4.97224 551.575 0 545.833 0C540.09 0 535.435 4.97224 535.435 11.1058C535.435 17.2394 540.09 22.2116 545.833 22.2116Z" fill="#7030A0"/>
<path d="M581.751 22.2116C587.494 22.2116 592.149 17.2394 592.149 11.1058C592.149 4.97224 587.494 0 581.751 0C576.009 0 571.354 4.97224 571.354 11.1058C571.354 17.2394 576.009 22.2116 581.751 22.2116Z" fill="#7030A0"/>
<path d="M617.67 22.2116C623.412 22.2116 628.067 17.2394 628.067 11.1058C628.067 4.97224 623.412 0 617.67 0C611.928 0 607.272 4.97224 607.272 11.1058C607.272 17.2394 611.928 22.2116 617.67 22.2116Z" fill="#7030A0"/>
<path d="M596.824 228.751C584.741 228.751 572.93 224.925 562.884 217.754C552.837 210.584 545.007 200.393 540.383 188.47C535.759 176.547 534.549 163.426 536.906 150.769C539.264 138.111 545.082 126.484 553.626 117.358C562.169 108.232 573.055 102.017 584.905 99.4994C596.756 96.9816 609.039 98.2738 620.202 103.213C631.365 108.151 640.906 116.515 647.619 127.246C654.332 137.976 657.915 150.592 657.915 163.498C657.897 180.798 651.454 197.384 640.002 209.618C628.549 221.851 613.021 228.732 596.824 228.751V228.751ZM596.824 100.702C585.196 100.702 573.829 104.385 564.161 111.285C554.493 118.185 546.957 127.992 542.507 139.467C538.058 150.942 536.893 163.568 539.162 175.749C541.43 187.931 547.03 199.12 555.252 207.903C563.474 216.685 573.95 222.666 585.354 225.089C596.759 227.512 608.58 226.268 619.322 221.515C630.065 216.762 639.247 208.713 645.707 198.386C652.167 188.059 655.615 175.918 655.615 163.498C655.598 146.849 649.398 130.888 638.376 119.115C627.354 107.343 612.411 100.721 596.824 100.702V100.702Z" fill="#EBD4FD"/>
<path d="M593.42 555.919C609.11 555.919 621.83 542.333 621.83 525.575C621.83 508.816 609.11 495.23 593.42 495.23C577.73 495.23 565.011 508.816 565.011 525.575C565.011 542.333 577.73 555.919 593.42 555.919Z" fill="#EBD4FD"/>
<path d="M577.639 536.821L577.61 535.687C579.585 535.629 581.326 535.496 582.634 534.475C583.005 534.169 583.31 533.782 583.528 533.339C583.746 532.896 583.873 532.407 583.898 531.908C583.921 531.602 583.878 531.295 583.772 531.011C583.666 530.726 583.5 530.471 583.286 530.267C582.792 529.946 582.226 529.775 581.648 529.769C581.07 529.764 580.501 529.925 580.002 530.235L579.123 530.666L580.808 517.517L581.86 517.671L580.427 528.856C581.013 528.623 581.645 528.551 582.264 528.646C582.883 528.742 583.47 529.001 583.972 529.401C584.309 529.715 584.574 530.109 584.745 530.55C584.916 530.992 584.99 531.47 584.959 531.948C584.928 532.619 584.76 533.275 584.467 533.87C584.173 534.465 583.762 534.984 583.261 535.391C581.579 536.703 579.395 536.769 577.639 536.821Z" fill="#2F2E41"/>
<path d="M592.779 518.636H587.061V519.77H592.779V518.636Z" fill="#2F2E41"/>
<path d="M574.731 518.636H569.013V519.77H574.731V518.636Z" fill="#2F2E41"/>
<path d="M589.144 505.978C582.29 511.002 571.763 508.232 568.657 499.743C567.898 497.678 567.56 495.464 567.664 493.248C567.769 491.032 568.313 488.865 569.261 486.891C570.396 484.824 571.943 483.048 573.79 481.688C575.638 480.328 577.742 479.417 579.955 479.019C585.833 477.718 591.91 479.465 597.282 482.003C597.476 482.111 597.696 482.152 597.913 482.123C598.13 482.093 598.332 481.992 598.494 481.836C603.626 477.466 611.082 479.363 616.343 482.418C622.034 485.831 626.846 490.694 630.352 496.573C633.928 502.403 636.162 509.053 636.873 515.981C637.523 523.468 636.378 531.008 633.546 537.892C630.714 544.776 626.289 550.777 620.686 555.329C619.668 556.143 620.664 557.998 621.696 557.174C627.353 552.709 631.894 546.824 634.918 540.041C637.941 533.257 639.354 525.782 639.032 518.276C638.71 510.771 636.663 503.466 633.071 497.006C629.479 490.546 624.453 485.13 618.437 481.236C612.126 477.182 603.33 475.003 597.08 480.325L598.292 480.158C592.918 477.62 587.031 475.828 581.109 476.661C576.079 477.368 571.137 479.944 568.253 484.532C566.986 486.638 566.155 489.009 565.815 491.486C565.475 493.962 565.635 496.488 566.283 498.894C566.915 501.271 568.056 503.46 569.615 505.286C571.175 507.113 573.11 508.527 575.268 509.418C577.687 510.45 580.303 510.843 582.894 510.566C585.485 510.288 587.975 509.347 590.154 507.822C591.208 507.049 590.209 505.197 589.144 505.978V505.978Z" fill="#2F2E41"/>
<path d="M595.407 203.267C610.895 203.267 623.45 189.856 623.45 173.313C623.45 156.77 610.895 143.36 595.407 143.36C579.92 143.36 567.364 156.77 567.364 173.313C567.364 189.856 579.92 203.267 595.407 203.267Z" fill="#EBD4FD"/>
<path d="M588.788 185.887C586.97 185.833 584.708 185.766 582.965 184.406C582.446 183.984 582.02 183.447 581.716 182.831C581.412 182.215 581.238 181.535 581.205 180.839C581.174 180.345 581.25 179.85 581.427 179.392C581.605 178.934 581.879 178.526 582.228 178.2C582.748 177.786 583.356 177.518 583.997 177.419C584.639 177.321 585.293 177.395 585.9 177.636L584.416 166.05L585.506 165.891L587.251 179.511L586.341 179.065C585.823 178.743 585.234 178.576 584.635 178.582C584.037 178.588 583.45 178.766 582.938 179.097C582.717 179.31 582.545 179.574 582.435 179.869C582.325 180.164 582.281 180.482 582.304 180.798C582.331 181.316 582.462 181.821 582.688 182.28C582.914 182.739 583.23 183.14 583.614 183.457C584.97 184.516 586.773 184.652 588.819 184.713L588.788 185.887Z" fill="#2F2E41"/>
<path d="M579.028 167.05H573.105V168.224H579.028V167.05Z" fill="#2F2E41"/>
<path d="M597.723 167.05H591.801V168.224H597.723V167.05Z" fill="#2F2E41"/>
<path d="M598.009 151.171C594.602 155.931 589.193 159.123 583.476 158.367C580.824 158.076 578.326 156.897 576.339 154.997C574.352 153.098 572.978 150.576 572.415 147.792C571.923 145.049 572.056 142.22 572.802 139.543C573.548 136.866 574.885 134.419 576.702 132.41C580.555 128.081 586.07 125.753 591.528 124.954C596.689 124.306 601.921 124.829 606.88 126.489C611.839 128.149 616.414 130.909 620.305 134.588C624.231 138.195 627.365 142.682 629.484 147.729C631.525 152.739 632.497 158.172 632.329 163.632C632.194 169.064 631.028 174.409 628.903 179.346C626.779 184.282 623.739 188.707 619.967 192.353C619.019 193.239 618.026 194.07 616.993 194.841C616.122 195.493 615.297 193.967 616.161 193.319C620.004 190.321 623.24 186.525 625.677 182.158C628.113 177.791 629.698 172.944 630.338 167.907C631.055 162.859 630.735 157.705 629.401 152.803C628.067 147.9 625.75 143.366 622.611 139.516C619.442 135.656 615.584 132.51 611.264 130.26C606.943 128.011 602.246 126.704 597.448 126.415C587.798 125.966 575.739 130.567 573.934 142.04C573.124 147.183 574.924 152.588 579.336 155.163C581.672 156.418 584.304 156.904 586.899 156.559C589.494 156.214 591.934 155.054 593.911 153.225C594.905 152.357 595.802 151.369 596.585 150.282C597.221 149.393 598.654 150.27 598.009 151.171V151.171Z" fill="#2F2E41"/>
<path d="M596.824 400.884C584.741 400.884 572.93 397.057 562.884 389.887C552.837 382.717 545.007 372.526 540.383 360.603C535.759 348.679 534.549 335.559 536.906 322.901C539.264 310.243 545.082 298.616 553.626 289.49C562.169 280.365 573.055 274.15 584.905 271.632C596.756 269.114 609.039 270.406 620.202 275.345C631.365 280.284 640.906 288.647 647.619 299.378C654.332 310.109 657.915 322.725 657.915 335.631C657.897 352.931 651.454 369.517 640.002 381.75C628.549 393.983 613.021 400.864 596.824 400.884V400.884ZM596.824 272.834C585.196 272.834 573.829 276.517 564.161 283.417C554.493 290.318 546.957 300.125 542.507 311.6C538.058 323.074 536.893 335.701 539.162 347.882C541.43 360.063 547.03 371.253 555.252 380.035C563.474 388.817 573.95 394.798 585.354 397.221C596.759 399.644 608.58 398.401 619.322 393.648C630.065 388.895 639.247 380.846 645.707 370.519C652.167 360.192 655.615 348.051 655.615 335.631C655.598 318.982 649.398 303.02 638.376 291.248C627.354 279.475 612.411 272.853 596.824 272.834V272.834Z" fill="#EBD4FD"/>
<path d="M596.824 584.561C584.741 584.561 572.93 580.735 562.884 573.564C552.837 566.394 545.007 556.203 540.383 544.28C535.759 532.356 534.549 519.236 536.907 506.578C539.264 493.921 545.082 482.294 553.626 473.168C562.17 464.042 573.055 457.827 584.906 455.309C596.756 452.792 609.039 454.084 620.202 459.023C631.365 463.962 640.906 472.325 647.619 483.056C654.332 493.787 657.915 506.403 657.915 519.309C657.896 536.609 651.454 553.195 640.001 565.428C628.549 577.661 613.021 584.542 596.824 584.561ZM596.824 456.512C585.196 456.512 573.829 460.195 564.161 467.095C554.493 473.995 546.957 483.802 542.508 495.277C538.058 506.752 536.893 519.378 539.162 531.559C541.43 543.741 547.03 554.93 555.252 563.712C563.474 572.495 573.949 578.476 585.354 580.899C596.758 583.322 608.579 582.078 619.322 577.325C630.065 572.572 639.247 564.524 645.707 554.197C652.167 543.87 655.615 531.729 655.615 519.309C655.598 502.66 649.398 486.698 638.376 474.926C627.355 463.153 612.411 456.531 596.824 456.512Z" fill="#EBD4FD"/>
<path d="M592.666 372.856C608.689 372.856 621.678 358.981 621.678 341.867C621.678 324.752 608.689 310.878 592.666 310.878C576.642 310.878 563.653 324.752 563.653 341.867C563.653 358.981 576.642 372.856 592.666 372.856Z" fill="#EBD4FD"/>
<path d="M583.011 354.875C581.13 354.82 578.79 354.75 576.986 353.343C576.449 352.907 576.008 352.351 575.694 351.713C575.379 351.076 575.199 350.373 575.166 349.653C575.133 349.142 575.212 348.629 575.395 348.155C575.579 347.682 575.863 347.26 576.224 346.923C576.761 346.495 577.391 346.217 578.054 346.115C578.718 346.013 579.395 346.09 580.023 346.339L578.488 334.353L579.615 334.188L581.42 348.279L580.479 347.817C579.943 347.484 579.334 347.312 578.714 347.318C578.095 347.324 577.488 347.508 576.959 347.851C576.73 348.071 576.552 348.344 576.438 348.649C576.324 348.954 576.278 349.283 576.303 349.61C576.331 350.146 576.466 350.669 576.699 351.144C576.933 351.618 577.26 352.034 577.658 352.362C579.061 353.456 580.926 353.598 583.042 353.661L583.011 354.875Z" fill="#2F2E41"/>
<path d="M572.913 335.387H566.786V336.602H572.913V335.387Z" fill="#2F2E41"/>
<path d="M592.255 335.387H586.127V336.602H592.255V335.387Z" fill="#2F2E41"/>
<path d="M594.126 373.823L614.194 365.503C617.475 364.143 620.775 362.824 624.039 361.416C625.437 360.896 626.725 360.085 627.828 359.031C628.789 357.944 629.444 356.591 629.718 355.126C630.264 351.899 630.439 348.613 630.238 345.341C630.2 341.833 629.929 338.333 629.429 334.865C628.553 328.35 626.495 322.079 623.371 316.406C617.743 306.543 608.047 299.122 596.894 299.715C591.653 299.909 586.637 302.038 582.701 305.739C582.301 306.249 581.852 306.714 581.361 307.126C581.02 307.262 580.649 307.289 580.294 307.202C579.826 307.17 579.357 307.145 578.889 307.128C577.261 307.055 575.631 307.128 574.016 307.347C571.072 307.686 568.281 308.924 565.978 310.912C564.97 311.768 564.13 312.828 563.506 314.031C562.881 315.234 562.485 316.557 562.34 317.924C562.262 319.192 562.459 320.463 562.914 321.638C563.369 322.813 564.071 323.86 564.965 324.699C567.359 326.854 570.775 326.097 573.647 325.934L584.167 325.339L589.498 325.037C590.595 324.975 590.592 326.798 589.498 326.86L575.33 327.662C573.036 327.899 570.732 327.998 568.428 327.961C566.677 327.876 565.005 327.158 563.687 325.924C562.484 324.743 561.587 323.249 561.085 321.587C560.583 319.926 560.492 318.154 560.822 316.444C561.259 314.606 562.052 312.887 563.151 311.397C564.249 309.907 565.627 308.679 567.197 307.794C571.342 305.297 576.293 305.058 580.93 305.427L580.327 305.694C585.573 299.68 593.609 297.14 601.154 298.029C609.119 298.967 616.204 303.714 621.294 310.204C626.969 317.441 630.062 326.464 631.264 335.743C631.89 340.752 632.096 345.812 631.88 350.86C631.889 353.087 631.532 355.298 630.826 357.393C630.021 359.432 628.564 361.1 626.716 362.1C624.597 363.192 622.418 364.148 620.192 364.962L612.799 368.027L598.277 374.048L594.58 375.58C593.556 376.005 593.112 374.243 594.126 373.823V373.823Z" fill="#2F2E41"/>
<path d="M616.861 302.458C616.861 300.595 617.378 298.775 618.347 297.226C619.316 295.677 620.693 294.47 622.305 293.757C623.916 293.044 625.689 292.858 627.399 293.221C629.109 293.584 630.681 294.481 631.914 295.799C633.147 297.116 633.987 298.794 634.327 300.621C634.667 302.448 634.493 304.341 633.825 306.062C633.158 307.783 632.028 309.254 630.578 310.289C629.128 311.324 627.423 311.876 625.679 311.876C623.341 311.874 621.1 310.88 619.447 309.115C617.794 307.349 616.864 304.955 616.861 302.458V302.458ZM618.568 302.458C618.568 303.96 618.985 305.429 619.766 306.678C620.548 307.927 621.658 308.9 622.958 309.475C624.257 310.05 625.687 310.201 627.066 309.908C628.445 309.615 629.713 308.891 630.707 307.829C631.701 306.767 632.379 305.413 632.653 303.94C632.927 302.467 632.787 300.939 632.248 299.552C631.71 298.164 630.799 296.977 629.629 296.143C628.46 295.308 627.085 294.863 625.679 294.863C623.794 294.865 621.986 295.666 620.653 297.09C619.32 298.514 618.57 300.444 618.568 302.458Z" fill="#2F2E41"/>
<path d="M954.672 190.888H753.896C751.388 190.888 748.983 189.824 747.209 187.929C745.436 186.035 744.439 183.466 744.439 180.787C744.439 178.108 745.436 175.539 747.209 173.644C748.983 171.75 751.388 170.686 753.896 170.686H954.672C955.914 170.686 957.144 170.947 958.291 171.455C959.439 171.962 960.481 172.706 961.359 173.644C962.237 174.582 962.934 175.696 963.409 176.921C963.885 178.147 964.129 179.46 964.129 180.787C964.129 182.113 963.885 183.427 963.409 184.652C962.934 185.878 962.237 186.991 961.359 187.929C960.481 188.867 959.439 189.611 958.291 190.119C957.144 190.627 955.914 190.888 954.672 190.888V190.888Z" fill="#EBD4FD"/>
<path d="M889.929 156.311H753.896C751.388 156.311 748.983 155.247 747.209 153.353C745.436 151.458 744.439 148.889 744.439 146.21C744.439 143.531 745.436 140.962 747.209 139.068C748.983 137.173 751.388 136.109 753.896 136.109H889.929C891.171 136.109 892.401 136.37 893.548 136.878C894.696 137.386 895.738 138.13 896.616 139.068C897.495 140.006 898.191 141.119 898.666 142.345C899.142 143.57 899.386 144.884 899.386 146.21C899.386 147.537 899.142 148.85 898.666 150.076C898.191 151.301 897.495 152.415 896.616 153.353C895.738 154.291 894.696 155.035 893.548 155.542C892.401 156.05 891.171 156.311 889.929 156.311V156.311Z" fill="#EBD4FD"/>
<path d="M954.672 363.02H753.896C751.388 363.02 748.983 361.956 747.209 360.062C745.436 358.167 744.439 355.598 744.439 352.919C744.439 350.24 745.436 347.671 747.209 345.777C748.983 343.882 751.388 342.818 753.896 342.818H954.672C957.18 342.818 959.586 343.882 961.359 345.777C963.133 347.671 964.129 350.24 964.129 352.919C964.129 355.598 963.133 358.167 961.359 360.062C959.586 361.956 957.18 363.02 954.672 363.02Z" fill="#EBD4FD"/>
<path d="M889.929 328.443H753.896C751.39 328.441 748.987 327.375 747.216 325.481C745.445 323.587 744.45 321.019 744.45 318.342C744.45 315.665 745.445 313.098 747.216 311.204C748.987 309.31 751.39 308.244 753.896 308.241H889.929C892.437 308.241 894.843 309.305 896.616 311.2C898.39 313.094 899.386 315.663 899.386 318.342C899.386 321.021 898.39 323.591 896.616 325.485C894.843 327.379 892.437 328.443 889.929 328.443V328.443Z" fill="#EBD4FD"/>
<path d="M954.672 546.698H753.896C751.388 546.698 748.983 545.634 747.209 543.739C745.436 541.845 744.439 539.276 744.439 536.597C744.439 533.918 745.436 531.349 747.209 529.454C748.983 527.56 751.388 526.496 753.896 526.496H954.672C957.18 526.496 959.586 527.56 961.359 529.454C963.133 531.349 964.129 533.918 964.129 536.597C964.129 539.276 963.133 541.845 961.359 543.739C959.586 545.634 957.18 546.698 954.672 546.698Z" fill="#EBD4FD"/>
<path d="M889.929 512.121H753.896C751.388 512.121 748.983 511.057 747.209 509.163C745.436 507.268 744.439 504.699 744.439 502.02C744.439 499.341 745.436 496.772 747.209 494.878C748.983 492.983 751.388 491.919 753.896 491.919H889.929C892.437 491.919 894.843 492.983 896.616 494.878C898.39 496.772 899.386 499.341 899.386 502.02C899.386 504.699 898.39 507.268 896.616 509.163C894.843 511.057 892.437 512.121 889.929 512.121Z" fill="#EBD4FD"/>
<path d="M439.202 770H1.14974C0.844812 770 0.55237 769.871 0.336751 769.64C0.121132 769.41 0 769.098 0 768.772C0 768.446 0.121132 768.134 0.336751 767.904C0.55237 767.673 0.844812 767.544 1.14974 767.544H439.202C439.507 767.544 439.799 767.673 440.015 767.904C440.23 768.134 440.351 768.446 440.351 768.772C440.351 769.098 440.23 769.41 440.015 769.64C439.799 769.871 439.507 770 439.202 770Z" fill="#3F3D56"/>
</g>
<defs>
<clipPath id="clip0_2954_1527">
<rect width="1000" height="770" fill="white"/>
</clipPath>
</defs>
</svg>
