<svg width="905" height="588" viewBox="0 0 905 588" fill="none" xmlns="http://www.w3.org/2000/svg">
<g clip-path="url(#clip0_2982_1772)">
<path d="M883.038 359.027H851.235C850.555 359.029 849.884 358.876 849.272 358.582C848.66 358.287 848.122 357.857 847.7 357.325C847.283 356.806 846.988 356.2 846.839 355.551C846.689 354.902 846.689 354.228 846.837 353.579C849.824 340.395 849.68 326.694 846.417 313.575C846.165 312.571 846.268 311.512 846.71 310.576C847.152 309.64 847.904 308.887 848.84 308.444C862.124 302.226 874.323 302.388 885.096 308.924C885.661 309.262 886.146 309.719 886.516 310.264C886.886 310.808 887.133 311.426 887.239 312.076C889.523 326.338 889.611 340.867 887.499 355.156C887.349 356.231 886.815 357.216 885.995 357.928C885.174 358.64 884.124 359.03 883.038 359.027Z" fill="#7030A0"/>
<path d="M882.555 338.192H858.238C857.634 338.191 857.055 337.95 856.628 337.522C856.201 337.095 855.961 336.515 855.961 335.911C855.961 335.307 856.201 334.727 856.628 334.3C857.055 333.872 857.634 333.631 858.238 333.63H882.555C883.159 333.631 883.738 333.872 884.165 334.3C884.592 334.727 884.832 335.307 884.832 335.911C884.832 336.515 884.592 337.095 884.165 337.522C883.738 337.95 883.159 338.191 882.555 338.192V338.192Z" fill="white"/>
<path d="M882.555 330.192H858.238C857.634 330.191 857.055 329.95 856.628 329.522C856.201 329.095 855.961 328.515 855.961 327.911C855.961 327.307 856.201 326.727 856.628 326.3C857.055 325.872 857.634 325.631 858.238 325.63H882.555C883.159 325.631 883.738 325.872 884.165 326.3C884.592 326.727 884.832 327.307 884.832 327.911C884.832 328.515 884.592 329.095 884.165 329.522C883.738 329.95 883.159 330.191 882.555 330.192V330.192Z" fill="white"/>
<path d="M246.148 355.84C339.484 355.84 415.148 280.176 415.148 186.84C415.148 93.5037 339.484 17.8398 246.148 17.8398C152.812 17.8398 77.1479 93.5037 77.1479 186.84C77.1479 280.176 152.812 355.84 246.148 355.84Z" fill="#F0EFFF"/>
<path d="M442.148 350.84C459.821 350.84 474.148 336.513 474.148 318.84C474.148 301.167 459.821 286.84 442.148 286.84C424.475 286.84 410.148 301.167 410.148 318.84C410.148 336.513 424.475 350.84 442.148 350.84Z" fill="#F0EFFF"/>
<path d="M603.148 422.84C610.328 422.84 616.148 417.02 616.148 409.84C616.148 402.66 610.328 396.84 603.148 396.84C595.968 396.84 590.148 402.66 590.148 409.84C590.148 417.02 595.968 422.84 603.148 422.84Z" fill="#F2F2F2"/>
<path d="M703.522 460.97C698.04 419.078 671.792 377.936 631.721 364.548C647.766 407.6 648.065 454.94 632.567 498.192C626.529 514.85 618.079 532.75 623.966 549.463C627.628 559.862 636.476 567.78 646.341 572.703C656.206 577.626 667.134 579.932 677.926 582.192L680.058 583.932C696.918 545.193 709.004 502.862 703.522 460.97Z" fill="#40ED7B" fill-opacity="0.28"/>
<path d="M631.329 365.343C654.781 391.284 669.463 423.955 673.29 458.716C674.064 466.168 674.201 473.795 672.618 481.155C671.02 488.317 667.533 494.921 662.52 500.28C657.946 505.371 652.677 510.048 649.42 516.162C645.987 522.607 645.9 529.905 648.323 536.711C651.286 545.039 657.065 551.805 662.947 558.226C669.477 565.355 676.373 572.656 679.19 582.144C679.531 583.294 681.295 582.697 680.954 581.549C676.053 565.041 659.938 555.75 652.186 540.902C648.569 533.974 647.018 525.914 650.32 518.555C653.208 512.12 658.636 507.292 663.312 502.178C668.222 496.808 671.976 490.926 673.883 483.845C675.835 476.602 675.995 468.954 675.415 461.515C673.972 444.656 669.888 428.128 663.312 412.537C655.905 394.702 645.502 378.266 632.552 363.939C631.75 363.053 630.532 364.463 631.329 365.343H631.329Z" fill="white"/>
<path d="M672.716 447.45C678.461 446.017 683.509 442.587 686.959 437.775C690.409 432.963 692.036 427.081 691.55 421.18C691.447 419.986 689.587 420.09 689.69 421.285C690.153 426.779 688.637 432.258 685.415 436.732C682.194 441.207 677.478 444.383 672.121 445.686C670.957 445.97 671.559 447.733 672.716 447.45Z" fill="white"/>
<path d="M665.179 498.004C654.747 491.865 647.013 482.02 643.517 470.432C643.172 469.284 641.408 469.88 641.752 471.027C645.413 483.079 653.483 493.308 664.352 499.672C665.389 500.278 666.21 498.606 665.179 498.004V498.004Z" fill="white"/>
<path d="M654.189 396.477C652.082 397.495 649.755 397.974 647.417 397.87C645.079 397.766 642.803 397.084 640.794 395.883C639.766 395.264 638.946 396.937 639.968 397.552C642.193 398.868 644.707 399.619 647.29 399.739C649.873 399.859 652.446 399.345 654.784 398.242C655.013 398.156 655.201 397.986 655.31 397.767C655.418 397.548 655.439 397.296 655.369 397.062C655.289 396.829 655.12 396.636 654.899 396.527C654.678 396.417 654.423 396.4 654.189 396.477V396.477Z" fill="white"/>
<path d="M510.323 440.212C510.954 440.617 511.585 441.021 512.217 441.442C520.673 446.925 528.67 453.086 536.128 459.865C536.713 460.38 537.298 460.91 537.867 461.441C555.662 477.963 570.234 497.646 580.844 519.488C585.058 528.183 588.604 537.186 591.452 546.42C595.385 559.172 598.634 573.311 606.323 583.713C607.113 584.807 607.97 585.851 608.889 586.84L677.769 586.399C677.925 586.319 678.082 586.255 678.239 586.176L680.99 586.284C680.876 585.797 680.748 585.295 680.634 584.809C680.569 584.526 680.489 584.244 680.425 583.961C680.377 583.773 680.328 583.585 680.295 583.412C680.28 583.349 680.263 583.287 680.247 583.24C680.215 583.067 680.166 582.91 680.134 582.753C679.424 579.945 678.694 577.136 677.943 574.328C677.943 574.312 677.943 574.312 677.927 574.296C672.148 552.913 664.532 531.823 653.958 512.56C653.64 511.981 653.322 511.386 652.972 510.807C648.158 502.15 642.644 493.902 636.485 486.144C633.099 481.907 629.501 477.844 625.705 473.97C615.875 463.981 604.536 455.6 592.102 449.134C567.314 436.249 538.681 431.434 512.33 439.571C511.656 439.779 510.996 439.988 510.323 440.212Z" fill="#58F08B" fill-opacity="0.31"/>
<path d="M510.483 441.086C544.826 447.678 576.219 464.925 600.203 490.375C605.308 495.859 610.009 501.866 613.177 508.696C616.213 515.376 617.405 522.749 616.628 530.046C616.041 536.865 614.651 543.771 615.731 550.614C616.87 557.826 621.195 563.706 627.227 567.682C634.607 572.547 643.295 574.47 651.857 576.056C661.363 577.816 671.264 579.494 679.226 585.374C680.191 586.086 681.24 584.548 680.277 583.836C666.424 573.606 647.963 575.89 632.835 568.702C625.776 565.348 619.684 559.847 617.89 551.983C616.322 545.106 617.75 537.983 618.404 531.084C619.091 523.84 618.546 516.884 615.807 510.082C613.004 503.124 608.527 496.921 603.585 491.331C592.283 478.738 579.071 468 564.434 459.512C547.782 449.731 529.579 442.871 510.614 439.228C509.44 439.003 509.317 440.862 510.483 441.086Z" fill="white"/>
<path d="M592.963 481.726C596.686 477.122 598.652 471.345 598.51 465.425C598.367 459.506 596.125 453.83 592.184 449.411C591.383 448.52 589.96 449.722 590.762 450.614C594.44 454.722 596.528 460.01 596.649 465.522C596.771 471.035 594.918 476.409 591.425 480.675C590.667 481.603 592.209 482.648 592.963 481.726Z" fill="white"/>
<path d="M617.382 526.627C605.357 528.007 593.253 524.803 583.485 517.655C582.518 516.946 581.469 518.484 582.435 519.192C592.614 526.612 605.216 529.92 617.726 528.457C618.918 528.317 618.567 526.488 617.382 526.627V526.627Z" fill="white"/>
<path d="M547.48 452.181C546.41 454.263 544.841 456.046 542.911 457.371C540.982 458.696 538.754 459.521 536.428 459.771C535.234 459.897 535.586 461.726 536.772 461.601C539.341 461.312 541.801 460.398 543.935 458.939C546.07 457.48 547.815 455.521 549.018 453.232C549.149 453.026 549.197 452.777 549.152 452.537C549.106 452.296 548.971 452.082 548.774 451.938C548.57 451.8 548.319 451.748 548.077 451.793C547.835 451.839 547.62 451.978 547.48 452.181H547.48Z" fill="white"/>
<path d="M840.691 297.249L831.376 207.086L828.917 169.977L854.99 165.263C854.99 165.263 858.894 190.773 862.309 205.744C865.68 220.516 857.819 295.27 857.611 297.241C859.526 298.953 860.875 301.207 861.482 303.703C862.088 306.199 861.922 308.82 861.007 311.22C860.091 313.62 858.468 315.685 856.353 317.142C854.238 318.6 851.73 319.381 849.161 319.382C846.593 319.383 844.084 318.605 841.968 317.149C839.851 315.694 838.227 313.63 837.308 311.231C836.39 308.832 836.222 306.211 836.826 303.714C837.43 301.218 838.778 298.963 840.691 297.249V297.249Z" fill="#FFB8B8"/>
<path d="M734.148 574.092H720.884L714.574 522.932L734.15 522.933L734.148 574.092Z" fill="#FFB6B6"/>
<path d="M737.53 586.949L694.763 586.948V586.407C694.763 581.992 696.517 577.758 699.639 574.636C702.76 571.515 706.994 569.761 711.409 569.761H711.41L719.222 563.834L733.798 569.762L737.531 569.762L737.53 586.949Z" fill="#2F2E41"/>
<path d="M851.045 574.092H837.782L831.472 522.932L851.048 522.933L851.045 574.092Z" fill="#FFB6B6"/>
<path d="M854.428 586.949L811.661 586.948V586.407C811.661 581.992 813.415 577.758 816.537 574.636C819.658 571.515 823.892 569.761 828.307 569.761H828.308L836.12 563.834L850.696 569.762L854.429 569.762L854.428 586.949Z" fill="#2F2E41"/>
<path d="M830.872 300.281L842.028 406.262C842.028 406.262 856.879 512.379 854.09 527.021C851.301 541.663 854.787 543.755 854.787 543.755L829.339 541.942C829.339 541.942 830.036 532.878 825.853 528.695C821.669 524.511 823.761 511.961 823.761 511.961L774.396 339.327L744.414 429.968C744.414 429.968 739.533 529.674 738.836 531.068C738.139 532.462 736.047 551.288 736.047 551.288H710.249C710.249 551.288 713.735 540.132 708.855 536.646C703.974 533.16 699.791 535.949 703.974 529.674C708.158 523.398 709.552 515.729 708.158 512.243C706.763 508.756 706.763 494.812 706.763 494.812C706.763 494.812 708.855 306.556 720.708 300.281C732.561 294.006 830.872 300.281 830.872 300.281Z" fill="#342A63"/>
<path d="M778.04 85.6977C793.194 85.6977 805.479 73.413 805.479 58.259C805.479 43.105 793.194 30.8203 778.04 30.8203C762.886 30.8203 750.602 43.105 750.602 58.259C750.602 73.413 762.886 85.6977 778.04 85.6977Z" fill="#FFB8B8"/>
<path d="M859.385 179.647L832.399 189.325L824.18 192.27L818.181 115.644L838.769 126.563C838.804 126.589 838.834 126.619 838.86 126.654C842.426 130.592 845.41 135.019 847.722 139.802C859.013 162.756 859.385 179.647 859.385 179.647Z" fill="#7030A0"/>
<path d="M673.48 290.776C673.48 290.776 700.908 205.557 701.388 204.535C704.98 177.255 715.312 165.221 716.861 166.527L743.529 175.766C743.529 175.766 735.597 200.885 730.226 215.805C725.094 230.062 689.948 295.885 688.961 297.605C690.021 299.944 690.346 302.551 689.892 305.079C689.438 307.607 688.227 309.938 686.42 311.763C684.613 313.588 682.294 314.822 679.77 315.301C677.247 315.779 674.637 315.481 672.287 314.444C669.937 313.407 667.957 311.682 666.609 309.495C665.261 307.309 664.608 304.764 664.738 302.199C664.867 299.634 665.772 297.168 667.333 295.128C668.894 293.089 671.038 291.571 673.481 290.776H673.48Z" fill="#FFB8B8"/>
<path d="M756.34 120.579C756.34 120.579 733.251 109.263 724.296 131.488C718.431 146.476 715.654 153.014 711.738 168.625C711.738 168.625 735.273 172.156 742.82 185.456L756.34 120.579Z" fill="#7030A0"/>
<path d="M840.355 311.832C787.216 322.806 716.797 303.939 716.797 303.939L735.582 222.51L728.903 137.292C728.088 126.871 734.023 117.103 743.257 113.641L756.007 108.865L766.546 93.7773L796.65 94.765L808.684 110.605L818.181 115.644L838.769 126.563L838.86 126.608V126.654L832.399 189.325L828.502 227.113C828.502 227.113 840.337 269.613 837.908 275.25C835.48 280.877 837.591 278.158 838.18 281.167C838.769 284.176 840.572 284.366 840.844 290.292C841.125 296.21 840.355 311.832 840.355 311.832Z" fill="#7030A0"/>
<path d="M807.806 48.4882C805.638 46.3491 808.902 40.6859 808.285 37.703C807.578 34.283 803.81 34.1829 802.911 30.8083C801.943 27.178 798.075 25.2017 794.499 24.0512C785.331 21.1178 775.55 20.6698 766.152 22.7528C761.993 23.7683 757.898 25.0298 753.889 26.5305C751.121 27.5046 753.79 24.8539 751.022 25.828C749.974 26.0616 749.05 26.675 748.427 27.5499C747.93 28.4907 748.601 29.9953 749.648 29.8047C746.269 31.2949 742.89 32.785 739.51 34.2751C741.406 36.2603 743.301 38.2455 745.196 40.2308C742.502 39.464 739.63 42.6762 740.692 45.2679C741.119 46.0861 741.739 46.7882 742.498 47.3136C743.257 47.8389 744.132 48.1719 745.048 48.2838C748.092 48.8761 745.783 51.7727 748.884 51.7163C751.984 51.6599 773.603 45.3048 775.11 48.0146C776.183 49.9442 776.065 52.5001 777.598 54.09C779.558 56.1239 782.982 55.3801 785.477 54.0559C787.973 52.7318 790.503 50.9119 793.311 51.2294C796.241 51.5608 798.458 56.9766 799.18 59.8364C799.902 62.6963 799.446 65.7053 798.986 68.6189C798.383 72.4453 792.343 76.2715 791.739 80.0978C798.443 81.9518 805.635 76.0529 808.285 65.7947C808.021 59.31 812.426 53.0465 807.806 48.4882Z" fill="#2F2E41"/>
<path d="M381.247 404.843C300.473 404.847 230.194 344.591 219.812 262.406L221.796 262.155C232.05 343.326 301.473 402.838 381.249 402.843C388.027 402.843 394.798 402.416 401.522 401.564C489.508 390.449 552.046 309.825 540.931 221.839L542.916 221.588C554.169 310.667 490.853 392.295 401.773 403.548C394.965 404.41 388.109 404.842 381.247 404.843Z" fill="#342A63"/>
<path d="M385.585 438.293H353.781C353.101 438.294 352.43 438.142 351.818 437.847C351.206 437.552 350.669 437.122 350.246 436.59C349.829 436.071 349.535 435.465 349.385 434.816C349.236 434.167 349.235 433.493 349.383 432.844C352.401 419.525 352.223 405.681 348.863 392.443C348.634 391.529 348.699 390.566 349.05 389.691C349.4 388.816 350.018 388.073 350.815 387.57C361.817 380.754 373.798 380.967 387.443 388.222C388.063 388.548 388.599 389.014 389.01 389.582C389.421 390.15 389.695 390.805 389.811 391.497C392.07 405.71 392.149 420.184 390.045 434.421C389.895 435.496 389.361 436.481 388.541 437.193C387.721 437.905 386.671 438.296 385.585 438.293V438.293Z" fill="#7030A0"/>
<path d="M240.585 268.292H208.781C208.101 268.294 207.43 268.141 206.818 267.846C206.206 267.551 205.669 267.122 205.246 266.59C204.829 266.071 204.535 265.464 204.385 264.816C204.236 264.167 204.235 263.493 204.384 262.844C207.413 249.479 207.222 235.585 203.828 222.308C203.614 221.434 203.666 220.515 203.977 219.671C204.289 218.826 204.847 218.094 205.578 217.57C221.931 205.808 234.81 206.149 243.857 218.586C244.265 219.152 244.536 219.806 244.649 220.495C247.066 235.027 247.2 249.847 245.045 264.421C244.895 265.496 244.361 266.481 243.541 267.193C242.721 267.905 241.671 268.295 240.585 268.292V268.292Z" fill="#CCCCCC"/>
<path d="M370.725 408.443H359.784C359.18 408.442 358.601 408.201 358.174 407.773C357.747 407.346 357.508 406.766 357.508 406.162C357.508 405.558 357.747 404.978 358.174 404.551C358.601 404.123 359.18 403.882 359.784 403.881H370.725C371.33 403.881 371.91 404.121 372.338 404.549C372.765 404.977 373.006 405.557 373.006 406.162C373.006 406.767 372.765 407.347 372.338 407.775C371.91 408.203 371.33 408.443 370.725 408.443Z" fill="white"/>
<path d="M384.102 417.457H359.784C359.18 417.455 358.601 417.215 358.174 416.787C357.747 416.359 357.508 415.78 357.508 415.176C357.508 414.571 357.747 413.992 358.174 413.564C358.601 413.137 359.18 412.896 359.784 412.895H384.102C384.706 412.896 385.285 413.137 385.712 413.564C386.138 413.992 386.378 414.571 386.378 415.176C386.378 415.78 386.138 416.359 385.712 416.787C385.285 417.215 384.706 417.455 384.102 417.457Z" fill="white"/>
<path d="M230.725 236.443H219.784C219.18 236.442 218.601 236.201 218.174 235.773C217.747 235.346 217.508 234.766 217.508 234.162C217.508 233.558 217.747 232.978 218.174 232.551C218.601 232.123 219.18 231.882 219.784 231.881H230.725C231.329 231.882 231.908 232.123 232.335 232.551C232.761 232.978 233.001 233.558 233.001 234.162C233.001 234.766 232.761 235.346 232.335 235.773C231.908 236.201 231.329 236.442 230.725 236.443V236.443Z" fill="white"/>
<path d="M230.725 244.443H219.784C219.18 244.442 218.601 244.201 218.174 243.773C217.747 243.346 217.508 242.766 217.508 242.162C217.508 241.558 217.747 240.978 218.174 240.551C218.601 240.123 219.18 239.882 219.784 239.881H230.725C231.329 239.882 231.908 240.123 232.335 240.551C232.761 240.978 233.001 241.558 233.001 242.162C233.001 242.766 232.761 243.346 232.335 243.773C231.908 244.201 231.329 244.442 230.725 244.443V244.443Z" fill="white"/>
<path d="M230.725 252.443H219.784C219.18 252.442 218.601 252.201 218.174 251.773C217.747 251.346 217.508 250.766 217.508 250.162C217.508 249.558 217.747 248.978 218.174 248.551C218.601 248.123 219.18 247.882 219.784 247.881H230.725C231.329 247.882 231.908 248.123 232.335 248.551C232.761 248.978 233.001 249.558 233.001 250.162C233.001 250.766 232.761 251.346 232.335 251.773C231.908 252.201 231.329 252.442 230.725 252.443V252.443Z" fill="white"/>
<path d="M668.626 305.865H566.961C564.237 305.862 561.625 304.778 559.698 302.852C557.771 300.925 556.688 298.313 556.685 295.588V232.972C556.688 230.247 557.771 227.635 559.698 225.709C561.625 223.782 564.237 222.698 566.961 222.695H668.626C671.351 222.698 673.963 223.782 675.89 225.709C677.816 227.635 678.9 230.247 678.903 232.972V295.588C678.9 298.313 677.816 300.925 675.89 302.852C673.963 304.778 671.351 305.862 668.626 305.865V305.865Z" fill="#E6E6E6"/>
<path d="M628.233 297.8H574.108C571.556 297.797 569.109 296.782 567.305 294.978C565.501 293.173 564.486 290.727 564.483 288.175V240.385C564.486 237.833 565.501 235.387 567.305 233.583C569.109 231.778 571.556 230.764 574.108 230.761H661.48C664.032 230.764 666.478 231.778 668.283 233.583C670.087 235.387 671.102 237.834 671.105 240.385V254.929C671.092 266.295 666.571 277.192 658.534 285.229C650.496 293.266 639.599 297.787 628.233 297.8V297.8Z" fill="white"/>
<path d="M652.764 256.929H582.823C582.219 256.929 581.638 256.689 581.211 256.261C580.783 255.833 580.542 255.253 580.542 254.648C580.542 254.043 580.783 253.463 581.211 253.035C581.638 252.608 582.219 252.367 582.823 252.367H652.764C653.369 252.367 653.949 252.608 654.377 253.035C654.805 253.463 655.045 254.043 655.045 254.648C655.045 255.253 654.805 255.833 654.377 256.261C653.949 256.689 653.369 256.929 652.764 256.929V256.929Z" fill="#7030A0"/>
<path d="M593.764 265.943H582.824C582.22 265.942 581.641 265.701 581.214 265.273C580.787 264.846 580.547 264.266 580.547 263.662C580.547 263.058 580.787 262.478 581.214 262.051C581.641 261.623 582.22 261.382 582.824 261.381H593.764C594.368 261.382 594.947 261.623 595.374 262.051C595.801 262.478 596.041 263.058 596.041 263.662C596.041 264.266 595.801 264.846 595.374 265.273C594.947 265.701 594.368 265.942 593.764 265.943V265.943Z" fill="#7030A0"/>
<path d="M613.141 274.956H582.824C582.219 274.956 581.638 274.715 581.211 274.288C580.783 273.86 580.542 273.28 580.542 272.675C580.542 272.07 580.783 271.489 581.211 271.062C581.638 270.634 582.219 270.394 582.824 270.394H613.141C613.746 270.394 614.326 270.634 614.754 271.062C615.182 271.489 615.422 272.07 615.422 272.675C615.422 273.28 615.182 273.86 614.754 274.288C614.326 274.715 613.746 274.956 613.141 274.956V274.956Z" fill="#7030A0"/>
<path d="M553.137 242.955C565.014 242.955 574.643 233.326 574.643 221.449C574.643 209.571 565.014 199.942 553.137 199.942C541.259 199.942 531.631 209.571 531.631 221.449C531.631 233.326 541.259 242.955 553.137 242.955Z" fill="#342A63"/>
<path d="M309.687 57.8495C311.11 50.6231 313.943 43.7478 318.024 37.6163C322.105 31.4848 327.353 26.2171 333.47 22.114C345.823 13.8273 360.962 10.7872 375.556 13.6625C382.783 15.0862 389.658 17.9193 395.789 22C401.921 26.0808 407.188 31.3293 411.292 37.4458C415.395 43.5624 418.253 50.4272 419.703 57.6484C421.153 64.8695 421.167 72.3056 419.743 79.532L417.78 79.1455C420.553 65.0717 417.621 50.4728 409.63 38.5605C401.639 26.6481 389.243 18.3981 375.17 15.6254C361.096 12.8526 346.497 15.7842 334.585 23.7752C322.672 31.7663 314.422 44.1622 311.649 58.236L309.687 57.8495Z" fill="#342A63"/>
<path d="M330.984 93.2338L299.208 94.55C298.529 94.5795 297.852 94.455 297.229 94.1857C296.605 93.9164 296.05 93.5093 295.606 92.995C295.167 92.4941 294.848 91.9004 294.672 91.2584C294.496 90.6164 294.467 89.9429 294.589 89.2884C297.027 75.9915 296.317 62.3083 292.514 49.3356C292.22 48.3435 292.28 47.2802 292.682 46.3271C293.085 45.374 293.806 44.5901 294.722 44.1089C307.737 37.3467 319.933 37.0038 330.967 43.0885C331.546 43.4028 332.049 43.8393 332.441 44.3678C332.833 44.8963 333.106 45.504 333.239 46.1485C336.111 60.3045 336.8 74.8167 335.281 89.181C335.176 90.2618 334.683 91.2679 333.893 92.0131C333.103 92.7582 332.07 93.1919 330.984 93.2338Z" fill="#7030A0"/>
<path d="M329.639 72.4362L305.343 73.4426C305.043 73.4552 304.744 73.4087 304.463 73.3058C304.181 73.2028 303.923 73.0454 303.702 72.8425C303.482 72.6396 303.303 72.3952 303.177 72.1233C303.051 71.8514 302.98 71.5574 302.967 71.2579C302.955 70.9584 303.002 70.6594 303.105 70.3781C303.208 70.0967 303.366 69.8383 303.569 69.6179C303.772 69.3975 304.016 69.2192 304.288 69.0933C304.56 68.9675 304.855 68.8964 305.154 68.8843L329.451 67.8779C329.75 67.8655 330.049 67.9122 330.33 68.0153C330.611 68.1184 330.87 68.2759 331.09 68.4787C331.31 68.6816 331.489 68.9259 331.615 69.1977C331.741 69.4695 331.812 69.7634 331.824 70.0627C331.837 70.362 331.79 70.6608 331.687 70.9421C331.584 71.2233 331.426 71.4815 331.223 71.7019C331.021 71.9223 330.776 72.1006 330.504 72.2266C330.233 72.3526 329.939 72.4238 329.639 72.4362V72.4362Z" fill="white"/>
<path d="M329.308 64.4431L305.012 65.4494C304.407 65.4744 303.818 65.2583 303.372 64.8486C302.927 64.4389 302.663 63.8691 302.638 63.2646C302.613 62.6602 302.829 62.0705 303.239 61.6254C303.649 61.1803 304.218 60.9161 304.823 60.8911L329.12 59.8848C329.724 59.8597 330.314 60.0758 330.759 60.4856C331.204 60.8953 331.468 61.4651 331.493 62.0695C331.518 62.674 331.302 63.2636 330.892 63.7088C330.483 64.1539 329.913 64.418 329.308 64.4431V64.4431Z" fill="white"/>
<path d="M538.942 83.1697H437.277C434.552 83.1666 431.94 82.0829 430.013 80.1563C428.087 78.2297 427.003 75.6175 427 72.8929V10.2768C427.003 7.55216 428.087 4.94002 430.013 3.01341C431.94 1.08681 434.552 0.00308877 437.277 0H538.942C541.666 0.00307818 544.279 1.08679 546.205 3.0134C548.132 4.94 549.215 7.55215 549.219 10.2768V72.8929C549.215 75.6175 548.132 78.2297 546.205 80.1563C544.279 82.0829 541.666 83.1666 538.942 83.1697V83.1697Z" fill="#E6E6E6"/>
<path d="M498.549 75.1044H444.423C441.872 75.1016 439.425 74.0867 437.621 72.2824C435.816 70.4781 434.801 68.0317 434.798 65.4799V17.6899C434.801 15.1382 435.816 12.6918 437.621 10.8875C439.425 9.08314 441.872 8.06824 444.423 8.06543H531.796C534.348 8.06826 536.794 9.08318 538.598 10.8875C540.403 12.6918 541.418 15.1382 541.42 17.6899V32.2334C541.408 43.5996 536.887 54.4966 528.849 62.5337C520.812 70.5708 509.915 75.0917 498.549 75.1044V75.1044Z" fill="white"/>
<path d="M523.079 34.2339H453.139C452.534 34.2339 451.954 33.9936 451.526 33.5658C451.098 33.138 450.858 32.5578 450.858 31.9529C450.858 31.3479 451.098 30.7677 451.526 30.34C451.954 29.9122 452.534 29.6719 453.139 29.6719H523.079C523.684 29.6719 524.265 29.9122 524.692 30.34C525.12 30.7677 525.36 31.3479 525.36 31.9529C525.36 32.5578 525.12 33.138 524.692 33.5658C524.265 33.9936 523.684 34.2339 523.079 34.2339Z" fill="#7030A0"/>
<path d="M464.079 43.2478H453.139C452.535 43.2465 451.956 43.0056 451.529 42.5779C451.102 42.1503 450.863 41.5708 450.863 40.9666C450.863 40.3625 451.102 39.783 451.529 39.3553C451.956 38.9277 452.535 38.6868 453.139 38.6855H464.079C464.684 38.6868 465.263 38.9277 465.689 39.3553C466.116 39.783 466.356 40.3625 466.356 40.9666C466.356 41.5708 466.116 42.1503 465.689 42.5779C465.263 43.0056 464.684 43.2465 464.079 43.2478Z" fill="#7030A0"/>
<path d="M483.457 52.2605H453.139C452.534 52.2605 451.954 52.0201 451.526 51.5923C451.098 51.1646 450.858 50.5843 450.858 49.9794C450.858 49.3744 451.098 48.7942 451.526 48.3664C451.954 47.9386 452.534 47.6982 453.139 47.6982H483.457C484.061 47.6995 484.64 47.9404 485.066 48.3681C485.493 48.7957 485.733 49.3752 485.733 49.9794C485.733 50.5835 485.493 51.163 485.066 51.5907C484.64 52.0183 484.061 52.2592 483.457 52.2605V52.2605Z" fill="#7030A0"/>
<path d="M439.083 94.009C445.353 83.9216 442.259 70.6608 432.172 64.3903C422.084 58.1198 408.823 61.2141 402.553 71.3015C396.282 81.3889 399.377 94.6497 409.464 100.92C419.552 107.191 432.812 104.096 439.083 94.009Z" fill="#342A63"/>
<path d="M903.593 587.861H608.121C607.877 587.861 607.644 587.764 607.471 587.592C607.299 587.419 607.202 587.186 607.202 586.942C607.202 586.698 607.299 586.464 607.471 586.292C607.644 586.119 607.877 586.022 608.121 586.022H903.593C903.836 586.022 904.07 586.119 904.243 586.292C904.415 586.464 904.512 586.698 904.512 586.942C904.512 587.186 904.415 587.419 904.243 587.592C904.07 587.764 903.836 587.861 903.593 587.861V587.861Z" fill="#CCCCCC"/>
<path d="M134.328 250.43C125.505 227.105 126.309 201.229 136.563 178.496C146.818 155.764 165.683 138.036 189.008 129.212C212.334 120.389 238.209 121.192 260.942 131.447C283.675 141.701 301.403 160.566 310.226 183.892L308.355 184.6C304.079 173.296 297.619 162.945 289.342 154.138C281.066 145.331 271.136 138.24 260.119 133.271C249.103 128.301 237.215 125.55 225.135 125.175C213.056 124.799 201.02 126.807 189.716 131.083C178.412 135.359 168.061 141.82 159.254 150.096C150.447 158.372 143.356 168.302 138.387 179.319C133.417 190.336 130.666 202.223 130.291 214.303C129.916 226.383 131.923 238.418 136.199 249.722L134.328 250.43Z" fill="#342A63"/>
<path d="M216.585 157.292H184.781C184.101 157.293 183.431 157.141 182.818 156.846C182.206 156.551 181.669 156.121 181.246 155.589C180.829 155.07 180.535 154.464 180.385 153.815C180.236 153.167 180.235 152.492 180.384 151.843C183.394 138.555 183.224 124.744 179.886 111.534C179.65 110.6 179.722 109.613 180.093 108.723C180.464 107.833 181.114 107.087 181.944 106.597C193.465 99.8909 205.767 100.095 218.509 107.207C219.113 107.536 219.633 107.998 220.03 108.559C220.428 109.119 220.692 109.763 220.802 110.441C223.07 124.672 223.152 139.165 221.045 153.42C220.895 154.496 220.361 155.481 219.541 156.192C218.721 156.904 217.671 157.295 216.585 157.292V157.292Z" fill="#7030A0"/>
<path d="M201.725 126.443H190.784C190.18 126.442 189.601 126.201 189.174 125.773C188.747 125.346 188.508 124.766 188.508 124.162C188.508 123.558 188.747 122.978 189.174 122.551C189.601 122.123 190.18 121.882 190.784 121.881H201.725C202.329 121.882 202.908 122.123 203.335 122.551C203.761 122.978 204.001 123.558 204.001 124.162C204.001 124.766 203.761 125.346 203.335 125.773C202.908 126.201 202.329 126.442 201.725 126.443Z" fill="white"/>
<path d="M215.102 135.457H190.784C190.179 135.457 189.599 135.216 189.171 134.789C188.743 134.361 188.503 133.781 188.503 133.176C188.503 132.571 188.743 131.99 189.171 131.563C189.599 131.135 190.179 130.895 190.784 130.895H215.102C215.706 130.896 216.285 131.137 216.711 131.564C217.138 131.992 217.378 132.571 217.378 133.176C217.378 133.78 217.138 134.359 216.711 134.787C216.285 135.215 215.706 135.455 215.102 135.457V135.457Z" fill="white"/>
<path d="M111.942 249.17H10.2767C7.5521 249.167 4.93996 248.083 3.01337 246.156C1.08678 244.23 0.00307286 241.618 0 238.893V176.277C0.00307286 173.552 1.08678 170.94 3.01337 169.013C4.93996 167.087 7.5521 166.003 10.2767 166H111.942C114.666 166.003 117.279 167.087 119.205 169.013C121.132 170.94 122.215 173.552 122.219 176.277V238.893C122.215 241.618 121.132 244.23 119.205 246.156C117.279 248.083 114.666 249.167 111.942 249.17V249.17Z" fill="#E6E6E6"/>
<path d="M71.5488 241.104H17.4233C14.8716 241.102 12.4251 240.087 10.6207 238.282C8.8163 236.478 7.80128 234.032 7.79834 231.48V183.69C7.80128 181.138 8.8163 178.692 10.6207 176.887C12.4251 175.083 14.8716 174.068 17.4233 174.065H104.796C107.348 174.068 109.794 175.083 111.598 176.887C113.403 178.692 114.418 181.138 114.42 183.69V198.233C114.408 209.6 109.887 220.497 101.849 228.534C93.8121 236.571 82.9151 241.092 71.5488 241.104Z" fill="white"/>
<path d="M96.0794 200.234H26.1389C25.534 200.234 24.9538 199.994 24.526 199.566C24.0982 199.138 23.8579 198.558 23.8579 197.953C23.8579 197.348 24.0982 196.768 24.526 196.34C24.9538 195.912 25.534 195.672 26.1389 195.672H96.0794C96.6844 195.672 97.2646 195.912 97.6923 196.34C98.1201 196.768 98.3604 197.348 98.3604 197.953C98.3604 198.558 98.1201 199.138 97.6923 199.566C97.2646 199.994 96.6844 200.234 96.0794 200.234Z" fill="#7030A0"/>
<path d="M37.0797 209.248H26.1391C25.535 209.247 24.956 209.006 24.5292 208.578C24.1025 208.15 23.8628 207.571 23.8628 206.967C23.8628 206.363 24.1025 205.783 24.5292 205.355C24.956 204.928 25.535 204.687 26.1391 204.686H37.0797C37.6838 204.687 38.2628 204.928 38.6895 205.355C39.1163 205.783 39.356 206.363 39.356 206.967C39.356 207.571 39.1163 208.15 38.6895 208.578C38.2628 209.006 37.6838 209.247 37.0797 209.248V209.248Z" fill="#7030A0"/>
<path d="M56.4566 218.26H26.1391C25.535 218.259 24.956 218.018 24.5292 217.591C24.1025 217.163 23.8628 216.584 23.8628 215.979C23.8628 215.375 24.1025 214.796 24.5292 214.368C24.956 213.94 25.535 213.7 26.1391 213.698H56.4566C57.0616 213.698 57.6419 213.939 58.0696 214.366C58.4974 214.794 58.7378 215.374 58.7378 215.979C58.7378 216.584 58.4974 217.165 58.0696 217.592C57.6419 218.02 57.0616 218.26 56.4566 218.26V218.26Z" fill="#7030A0"/>
<path d="M152.083 258.009C158.353 247.922 155.259 234.661 145.172 228.39C135.084 222.12 121.823 225.214 115.553 235.301C109.282 245.389 112.377 258.65 122.464 264.92C132.552 271.191 145.812 268.096 152.083 258.009Z" fill="#342A63"/>
<path d="M325.585 217.292H293.781C293.102 217.294 292.431 217.141 291.818 216.846C291.206 216.552 290.669 216.122 290.246 215.59C289.829 215.071 289.535 214.465 289.385 213.816C289.236 213.167 289.235 212.493 289.384 211.844C292.389 198.579 292.225 184.793 288.904 171.604C288.668 170.656 288.748 169.657 289.132 168.759C289.515 167.86 290.181 167.112 291.028 166.626C306.478 157.782 318.711 158.026 328.428 167.372C329.109 168.039 329.557 168.907 329.707 169.849C332.068 184.268 332.182 198.966 330.045 213.421C329.895 214.496 329.361 215.481 328.541 216.193C327.721 216.905 326.671 217.295 325.585 217.292V217.292Z" fill="#FF6584"/>
<path d="M312.725 187.443H301.784C301.18 187.442 300.601 187.201 300.174 186.773C299.747 186.346 299.508 185.766 299.508 185.162C299.508 184.558 299.747 183.978 300.174 183.551C300.601 183.123 301.18 182.882 301.784 182.881H312.725C313.329 182.882 313.908 183.123 314.335 183.551C314.761 183.978 315.001 184.558 315.001 185.162C315.001 185.766 314.761 186.346 314.335 186.773C313.908 187.201 313.329 187.442 312.725 187.443Z" fill="white"/>
<path d="M326.102 196.457H301.784C301.179 196.457 300.599 196.216 300.171 195.789C299.743 195.361 299.503 194.781 299.503 194.176C299.503 193.571 299.743 192.99 300.171 192.563C300.599 192.135 301.179 191.895 301.784 191.895H326.102C326.706 191.896 327.285 192.137 327.711 192.564C328.138 192.992 328.378 193.571 328.378 194.176C328.378 194.78 328.138 195.359 327.711 195.787C327.285 196.215 326.706 196.455 326.102 196.457V196.457Z" fill="white"/>
<path d="M100.375 543.75C143.108 543.75 177.75 509.108 177.75 466.375C177.75 423.642 143.108 389 100.375 389C57.6421 389 23 423.642 23 466.375C23 509.108 57.6421 543.75 100.375 543.75Z" fill="#7030A0"/>
<path d="M132.43 500.089H68.3194C67.1471 500.088 66.0231 499.622 65.1942 498.793C64.3653 497.964 63.8991 496.84 63.8979 495.668V456.98C63.8992 455.808 64.3654 454.684 65.1943 453.855C66.0232 453.026 67.1471 452.56 68.3194 452.559H132.43C133.603 452.56 134.726 453.026 135.555 453.855C136.384 454.684 136.85 455.808 136.852 456.98V495.668C136.851 496.84 136.384 497.964 135.555 498.793C134.726 499.622 133.603 500.088 132.43 500.089ZM68.3194 456.98V495.668H132.434L132.43 456.98L68.3194 456.98Z" fill="white"/>
<path d="M120.272 456.98H80.4785V439.294C80.4785 426.484 88.8464 417.187 100.375 417.187C111.904 417.187 120.271 426.484 120.271 439.294L120.272 456.98ZM84.9 452.558H115.85V439.294C115.85 428.881 109.487 421.608 100.375 421.608C91.2634 421.608 84.9 428.881 84.9 439.294L84.9 452.558Z" fill="white"/>
<path d="M100.375 479.64C102.817 479.64 104.796 477.66 104.796 475.218C104.796 472.776 102.817 470.797 100.375 470.797C97.9332 470.797 95.9536 472.776 95.9536 475.218C95.9536 477.66 97.9332 479.64 100.375 479.64Z" fill="white"/>
</g>
<defs>
<clipPath id="clip0_2982_1772">
<rect width="904.512" height="587.861" fill="white"/>
</clipPath>
</defs>
</svg>
