<svg width="200" height="154" viewBox="0 0 200 154" fill="none" xmlns="http://www.w3.org/2000/svg">
<path d="M151.76 125.578C147.981 124.367 144.795 121.785 142.775 118.3C142.102 117.136 141.577 115.319 141.213 112.901C140.986 111.345 141.101 109.743 141.551 108.213C142.001 106.684 142.773 105.266 143.812 104.063C143.059 104.476 142.268 104.806 141.453 105.047L141.039 105.173L141.159 104.747C141.238 104.469 141.322 104.194 141.41 103.93C141.928 102.374 143.58 101.155 143.539 99.5504C143.364 92.785 138.42 84.5335 151.61 78.3756C152.83 77.8063 152.163 75.6722 152.6 74.3584C156.881 61.4868 181.701 44.7992 182.714 58.1772C183.964 74.6755 194.968 76.4794 198.615 80.9731L198.612 81.2074L198.385 81.2275C197.22 81.3479 196.05 81.3025 194.909 81.092C195.993 81.7148 197.15 82.2005 198.354 82.54L198.541 82.5919L198.524 82.7937C198.349 84.7915 197.939 86.7692 197.303 88.682L197.234 88.8881C196.746 90.3396 196.558 91.8697 196.679 93.3789C196.8 94.8874 197.23 96.3411 197.94 97.6456C199.054 99.722 199.729 102.032 199.92 104.428C200.112 106.823 199.816 109.251 199.051 111.559C198.144 114.288 195.177 117.3 192.848 119.347C192.257 119.87 191.564 120.251 190.82 120.463C190.077 120.675 189.303 120.712 188.556 120.572C187.847 120.443 187.18 120.155 186.602 119.726C186.024 119.298 185.548 118.74 185.209 118.092C185.422 119.798 185.889 121.452 186.594 122.993L186.724 123.277L186.421 123.349C183.505 124.049 180.489 123.944 177.683 123.043L177.518 122.99C175.468 122.309 173.291 122.061 171.115 122.263C168.939 122.465 166.808 123.112 164.847 124.166C162.835 125.286 160.64 125.988 158.393 126.23C156.146 126.472 153.891 126.25 151.76 125.578Z" fill="#1BCD82" fill-opacity="0.21"/>
<path d="M143.941 148.507C143.872 148.485 143.814 148.439 143.777 148.379C143.74 148.318 143.727 148.247 143.739 148.178C145.155 141.44 147.291 134.868 150.112 128.571C154.509 118.62 162.584 104.844 176.082 95.7302C176.114 95.7086 176.15 95.6934 176.189 95.6855C176.227 95.6768 176.267 95.6768 176.306 95.6833C176.345 95.6905 176.382 95.705 176.415 95.7259C176.448 95.7468 176.476 95.7741 176.498 95.8059C176.521 95.8376 176.537 95.8729 176.545 95.9104C176.553 95.9486 176.554 95.9875 176.547 96.025C176.54 96.0632 176.525 96.0992 176.504 96.1316C176.483 96.1641 176.455 96.1914 176.423 96.2138C163.042 105.249 155.028 118.924 150.662 128.805C147.859 135.06 145.737 141.587 144.329 148.279C144.322 148.321 144.305 148.36 144.281 148.395C144.257 148.429 144.225 148.459 144.188 148.48C144.152 148.502 144.11 148.515 144.067 148.52C144.025 148.524 143.982 148.52 143.941 148.507Z" fill="white"/>
<path d="M164.516 112.312C164.455 112.293 164.403 112.255 164.367 112.202C164.331 112.149 164.311 112.085 164.313 112.02C164.314 111.954 164.335 111.889 164.374 111.836C164.412 111.782 164.466 111.741 164.527 111.72C167.86 110.676 171.291 110.06 174.74 109.886C180.137 109.589 187.97 110.262 194.636 115.155C194.668 115.179 194.695 115.208 194.715 115.243C194.735 115.277 194.749 115.316 194.754 115.356C194.759 115.396 194.757 115.437 194.748 115.477C194.738 115.517 194.72 115.555 194.697 115.589C194.673 115.623 194.643 115.651 194.61 115.673C194.575 115.695 194.537 115.711 194.498 115.718C194.459 115.725 194.419 115.724 194.38 115.716C194.342 115.707 194.306 115.691 194.274 115.667C187.744 110.875 180.052 110.217 174.75 110.508C171.356 110.679 167.981 111.284 164.702 112.309C164.641 112.33 164.576 112.332 164.516 112.312Z" fill="white"/>
<path d="M162.755 74.1704C162.771 74.1062 162.807 74.0479 162.856 74.0046C162.906 73.9614 162.967 73.9347 163.031 73.9289C163.095 73.9232 163.158 73.9383 163.211 73.9722C163.265 74.006 163.306 74.0565 163.328 74.117C164.456 77.4374 165.173 80.9041 165.464 84.4385C165.942 89.9657 165.568 98.1069 161.073 105.506C161.051 105.541 161.023 105.572 160.99 105.597C160.958 105.622 160.921 105.64 160.882 105.65C160.844 105.66 160.804 105.663 160.765 105.657C160.725 105.651 160.688 105.638 160.655 105.617C160.621 105.596 160.593 105.569 160.57 105.535C160.547 105.503 160.531 105.466 160.523 105.426C160.514 105.386 160.513 105.344 160.521 105.304C160.528 105.264 160.543 105.224 160.564 105.189C164.968 97.9419 165.332 89.947 164.862 84.5163C164.577 81.0396 163.873 77.6284 162.765 74.3614C162.742 74.3015 162.738 74.2338 162.755 74.1704Z" fill="white"/>
<path d="M153.067 147.794C153.067 150.639 118.802 152.948 76.5333 152.948C34.2649 152.948 0 150.639 0 147.794C0 147.082 2.13865 146.406 6.00824 145.789C17.2737 143.994 43.2129 142.718 73.7009 142.645C74.6414 142.642 75.5856 142.641 76.5333 142.641C118.802 142.641 153.067 144.948 153.067 147.794Z" fill="#F0EFFF"/>
<path d="M47.7534 138.548C37.6401 95.8593 38.4479 52.9855 53.7227 9.868C53.8461 7.26353 54.8959 4.76807 56.6416 2.92908C58.3873 1.09009 60.6864 0.0577294 63.0345 0.0585943L150.645 0.198485C152.993 0.205187 155.196 1.24476 156.771 3.08901C158.345 4.93334 159.164 7.43175 159.046 10.0362L153.076 138.717C152.953 141.321 151.903 143.817 150.157 145.655C148.412 147.495 146.113 148.527 143.764 148.526L56.1538 148.386C53.806 148.38 51.603 147.34 50.0282 145.495C48.4533 143.651 47.6352 141.153 47.7534 138.548Z" fill="#EBD4FD"/>
<path d="M56.2674 99.6866C48.4021 78.8736 52.6646 49.0939 60.0893 16.976C60.2044 14.5373 61.1873 12.2009 62.8223 10.4793C64.4573 8.75773 66.6109 7.79167 68.8106 7.79297L144.125 7.92976C146.325 7.93647 148.389 8.91038 149.864 10.6376C151.341 12.3648 152.107 14.7044 151.997 17.1432L146.707 131.627C146.592 134.066 145.609 136.403 143.974 138.125C142.339 139.846 140.185 140.812 137.986 140.811L91.3297 140.726C81.5322 140.696 72.3387 136.358 65.7656 128.665C59.1925 120.971 55.7766 110.549 56.2674 99.6866Z" fill="white"/>
<path d="M128.913 33.6832L69.0309 33.6182C68.4432 33.6175 67.9677 34.0934 67.9688 34.6812C67.9699 35.2688 68.4472 35.7458 69.035 35.7465L128.916 35.8116C129.504 35.8122 129.979 35.3363 129.979 34.7485C129.977 34.1609 129.5 33.6839 128.913 33.6832Z" fill="#EBD4FD"/>
<path d="M129.576 46.5493L68.9918 46.4834C68.4041 46.4828 67.9285 46.9587 67.9297 47.5464C67.9308 48.1341 68.4082 48.6111 68.9959 48.6118L129.579 48.6776C130.168 48.6783 130.643 48.2023 130.642 47.6146C130.641 47.0269 130.163 46.55 129.576 46.5493Z" fill="#EBD4FD"/>
<path d="M129.435 59.0766L68.8512 59.0107C68.2635 59.0101 67.788 59.486 67.7891 60.0737C67.7902 60.6615 68.2675 61.1384 68.8552 61.139L129.439 61.2049C130.027 61.2056 130.503 60.7297 130.501 60.1419C130.5 59.5542 130.023 59.0773 129.435 59.0766Z" fill="#EBD4FD"/>
<path d="M129.865 71.5855L69.2809 71.5195C68.6932 71.519 68.2177 71.9949 68.2188 72.5825C68.2199 73.1706 68.6972 73.647 69.2849 73.6477L129.869 73.714C130.456 73.7147 130.932 73.2383 130.931 72.6509C130.93 72.063 130.453 71.5861 129.865 71.5855Z" fill="#EBD4FD"/>
<path d="M130.271 82.2196L69.6871 82.1533C69.0995 82.1526 68.6239 82.629 68.625 83.2164C68.6262 83.8045 69.1035 84.2809 69.6912 84.2816L130.275 84.3479C130.863 84.3486 131.338 83.8722 131.337 83.2848C131.336 82.6967 130.859 82.2204 130.271 82.2196Z" fill="#EBD4FD"/>
<path d="M122.765 96.9524L95.6177 96.9229C93.7366 96.9207 92.2152 98.4436 92.2188 100.324C92.2224 102.205 93.7496 103.732 95.6306 103.733L122.778 103.762C124.659 103.765 126.181 102.242 126.177 100.361C126.173 98.4803 124.645 96.9546 122.765 96.9524Z" fill="#7030A0"/>
<path d="M108.303 21.4977L70.9762 21.457C70.3884 21.4564 69.913 21.9323 69.9141 22.52C69.9152 23.1078 70.3925 23.5847 70.9802 23.5854L108.307 23.626C108.894 23.6266 109.37 23.1507 109.369 22.563C109.368 21.9752 108.89 21.4983 108.303 21.4977Z" fill="#EBD4FD"/>
<path d="M101.325 149.711L101.317 149.755C101.307 149.712 101.299 149.668 101.291 149.624C101.275 149.554 101.262 149.484 101.249 149.412C100.752 146.641 101.026 143.805 102.048 141.149C102.244 140.63 102.467 140.121 102.719 139.621C103.678 137.687 105.039 135.928 106.73 134.437C107.279 133.94 107.906 133.515 108.591 133.175C108.691 133.127 108.793 133.082 108.896 133.041C109.529 132.77 110.243 132.678 110.938 132.78C111.19 132.821 111.434 132.894 111.664 132.996C111.745 133.03 111.823 133.068 111.898 133.109C112.363 133.379 112.76 133.73 113.063 134.14C113.367 134.552 113.572 135.014 113.664 135.498C113.796 136.22 113.766 136.958 113.576 137.67C113.559 137.739 113.542 137.807 113.523 137.874C113.387 138.349 113.218 138.815 113.014 139.27C110.979 143.902 106.605 148.011 101.325 149.711Z" fill="#40ED7B" fill-opacity="0.35"/>
<path d="M111.648 133.01C110.06 135.029 108.559 137.098 107.146 139.219C105.736 141.338 104.418 143.503 103.191 145.713C102.506 146.949 101.849 148.198 101.224 149.459C101.154 149.599 101.388 149.72 101.458 149.578C102.576 147.327 103.789 145.115 105.097 142.942C106.406 140.772 107.805 138.648 109.296 136.569C110.13 135.407 110.993 134.26 111.882 133.129C111.982 133.003 111.747 132.884 111.648 133.01Z" fill="white"/>
<path d="M113.349 137.682C112.155 139.054 110.398 139.954 108.458 140.189C107.918 140.253 107.37 140.264 106.827 140.217C106.652 140.202 106.652 140.442 106.824 140.457C108.846 140.607 110.855 140.046 112.412 138.895C112.849 138.572 113.242 138.205 113.583 137.802C113.687 137.679 113.452 137.56 113.349 137.682Z" fill="white"/>
<path d="M103.156 145.124C102.878 144.774 102.648 144.397 102.469 144C102.06 143.095 101.915 142.115 102.047 141.147C102.243 140.629 102.467 140.12 102.718 139.62C102.733 139.64 102.743 139.663 102.745 139.686C102.747 139.71 102.742 139.734 102.731 139.756C102.554 140.13 102.427 140.522 102.352 140.922C102.083 142.351 102.456 143.815 103.391 145.005C103.403 145.018 103.411 145.033 103.414 145.049C103.417 145.066 103.416 145.082 103.409 145.098C103.399 145.119 103.382 145.137 103.362 145.151C103.341 145.164 103.317 145.173 103.291 145.175C103.265 145.178 103.239 145.174 103.216 145.165C103.192 145.156 103.172 145.142 103.156 145.124Z" fill="white"/>
<path d="M108.635 133.022C108.308 134.173 108.405 135.387 108.913 136.486C108.931 136.513 108.96 136.533 108.995 136.541C109.03 136.55 109.066 136.546 109.097 136.53C109.128 136.514 109.15 136.488 109.16 136.457C109.169 136.427 109.165 136.394 109.148 136.367C108.673 135.324 108.585 134.175 108.896 133.085C108.904 133.054 108.899 133.023 108.881 132.996C108.863 132.969 108.834 132.95 108.8 132.942C108.766 132.933 108.73 132.938 108.699 132.952C108.668 132.967 108.645 132.992 108.635 133.022Z" fill="white"/>
<path d="M101.291 143.926L101.308 143.969C101.277 143.934 101.246 143.899 101.215 143.864C101.165 143.807 101.116 143.751 101.068 143.693C99.1714 141.444 97.9238 138.819 97.4337 136.047C97.335 135.507 97.2658 134.964 97.2262 134.419C97.0597 132.311 97.3415 130.195 98.0557 128.179C98.2806 127.513 98.6121 126.88 99.0402 126.297C99.1044 126.214 99.1707 126.133 99.2406 126.054C99.6586 125.553 100.242 125.179 100.91 124.984C101.156 124.917 101.411 124.881 101.668 124.876C101.757 124.873 101.846 124.876 101.935 124.88C102.487 124.927 103.023 125.076 103.508 125.315C103.993 125.555 104.417 125.88 104.753 126.27C105.249 126.856 105.61 127.522 105.816 128.231C105.837 128.298 105.857 128.365 105.876 128.432C106.005 128.908 106.1 129.391 106.159 129.877C106.789 134.816 105.074 140.252 101.291 143.926Z" fill="#58F08B" fill-opacity="0.31"/>
<path d="M101.661 124.894C101.315 127.334 101.073 129.783 100.936 132.242C100.8 134.698 100.77 137.156 100.844 139.617C100.886 140.994 100.961 142.369 101.07 143.744C101.081 143.896 101.352 143.907 101.34 143.753C101.148 141.3 101.06 138.842 101.078 136.381C101.096 133.922 101.219 131.465 101.448 129.012C101.576 127.64 101.738 126.27 101.932 124.903C101.953 124.75 101.683 124.742 101.661 124.894Z" fill="white"/>
<path d="M105.621 128.334C105.285 130.039 104.202 131.559 102.608 132.563C102.163 132.843 101.683 133.077 101.177 133.259C101.015 133.317 101.14 133.53 101.3 133.471C103.17 132.774 104.654 131.452 105.429 129.793C105.646 129.327 105.802 128.841 105.892 128.344C105.92 128.192 105.649 128.184 105.621 128.334Z" fill="white"/>
<path d="M100.505 139.111C100.076 138.915 99.6734 138.676 99.3066 138.399C98.4691 137.766 97.8255 136.956 97.4341 136.045C97.3361 135.506 97.2669 134.963 97.2266 134.418C97.2503 134.429 97.2705 134.445 97.2849 134.466C97.2994 134.486 97.3073 134.509 97.3087 134.533C97.3491 134.937 97.4421 135.336 97.5862 135.721C98.0986 137.097 99.1985 138.241 100.651 138.909C100.668 138.916 100.683 138.926 100.695 138.94C100.706 138.953 100.713 138.969 100.716 138.985C100.718 139.008 100.713 139.031 100.701 139.051C100.69 139.071 100.672 139.089 100.651 139.101C100.63 139.114 100.605 139.122 100.579 139.124C100.554 139.125 100.528 139.121 100.505 139.111Z" fill="white"/>
<path d="M98.9945 126.144C99.3102 127.298 100.034 128.333 101.06 129.098C101.09 129.114 101.126 129.12 101.162 129.113C101.197 129.106 101.227 129.087 101.247 129.061C101.266 129.034 101.271 129.002 101.263 128.971C101.256 128.94 101.235 128.913 101.206 128.896C100.238 128.167 99.556 127.186 99.259 126.093C99.2504 126.063 99.2288 126.037 99.1992 126.021C99.1689 126.004 99.1329 125.999 99.099 126.006C99.0644 126.012 99.0342 126.03 99.0147 126.056C98.9952 126.082 98.988 126.114 98.9945 126.144Z" fill="white"/>
<path d="M101.406 149.74L101.446 149.768C101.399 149.754 101.351 149.738 101.304 149.723C101.228 149.7 101.152 149.676 101.076 149.65C98.1084 148.657 95.459 147.04 93.3574 144.938C92.9459 144.53 92.5574 144.106 92.1913 143.666C90.7678 141.969 89.7163 140.052 89.0907 138.013C88.8752 137.345 88.7686 136.653 88.7736 135.958C88.7772 135.857 88.7837 135.757 88.7945 135.658C88.8421 135.036 89.1059 134.443 89.5505 133.96C89.717 133.787 89.9095 133.635 90.1228 133.509C90.197 133.465 90.2727 133.423 90.3505 133.385C90.845 133.162 91.3862 133.032 91.9405 133.003C92.4947 132.973 93.0504 133.045 93.5714 133.214C94.3462 133.471 95.0561 133.861 95.6608 134.36C95.7192 134.407 95.7768 134.453 95.8338 134.502C96.2331 134.84 96.6064 135.202 96.9523 135.584C100.491 139.445 102.356 144.843 101.406 149.74Z" fill="#40ED7B" fill-opacity="0.28"/>
<path d="M90.1318 133.527C91.3253 135.748 92.6133 137.927 93.9956 140.064C95.3765 142.198 96.8475 144.284 98.4086 146.322C99.2828 147.462 100.183 148.585 101.111 149.691C101.214 149.814 101.449 149.695 101.346 149.571C99.6886 147.595 98.1189 145.566 96.6349 143.484C95.1524 141.403 93.7607 139.275 92.4598 137.099C91.7326 135.881 91.0342 134.65 90.3653 133.406C90.2904 133.267 90.0569 133.388 90.1318 133.527Z" fill="white"/>
<path d="M95.5594 134.539C96.3147 136.136 96.327 137.932 95.5947 139.537C95.3908 139.985 95.1284 140.411 94.8135 140.805C94.7133 140.931 94.9475 141.051 95.0477 140.926C96.198 139.447 96.6434 137.626 96.2859 135.859C96.185 135.363 96.0199 134.88 95.7936 134.418C95.7245 134.277 95.4909 134.399 95.5594 134.539Z" fill="white"/>
<path d="M97.8155 146.059C97.3348 146.099 96.8504 146.089 96.3719 146.03C95.2807 145.895 94.2458 145.52 93.3622 144.939C92.9499 144.531 92.5614 144.107 92.1953 143.667C92.222 143.664 92.2494 143.669 92.2739 143.679C92.2977 143.689 92.3193 143.704 92.3344 143.723C92.6148 144.046 92.9362 144.337 93.2922 144.593C94.5614 145.508 96.1845 145.948 97.8155 145.819C97.8342 145.817 97.853 145.819 97.871 145.824C97.8883 145.83 97.9041 145.84 97.9164 145.853C97.9315 145.871 97.9416 145.892 97.9445 145.915C97.9474 145.938 97.9431 145.961 97.933 145.982C97.9229 146.002 97.907 146.02 97.8861 146.034C97.8652 146.048 97.8414 146.056 97.8155 146.059Z" fill="white"/>
<path d="M88.6502 135.853C89.6189 136.675 90.8585 137.202 92.189 137.357C92.2618 137.366 92.3238 137.296 92.3245 137.238C92.3238 137.206 92.3086 137.176 92.2834 137.154C92.2582 137.132 92.2243 137.119 92.189 137.118C90.9299 136.965 89.758 136.463 88.842 135.684C88.7166 135.576 88.5248 135.746 88.6502 135.853Z" fill="white"/>
<path d="M125.188 149.836V136.635C125.188 136.635 129.722 145.994 125.188 149.836Z" fill="#BCF9D1" fill-opacity="0.41"/>
<path d="M125.468 149.833L116.898 140.905C116.898 140.905 126.04 143.445 125.468 149.833Z" fill="#BCF9D1" fill-opacity="0.41"/>
<path d="M25.8822 149.836V136.635C25.8822 136.635 21.3485 145.994 25.8822 149.836Z" fill="#BBDFD0"/>
<path d="M25.5961 149.833L34.1659 140.905C34.1659 140.905 25.0242 143.445 25.5961 149.833Z" fill="#BBDFD0"/>
<path d="M129.41 145.95C129.522 145.954 129.632 145.923 129.726 145.861C129.82 145.799 129.893 145.709 129.935 145.603C129.978 145.497 129.987 145.381 129.962 145.269C129.937 145.158 129.88 145.057 129.797 144.981C129.783 144.926 129.772 144.885 129.758 144.83C129.863 144.552 130.046 144.312 130.285 144.14C130.524 143.969 130.808 143.875 131.101 143.869C131.393 143.863 131.68 143.947 131.925 144.108C132.171 144.27 132.363 144.503 132.478 144.777C133.14 146.315 133.993 147.906 133.592 149.61C136.288 143.639 135.284 136.254 131.168 131.21C130.038 130.59 129.117 129.477 128.867 128.177C129.426 128.364 130.115 127.896 129.691 127.303C129.508 127.076 129.323 126.852 129.139 126.625C131.231 124.311 133.783 127.891 131.486 131.011C132.256 131.976 132.925 133.02 133.482 134.127C133.344 132.947 133.484 131.751 133.889 130.637C134.3 129.599 135.081 128.719 135.767 127.819C136.601 126.721 138.344 127.207 138.47 128.588C137.693 128.856 137.603 130.005 138.496 130.153C138.286 132.728 136.659 135.108 134.399 136.258C135.26 138.649 135.611 141.199 135.429 143.738C135.803 140.768 138.919 140.018 141.092 138.819C141.23 138.727 141.391 138.677 141.556 138.677C141.721 138.677 141.883 138.725 142.022 138.817C142.16 138.909 142.269 139.039 142.336 139.194C142.402 139.347 142.424 139.518 142.397 139.684C142.097 139.811 141.81 139.97 141.54 140.155C141.414 140.244 141.318 140.369 141.264 140.515C141.211 140.663 141.204 140.822 141.243 140.972C141.282 141.124 141.366 141.259 141.483 141.359C141.601 141.459 141.746 141.52 141.898 141.533C140.823 144.319 137.996 146.211 135.073 146.229C134.804 147.475 134.408 148.69 133.893 149.853L129.555 149.895C129.54 149.846 129.524 149.795 129.51 149.746C129.912 149.768 130.315 149.74 130.71 149.662C129.635 148.391 128.808 147.745 129.41 145.95Z" fill="#15C06E" fill-opacity="0.29"/>
<path d="M20.8579 146.19C20.7459 146.194 20.6355 146.163 20.5414 146.101C20.4474 146.039 20.3743 145.949 20.332 145.843C20.2898 145.737 20.2805 145.621 20.3054 145.51C20.3302 145.399 20.388 145.298 20.4711 145.221C20.4853 145.166 20.4956 145.125 20.5098 145.07C20.4054 144.792 20.2218 144.552 19.9826 144.38C19.7433 144.209 19.4593 144.115 19.1671 144.109C18.8748 144.103 18.5875 144.187 18.3421 144.349C18.0966 144.511 17.9042 144.743 17.7895 145.017C17.1277 146.555 16.275 148.146 16.6757 149.85C13.979 143.879 14.9841 136.494 19.099 131.45C20.2292 130.83 21.1509 129.717 21.4004 128.418C20.8421 128.604 20.1526 128.137 20.5766 127.543C20.7601 127.316 20.9453 127.092 21.1288 126.865C19.0365 124.551 16.4845 128.132 18.7821 131.251C18.012 132.216 17.3429 133.26 16.7859 134.367C16.9231 133.187 16.7836 131.991 16.3788 130.877C15.9677 129.838 15.1872 128.96 14.501 128.059C13.6667 126.961 11.924 127.447 11.7974 128.829C12.5743 129.097 12.6649 130.245 11.7719 130.393C11.9814 132.968 13.6084 135.348 15.8692 136.498C15.008 138.889 14.6566 141.439 14.8385 143.978C14.4652 141.009 11.3482 140.258 9.17585 139.059C9.03776 138.967 8.87632 138.917 8.7112 138.917C8.54616 138.917 8.3845 138.965 8.24612 139.058C8.10775 139.149 7.99856 139.28 7.93189 139.434C7.86515 139.587 7.84389 139.758 7.87056 139.924C8.17081 140.052 8.45773 140.209 8.72735 140.395C8.85362 140.484 8.94998 140.609 9.00331 140.756C9.05657 140.902 9.06414 141.062 9.02493 141.213C8.9858 141.364 8.90176 141.499 8.78443 141.599C8.66702 141.699 8.52216 141.76 8.36951 141.773C9.44411 144.56 12.2721 146.452 15.1945 146.469C15.4637 147.716 15.8593 148.93 16.3749 150.093L20.7123 150.135C20.7284 150.086 20.7428 150.036 20.7573 149.987C20.3555 150.008 19.9527 149.98 19.5578 149.902C20.6319 148.631 21.4595 147.985 20.858 146.19H20.8579Z" fill="#15C06E" fill-opacity="0.24"/>
</svg>
