<svg width="2775" height="2123" viewBox="0 0 2775 2123" fill="none" xmlns="http://www.w3.org/2000/svg">
<path d="M2105.68 1742.39C2053.24 1725.59 2009.03 1689.77 1981.01 1641.41C1971.67 1625.26 1964.38 1600.05 1959.34 1566.5C1956.18 1544.91 1957.78 1522.68 1964.02 1501.46C1970.26 1480.24 1980.98 1460.56 1995.4 1443.87C1984.95 1449.6 1973.97 1454.18 1962.66 1457.53L1956.92 1459.28L1958.59 1453.36C1959.68 1449.51 1960.85 1445.69 1962.06 1442.03C1969.25 1420.44 1992.17 1403.53 1991.6 1381.26C1989.18 1287.39 1920.58 1172.9 2103.59 1087.46C2120.52 1079.56 2111.27 1049.95 2117.33 1031.72C2176.72 853.127 2521.1 621.587 2535.16 807.207C2552.5 1036.12 2705.19 1061.15 2755.79 1123.5L2755.74 1126.75L2752.6 1127.03C2736.43 1128.7 2720.2 1128.07 2704.36 1125.15C2719.41 1133.79 2735.46 1140.53 2752.17 1145.24L2754.76 1145.96L2754.52 1148.76C2752.1 1176.48 2746.41 1203.92 2737.58 1230.46L2736.62 1233.32C2729.86 1253.46 2727.24 1274.69 2728.92 1295.63C2730.61 1316.56 2736.57 1336.73 2746.42 1354.83C2761.88 1383.64 2771.24 1415.69 2773.9 1448.93C2776.56 1482.16 2772.45 1515.86 2761.84 1547.88C2749.25 1585.74 2708.09 1627.54 2675.77 1655.94C2667.57 1663.19 2657.95 1668.48 2647.63 1671.42C2637.32 1674.36 2626.58 1674.88 2616.22 1672.93C2606.38 1671.15 2597.12 1667.15 2589.1 1661.2C2581.08 1655.26 2574.48 1647.51 2569.78 1638.52C2572.73 1662.2 2579.21 1685.14 2588.99 1706.52L2590.8 1710.46L2586.59 1711.47C2546.13 1721.18 2504.29 1719.72 2465.35 1707.22L2463.07 1706.49C2434.62 1697.03 2404.41 1693.6 2374.22 1696.4C2344.03 1699.2 2314.47 1708.18 2287.26 1722.8C2259.34 1738.34 2228.89 1748.08 2197.71 1751.44C2166.53 1754.8 2135.24 1751.72 2105.68 1742.39Z" fill="#1BCD82" fill-opacity="0.21"/>
<path d="M1997.14 2060.54C1996.18 2060.24 1995.38 2059.6 1994.86 2058.76C1994.35 2057.92 1994.16 2056.93 1994.33 2055.97C2013.98 1962.48 2043.62 1871.3 2082.76 1783.93C2143.77 1645.85 2255.81 1454.72 2443.09 1328.26C2443.54 1327.96 2444.04 1327.75 2444.58 1327.64C2445.11 1327.52 2445.66 1327.52 2446.2 1327.61C2446.74 1327.71 2447.25 1327.91 2447.71 1328.2C2448.17 1328.49 2448.56 1328.87 2448.87 1329.31C2449.18 1329.75 2449.4 1330.24 2449.52 1330.76C2449.63 1331.29 2449.64 1331.83 2449.54 1332.35C2449.45 1332.88 2449.24 1333.38 2448.95 1333.83C2448.65 1334.28 2448.27 1334.66 2447.82 1334.97C2262.16 1460.33 2150.97 1650.07 2090.39 1787.17C2051.5 1873.96 2022.05 1964.53 2002.52 2057.38C2002.42 2057.96 2002.19 2058.5 2001.85 2058.98C2001.52 2059.46 2001.08 2059.87 2000.57 2060.17C2000.06 2060.47 1999.48 2060.65 1998.89 2060.72C1998.3 2060.78 1997.7 2060.72 1997.14 2060.54Z" fill="white"/>
<path d="M2282.69 1558.33C2281.85 1558.06 2281.13 1557.53 2280.62 1556.8C2280.12 1556.07 2279.85 1555.18 2279.87 1554.27C2279.89 1553.36 2280.18 1552.46 2280.72 1551.72C2281.25 1550.97 2282 1550.4 2282.84 1550.11C2329.09 1535.63 2376.69 1527.08 2424.55 1524.66C2499.43 1520.54 2608.11 1529.88 2700.61 1597.77C2701.05 1598.1 2701.42 1598.51 2701.7 1598.99C2701.98 1599.46 2702.17 1600 2702.24 1600.56C2702.32 1601.11 2702.29 1601.69 2702.16 1602.24C2702.02 1602.8 2701.78 1603.32 2701.45 1603.79C2701.12 1604.26 2700.71 1604.66 2700.24 1604.96C2699.76 1605.27 2699.24 1605.48 2698.69 1605.58C2698.15 1605.68 2697.6 1605.67 2697.06 1605.55C2696.53 1605.43 2696.03 1605.21 2695.59 1604.88C2604.98 1538.38 2498.26 1529.25 2424.69 1533.3C2377.6 1535.66 2330.77 1544.06 2285.27 1558.29C2284.43 1558.58 2283.52 1558.6 2282.69 1558.33Z" fill="white"/>
<path d="M2258.26 1029.11C2258.49 1028.22 2258.99 1027.41 2259.67 1026.81C2260.36 1026.21 2261.21 1025.84 2262.09 1025.76C2262.98 1025.68 2263.85 1025.89 2264.59 1026.36C2265.34 1026.83 2265.91 1027.53 2266.22 1028.37C2281.86 1074.44 2291.81 1122.54 2295.85 1171.58C2302.48 1248.27 2297.3 1361.23 2234.92 1463.89C2234.62 1464.38 2234.23 1464.81 2233.78 1465.16C2233.33 1465.5 2232.82 1465.75 2232.28 1465.89C2231.75 1466.03 2231.19 1466.07 2230.65 1465.99C2230.1 1465.91 2229.59 1465.72 2229.12 1465.43C2228.66 1465.14 2228.26 1464.76 2227.94 1464.3C2227.63 1463.85 2227.41 1463.33 2227.29 1462.78C2227.17 1462.23 2227.16 1461.65 2227.26 1461.09C2227.36 1460.53 2227.57 1459.98 2227.86 1459.5C2288.97 1358.94 2294.02 1248.01 2287.5 1172.66C2283.54 1124.42 2273.77 1077.09 2258.4 1031.76C2258.08 1030.93 2258.03 1029.99 2258.26 1029.11Z" fill="white"/>
<path d="M2123.81 2050.64C2123.81 2090.12 1648.38 2122.15 1061.9 2122.15C475.425 2122.15 0 2090.12 0 2050.64C0 2040.77 29.6737 2031.38 83.3643 2022.83C239.673 1997.92 599.579 1980.22 1022.6 1979.2C1035.65 1979.16 1048.75 1979.14 1061.9 1979.14C1648.38 1979.14 2123.81 2011.16 2123.81 2050.64Z" fill="#F0EFFF"/>
<path d="M620.958 1922.36C480.636 1330.05 491.844 735.176 703.781 136.92C705.494 100.783 720.06 66.1585 744.281 40.6425C768.503 15.1265 800.403 0.802461 832.983 0.814461L2048.58 2.75544C2081.16 2.84844 2111.72 17.2725 2133.57 42.8615C2155.42 68.4515 2166.78 103.117 2165.14 139.254L2082.31 1924.7C2080.6 1960.83 2066.03 1995.46 2041.81 2020.97C2017.59 2046.49 1985.69 2060.81 1953.11 2060.8L737.513 2058.86C704.937 2058.77 674.371 2044.34 652.52 2018.75C630.669 1993.16 619.318 1958.5 620.958 1922.36Z" fill="#EBD4FD"/>
<path d="M739.061 1383.15C629.93 1094.37 689.072 681.176 792.09 235.54C793.687 201.703 807.324 169.286 830.01 145.399C852.696 121.512 882.577 108.108 913.098 108.126L1958.09 110.024C1988.61 110.117 2017.25 123.63 2037.72 147.595C2058.2 171.56 2068.84 204.022 2067.31 237.86L1993.91 1826.33C1992.31 1860.17 1978.68 1892.59 1955.99 1916.48C1933.3 1940.36 1903.42 1953.77 1872.9 1953.75L1225.55 1952.57C1089.61 1952.15 962.05 1891.97 870.848 1785.22C779.646 1678.47 732.251 1533.87 739.061 1383.15Z" fill="white"/>
<path d="M1747.09 467.353L916.23 466.45C908.076 466.441 901.478 473.044 901.493 481.199L901.493 481.199C901.509 489.353 908.132 495.971 916.287 495.98L1747.14 496.884C1755.3 496.892 1761.89 490.289 1761.88 482.134C1761.86 473.98 1755.24 467.362 1747.09 467.353Z" fill="#EBD4FD"/>
<path d="M1756.27 645.877L915.667 644.962C907.512 644.953 900.914 651.557 900.93 659.711L900.93 659.711C900.946 667.866 907.569 674.484 915.723 674.493L1756.32 675.407C1764.48 675.416 1771.08 668.812 1771.06 660.658C1771.05 652.503 1764.42 645.886 1756.27 645.877Z" fill="#EBD4FD"/>
<path d="M1754.24 819.687L913.638 818.773C905.484 818.764 898.886 825.367 898.901 833.522L898.901 833.522C898.917 841.677 905.54 848.294 913.694 848.303L1754.3 849.217C1762.45 849.226 1769.05 842.623 1769.03 834.468C1769.02 826.314 1762.39 819.696 1754.24 819.687Z" fill="#EBD4FD"/>
<path d="M1760.3 993.247L919.701 992.332C911.547 992.324 904.949 998.927 904.964 1007.08L904.964 1007.08C904.98 1015.24 911.603 1021.85 919.757 1021.86L1760.36 1022.78C1768.51 1022.79 1775.11 1016.18 1775.1 1008.03C1775.08 999.873 1768.46 993.256 1760.3 993.247Z" fill="#EBD4FD"/>
<path d="M1765.86 1140.8L925.255 1139.88C917.101 1139.87 910.503 1146.48 910.518 1154.63L910.518 1154.63C910.534 1162.79 917.157 1169.4 925.311 1169.41L1765.91 1170.33C1774.07 1170.34 1780.66 1163.73 1780.65 1155.58C1780.63 1147.42 1774.01 1140.81 1765.86 1140.8Z" fill="#EBD4FD"/>
<path d="M1661.72 1345.21L1285.05 1344.8C1258.95 1344.77 1237.84 1365.9 1237.89 1391.99C1237.94 1418.09 1259.13 1439.27 1285.23 1439.29L1661.9 1439.7C1688 1439.73 1709.11 1418.6 1709.06 1392.51C1709.01 1366.41 1687.81 1345.24 1661.72 1345.21Z" fill="#7030A0"/>
<path d="M1820.05 1803.56L1665.55 1808.95C1662.78 1809.05 1660.08 1807.81 1658.04 1805.52C1656 1803.22 1654.79 1800.06 1654.67 1796.71L1648.15 1610.16C1648.04 1606.81 1649.03 1603.57 1650.9 1601.14C1652.78 1598.71 1655.38 1597.29 1658.15 1597.19L1812.66 1591.79C1815.42 1591.7 1818.12 1592.93 1820.16 1595.23C1822.2 1597.52 1823.42 1600.69 1823.54 1604.03L1830.05 1790.59C1830.16 1793.93 1829.18 1797.17 1827.3 1799.6C1825.43 1802.04 1822.82 1803.46 1820.05 1803.56Z" fill="#EBD4FD"/>
<path d="M1585.89 1811.73L1431.39 1817.13C1428.62 1817.22 1425.92 1815.98 1423.88 1813.69C1421.84 1811.39 1420.63 1808.23 1420.51 1804.89L1413.99 1618.33C1413.88 1614.99 1414.87 1611.74 1416.74 1609.31C1418.62 1606.88 1421.22 1605.46 1423.99 1605.36L1578.5 1599.96C1581.26 1599.87 1583.96 1601.11 1586 1603.4C1588.04 1605.7 1589.26 1608.86 1589.38 1612.2L1595.89 1798.76C1596 1802.1 1595.01 1805.35 1593.14 1807.78C1591.27 1810.21 1588.66 1811.63 1585.89 1811.73Z" fill="#EBD4FD"/>
<path d="M1461.03 298.279L943.124 297.715C934.969 297.706 928.372 304.31 928.387 312.464L928.387 312.464C928.403 320.619 935.026 327.237 943.18 327.246L1461.09 327.809C1469.24 327.818 1475.84 321.214 1475.82 313.06C1475.81 304.905 1469.18 298.287 1461.03 298.279Z" fill="#EBD4FD"/>
<path d="M1405.89 2077.25L1405.78 2077.86C1405.65 2077.26 1405.53 2076.65 1405.42 2076.04C1405.2 2075.07 1405.02 2074.09 1404.84 2073.1C1397.94 2034.65 1401.74 1995.3 1415.92 1958.44C1418.64 1951.24 1421.74 1944.18 1425.23 1937.25C1438.54 1910.41 1457.42 1886.01 1480.89 1865.32C1488.51 1858.42 1497.2 1852.52 1506.71 1847.8C1508.1 1847.14 1509.51 1846.52 1510.94 1845.95C1519.73 1842.18 1529.63 1840.91 1539.27 1842.32C1542.77 1842.9 1546.16 1843.91 1549.35 1845.32C1550.47 1845.8 1551.55 1846.32 1552.6 1846.89C1559.05 1850.63 1564.55 1855.5 1568.76 1861.2C1572.98 1866.91 1575.82 1873.32 1577.1 1880.04C1578.93 1890.06 1578.51 1900.3 1575.87 1910.18C1575.64 1911.13 1575.4 1912.07 1575.14 1913C1573.26 1919.59 1570.91 1926.06 1568.08 1932.37C1539.84 1996.64 1479.15 2053.66 1405.89 2077.25Z" fill="#40ED7B" fill-opacity="0.35"/>
<path d="M1549.16 1845.51C1527.12 1873.52 1506.3 1902.23 1486.7 1931.66C1467.13 1961.07 1448.84 1991.1 1431.82 2021.76C1422.31 2038.91 1413.2 2056.24 1404.52 2073.74C1403.56 2075.68 1406.8 2077.36 1407.77 2075.4C1423.29 2044.16 1440.12 2013.47 1458.27 1983.32C1476.42 1953.21 1495.83 1923.74 1516.53 1894.9C1528.1 1878.77 1540.07 1862.86 1552.41 1847.17C1553.79 1845.41 1550.53 1843.76 1549.16 1845.51Z" fill="white"/>
<path d="M1572.74 1910.34C1556.18 1929.38 1531.8 1941.87 1504.89 1945.12C1497.39 1946.02 1489.79 1946.16 1482.25 1945.51C1479.83 1945.31 1479.82 1948.64 1482.21 1948.84C1510.27 1950.93 1538.14 1943.14 1559.75 1927.17C1565.81 1922.69 1571.26 1917.6 1575.99 1912C1577.44 1910.3 1574.18 1908.65 1572.74 1910.34Z" fill="white"/>
<path d="M1431.29 2013.59C1427.44 2008.74 1424.25 2003.51 1421.76 1998C1416.09 1985.45 1414.08 1971.84 1415.91 1958.42C1418.63 1951.23 1421.74 1944.16 1425.22 1937.23C1425.43 1937.51 1425.56 1937.82 1425.59 1938.15C1425.62 1938.48 1425.55 1938.81 1425.39 1939.11C1422.94 1944.31 1421.18 1949.74 1420.14 1955.3C1416.41 1975.12 1421.58 1995.44 1434.56 2011.94C1434.72 2012.12 1434.83 2012.33 1434.87 2012.56C1434.92 2012.79 1434.9 2013.02 1434.81 2013.24C1434.66 2013.53 1434.43 2013.78 1434.15 2013.97C1433.86 2014.15 1433.52 2014.27 1433.16 2014.3C1432.81 2014.34 1432.45 2014.29 1432.12 2014.17C1431.79 2014.04 1431.51 2013.84 1431.29 2013.59Z" fill="white"/>
<path d="M1507.27 1845.68C1502.73 1861.65 1504.08 1878.49 1511.12 1893.74C1511.37 1894.12 1511.78 1894.39 1512.26 1894.51C1512.74 1894.63 1513.25 1894.57 1513.68 1894.35C1514.11 1894.13 1514.41 1893.77 1514.55 1893.34C1514.68 1892.92 1514.62 1892.47 1514.38 1892.09C1507.79 1877.62 1506.57 1861.68 1510.89 1846.55C1511 1846.13 1510.93 1845.69 1510.68 1845.32C1510.43 1844.95 1510.03 1844.68 1509.56 1844.57C1509.09 1844.45 1508.58 1844.51 1508.16 1844.71C1507.73 1844.92 1507.41 1845.27 1507.27 1845.68Z" fill="white"/>
<path d="M1405.42 1996.98L1405.65 1997.57C1405.22 1997.09 1404.79 1996.6 1404.37 1996.11C1403.67 1995.33 1402.99 1994.54 1402.32 1993.74C1376.01 1962.53 1358.7 1926.11 1351.9 1887.65C1350.53 1880.16 1349.57 1872.63 1349.02 1865.06C1346.71 1835.82 1350.62 1806.46 1360.53 1778.49C1363.65 1769.25 1368.25 1760.46 1374.19 1752.37C1375.08 1751.22 1376 1750.09 1376.97 1749C1382.77 1742.05 1390.87 1736.86 1400.14 1734.15C1403.55 1733.22 1407.09 1732.72 1410.65 1732.66C1411.89 1732.62 1413.12 1732.65 1414.35 1732.71C1422.02 1733.37 1429.45 1735.43 1436.18 1738.75C1442.91 1742.07 1448.79 1746.58 1453.46 1752C1460.34 1760.13 1465.35 1769.37 1468.2 1779.2C1468.49 1780.13 1468.77 1781.07 1469.03 1782C1470.83 1788.6 1472.14 1795.3 1472.96 1802.05C1481.71 1870.57 1457.91 1946 1405.42 1996.98Z" fill="#58F08B" fill-opacity="0.31"/>
<path d="M1410.59 1732.9C1405.78 1766.76 1402.43 1800.74 1400.53 1834.85C1398.64 1868.93 1398.22 1903.04 1399.25 1937.18C1399.83 1956.29 1400.87 1975.37 1402.38 1994.44C1402.54 1996.55 1406.3 1996.71 1406.13 1994.57C1403.46 1960.53 1402.24 1926.43 1402.49 1892.28C1402.74 1858.16 1404.45 1824.08 1407.63 1790.04C1409.41 1771 1411.65 1752 1414.34 1733.03C1414.64 1730.91 1410.89 1730.79 1410.59 1732.9Z" fill="white"/>
<path d="M1465.51 1780.63C1460.85 1804.29 1445.82 1825.37 1423.7 1839.3C1417.53 1843.19 1410.87 1846.43 1403.85 1848.96C1401.61 1849.77 1403.34 1852.72 1405.56 1851.91C1431.51 1842.23 1452.1 1823.89 1462.85 1800.87C1465.86 1794.41 1468.02 1787.66 1469.27 1780.77C1469.66 1778.66 1465.9 1778.54 1465.51 1780.63Z" fill="white"/>
<path d="M1394.5 1930.16C1388.54 1927.45 1382.96 1924.13 1377.87 1920.28C1366.25 1911.5 1357.32 1900.27 1351.89 1887.63C1350.53 1880.14 1349.57 1872.61 1349.01 1865.05C1349.34 1865.2 1349.62 1865.43 1349.82 1865.71C1350.02 1865.99 1350.13 1866.31 1350.15 1866.64C1350.71 1872.25 1352 1877.79 1354 1883.13C1361.11 1902.22 1376.37 1918.09 1396.52 1927.36C1396.76 1927.46 1396.97 1927.6 1397.13 1927.79C1397.29 1927.97 1397.39 1928.19 1397.43 1928.42C1397.45 1928.73 1397.38 1929.05 1397.22 1929.33C1397.06 1929.61 1396.82 1929.86 1396.53 1930.03C1396.23 1930.21 1395.89 1930.32 1395.53 1930.34C1395.18 1930.36 1394.82 1930.3 1394.5 1930.16Z" fill="white"/>
<path d="M1373.57 1750.25C1377.95 1766.26 1387.99 1780.62 1402.23 1791.23C1402.65 1791.46 1403.15 1791.54 1403.64 1791.45C1404.13 1791.35 1404.55 1791.09 1404.82 1790.72C1405.08 1790.35 1405.16 1789.9 1405.05 1789.47C1404.95 1789.05 1404.66 1788.67 1404.25 1788.43C1390.82 1778.32 1381.36 1764.71 1377.24 1749.54C1377.12 1749.12 1376.82 1748.76 1376.41 1748.54C1375.99 1748.31 1375.49 1748.24 1375.02 1748.33C1374.54 1748.42 1374.12 1748.67 1373.85 1749.03C1373.58 1749.39 1373.48 1749.83 1373.57 1750.25Z" fill="white"/>
<path d="M1407.05 2077.64L1407.6 2078.03C1406.95 2077.83 1406.28 2077.62 1405.63 2077.41C1404.57 2077.09 1403.52 2076.75 1402.46 2076.39C1361.29 2062.62 1324.53 2040.18 1295.37 2011.02C1289.66 2005.36 1284.27 1999.47 1279.19 1993.36C1259.44 1969.82 1244.85 1943.22 1236.17 1914.93C1233.18 1905.66 1231.7 1896.06 1231.77 1886.41C1231.82 1885.02 1231.91 1883.63 1232.06 1882.25C1232.72 1873.63 1236.38 1865.4 1242.55 1858.7C1244.86 1856.3 1247.53 1854.19 1250.49 1852.44C1251.52 1851.82 1252.57 1851.25 1253.65 1850.72C1260.51 1847.62 1268.02 1845.82 1275.71 1845.41C1283.4 1845 1291.11 1846 1298.34 1848.35C1309.09 1851.91 1318.94 1857.32 1327.33 1864.25C1328.14 1864.89 1328.94 1865.54 1329.73 1866.21C1335.27 1870.91 1340.45 1875.93 1345.25 1881.23C1394.35 1934.8 1420.23 2009.69 1407.05 2077.64Z" fill="#40ED7B" fill-opacity="0.28"/>
<path d="M1250.6 1852.69C1267.16 1883.5 1285.03 1913.73 1304.21 1943.38C1323.37 1972.99 1343.78 2001.94 1365.44 2030.21C1377.57 2046.03 1390.06 2061.61 1402.94 2076.96C1404.36 2078.66 1407.63 2077.01 1406.19 2075.29C1383.2 2047.88 1361.42 2019.73 1340.83 1990.84C1320.26 1961.97 1300.95 1932.44 1282.9 1902.24C1272.81 1885.35 1263.12 1868.27 1253.84 1851.01C1252.8 1849.08 1249.56 1850.76 1250.6 1852.69Z" fill="white"/>
<path d="M1325.94 1866.73C1336.42 1888.89 1336.59 1913.81 1326.43 1936.08C1323.6 1942.29 1319.96 1948.2 1315.59 1953.67C1314.2 1955.42 1317.45 1957.08 1318.84 1955.35C1334.8 1934.83 1340.98 1909.57 1336.02 1885.05C1334.62 1878.17 1332.33 1871.46 1329.19 1865.05C1328.23 1863.1 1324.99 1864.79 1325.94 1866.73Z" fill="white"/>
<path d="M1357.16 2026.57C1350.49 2027.12 1343.77 2026.98 1337.13 2026.16C1321.99 2024.29 1307.63 2019.09 1295.37 2011.02C1289.65 2005.36 1284.26 1999.48 1279.18 1993.37C1279.55 1993.34 1279.93 1993.4 1280.27 1993.54C1280.6 1993.68 1280.9 1993.89 1281.11 1994.16C1285 1998.63 1289.46 2002.67 1294.4 2006.23C1312.01 2018.92 1334.53 2025.03 1357.16 2023.24C1357.42 2023.21 1357.68 2023.23 1357.93 2023.31C1358.17 2023.39 1358.39 2023.52 1358.56 2023.7C1358.77 2023.95 1358.91 2024.25 1358.95 2024.57C1358.99 2024.88 1358.93 2025.2 1358.79 2025.49C1358.65 2025.78 1358.43 2026.03 1358.14 2026.22C1357.85 2026.41 1357.52 2026.53 1357.16 2026.57Z" fill="white"/>
<path d="M1229.98 1884.96C1243.42 1896.36 1260.62 1903.67 1279.08 1905.83C1280.09 1905.95 1280.95 1904.98 1280.96 1904.17C1280.95 1903.73 1280.74 1903.32 1280.39 1903.01C1280.04 1902.7 1279.57 1902.52 1279.08 1902.51C1261.61 1900.39 1245.35 1893.42 1232.64 1882.61C1230.9 1881.12 1228.24 1883.47 1229.98 1884.96Z" fill="white"/>
<path d="M1736.97 2078.98V1895.81C1736.97 1895.81 1799.88 2025.67 1736.97 2078.98Z" fill="#BCF9D1" fill-opacity="0.41"/>
<path d="M1740.86 2078.93L1621.96 1955.06C1621.96 1955.06 1748.8 1990.3 1740.86 2078.93Z" fill="#BCF9D1" fill-opacity="0.41"/>
<path d="M359.087 2078.98V1895.81C359.087 1895.81 296.182 2025.67 359.087 2078.98Z" fill="#BBDFD0"/>
<path d="M355.195 2078.93L474.102 1955.06C474.102 1955.06 347.261 1990.3 355.195 2078.93Z" fill="#BBDFD0"/>
<path d="M1795.54 2025.05C1797.09 2025.11 1798.62 2024.68 1799.93 2023.82C1801.23 2022.96 1802.25 2021.71 1802.83 2020.24C1803.42 2018.77 1803.55 2017.16 1803.2 2015.61C1802.86 2014.07 1802.06 2012.67 1800.91 2011.61C1800.71 2010.84 1800.56 2010.28 1800.37 2009.51C1801.82 2005.65 1804.36 2002.32 1807.68 1999.94C1811 1997.57 1814.94 1996.26 1819 1996.18C1823.05 1996.1 1827.04 1997.26 1830.44 1999.5C1833.85 2001.75 1836.52 2004.98 1838.11 2008.78C1847.29 2030.12 1859.13 2052.19 1853.57 2075.84C1890.98 1992.99 1877.04 1890.52 1819.94 1820.54C1804.26 1811.93 1791.47 1796.49 1788.01 1778.46C1795.76 1781.05 1805.32 1774.56 1799.44 1766.33C1796.9 1763.18 1794.33 1760.07 1791.78 1756.92C1820.81 1724.81 1856.22 1774.49 1824.34 1817.77C1835.03 1831.16 1844.31 1845.65 1852.04 1861.01C1850.13 1844.64 1852.07 1828.04 1857.69 1812.58C1863.39 1798.18 1874.22 1785.98 1883.74 1773.48C1895.32 1758.25 1919.5 1764.99 1921.25 1784.16C1910.47 1787.88 1909.22 1803.82 1921.61 1805.87C1918.7 1841.6 1896.12 1874.62 1864.76 1890.58C1876.71 1923.75 1881.58 1959.13 1879.06 1994.36C1884.24 1953.16 1927.48 1942.75 1957.63 1926.11C1959.54 1924.83 1961.78 1924.14 1964.07 1924.14C1966.36 1924.14 1968.61 1924.81 1970.53 1926.09C1972.45 1927.36 1973.96 1929.17 1974.89 1931.31C1975.81 1933.44 1976.11 1935.81 1975.74 1938.11C1971.57 1939.88 1967.59 1942.08 1963.85 1944.65C1962.1 1945.88 1960.76 1947.62 1960.02 1949.65C1959.28 1951.69 1959.18 1953.9 1959.72 1955.99C1960.26 1958.09 1961.43 1959.96 1963.06 1961.35C1964.69 1962.74 1966.7 1963.59 1968.81 1963.77C1953.9 2002.43 1914.67 2028.68 1874.12 2028.93C1870.38 2046.22 1864.89 2063.07 1857.74 2079.21L1797.56 2079.79C1797.34 2079.11 1797.13 2078.41 1796.93 2077.73C1802.51 2078.03 1808.1 2077.64 1813.58 2076.56C1798.67 2058.92 1787.19 2049.96 1795.54 2025.05Z" fill="#15C06E" fill-opacity="0.29"/>
<path d="M289.354 2028.39C287.801 2028.44 286.268 2028.01 284.963 2027.15C283.658 2026.3 282.644 2025.05 282.058 2023.58C281.472 2022.11 281.343 2020.5 281.688 2018.95C282.033 2017.41 282.835 2016.01 283.987 2014.95C284.185 2014.18 284.327 2013.62 284.525 2012.85C283.076 2008.99 280.528 2005.66 277.209 2003.28C273.889 2000.91 269.949 1999.6 265.894 1999.52C261.839 1999.44 257.853 2000.6 254.448 2002.84C251.042 2005.09 248.372 2008.32 246.78 2012.12C237.598 2033.46 225.766 2055.53 231.327 2079.18C193.91 1996.33 207.855 1893.86 264.95 1823.88C280.631 1815.27 293.42 1799.83 296.881 1781.8C289.135 1784.39 279.569 1777.9 285.452 1769.67C287.997 1766.52 290.567 1763.41 293.113 1760.26C264.083 1728.15 228.674 1777.83 260.552 1821.11C249.867 1834.5 240.584 1848.99 232.855 1864.34C234.759 1847.98 232.824 1831.38 227.207 1815.92C221.503 1801.51 210.673 1789.32 201.152 1776.82C189.577 1761.59 165.396 1768.33 163.64 1787.5C174.42 1791.22 175.676 1807.16 163.286 1809.21C166.193 1844.94 188.768 1877.96 220.136 1893.92C208.187 1927.09 203.312 1962.47 205.835 1997.7C200.656 1956.5 157.408 1946.09 127.266 1929.45C125.35 1928.17 123.11 1927.48 120.819 1927.48C118.529 1927.48 116.286 1928.15 114.366 1929.43C112.446 1930.7 110.931 1932.51 110.006 1934.65C109.08 1936.78 108.785 1939.15 109.155 1941.45C113.321 1943.22 117.302 1945.41 121.043 1947.99C122.795 1949.22 124.132 1950.96 124.872 1952.99C125.611 1955.02 125.716 1957.24 125.172 1959.33C124.629 1961.43 123.463 1963.3 121.835 1964.69C120.206 1966.08 118.196 1966.93 116.078 1967.11C130.988 2005.77 170.226 2032.02 210.775 2032.26C214.51 2049.56 219.999 2066.41 227.153 2082.55L287.334 2083.13C287.557 2082.45 287.757 2081.75 287.958 2081.07C282.384 2081.37 276.795 2080.98 271.315 2079.9C286.219 2062.26 297.701 2053.3 289.356 2028.39H289.354Z" fill="#15C06E" fill-opacity="0.24"/>
<path d="M2352.86 1383.11C2352.86 1234.73 2224.41 1153.11 2077.69 1114.45C1889.57 1064.89 1751.8 1165.18 1802.51 1383.11C1814.01 1432.5 1841.5 1490.19 1875.53 1539.53H2145.56C2235.76 1482.2 2352.86 1498.28 2352.86 1383.11Z" fill="#7030A0"/>
<path d="M2086.06 1603.97C2102.53 1575.21 2123.4 1554.46 2146.41 1538.66H1875.28C1945.06 1629.99 2037.6 1688.6 2086.06 1603.97Z" fill="#7030A0"/>
<path d="M2054.08 1238.37C2074.47 1238.37 2091.01 1252.28 2091.01 1269.44V1331.58H2017.15V1269.44C2017.15 1252.28 2033.68 1238.37 2054.08 1238.37ZM2109.47 1331.58V1269.44C2109.47 1243.7 2084.67 1222.84 2054.08 1222.84C2023.49 1222.84 1998.68 1243.7 1998.68 1269.44V1331.58C1978.29 1331.58 1961.76 1345.49 1961.76 1362.64V1440.31C1961.76 1457.47 1978.29 1471.38 1998.68 1471.38H2109.47C2129.87 1471.38 2146.4 1457.47 2146.4 1440.31V1362.64C2146.4 1345.49 2129.87 1331.58 2109.47 1331.58ZM1998.68 1347.11H2109.47C2119.67 1347.11 2127.94 1354.06 2127.94 1362.64V1440.31C2127.94 1448.89 2119.67 1455.85 2109.47 1455.85H1998.68C1988.49 1455.85 1980.22 1448.89 1980.22 1440.31V1362.64C1980.22 1354.06 1988.49 1347.11 1998.68 1347.11Z" fill="white"/>
<path d="M877.336 1889.64C879.82 1890.86 882.82 1889.77 884.06 1887.21L891.906 1868.98L882.382 1864.73L874.535 1882.96C873.523 1885.63 874.773 1888.61 877.336 1889.64Z" fill="#7030A0" fill-opacity="0.68"/>
<path d="M854.92 1928.52L864.445 1932.77L868.368 1923.66C869.277 1920.99 868.059 1918.09 865.568 1916.98C863.078 1915.87 860.152 1916.92 858.844 1919.41L854.92 1928.52Z" fill="#7030A0" fill-opacity="0.68"/>
<path d="M876.215 1905.43C876.716 1904.19 876.72 1902.81 876.226 1901.58L875.748 1900.72C875.555 1900.42 875.326 1900.15 875.067 1899.92C874.852 1899.67 874.602 1899.45 874.326 1899.27C874.034 1899.08 873.729 1898.9 873.414 1898.75C872.168 1898.21 870.767 1898.14 869.464 1898.57C868.854 1898.8 868.294 1899.16 867.816 1899.62C866.364 1901.01 865.908 1903.18 866.679 1905.04C866.963 1905.66 867.355 1906.22 867.837 1906.69C868.313 1907.18 868.874 1907.58 869.491 1907.86C870.738 1908.41 872.138 1908.47 873.441 1908.05C874.661 1907.59 875.659 1906.65 876.215 1905.43Z" fill="#7030A0" fill-opacity="0.68"/>
<path d="M910.539 1964.68C907.969 1964.33 905.636 1962.99 904.012 1960.92L888.821 1942.1L864.906 1943.48C861.3 1943.69 857.868 1941.97 855.834 1938.93C853.8 1935.88 853.452 1931.95 854.915 1928.53C856.086 1925.8 859.169 1924.53 861.801 1925.7C864.433 1926.87 865.617 1930.03 864.447 1932.76L864.439 1932.78L888.369 1931.33C891.698 1931.13 894.896 1932.59 896.956 1935.26L912.098 1954.01L932.961 1905.5C933.721 1903.74 935.331 1902.51 937.184 1902.29C939.038 1902.06 940.853 1902.87 941.946 1904.41C943.04 1905.95 943.245 1907.99 942.485 1909.75L921.598 1958.25C920.14 1961.7 917.042 1964.13 913.439 1964.65C912.477 1964.8 911.501 1964.81 910.539 1964.68Z" fill="#7030A0" fill-opacity="0.68"/>
<path d="M935.864 1892.1C929.8 1891.28 924.165 1888.51 919.752 1884.2L913.976 1878.54C910.578 1875.23 906.087 1873.37 901.383 1873.32L893.269 1873.19C880.778 1873.04 869.893 1864.66 866.266 1852.39L864.122 1844.63C862.854 1840.15 859.949 1836.38 856.014 1834.09L849.032 1829.94C838.25 1823.7 832.965 1810.72 836.132 1798.27L838.211 1790.53C839.384 1786.13 838.791 1781.46 836.568 1777.57L832.626 1770.54C826.424 1759.53 828.408 1745.47 837.425 1736.53L843.165 1730.82C846.382 1727.67 848.246 1723.33 848.334 1718.79L848.477 1710.78C848.876 1697.96 857.554 1686.88 869.659 1683.74L877.526 1681.61C881.945 1680.46 885.788 1677.61 888.249 1673.63L892.46 1666.74C899.341 1655.89 912.145 1650.72 924.206 1653.93L932.051 1655.97C936.592 1657.17 941.428 1656.58 945.613 1654.3L952.743 1650.4C963.903 1644.3 977.501 1646.14 986.549 1655L992.329 1660.65C995.729 1663.96 1000.22 1665.82 1004.92 1665.88L1013.04 1666.01C1025.53 1666.15 1036.41 1674.53 1040.04 1686.81L1042.18 1694.57C1043.45 1699.04 1046.36 1702.82 1050.29 1705.1L1057.27 1709.25C1068.05 1715.5 1073.34 1728.48 1070.17 1740.93L1068.09 1748.67C1066.92 1753.06 1067.51 1757.74 1069.73 1761.63L1073.68 1768.66C1079.88 1779.66 1077.89 1793.72 1068.88 1802.66L1063.14 1808.37C1059.92 1811.52 1058.06 1815.86 1057.97 1820.4V1820.41L1057.82 1828.41C1057.43 1841.24 1048.75 1852.32 1036.64 1855.45L1028.78 1857.58C1024.36 1858.73 1020.52 1861.59 1018.06 1865.56L1013.84 1872.45C1006.95 1883.29 994.159 1888.45 982.098 1885.26L974.25 1883.23C969.709 1882.02 964.871 1882.61 960.686 1884.89L953.559 1888.79C948.116 1891.77 941.927 1892.93 935.864 1892.1ZM905.129 1862.83C911.179 1863.64 916.803 1866.39 921.209 1870.69L926.985 1876.35C932.85 1881.98 941.563 1883.16 948.767 1879.31L955.892 1875.41C962.379 1871.87 969.884 1870.94 976.931 1872.8L984.776 1874.84C992.443 1876.92 1000.61 1873.68 1005.04 1866.81L1009.25 1859.92C1013.14 1853.59 1019.24 1849.03 1026.26 1847.18L1034.12 1845.06C1041.65 1843.16 1047.09 1836.32 1047.39 1828.36L1047.54 1820.35C1047.67 1812.93 1050.71 1805.84 1055.95 1800.69L1061.68 1794.98C1067.28 1789.53 1068.5 1780.86 1064.63 1774.13L1060.69 1767.1C1057.07 1760.74 1056.12 1753.11 1058.05 1745.93L1060.12 1738.2C1062.03 1730.45 1058.69 1722.42 1051.97 1718.59L1044.99 1714.44C1038.75 1710.79 1034.14 1704.77 1032.15 1697.65L1030 1689.89C1027.65 1682.09 1020.68 1676.8 1012.73 1676.76L1004.61 1676.63C997.315 1676.54 990.35 1673.64 985.089 1668.5L979.312 1662.85C973.449 1657.21 964.733 1656.03 957.53 1659.89L950.405 1663.79C943.918 1667.32 936.416 1668.26 929.371 1666.4L921.525 1664.36C913.858 1662.27 905.687 1665.5 901.262 1672.39L897.05 1679.28C893.155 1685.6 887.06 1690.16 880.04 1692.01L872.176 1694.14C864.647 1696.03 859.21 1702.87 858.905 1710.84L858.762 1718.84C858.629 1726.26 855.599 1733.35 850.356 1738.51L844.617 1744.22C839.021 1749.66 837.797 1758.33 841.676 1765.06L845.618 1772.09C849.235 1778.45 850.188 1786.08 848.263 1793.26L846.183 1801.01C844.273 1808.75 847.61 1816.78 854.332 1820.61L861.312 1824.76C867.557 1828.41 872.159 1834.43 874.154 1841.55L876.298 1849.31C878.668 1857.1 885.625 1862.39 893.576 1862.44L901.69 1862.57C902.841 1862.59 903.989 1862.67 905.129 1862.83Z" fill="#7030A0" fill-opacity="0.68"/>
<path d="M941.85 1849.67C899.098 1843.86 869.491 1803.35 875.722 1759.2C881.953 1715.04 921.662 1683.96 964.414 1689.77C1007.17 1695.59 1036.77 1736.09 1030.54 1780.25C1024.27 1824.38 984.589 1855.43 941.85 1849.67ZM962.91 1700.43C925.858 1695.4 891.443 1722.34 886.043 1760.6C880.643 1798.87 906.302 1833.98 943.354 1839.01C980.407 1844.05 1014.82 1817.11 1020.22 1778.85C1025.58 1740.59 999.939 1705.51 962.91 1700.43Z" fill="#7030A0" fill-opacity="0.68"/>
<path d="M966.597 1955.99C963.65 1955.58 961.029 1953.89 959.398 1951.35L911.125 1875.83C909.551 1873.37 910.23 1870.02 912.643 1868.37C915.055 1866.71 918.287 1867.37 919.861 1869.83L968.117 1945.32L980.211 1923.86C981.88 1920.94 984.761 1918.96 988.009 1918.5L1011.81 1915.33L991.163 1883.02C989.588 1880.55 990.268 1877.21 992.68 1875.55C995.093 1873.9 998.324 1874.55 999.899 1877.02L1020.53 1909.32C1022.5 1912.41 1022.76 1916.35 1021.24 1919.74C1019.71 1923.13 1016.6 1925.49 1013.02 1925.99L989.209 1929.16L977.137 1950.6C974.985 1954.43 970.814 1956.56 966.595 1955.98L966.597 1955.99Z" fill="#7030A0" fill-opacity="0.68"/>
</svg>
