<svg width="1600" height="1200" viewBox="0 0 1600 1200" fill="none" xmlns="http://www.w3.org/2000/svg">
<g clip-path="url(#clip0_2972_1636)">
<path d="M858.641 1183.18C858.641 1187.57 858.469 1191.9 858.099 1196.18H740.999C730.624 1196.18 720.351 1194.23 710.766 1190.44C701.182 1186.64 692.473 1181.09 685.137 1174.08C677.801 1167.07 671.982 1158.75 668.012 1149.6C664.042 1140.44 661.999 1130.63 662 1120.72V1018.39C686.546 1015.34 711.49 1017.32 735.17 1024.21C758.851 1031.09 780.724 1042.72 799.33 1058.31C817.937 1073.9 832.851 1093.11 843.078 1114.64C853.305 1136.17 858.611 1159.54 858.641 1183.18H858.641Z" fill="#ABE8C0"/>
<path d="M131.348 979.914C134.638 981.296 138.368 981.376 141.72 980.134C145.071 978.893 147.77 976.433 149.226 973.293L254.716 744.906C257.13 739.68 257.868 733.887 256.836 728.26C255.803 722.633 253.047 717.425 248.916 713.294C244.785 709.163 239.465 706.295 233.627 705.053C227.79 703.811 221.698 704.251 216.123 706.316H216.122C209.68 708.666 204.29 713.076 200.868 718.794C200.323 719.699 199.83 720.631 199.389 721.586L93.8989 949.972C93.1799 951.529 92.7889 953.205 92.7482 954.906C92.7074 956.606 93.0178 958.298 93.6615 959.884C94.3052 961.47 95.2697 962.919 96.4998 964.149C97.7299 965.379 99.2016 966.365 100.831 967.052L131.348 979.914Z" fill="#7030A0"/>
<path d="M250.385 838.67L146.042 816.519L171.868 751.255C176.268 735.303 186.506 721.386 200.727 712.028C214.948 702.669 232.209 698.49 249.38 700.247L250.385 700.354L250.385 838.67Z" fill="#2F2E41"/>
<path d="M461.141 983.18C458.072 983.175 455.071 982.321 452.499 980.721C449.927 979.121 447.896 976.843 446.651 974.164L341.162 745.777C337.807 738.51 337.495 730.292 340.29 722.812C343.085 715.332 348.775 709.161 356.189 705.566C363.603 701.972 372.177 701.229 380.147 703.489C388.117 705.75 394.877 710.842 399.036 717.719V717.718C399.621 718.689 400.151 719.69 400.624 720.715L506.113 949.102C507.807 952.768 507.906 956.928 506.39 960.664C504.873 964.401 501.865 967.409 498.026 969.027L466.475 982.325L466.459 982.291C464.754 982.879 462.954 983.18 461.141 983.18V983.18Z" fill="#7030A0"/>
<path d="M315.221 904.754C311.627 904.758 308.18 906.124 305.638 908.552C303.096 910.98 301.666 914.273 301.662 917.707V1183.27C301.666 1186.7 303.096 1189.99 305.638 1192.42C308.18 1194.85 311.627 1196.22 315.221 1196.22H348.576C352.171 1196.22 355.618 1194.85 358.16 1192.42C360.702 1189.99 362.132 1186.7 362.136 1183.27V917.707C362.132 914.273 360.702 910.98 358.16 908.552C355.618 906.124 352.171 904.758 348.576 904.754H315.221Z" fill="#7030A0"/>
<path d="M249.25 904.754C245.655 904.758 242.209 906.124 239.667 908.552C237.125 910.98 235.695 914.273 235.691 917.707V1183.27C235.695 1186.7 237.125 1189.99 239.667 1192.42C242.209 1194.85 245.655 1196.22 249.25 1196.22H282.605C286.2 1196.22 289.647 1194.85 292.189 1192.42C294.731 1189.99 296.161 1186.7 296.165 1183.27V917.707C296.161 914.273 294.731 910.98 292.189 908.552C289.647 906.124 286.2 904.758 282.605 904.754H249.25Z" fill="#7030A0"/>
<path d="M297.917 626.532C361.57 626.532 413.171 577.24 413.171 516.434C413.171 455.629 361.57 406.336 297.917 406.336C234.263 406.336 182.662 455.629 182.662 516.434C182.662 577.24 234.263 626.532 297.917 626.532Z" fill="#7030A0"/>
<path d="M336.271 562.651C343.742 562.453 353.04 562.205 360.203 557.207C362.336 555.657 364.089 553.681 365.338 551.417C366.587 549.152 367.303 546.654 367.435 544.097C367.565 542.28 367.252 540.459 366.523 538.776C365.794 537.094 364.667 535.595 363.231 534.397C359.489 531.377 354.026 530.669 348.139 532.322L354.239 489.738L349.761 489.152L342.59 539.215L346.329 537.575C350.664 535.676 356.615 534.709 360.313 537.695C361.221 538.475 361.929 539.445 362.381 540.529C362.832 541.613 363.016 542.782 362.918 543.945C362.809 545.848 362.271 547.706 361.343 549.393C360.414 551.08 359.116 552.555 357.537 553.72C351.963 557.61 344.551 558.111 336.145 558.336L336.271 562.651Z" fill="#2F2E41"/>
<path d="M400.726 493.411H376.384V497.729H400.726V493.411Z" fill="#2F2E41"/>
<path d="M323.89 493.411H299.548V497.729H323.89V493.411Z" fill="#2F2E41"/>
<path d="M412.117 984.522L370.634 695.245C370.189 692.143 368.583 689.3 366.114 687.242C363.644 685.184 360.477 684.05 357.2 684.05H325.888C326.018 683.337 326.086 682.615 326.091 681.891V671.097C326.091 667.662 324.662 664.368 322.119 661.938C319.577 659.509 316.128 658.145 312.532 658.145H285.413C281.817 658.145 278.368 659.509 275.825 661.938C273.282 664.368 271.854 667.662 271.854 671.097V681.891C271.858 682.615 271.926 683.337 272.057 684.05H240.745C237.468 684.05 234.301 685.184 231.831 687.242C229.361 689.3 227.755 692.143 227.31 695.245L185.828 984.522C185.565 986.355 185.716 988.219 186.271 989.991C186.826 991.763 187.771 993.401 189.044 994.795C190.316 996.189 191.887 997.306 193.649 998.071C195.412 998.837 197.325 999.233 199.261 999.233H398.683C400.619 999.233 402.533 998.837 404.295 998.071C406.058 997.306 407.628 996.189 408.901 994.795C410.174 993.401 411.119 991.763 411.674 989.992C412.228 988.22 412.38 986.355 412.117 984.522V984.522Z" fill="#2F2E41"/>
<path d="M347.56 838.669V700.353L348.565 700.247C365.757 698.491 383.037 702.684 397.267 712.065C411.497 721.445 421.733 735.39 426.114 751.367L451.903 816.519L347.56 838.669Z" fill="#2F2E41"/>
<path d="M292.113 629.968L212.394 600.41C199.359 595.576 186.25 590.89 173.284 585.89C167.729 584.041 162.613 581.161 158.229 577.415C154.413 573.555 151.812 568.747 150.724 563.54C147.959 552.376 148.459 540.171 148.656 528.778C148.809 516.315 149.883 503.878 151.869 491.559C155.35 468.41 163.526 446.133 175.938 425.974C198.294 390.934 236.813 364.571 281.119 366.675C301.632 367.649 322.262 374.68 337.502 388.077C339.092 389.892 340.875 391.543 342.824 393.004C344.179 393.489 345.653 393.584 347.063 393.276C348.923 393.162 350.784 393.075 352.647 393.014C359.111 392.754 365.586 393.013 372.004 393.79C383.7 394.997 394.786 399.394 403.937 406.456C411.553 412.715 417.75 421.55 418.388 431.368C418.696 435.876 417.916 440.39 416.108 444.564C414.3 448.738 411.512 452.459 407.96 455.44C398.449 463.097 384.88 460.406 373.471 459.828L331.677 457.713L310.502 456.642C306.142 456.421 306.154 462.898 310.502 463.118L366.784 465.966C375.829 466.424 385.15 467.546 394.202 467.028C401.157 466.727 407.798 464.175 413.034 459.791C417.816 455.595 421.377 450.287 423.372 444.384C425.367 438.482 425.727 432.186 424.416 426.111C421.515 412.862 411.192 401.901 399.09 395.381C382.625 386.508 362.959 385.658 344.535 386.97L346.932 387.918C326.091 366.55 294.167 357.529 264.197 360.686C232.553 364.019 204.409 380.883 184.188 403.943C161.642 429.652 149.356 461.711 144.58 494.676C142.094 512.474 141.276 530.449 142.135 548.386C142.099 556.297 143.516 564.152 146.321 571.595C149.52 578.839 155.306 584.765 162.648 588.318C171.066 592.2 179.721 595.596 188.565 598.487L217.935 609.377L275.626 630.768L290.311 636.213C294.38 637.722 296.143 631.462 292.113 629.968Z" fill="#2F2E41"/>
<path d="M166.769 409.883C159.841 409.883 153.069 407.921 147.308 404.244C141.548 400.567 137.058 395.342 134.407 389.227C131.756 383.113 131.062 376.385 132.414 369.894C133.765 363.403 137.101 357.441 142 352.762C146.899 348.082 153.141 344.895 159.935 343.604C166.73 342.313 173.773 342.975 180.174 345.508C186.574 348.041 192.045 352.329 195.894 357.832C199.743 363.335 201.797 369.804 201.797 376.422C201.787 385.294 198.093 393.799 191.526 400.072C184.959 406.345 176.056 409.873 166.769 409.883ZM166.769 349.437C161.182 349.437 155.72 351.02 151.075 353.985C146.429 356.95 142.809 361.165 140.671 366.096C138.533 371.026 137.973 376.452 139.063 381.687C140.153 386.921 142.844 391.729 146.794 395.503C150.745 399.277 155.778 401.847 161.258 402.889C166.738 403.93 172.418 403.395 177.579 401.353C182.741 399.311 187.153 395.852 190.257 391.414C193.361 386.977 195.018 381.759 195.018 376.422C195.009 369.268 192.03 362.409 186.734 357.35C181.439 352.291 174.258 349.445 166.769 349.437V349.437Z" fill="#2F2E41"/>
<path d="M709.804 472.393L633.987 417L576 489.425L651.817 544.818L709.804 472.393Z" fill="#F0EFFF"/>
<path d="M343.513 235.765C355.493 235.756 367.307 238.426 378.012 243.563C388.716 248.7 398.013 256.159 405.157 265.345L449.428 210.05L316.594 113L215 239.891L272.251 281.72C277.98 268.146 287.826 256.519 300.524 248.33C313.222 240.141 328.193 235.766 343.513 235.765V235.765Z" fill="#F0EFFF"/>
<rect x="609" y="596" width="737" height="233" rx="116.5" fill="#3F3D56"/>
<rect x="634.359" y="612.069" width="686.81" height="200.862" rx="100.431" fill="white"/>
<path d="M1310.88 684.566V768.159C1292.59 771.653 1273.45 772.054 1254.91 769.33C1236.38 766.607 1218.95 760.832 1203.98 752.449C1189 744.066 1176.87 733.299 1168.52 720.977C1160.16 708.654 1155.82 695.105 1155.81 681.37C1155.81 678.919 1155.94 676.493 1156.21 674.092H1224.06C1227.31 674.094 1230.52 673.515 1233.39 672.405C1236.26 671.295 1238.71 669.689 1240.53 667.728C1242.34 665.767 1243.47 663.512 1243.8 661.162C1244.13 658.811 1243.66 656.437 1242.43 654.25H1269.13C1274.61 654.249 1280.04 655.032 1285.1 656.555C1290.17 658.077 1294.77 660.31 1298.65 663.125C1302.53 665.941 1305.6 669.283 1307.7 672.962C1309.8 676.641 1310.88 680.584 1310.88 684.566Z" fill="#F0EFFF"/>
<path d="M1056.45 712.5H707.101C700.982 712.495 695.115 710.625 690.788 707.301C686.461 703.977 684.028 699.47 684.021 694.769V685.944C684.028 681.243 686.461 676.736 690.788 673.412C695.115 670.088 700.982 668.218 707.101 668.213H1056.45C1062.57 668.218 1068.44 670.088 1072.77 673.412C1077.09 676.736 1079.53 681.243 1079.53 685.944V694.769C1079.53 699.47 1077.09 703.977 1072.77 707.301C1068.44 710.625 1062.57 712.495 1056.45 712.5Z" fill="#F0EFFF"/>
<path d="M1057.61 700.31H708.255C701.83 700.305 695.67 698.341 691.127 694.851C686.584 691.361 684.028 686.629 684.021 681.693V672.867C684.028 667.931 686.584 663.199 691.127 659.709C695.67 656.219 701.83 654.256 708.255 654.25H1057.61C1064.03 654.256 1070.19 656.219 1074.74 659.709C1079.28 663.199 1081.83 667.931 1081.84 672.867V681.693C1081.83 686.629 1079.28 691.361 1074.74 694.851C1070.19 698.341 1064.03 700.305 1057.61 700.31V700.31ZM708.255 657.796C703.053 657.801 698.067 659.39 694.389 662.215C690.711 665.041 688.643 668.872 688.637 672.867V681.693C688.643 685.689 690.711 689.52 694.389 692.345C698.067 695.17 703.053 696.76 708.255 696.764H1057.61C1062.81 696.76 1067.8 695.17 1071.47 692.345C1075.15 689.52 1077.22 685.689 1077.23 681.693V672.867C1077.22 668.872 1075.15 665.041 1071.47 662.215C1067.8 659.39 1062.81 657.801 1057.61 657.796H708.255Z" fill="#3F3D56"/>
<path d="M760.172 691.21C770.079 691.21 778.11 684.958 778.11 677.247C778.11 669.535 770.079 663.284 760.172 663.284C750.265 663.284 742.234 669.535 742.234 677.247C742.234 684.958 750.265 691.21 760.172 691.21Z" fill="#7030A0"/>
<path d="M821.161 691.21C831.068 691.21 839.099 684.958 839.099 677.247C839.099 669.535 831.068 663.284 821.161 663.284C811.255 663.284 803.223 669.535 803.223 677.247C803.223 684.958 811.255 691.21 821.161 691.21Z" fill="#7030A0"/>
<path d="M882.151 691.21C892.058 691.21 900.089 684.958 900.089 677.247C900.089 669.535 892.058 663.284 882.151 663.284C872.244 663.284 864.213 669.535 864.213 677.247C864.213 684.958 872.244 691.21 882.151 691.21Z" fill="#7030A0"/>
<path d="M1004.13 691.21C1014.04 691.21 1022.07 684.958 1022.07 677.247C1022.07 669.535 1014.04 663.284 1004.13 663.284C994.222 663.284 986.191 669.535 986.191 677.247C986.191 684.958 994.222 691.21 1004.13 691.21Z" fill="#7030A0"/>
<path d="M943.14 691.21C953.047 691.21 961.078 684.958 961.078 677.247C961.078 669.535 953.047 663.284 943.14 663.284C933.233 663.284 925.202 669.535 925.202 677.247C925.202 684.958 933.233 691.21 943.14 691.21Z" fill="#7030A0"/>
<path d="M804.124 771.068H718.326C715.16 771.065 712.126 770.151 709.887 768.525C707.649 766.899 706.39 764.695 706.386 762.395V758.079C706.39 755.779 707.649 753.575 709.887 751.949C712.126 750.323 715.16 749.409 718.326 749.406H804.124C807.29 749.409 810.324 750.323 812.563 751.949C814.801 753.575 816.06 755.779 816.064 758.079V762.395C816.06 764.695 814.801 766.899 812.563 768.525C810.324 770.151 807.29 771.065 804.124 771.068V771.068Z" fill="#7030A0"/>
<path d="M829.009 771.152H711.263C706.702 771.148 702.329 769.829 699.104 767.485C695.878 765.141 694.064 761.963 694.059 758.649V752.722C694.064 749.407 695.878 746.229 699.104 743.885C702.329 741.541 706.702 740.223 711.263 740.219H829.009C833.571 740.223 837.944 741.541 841.169 743.885C844.394 746.229 846.208 749.407 846.214 752.722V758.649C846.208 761.963 844.394 765.141 841.169 767.485C837.944 769.829 833.571 771.148 829.009 771.152V771.152ZM711.263 742.6C707.571 742.603 704.031 743.671 701.42 745.568C698.809 747.466 697.34 750.038 697.336 752.722V758.649C697.34 761.332 698.809 763.905 701.42 765.802C704.031 767.7 707.571 768.767 711.263 768.77H829.009C832.702 768.767 836.242 767.7 838.853 765.802C841.464 763.905 842.933 761.332 842.937 758.649V752.722C842.933 750.038 841.464 747.466 838.853 745.568C836.242 743.671 832.702 742.603 829.009 742.6H711.263Z" fill="#3F3D56"/>
<path d="M1340 543.716C1340 471.023 1279.55 431.036 1210.5 412.096C1121.96 387.816 1057.12 436.949 1080.99 543.716C1086.4 567.913 1099.34 596.176 1115.35 620.348H1242.44C1284.89 592.261 1340 600.139 1340 543.716Z" fill="#7030A0"/>
<path d="M1214.43 651.918C1222.19 637.828 1232.01 627.662 1242.84 619.922H1115.23C1148.08 664.666 1191.63 693.379 1214.43 651.918Z" fill="#7030A0"/>
<path d="M1199.38 472.806C1208.98 472.806 1216.76 479.62 1216.76 488.027V518.47H1182V488.027C1182 479.62 1189.78 472.806 1199.38 472.806ZM1225.45 518.47V488.027C1225.45 475.417 1213.78 465.197 1199.38 465.197C1184.99 465.197 1173.31 475.417 1173.31 488.027V518.47C1163.72 518.47 1155.94 525.285 1155.94 533.687V571.739C1155.94 580.146 1163.72 586.96 1173.31 586.96H1225.45C1235.05 586.96 1242.83 580.146 1242.83 571.739V533.687C1242.83 525.285 1235.05 518.47 1225.45 518.47ZM1173.31 526.079H1225.45C1230.25 526.079 1234.15 529.484 1234.15 533.687V571.739C1234.15 575.942 1230.25 579.352 1225.45 579.352H1173.31C1168.52 579.352 1164.62 575.942 1164.62 571.739V533.687C1164.62 529.484 1168.52 526.079 1173.31 526.079Z" fill="white"/>
<path d="M1336.5 1195.26L1336.37 1196.06C1336.2 1195.28 1336.04 1194.48 1335.9 1193.69C1335.62 1192.41 1335.39 1191.13 1335.16 1189.84C1326.3 1139.57 1331.18 1088.1 1349.37 1039.9C1352.87 1030.49 1356.85 1021.26 1361.32 1012.2C1378.42 977.101 1402.65 945.201 1432.77 918.131C1442.55 909.121 1453.71 901.401 1465.91 895.221C1467.7 894.371 1469.5 893.561 1471.34 892.811C1482.63 887.881 1495.33 886.221 1507.7 888.061C1512.19 888.831 1516.55 890.141 1520.64 891.981C1522.08 892.611 1523.46 893.301 1524.82 894.041C1533.09 898.921 1540.15 905.291 1545.56 912.751C1550.97 920.211 1554.61 928.601 1556.26 937.381C1558.61 950.491 1558.07 963.881 1554.68 976.801C1554.39 978.041 1554.07 979.261 1553.74 980.491C1551.33 989.101 1548.31 997.561 1544.69 1005.82C1508.44 1089.86 1430.53 1164.42 1336.5 1195.26Z" fill="#40ED7B" fill-opacity="0.35"/>
<path d="M1520.4 892.241C1492.12 928.871 1465.4 966.421 1440.24 1004.9C1415.12 1043.35 1391.64 1082.62 1369.8 1122.71C1357.58 1145.14 1345.9 1167.8 1334.75 1190.69C1333.52 1193.22 1337.68 1195.42 1338.93 1192.86C1358.84 1152 1380.45 1111.87 1403.75 1072.45C1427.04 1033.08 1451.96 994.531 1478.52 956.831C1493.38 935.731 1508.73 914.931 1524.58 894.411C1526.35 892.121 1522.17 889.961 1520.4 892.241Z" fill="white"/>
<path d="M1550.67 977.021C1529.41 1001.91 1498.13 1018.25 1463.59 1022.49C1453.96 1023.68 1444.2 1023.85 1434.52 1023.01C1431.42 1022.75 1431.4 1027.1 1434.47 1027.36C1470.49 1030.09 1506.26 1019.9 1534 999.021C1541.78 993.161 1548.78 986.511 1554.85 979.191C1556.71 976.961 1552.52 974.801 1550.67 977.021Z" fill="white"/>
<path d="M1369.12 1112.03C1364.18 1105.69 1360.08 1098.85 1356.89 1091.65C1349.61 1075.24 1347.02 1057.44 1349.37 1039.89C1352.87 1030.49 1356.85 1021.25 1361.32 1012.19C1361.59 1012.54 1361.76 1012.96 1361.8 1013.39C1361.84 1013.82 1361.75 1014.25 1361.55 1014.64C1358.4 1021.44 1356.14 1028.55 1354.8 1035.81C1350.02 1061.73 1356.66 1088.31 1373.31 1109.87C1373.52 1110.11 1373.66 1110.39 1373.72 1110.69C1373.77 1110.99 1373.75 1111.29 1373.63 1111.58C1373.45 1111.95 1373.15 1112.28 1372.78 1112.53C1372.41 1112.77 1371.98 1112.92 1371.52 1112.97C1371.07 1113.01 1370.6 1112.95 1370.18 1112.79C1369.76 1112.62 1369.4 1112.36 1369.12 1112.03Z" fill="white"/>
<path d="M1466.63 892.471C1460.81 913.361 1462.54 935.371 1471.58 955.311C1471.89 955.811 1472.42 956.181 1473.04 956.331C1473.65 956.481 1474.31 956.401 1474.87 956.121C1475.41 955.831 1475.81 955.351 1475.97 954.801C1476.14 954.251 1476.07 953.661 1475.76 953.161C1467.31 934.241 1465.74 913.391 1471.28 893.621C1471.43 893.071 1471.33 892.491 1471.01 892.011C1470.69 891.521 1470.17 891.171 1469.57 891.021C1468.97 890.871 1468.32 890.941 1467.77 891.211C1467.22 891.481 1466.81 891.931 1466.63 892.471Z" fill="white"/>
<path d="M1335.91 1090.29L1336.2 1091.06C1335.65 1090.44 1335.1 1089.79 1334.56 1089.15C1333.66 1088.14 1332.79 1087.1 1331.93 1086.06C1298.16 1045.24 1275.94 997.621 1267.21 947.331C1265.46 937.531 1264.22 927.681 1263.51 917.791C1260.55 879.551 1265.57 841.161 1278.29 804.591C1282.3 792.511 1288.2 781.011 1295.82 770.431C1296.97 768.921 1298.14 767.451 1299.39 766.021C1306.84 756.931 1317.23 750.141 1329.14 746.601C1333.51 745.391 1338.05 744.741 1342.62 744.651C1344.22 744.601 1345.8 744.641 1347.38 744.721C1357.22 745.591 1366.76 748.281 1375.39 752.621C1384.03 756.961 1391.58 762.861 1397.57 769.951C1406.4 780.571 1412.83 792.661 1416.49 805.521C1416.87 806.731 1417.22 807.951 1417.56 809.181C1419.87 817.811 1421.55 826.571 1422.6 835.401C1433.83 924.991 1403.28 1023.62 1335.91 1090.29Z" fill="#58F08B" fill-opacity="0.31"/>
<path d="M1342.55 744.991C1336.38 789.261 1332.08 833.701 1329.64 878.311C1327.21 922.871 1326.67 967.481 1328 1012.12C1328.74 1037.1 1330.08 1062.05 1332.01 1086.98C1332.22 1089.74 1337.04 1089.95 1336.83 1087.16C1333.39 1042.65 1331.84 998.061 1332.15 953.401C1332.47 908.791 1334.67 864.221 1338.75 819.711C1341.04 794.811 1343.91 769.961 1347.37 745.161C1347.75 742.391 1342.93 742.231 1342.55 744.991Z" fill="white"/>
<path d="M1413.05 807.391C1407.06 838.331 1387.78 865.901 1359.38 884.111C1351.46 889.191 1342.91 893.431 1333.91 896.741C1331.03 897.801 1333.25 901.661 1336.1 900.601C1369.41 887.951 1395.83 863.961 1409.63 833.861C1413.5 825.411 1416.27 816.591 1417.87 807.571C1418.37 804.811 1413.55 804.661 1413.05 807.401V807.391Z" fill="white"/>
<path d="M1321.89 1002.94C1314.25 999.391 1307.08 995.061 1300.55 990.021C1285.64 978.531 1274.18 963.851 1267.21 947.331C1265.46 937.531 1264.22 927.691 1263.51 917.791C1263.93 918.001 1264.29 918.291 1264.55 918.661C1264.81 919.021 1264.95 919.441 1264.97 919.871C1265.69 927.211 1267.35 934.451 1269.92 941.441C1279.04 966.401 1298.62 987.151 1324.49 999.281C1324.8 999.401 1325.07 999.591 1325.27 999.831C1325.47 1000.07 1325.6 1000.36 1325.65 1000.66C1325.68 1001.07 1325.59 1001.48 1325.39 1001.85C1325.19 1002.22 1324.88 1002.54 1324.5 1002.77C1324.12 1003 1323.68 1003.14 1323.22 1003.17C1322.76 1003.2 1322.31 1003.12 1321.89 1002.94Z" fill="white"/>
<path d="M1295.04 767.691C1300.66 788.621 1313.54 807.391 1331.82 821.271C1332.36 821.581 1333.01 821.681 1333.63 821.561C1334.26 821.431 1334.8 821.091 1335.15 820.611C1335.48 820.121 1335.59 819.541 1335.45 818.981C1335.31 818.421 1334.94 817.931 1334.42 817.611C1317.17 804.391 1305.04 786.591 1299.75 766.761C1299.6 766.211 1299.21 765.741 1298.68 765.441C1298.15 765.151 1297.51 765.051 1296.89 765.171C1296.28 765.291 1295.75 765.621 1295.4 766.091C1295.06 766.561 1294.93 767.141 1295.04 767.691Z" fill="white"/>
<path d="M1338 1195.79L1338.7 1196.3C1337.87 1196.04 1337.02 1195.76 1336.18 1195.49C1334.81 1195.07 1333.46 1194.62 1332.11 1194.15C1279.26 1176.15 1232.08 1146.81 1194.66 1108.67C1187.33 1101.26 1180.4 1093.57 1173.88 1085.57C1148.54 1054.79 1129.81 1020.01 1118.67 983.021C1114.83 970.901 1112.93 958.341 1113.03 945.731C1113.09 943.911 1113.2 942.101 1113.4 940.291C1114.24 929.011 1118.94 918.251 1126.85 909.491C1129.82 906.351 1133.25 903.591 1137.05 901.301C1138.37 900.491 1139.72 899.751 1141.1 899.061C1149.91 895.011 1159.55 892.651 1169.42 892.111C1179.3 891.581 1189.18 892.891 1198.47 895.961C1212.26 900.621 1224.91 907.681 1235.67 916.741C1236.72 917.591 1237.75 918.441 1238.76 919.311C1245.87 925.461 1252.52 932.021 1258.68 938.951C1321.69 1009 1354.91 1106.93 1338 1195.79Z" fill="#40ED7B" fill-opacity="0.28"/>
<path d="M1137.19 901.62C1158.45 941.92 1181.39 981.45 1206 1020.21C1230.59 1058.94 1256.79 1096.79 1284.6 1133.76C1300.16 1154.44 1316.2 1174.82 1332.73 1194.9C1334.56 1197.12 1338.75 1194.95 1336.89 1192.7C1307.4 1156.86 1279.43 1120.05 1253 1082.27C1226.61 1044.52 1201.82 1005.9 1178.66 966.42C1165.7 944.33 1153.26 922 1141.35 899.43C1140.02 896.9 1135.86 899.11 1137.19 901.62Z" fill="white"/>
<path d="M1233.9 919.99C1247.34 948.96 1247.57 981.55 1234.53 1010.67C1230.89 1018.8 1226.22 1026.51 1220.61 1033.67C1218.82 1035.96 1223 1038.14 1224.78 1035.86C1245.27 1009.04 1253.2 976.01 1246.83 943.94C1245.04 934.95 1242.1 926.18 1238.06 917.79C1236.84 915.23 1232.68 917.44 1233.9 919.99Z" fill="white"/>
<path d="M1273.97 1128.99C1265.41 1129.71 1256.78 1129.53 1248.26 1128.46C1228.84 1126.01 1210.4 1119.21 1194.66 1108.67C1187.33 1101.26 1180.4 1093.57 1173.88 1085.57C1174.36 1085.54 1174.84 1085.62 1175.28 1085.8C1175.71 1085.98 1176.08 1086.26 1176.36 1086.62C1181.35 1092.45 1187.08 1097.75 1193.42 1102.39C1216.02 1118.99 1244.93 1126.98 1273.97 1124.65C1274.31 1124.6 1274.64 1124.63 1274.96 1124.73C1275.28 1124.84 1275.56 1125.01 1275.77 1125.24C1276.05 1125.57 1276.22 1125.96 1276.27 1126.37C1276.32 1126.79 1276.25 1127.2 1276.07 1127.58C1275.89 1127.96 1275.6 1128.29 1275.23 1128.54C1274.86 1128.79 1274.43 1128.94 1273.97 1128.99Z" fill="white"/>
<path d="M-146 1193.5C-146 1197.11 -143.839 1200 -141.148 1200H1503.15C1505.84 1200 1508 1197.11 1508 1193.5C1508 1189.89 1505.84 1187 1503.15 1187H-141.148C-143.839 1187 -146 1189.89 -146 1193.5Z" fill="#E0DEFF"/>
</g>
<defs>
<clipPath id="clip0_2972_1636">
<rect width="1600" height="1200" fill="white"/>
</clipPath>
</defs>
</svg>
