<svg width="1400" height="1200" viewBox="0 0 1400 1200" fill="none" xmlns="http://www.w3.org/2000/svg">
<g clip-path="url(#clip0_2972_1618)">
<path d="M892.942 268.997H818.451V827.625C818.451 836.39 816.489 845.069 812.676 853.167C808.862 861.264 803.273 868.622 796.228 874.819C789.182 881.017 780.818 885.933 771.612 889.287C762.406 892.641 752.539 894.368 742.575 894.368H173.063V895.006C173.063 903.771 175.026 912.45 178.839 920.548C182.652 928.645 188.241 936.003 195.287 942.2C202.333 948.398 210.697 953.314 219.903 956.668C229.108 960.022 238.975 961.749 248.939 961.749H892.942C902.906 961.749 912.772 960.022 921.978 956.668C931.184 953.314 939.548 948.398 946.594 942.2C953.64 936.003 959.229 928.645 963.042 920.548C966.855 912.45 968.818 903.771 968.818 895.006V335.739C968.817 318.038 960.823 301.062 946.594 288.545C932.364 276.028 913.065 268.997 892.942 268.997V268.997Z" fill="#F0EFFF"/>
<path d="M1246.06 1156.74C1247.38 1156.8 1248.69 1156.49 1249.8 1155.87C1250.92 1155.25 1251.79 1154.34 1252.3 1153.27C1252.81 1152.2 1252.93 1151.02 1252.65 1149.88C1252.37 1148.75 1251.7 1147.72 1250.73 1146.93L1250.29 1145.39C1250.35 1145.26 1250.4 1145.14 1250.46 1145.01C1251.79 1142.25 1254.02 1139.9 1256.86 1138.25C1259.71 1136.6 1263.04 1135.72 1266.45 1135.74C1269.86 1135.75 1273.18 1136.64 1276.01 1138.31C1278.84 1139.98 1281.05 1142.35 1282.36 1145.12C1287.57 1156.17 1294.21 1167.24 1295.85 1178.92C1296.57 1184.09 1296.26 1189.32 1294.95 1194.4C1307.2 1170.89 1313.56 1145.34 1313.6 1119.48C1313.61 1112.99 1313.2 1106.5 1312.38 1100.06C1311.7 1094.77 1310.76 1089.52 1309.55 1084.31C1302.99 1056.03 1288.89 1029.52 1268.42 1006.97C1258.51 1002.21 1250.49 994.901 1245.46 986.016C1243.63 982.822 1242.34 979.412 1241.63 975.893C1242.74 976.022 1245.84 961.048 1245 960.129C1246.56 958.05 1249.34 957.016 1251.04 954.987C1259.51 944.897 1271.16 946.658 1277.25 960.371C1290.25 966.142 1290.37 975.714 1282.4 984.92C1277.32 990.776 1276.63 998.701 1272.17 1004.97C1272.63 1005.49 1273.11 1005.99 1273.57 1006.5C1281.94 1015.97 1289.24 1026.15 1295.36 1036.87C1293.87 1024.86 1295.65 1012.7 1300.54 1001.41C1305.5 990.884 1314.8 982.02 1322.98 972.922C1325.15 970.478 1328.09 968.653 1331.43 967.679C1334.78 966.704 1338.37 966.624 1341.77 967.447C1345.16 968.271 1348.21 969.961 1350.51 972.305C1352.81 974.649 1354.28 977.542 1354.71 980.617C1354.73 980.751 1354.74 980.885 1354.76 981.019C1353.55 981.622 1352.35 982.263 1351.19 982.94C1349.73 983.8 1348.59 985.029 1347.94 986.465C1347.28 987.901 1347.13 989.478 1347.52 990.989C1347.9 992.501 1348.79 993.875 1350.07 994.934C1351.35 995.992 1352.97 996.684 1354.71 996.92L1354.89 996.944C1354.46 1000.8 1353.69 1004.62 1352.6 1008.37C1363.1 1044.1 1340.43 1057.11 1308.05 1057.7C1307.34 1058.02 1306.64 1058.34 1305.93 1058.65C1312.07 1073.97 1315.93 1089.93 1317.4 1106.13C1318.23 1115.69 1318.18 1125.29 1317.25 1134.84L1317.31 1134.5C1319.65 1123.88 1326.09 1114.3 1335.54 1107.37C1349.57 1097.23 1369.39 1093.5 1384.53 1085.35C1386.14 1084.44 1388.01 1083.96 1389.92 1083.95C1391.83 1083.95 1393.71 1084.43 1395.32 1085.33C1396.93 1086.23 1398.22 1087.52 1399.03 1089.04C1399.84 1090.57 1400.13 1092.26 1399.88 1093.93L1399.82 1094.28C1397.56 1095.09 1395.37 1096.02 1393.24 1097.07C1392.03 1097.68 1390.84 1098.32 1389.67 1098.99C1388.21 1099.85 1387.07 1101.08 1386.42 1102.52C1385.76 1103.96 1385.62 1105.53 1386 1107.04C1386.38 1108.55 1387.27 1109.93 1388.55 1110.99C1389.84 1112.05 1391.45 1112.74 1393.19 1112.97L1393.37 1113C1393.5 1113.01 1393.61 1113.03 1393.74 1113.05C1389.88 1121.14 1384.47 1128.6 1377.74 1135.08C1371.17 1166.27 1342.97 1169.23 1312.8 1160.15H1312.78C1309.47 1172.8 1304.67 1185.12 1298.47 1196.9H1247.34C1247.16 1196.4 1247 1195.88 1246.83 1195.38C1251.56 1195.64 1256.31 1195.39 1260.98 1194.64C1257.18 1190.55 1253.39 1186.42 1249.6 1182.33C1249.51 1182.25 1249.43 1182.17 1249.36 1182.08C1247.43 1179.99 1245.49 1177.91 1243.57 1175.81L1243.57 1175.81C1243.46 1169.39 1244.3 1162.98 1246.06 1156.74L1246.06 1156.74Z" fill="#ABE8C0"/>
<path d="M719.878 181.651H75.8757C33.9707 181.651 0 211.532 0 248.393V807.661C0 844.521 33.9707 874.403 75.8757 874.403H719.878C761.783 874.403 795.754 844.521 795.754 807.661V248.393C795.754 211.532 761.783 181.651 719.878 181.651Z" fill="#F0EFFF"/>
<path d="M75.8763 195.376C67.9613 195.376 60.1238 196.748 52.8113 199.412C45.4987 202.076 38.8544 205.982 33.2577 210.905C27.6609 215.828 23.2213 221.672 20.1924 228.105C17.1634 234.537 15.6045 241.431 15.6045 248.393V807.661C15.6045 821.722 21.9545 835.207 33.2577 845.15C44.5608 855.092 59.8912 860.678 75.8763 860.678H486.894C525.405 860.678 563.539 854.006 599.118 841.042C634.698 828.079 667.026 809.078 694.257 785.125C721.488 761.171 743.09 732.734 757.827 701.438C772.565 670.141 780.15 636.598 780.15 602.723V248.393C780.15 241.431 778.591 234.537 775.562 228.105C772.533 221.672 768.093 215.828 762.497 210.905C756.9 205.982 750.256 202.076 742.943 199.412C735.63 196.748 727.793 195.376 719.878 195.376H75.8763Z" fill="white"/>
<path d="M577.906 365.105H216.441C213.124 365.105 209.943 363.946 207.597 361.883C205.252 359.82 203.935 357.022 203.935 354.104C203.935 351.187 205.252 348.389 207.597 346.326C209.943 344.262 213.124 343.104 216.441 343.104H577.906C581.222 343.104 584.403 344.262 586.749 346.326C589.094 348.389 590.412 351.187 590.412 354.104C590.412 357.022 589.094 359.82 586.749 361.883C584.403 363.946 581.222 365.105 577.906 365.105Z" fill="#F2F2F2"/>
<path d="M577.906 599.691H216.441C213.124 599.691 209.943 598.532 207.597 596.469C205.252 594.406 203.935 591.608 203.935 588.69C203.935 585.773 205.252 582.974 207.597 580.911C209.943 578.848 213.124 577.689 216.441 577.689H577.906C581.222 577.689 584.403 578.848 586.749 580.911C589.094 582.974 590.412 585.773 590.412 588.69C590.412 591.608 589.094 594.406 586.749 596.469C584.403 598.532 581.222 599.691 577.906 599.691Z" fill="#F2F2F2"/>
<path d="M724.689 482.474H69.6574C66.3406 482.474 63.1596 481.315 60.8143 479.252C58.4689 477.189 57.1514 474.391 57.1514 471.474C57.1514 468.556 58.4689 465.758 60.8143 463.695C63.1596 461.632 66.3406 460.473 69.6574 460.473H724.689C728.006 460.473 731.187 461.632 733.532 463.695C735.878 465.758 737.195 468.556 737.195 471.474C737.195 474.391 735.878 477.189 733.532 479.252C731.187 481.315 728.006 482.474 724.689 482.474V482.474Z" fill="#F2F2F2"/>
<path d="M674.24 1197.03C674.239 1197.42 674.325 1197.81 674.494 1198.17C674.664 1198.53 674.912 1198.86 675.226 1199.13C675.54 1199.41 675.913 1199.63 676.323 1199.78C676.733 1199.93 677.173 1200 677.617 1200H1396.23C1397.12 1200 1397.98 1199.69 1398.61 1199.13C1399.25 1198.57 1399.6 1197.82 1399.6 1197.03C1399.6 1196.24 1399.25 1195.49 1398.61 1194.93C1397.98 1194.37 1397.12 1194.06 1396.23 1194.06H677.617C677.173 1194.06 676.733 1194.14 676.323 1194.28C675.913 1194.43 675.54 1194.65 675.226 1194.93C674.912 1195.2 674.664 1195.53 674.495 1195.89C674.325 1196.25 674.239 1196.64 674.24 1197.03Z" fill="#CCCCCC"/>
<path d="M810.025 706H273.809C262.146 706 250.961 710.478 242.714 718.448C234.467 726.418 229.833 737.228 229.833 748.5C229.833 759.772 234.467 770.582 242.714 778.552C250.961 786.522 262.146 791 273.809 791H810.025C821.688 791 832.873 786.522 841.12 778.552C849.367 770.582 854 759.772 854 748.5C854 737.228 849.367 726.418 841.12 718.448C832.873 710.478 821.688 706 810.025 706V706Z" fill="white"/>
<path d="M809.509 802H273.158C260.739 802 248.829 796.943 240.048 787.941C231.267 778.939 226.333 766.73 226.333 754C226.333 741.27 231.267 729.061 240.048 720.059C248.829 711.057 260.739 706 273.158 706H809.509C821.928 706 833.838 711.057 842.619 720.059C851.4 729.061 856.333 741.27 856.333 754C856.333 766.73 851.4 778.939 842.619 787.941C833.838 796.943 821.928 802 809.509 802V802ZM273.158 711.818C262.245 711.818 251.778 716.262 244.061 724.173C236.344 732.084 232.009 742.813 232.009 754C232.009 765.187 236.344 775.916 244.061 783.827C251.778 791.738 262.245 796.182 273.158 796.182H809.509C820.422 796.182 830.889 791.738 838.606 783.827C846.323 775.916 850.658 765.187 850.658 754C850.658 742.813 846.323 732.084 838.606 724.173C830.889 716.262 820.422 711.818 809.509 711.818H273.158Z" fill="#7030A0"/>
<path d="M842.024 882.241H605.392C602.075 882.241 598.894 881.082 596.549 879.019C594.203 876.956 592.886 874.158 592.886 871.241C592.886 868.323 594.203 865.525 596.549 863.462C598.894 861.399 602.075 860.24 605.392 860.24H842.024C845.341 860.24 848.522 861.399 850.867 863.462C853.213 865.525 854.53 868.323 854.53 871.241C854.53 874.158 853.213 876.956 850.867 879.019C848.522 881.082 845.341 882.241 842.024 882.241V882.241Z" fill="#7030A0"/>
<path d="M316.167 782C335.496 782 351.167 768.569 351.167 752C351.167 735.431 335.496 722 316.167 722C296.837 722 281.167 735.431 281.167 752C281.167 768.569 296.837 782 316.167 782Z" fill="#7030A0"/>
<path d="M435.167 782C454.496 782 470.167 768.569 470.167 752C470.167 735.431 454.496 722 435.167 722C415.837 722 400.167 735.431 400.167 752C400.167 768.569 415.837 782 435.167 782Z" fill="#7030A0"/>
<path d="M554.167 782C573.496 782 589.167 768.569 589.167 752C589.167 735.431 573.496 722 554.167 722C534.837 722 519.167 735.431 519.167 752C519.167 768.569 534.837 782 554.167 782Z" fill="#7030A0"/>
<path d="M792.167 782C811.496 782 827.167 768.569 827.167 752C827.167 735.431 811.496 722 792.167 722C772.837 722 757.167 735.431 757.167 752C757.167 768.569 772.837 782 792.167 782Z" fill="#7030A0"/>
<path d="M673.167 782C692.496 782 708.167 768.569 708.167 752C708.167 735.431 692.496 722 673.167 722C653.837 722 638.167 735.431 638.167 752C638.167 768.569 653.837 782 673.167 782Z" fill="#7030A0"/>
<path d="M351.167 195.716C351.167 123.023 280.638 83.036 200.078 64.096C96.7869 39.8159 21.1413 88.9492 48.9847 195.716C55.299 219.913 70.393 248.176 89.078 272.348H237.344C286.87 244.261 351.167 252.139 351.167 195.716Z" fill="#7030A0"/>
<path d="M204.674 303.918C213.717 289.828 225.176 279.662 237.81 271.922H88.9404C127.255 316.666 178.066 345.379 204.674 303.918Z" fill="#7030A0"/>
<path d="M187.115 124.806C198.31 124.806 207.392 131.621 207.392 140.028V170.471H166.837V140.028C166.837 131.621 175.914 124.806 187.115 124.806ZM217.528 170.471V140.028C217.528 127.417 203.911 117.198 187.115 117.198C170.319 117.198 156.696 127.417 156.696 140.028V170.471C145.501 170.471 136.424 177.286 136.424 185.688V223.739C136.424 232.146 145.501 238.961 156.696 238.961H217.528C228.729 238.961 237.805 232.146 237.805 223.739V185.688C237.805 177.286 228.729 170.471 217.528 170.471ZM156.696 178.079H217.528C223.128 178.079 227.669 181.484 227.669 185.688V223.739C227.669 227.943 223.128 231.352 217.528 231.352H156.696C151.101 231.352 146.56 227.943 146.56 223.739V185.688C146.56 181.484 151.101 178.079 156.696 178.079Z" fill="white"/>
</g>
<path d="M907.712 385.431C909.029 387.447 910.764 389.15 912.796 390.422C914.829 391.694 917.111 392.505 919.484 392.799C921.857 393.092 924.265 392.861 926.541 392.122C928.817 391.383 930.908 390.153 932.667 388.517L1007.67 422.706L1022.13 404.07L932.754 364.122C929.809 361.335 925.954 359.736 921.92 359.628C917.886 359.52 913.953 360.912 910.866 363.538C907.779 366.165 905.753 369.844 905.172 373.879C904.591 377.914 905.495 382.024 907.712 385.431H907.712Z" fill="#A0616A"/>
<path d="M1229.58 406.749L1237.02 449.339C1237.37 451.326 1237.3 453.364 1236.82 455.323C1236.34 457.282 1235.46 459.118 1234.24 460.713C1233.02 462.309 1231.48 463.628 1229.72 464.587C1227.96 465.546 1226.03 466.123 1224.04 466.281L1097.64 476.324L949.069 409.14L966.814 375.104L1095.79 416.371L1229.58 406.749Z" fill="#7030A0"/>
<path d="M1213.61 594.468L1167.57 693.578L1344.69 675.453L1307.71 580.31L1213.61 594.468Z" fill="#A0616A"/>
<path d="M1254.79 1164.11L1238 1163.97L1230.56 1097L1255.35 1097.21L1254.79 1164.11Z" fill="#A0616A"/>
<path d="M1201 1191.1C1200.98 1193.11 1201.76 1195.04 1203.15 1196.48C1204.55 1197.91 1206.45 1198.73 1208.44 1198.75L1241.83 1199.03L1247.68 1187.06L1249.82 1199.09L1262.42 1199.21L1259.24 1156.29L1254.86 1156L1236.98 1154.75L1231.21 1154.36L1231.11 1166.5L1204.29 1184.89C1203.28 1185.57 1202.46 1186.5 1201.89 1187.58C1201.31 1188.66 1201.01 1189.87 1201 1191.1V1191.1Z" fill="#2F2E41"/>
<path d="M1068.95 1164.19L1052.94 1159.07L1065.3 1092.85L1088.93 1100.41L1068.95 1164.19Z" fill="#A0616A"/>
<path d="M1009.68 1174.01C1009.08 1175.93 1009.26 1178.01 1010.18 1179.8C1011.1 1181.58 1012.68 1182.93 1014.57 1183.54L1046.41 1193.72L1055.48 1184.01L1054.03 1196.15L1066.04 1200L1075.48 1158.04L1071.37 1156.45L1054.64 1149.96L1049.24 1147.87L1045.62 1159.45L1014.63 1169.05C1013.47 1169.41 1012.42 1170.05 1011.55 1170.92C1010.69 1171.78 1010.05 1172.84 1009.68 1174.01V1174.01Z" fill="#2F2E41"/>
<path d="M1336.62 647.582L1175.58 677.397C1175.58 677.397 1149.75 696.92 1156.66 703.912C1163.57 710.903 1164.64 709.821 1160.1 714.407C1155.56 718.994 1145.74 725.126 1145.65 729.139C1145.55 733.153 1073.48 913.169 1073.48 913.169C1073.48 913.169 1081.49 909.124 1075.48 915.192C1069.48 921.26 1069.48 926.274 1069.48 926.274L1041.45 1117.46L1086.97 1120.17L1131.54 945.867L1230.95 783.034C1230.95 783.034 1240.81 928.239 1241.22 937.897C1241.64 947.555 1247.64 935.419 1241.64 947.555C1235.63 959.691 1231.63 951.6 1235.63 959.691C1239.64 967.781 1221.21 1132.5 1221.21 1132.5H1262.75L1351.86 791.089C1351.86 791.089 1383.56 693.484 1336.62 647.582Z" fill="#2F2E41"/>
<path d="M1289.18 374.499L1224.67 367.727L1207.96 389.651L1188.49 400.129C1180.25 404.563 1173.44 411.301 1168.9 419.537C1164.35 427.774 1162.24 437.16 1162.83 446.574L1185.59 580.31C1185.59 580.31 1166.37 624.038 1179.58 634.922C1192.79 645.805 1169.36 672.76 1197.6 659.194C1225.83 645.627 1347.74 661.216 1347.74 661.216L1321.71 586.378L1341.15 512.839L1343.29 451.177C1343.69 439.655 1340.31 428.323 1333.67 418.947C1327.03 409.571 1317.5 402.678 1306.58 399.343L1303.86 398.513L1289.18 374.499Z" fill="#7030A0"/>
<path d="M1377.99 324.53C1378.41 342.902 1371.62 360.691 1361.86 376.316C1358.96 367.195 1353.74 358.893 1348.3 350.979C1351.04 368.099 1348.12 385.655 1339.99 400.929C1339.71 401.136 1339.41 401.329 1339.11 401.506C1331.15 406.342 1321.06 408.301 1312.45 404.808C1330.24 385.437 1332.5 353.343 1317.59 331.616C1313.37 325.451 1307.91 319.999 1305.29 312.983C1301.17 301.788 1305.13 289.463 1307.64 277.792C1309.98 266.929 1310.39 254.003 1303.18 246.042C1303.95 244.929 1305 244.044 1306.22 243.476C1307.44 242.908 1308.78 242.678 1310.12 242.81C1314.57 243.445 1317.81 247.35 1319.87 251.373C1321.93 255.395 1323.29 259.853 1326.16 263.327C1331.48 269.83 1340.54 271.368 1348.18 274.795C1366.67 283.117 1377.55 304.087 1377.99 324.53Z" fill="#2F2E41"/>
<path d="M1381.98 750.337C1391.93 750.337 1400 742.186 1400 732.133C1400 722.079 1391.93 713.929 1381.98 713.929C1372.03 713.929 1363.97 722.079 1363.97 732.133C1363.97 742.186 1372.03 750.337 1381.98 750.337Z" fill="#7030A0"/>
<path d="M1222.33 314.026C1223.39 310.289 1216.1 333.133 1219.62 333.545C1235.63 335.401 1257.6 345.06 1268.75 349.567C1269.25 349.508 1269.75 349.449 1270.24 349.375C1271.44 349.243 1272.61 349.051 1273.76 348.831C1299.72 343.867 1309.7 303.573 1309.7 303.205C1309.7 301.394 1305.4 251.641 1298.62 250.905C1296.84 250.71 1295.05 250.612 1293.26 250.611H1276.44C1272.96 249.853 1269.43 249.336 1265.88 249.064H1265.85C1231.99 246.458 1205.29 267.311 1207.78 292.686C1207.8 292.716 1207.83 292.745 1207.84 292.775C1208.57 293.864 1209.2 294.895 1209.76 295.882C1210.31 296.81 1210.77 297.693 1211.17 298.533C1214.25 305.013 1206.32 313.167 1211.58 314.689C1218.58 316.713 1193.18 383.244 1220.87 383.244C1207.4 387.114 1219.41 324.335 1222.33 314.026Z" fill="#2F2E41"/>
<path d="M1252.56 353.064C1274.55 353.064 1292.38 335.049 1292.38 312.826C1292.38 290.603 1274.55 272.588 1252.56 272.588C1230.56 272.588 1212.73 290.603 1212.73 312.826C1212.73 335.049 1230.56 353.064 1252.56 353.064Z" fill="#A0616A"/>
<path d="M1207.78 294.881C1208.45 295.235 1209.1 295.559 1209.76 295.883C1210.46 296.221 1211.15 296.56 1211.85 296.869C1225.18 302.981 1236.04 303.659 1242.62 294.881C1242.8 290.263 1243.82 285.718 1245.65 281.479C1245.33 286.216 1246.56 290.927 1249.16 294.881H1262.43C1276.09 304.041 1283.1 304.999 1273.62 335.072C1270.98 343.451 1260.46 392.213 1264.6 399.444C1265.8 399.312 1278.52 345.903 1279.67 345.682C1305.64 340.719 1322.13 297.503 1320.02 295.058C1320.03 288.106 1318.45 281.246 1315.4 275.014C1311.54 267.119 1305.52 260.506 1298.06 255.957C1293.61 253.778 1288.97 252.018 1284.21 250.7C1284.09 250.67 1283.99 250.641 1283.87 250.611C1282.41 250.214 1280.91 249.845 1279.42 249.536C1276.34 248.879 1273.23 248.402 1270.09 248.108C1269.87 248.093 1269.65 248.078 1269.44 248.078C1268.19 248.081 1266.96 248.422 1265.88 249.065C1265.87 249.065 1265.87 249.08 1265.85 249.08C1265.08 249.534 1264.41 250.14 1263.87 250.862C1262.93 252.075 1262.42 253.575 1262.42 255.118H1247.66C1247.11 255.118 1246.56 255.132 1246.02 255.162C1236.16 255.502 1226.79 259.546 1219.73 266.503C1212.67 273.46 1208.43 282.828 1207.84 292.775C1207.8 293.482 1207.78 294.174 1207.78 294.881Z" fill="#2F2E41"/>
<path d="M1294.86 282.018C1309.35 282.018 1321.1 270.149 1321.1 255.509C1321.1 240.868 1309.35 229 1294.86 229C1280.37 229 1268.62 240.868 1268.62 255.509C1268.62 270.149 1280.37 282.018 1294.86 282.018Z" fill="#2F2E41"/>
<path d="M1382.19 739.638C1383.47 737.598 1384.29 735.301 1384.61 732.906C1384.92 730.512 1384.72 728.077 1384.01 725.769C1383.31 723.462 1382.11 721.337 1380.51 719.542C1378.91 717.747 1376.94 716.325 1374.75 715.374L1374.87 632.24L1352.13 626.55L1352.69 725.291C1351.38 729.147 1351.51 733.356 1353.07 737.118C1354.62 740.88 1357.49 743.935 1361.13 745.703C1364.76 747.472 1368.92 747.831 1372.8 746.713C1376.68 745.595 1380.02 743.078 1382.19 739.638V739.638Z" fill="#A0616A"/>
<path d="M1269.53 434.253L1304.93 409.944C1306.58 408.81 1308.45 408.038 1310.41 407.676C1312.38 407.315 1314.4 407.372 1316.34 407.845C1318.28 408.318 1320.1 409.196 1321.69 410.422C1323.27 411.648 1324.59 413.196 1325.55 414.966L1386.41 527.342L1386.64 691.806L1348.64 689.399L1333.04 553.619L1269.53 434.253Z" fill="#7030A0"/>
<defs>
<clipPath id="clip0_2972_1618">
<rect width="1400" height="1200" fill="white"/>
</clipPath>
</defs>
</svg>
