<svg width="1900" height="1200" viewBox="0 0 1900 1200" fill="none" xmlns="http://www.w3.org/2000/svg">
<g clip-path="url(#clip0_2971_1385)">
<path d="M2086 1172C2086 1205.68 1594.86 1233 988.995 1233C383.137 1233 -108 1205.68 -108 1172C-108 1163.58 -77.3456 1155.57 -21.8806 1148.27C139.594 1127.02 511.395 1111.92 948.396 1111.05C961.877 1111.02 975.41 1111 988.995 1111C1594.86 1111 2086 1138.32 2086 1172Z" fill="#F0EFFF"/>
<path d="M1651.08 940.961C1650.66 940.414 1650.24 939.867 1649.82 939.318C1649.41 938.769 1648.99 938.219 1648.58 937.667C1648.17 937.115 1647.76 936.562 1647.35 936.007C1646.94 935.453 1646.53 934.895 1646.12 934.334C1645.45 918.254 1645.44 902.315 1646.1 886.518C1646.74 870.834 1648.04 855.338 1650 840.031C1651.94 824.838 1654.5 809.88 1657.7 795.156C1660.87 780.545 1664.65 766.21 1669.03 752.15C1669.53 750.53 1670.04 748.915 1670.56 747.307C1671.08 745.699 1671.6 744.101 1672.14 742.514C1672.68 740.92 1673.22 739.332 1673.77 737.752C1674.33 736.171 1674.89 734.597 1675.46 733.028C1679.68 721.288 1684.33 709.836 1689.4 698.671C1694.44 687.584 1699.89 676.803 1705.73 666.33C1711.53 655.929 1717.72 645.849 1724.29 636.09C1730.81 626.403 1737.69 617.055 1744.94 608.045L1746.08 606.632L1747.23 605.226L1748.38 603.828L1749.53 602.437L1750.36 601.439L1751.2 600.444C1751.48 600.114 1751.77 599.785 1752.05 599.458C1752.33 599.13 1752.62 598.806 1752.91 598.486L1753.6 598.102L1754.29 597.721L1754.97 597.341L1755.65 596.962L1755.69 596.948L1755.73 596.927L1755.78 596.907L1755.82 596.891L1756.09 596.738L1756.36 596.583L1756.63 596.429L1756.89 596.275L1758.07 595.628L1759.25 594.99L1760.43 594.355L1761.6 593.714L1760.71 593.258L1758.46 592.121L1758.48 592.111C1758.67 592.195 1758.86 592.284 1759.05 592.377C1759.24 592.47 1759.43 592.56 1759.62 592.647C1759.82 592.738 1760.01 592.83 1760.19 592.921C1760.38 593.011 1760.57 593.104 1760.76 593.2L1760.98 593.294L1761.2 593.39L1761.42 593.486C1761.49 593.516 1761.56 593.552 1761.63 593.594C1761.7 593.628 1761.76 593.656 1761.83 593.678L1762.02 593.762L1762.21 593.846L1762.41 593.93C1770.57 597.745 1778.76 601.619 1786.85 605.68C1794.93 609.742 1802.89 613.976 1810.64 618.531C1818.36 623.052 1825.84 627.984 1833.06 633.305C1840.25 638.6 1847.06 644.419 1853.43 650.716C1860.16 657.411 1866.17 664.808 1871.37 672.785C1876.52 680.622 1880.75 689.044 1883.99 697.881C1887.1 706.293 1888.95 715.133 1889.48 724.105C1890 732.736 1888.81 741.383 1885.98 749.536C1885.6 750.598 1885.19 751.646 1884.74 752.68C1884.3 753.713 1883.83 754.731 1883.33 755.733C1882.83 756.734 1882.3 757.719 1881.74 758.685C1881.18 759.652 1880.59 760.601 1879.97 761.532C1879.72 761.921 1879.45 762.306 1879.19 762.687C1878.92 763.068 1878.65 763.446 1878.37 763.821C1878.1 764.195 1877.82 764.568 1877.54 764.94C1877.26 765.311 1876.97 765.68 1876.68 766.046C1871.33 772.899 1864.53 778.434 1856.79 782.236C1849.01 786.027 1840.55 788.165 1831.93 788.52C1822.87 788.905 1813.83 787.567 1805.25 784.572C1796.05 781.372 1787.5 776.486 1780.03 770.153C1777.44 767.977 1775 765.64 1772.7 763.155C1770.42 760.692 1768.29 758.088 1766.33 755.357C1764.39 752.649 1762.61 749.819 1761.02 746.883C1759.43 743.97 1758.04 740.955 1756.84 737.857C1756.28 747.479 1757.74 757.113 1761.14 766.11C1764.72 775.568 1769.59 784.465 1775.61 792.54C1781.96 801.138 1789.01 809.178 1796.68 816.575C1804.4 824.123 1812.61 831.197 1820.71 837.713C1828.81 844.229 1837.2 850.892 1845.32 857.843C1853.44 864.675 1861.16 871.975 1868.46 879.706C1875.53 887.175 1881.79 895.405 1887.12 904.252C1892.36 912.985 1896.15 922.54 1898.33 932.531C1900.67 943.414 1900.55 954.695 1897.99 965.525C1896.74 970.793 1894.96 975.917 1892.69 980.815C1890.39 985.754 1887.64 990.459 1884.48 994.867L1884.18 995.27L1883.88 995.672L1883.58 996.072L1883.27 996.47C1875.54 1006.77 1865.84 1015.35 1854.76 1021.7C1849.18 1024.9 1843.29 1027.52 1837.2 1029.52C1830.96 1031.56 1824.54 1032.97 1818.03 1033.72C1805.64 1034.89 1793.15 1034.16 1780.97 1031.56C1768.43 1028.89 1756.24 1024.73 1744.64 1019.17C1732.65 1013.46 1721.19 1006.65 1710.4 998.84C1699.51 990.987 1689.21 982.331 1679.56 972.941C1677 970.452 1674.48 967.917 1672.01 965.336C1669.54 962.755 1667.12 960.132 1664.74 957.465C1662.36 954.797 1660.04 952.088 1657.76 949.339C1655.49 946.589 1653.26 943.797 1651.08 940.961Z" fill="#ABE8C0"/>
<path d="M1850.27 754.645C1842.61 750.595 1835.25 745.991 1828.24 740.867C1814.23 730.637 1801.72 718.435 1791.08 704.626C1785.8 697.774 1781.02 690.539 1776.77 682.978C1773.23 676.59 1770.09 669.982 1767.36 663.192C1764.7 656.567 1762.46 649.774 1760.66 642.854C1758.9 636.096 1757.59 629.224 1756.73 622.286C1755.9 615.49 1755.53 608.642 1755.63 601.794C1755.64 601.408 1755.65 601.024 1755.66 600.643C1755.67 600.262 1755.68 599.878 1755.69 599.492C1755.7 599.106 1755.71 598.724 1755.73 598.348L1755.79 597.21C1755.46 597.468 1755.14 597.729 1754.82 597.993L1753.86 598.787L1752.91 599.587L1751.96 600.39L1751.35 600.905L1750.74 601.424L1750.13 601.947L1749.53 602.47L1750.36 601.474L1751.21 600.446C1751.49 600.116 1751.77 599.787 1752.06 599.46C1752.34 599.132 1752.63 598.808 1752.92 598.487L1753.61 598.103L1754.29 597.722L1754.96 597.344L1755.64 596.965L1755.68 596.951L1755.72 596.93L1755.77 596.909L1755.81 596.893L1756.08 596.74L1756.36 596.587L1756.62 596.433L1756.88 596.278L1758.06 595.631L1759.24 594.994L1760.42 594.359L1761.6 593.722L1760.68 593.255L1758.44 592.116L1758.45 592.106C1758.65 592.19 1758.84 592.279 1759.03 592.372C1759.22 592.465 1759.41 592.555 1759.6 592.642C1759.79 592.734 1759.98 592.825 1760.17 592.916C1760.35 593.006 1760.54 593.1 1760.74 593.195L1760.95 593.289L1761.17 593.385L1761.39 593.482C1761.47 593.511 1761.54 593.547 1761.61 593.588L1761.59 593.952L1761.56 594.291L1761.54 594.63L1761.52 594.973C1760.7 606.508 1761.29 618.104 1763.28 629.49C1765.33 641.212 1768.69 652.654 1773.3 663.592C1778.07 674.915 1784.03 685.676 1791.07 695.688C1798.35 706.044 1806.69 715.582 1815.95 724.139C1825.27 732.634 1835.44 740.111 1846.28 746.449C1851.64 749.577 1857.16 752.414 1862.81 754.947C1868.41 757.455 1874.15 759.65 1879.98 761.524C1879.73 761.913 1879.46 762.298 1879.2 762.679C1878.93 763.06 1878.66 763.438 1878.38 763.813C1878.11 764.187 1877.83 764.56 1877.55 764.932C1877.27 765.303 1876.98 765.672 1876.69 766.038C1874.44 765.277 1872.2 764.469 1869.97 763.612C1867.74 762.755 1865.53 761.851 1863.32 760.9C1861.12 759.949 1858.93 758.951 1856.75 757.907C1854.58 756.862 1852.42 755.775 1850.27 754.645Z" fill="white"/>
<path d="M1698.7 840.859C1696.2 837.044 1693.83 833.159 1691.61 829.203C1689.38 825.247 1687.3 821.235 1685.37 817.168C1683.43 813.1 1681.65 808.981 1680.01 804.811C1678.37 800.641 1676.88 796.435 1675.55 792.191C1674.87 789.941 1674.25 787.683 1673.67 785.416C1673.1 783.15 1672.58 780.88 1672.12 778.607C1671.65 776.333 1671.24 774.054 1670.87 771.771C1670.51 769.487 1670.21 767.205 1669.96 764.925C1669.83 763.863 1669.72 762.798 1669.62 761.731C1669.52 760.665 1669.43 759.599 1669.35 758.534C1669.27 757.468 1669.21 756.403 1669.15 755.339C1669.1 754.276 1669.06 753.214 1669.02 752.153C1669.52 750.532 1670.03 748.918 1670.55 747.31C1671.07 745.702 1671.59 744.1 1672.13 742.506C1672.66 740.911 1673.21 739.324 1673.76 737.743C1674.31 736.163 1674.88 734.588 1675.45 733.02C1675.32 734.334 1675.22 735.651 1675.13 736.972C1675.04 738.293 1674.97 739.618 1674.92 740.946C1674.86 742.275 1674.83 743.607 1674.82 744.943C1674.8 746.279 1674.8 747.617 1674.82 748.957C1674.82 749.688 1674.83 750.418 1674.84 751.148C1674.86 751.879 1674.88 752.609 1674.9 753.34C1674.92 754.07 1674.96 754.801 1674.99 755.532C1675.03 756.262 1675.07 756.993 1675.12 757.724C1675.67 765.922 1676.93 774.054 1678.89 782.025C1680.88 790.093 1683.46 797.994 1686.63 805.659C1689.86 813.471 1693.58 821.061 1697.77 828.381C1702.04 835.829 1706.7 843.033 1711.74 849.96C1717.17 857.437 1722.9 864.718 1728.95 871.801C1734.99 878.885 1741.27 885.775 1747.77 892.47C1754.28 899.16 1760.98 905.642 1767.87 911.918C1774.76 918.194 1781.77 924.253 1788.89 930.094C1796.18 936.092 1803.62 941.862 1811.21 947.404C1818.79 952.946 1826.51 958.246 1834.34 963.302C1842.17 968.356 1850.12 973.165 1858.19 977.727C1866.25 982.289 1874.41 986.591 1882.66 990.631C1883.04 990.82 1883.38 991.077 1883.67 991.391C1883.95 991.698 1884.18 992.052 1884.35 992.438C1884.51 992.819 1884.6 993.226 1884.63 993.641C1884.66 994.058 1884.6 994.477 1884.47 994.874C1884.43 995.045 1884.37 995.212 1884.29 995.371C1884.22 995.526 1884.13 995.673 1884.03 995.81C1883.93 995.945 1883.81 996.07 1883.69 996.181C1883.56 996.291 1883.42 996.386 1883.28 996.467C1883.12 996.539 1882.96 996.59 1882.79 996.621C1882.62 996.651 1882.45 996.66 1882.28 996.648C1882.11 996.636 1881.94 996.604 1881.77 996.551C1881.6 996.499 1881.43 996.427 1881.28 996.336C1880.26 995.837 1879.24 995.337 1878.22 994.835C1877.2 994.333 1876.19 993.827 1875.17 993.319C1874.16 992.81 1873.14 992.297 1872.13 991.779C1871.12 991.261 1870.11 990.735 1869.1 990.202C1860.69 985.8 1852.4 981.134 1844.21 976.205C1836.03 971.276 1827.97 966.089 1820.03 960.646C1812.09 955.203 1804.3 949.516 1796.65 943.585C1789.01 937.654 1781.52 931.487 1774.19 925.083C1767.12 918.919 1760.13 912.546 1753.31 905.956C1746.49 899.367 1739.85 892.566 1733.45 885.548C1727.05 878.53 1720.9 871.299 1715.08 863.849C1709.26 856.399 1703.78 848.74 1698.7 840.859Z" fill="white"/>
<path d="M1857.1 228.514L1851.08 229.311L1891.46 74.8457C1894.43 64.5314 1894.92 53.6368 1892.87 43.0905C1891.09 34.4733 1886.7 26.645 1880.31 20.7167C1873.62 14.7891 1865.42 10.9107 1856.66 9.52874C1845.99 7.84451 1835.09 8.3416 1824.61 10.9911V10.9911L1550.16 74.6896C1540.59 77.0582 1531.42 80.9023 1522.98 86.0892C1513.79 91.6532 1505.26 98.251 1497.52 105.758C1489.56 113.414 1482.42 121.904 1476.21 131.087C1470.14 139.975 1465.2 149.606 1461.49 159.753V159.753L1174.34 964.694C1169.56 977.93 1166.46 991.731 1165.11 1005.76C1163.85 1018.22 1164.44 1030.8 1166.87 1043.08C1168.89 1053.75 1173.11 1063.86 1179.26 1072.74C1184.9 1080.81 1192.84 1086.92 1202 1090.22V1090.22L1491.98 1191.96C1504.86 1196.43 1518.69 1197.27 1532 1194.39C1546.23 1191.23 1559.61 1184.95 1571.21 1175.98C1584.25 1166 1595.45 1153.76 1604.32 1139.82C1614.14 1124.51 1621.48 1107.68 1626.06 1089.99V1089.99L1820.46 346.386L1826.56 345.888L1857.1 228.514Z" fill="#2F2E41"/>
<path d="M1836.12 219.962L1830.1 220.76L1870.48 66.2939C1873.46 55.9796 1873.94 45.085 1871.89 34.5387C1870.12 25.9215 1865.72 18.0933 1859.33 12.1649C1852.64 6.23738 1844.44 2.35889 1835.68 0.976984C1825.01 -0.707245 1814.12 -0.210154 1803.64 2.43933L1529.19 66.1378C1519.61 68.5064 1510.44 72.3505 1502 77.5375C1492.82 83.1015 1484.28 89.6993 1476.54 97.2067C1468.59 104.862 1461.44 113.352 1455.23 122.535C1449.17 131.424 1444.22 141.055 1440.51 151.201V151.201L1153.36 956.142C1148.59 969.378 1145.48 983.179 1144.13 997.213C1142.87 1009.67 1143.47 1022.25 1145.89 1034.53C1147.91 1045.2 1152.14 1055.31 1158.28 1064.19C1163.92 1072.26 1171.86 1078.36 1181.03 1081.67V1081.67L1471 1183.41C1483.88 1187.88 1497.71 1188.72 1511.02 1185.84C1525.25 1182.68 1538.63 1176.4 1550.24 1167.43C1563.27 1157.45 1574.48 1145.21 1583.34 1131.27C1593.17 1115.96 1600.5 1099.13 1605.08 1081.44V1081.44L1799.48 337.835L1805.58 337.336L1836.12 219.962Z" fill="#3F3D56"/>
<path d="M1801.21 22.5941L1760.87 31.6013C1761.31 35.1586 1760.96 38.7713 1759.85 42.1736C1758.59 46.1531 1756.77 49.9232 1754.44 53.3636C1749.19 61.1742 1742.19 67.5945 1734.02 72.0901C1733.04 72.6203 1732.06 73.1099 1731.09 73.5589C1730.12 74.0078 1729.15 74.4155 1728.18 74.7818C1727.21 75.1481 1726.25 75.4716 1725.29 75.7524C1724.34 76.0332 1723.39 76.2698 1722.46 76.4622L1564.73 109.013C1561.8 109.706 1558.75 109.671 1555.84 108.91C1553.5 108.269 1551.43 106.85 1549.97 104.878C1548.49 102.76 1547.66 100.247 1547.57 97.6516C1547.45 94.3403 1547.97 91.0368 1549.09 87.926C1549.37 87.0865 1549.69 86.2412 1550.04 85.3903C1550.4 84.5394 1550.79 83.6885 1551.21 82.8376C1551.63 81.9824 1552.09 81.1315 1552.59 80.2849C1553.08 79.4382 1553.61 78.5923 1554.16 77.7471L1524.29 84.4154C1517.1 86.1346 1510.21 88.976 1503.87 92.839C1496.94 96.9994 1490.5 101.948 1484.66 107.591C1478.65 113.356 1473.25 119.757 1468.57 126.687C1464.01 133.384 1460.29 140.645 1457.53 148.296L1170.91 960.232C1167.35 970.209 1165.06 980.613 1164.1 991.186C1163.22 1000.52 1163.74 1009.94 1165.65 1019.11C1167.24 1027.04 1170.48 1034.52 1175.17 1041.06C1179.46 1046.98 1185.44 1051.42 1192.3 1053.74V1053.74L1484.4 1150.46C1494.04 1153.61 1504.33 1154.08 1514.2 1151.82C1524.72 1149.37 1534.6 1144.65 1543.18 1137.97C1552.77 1130.57 1561.02 1121.53 1567.58 1111.25C1574.83 1099.95 1580.27 1087.56 1583.7 1074.52V1074.52L1850.59 70.7859C1852.83 63.1239 1853.25 55.0281 1851.8 47.17C1850.55 40.7303 1847.36 34.8503 1842.66 30.3506C1837.75 25.8519 1831.68 22.8703 1825.16 21.7538C1817.2 20.3917 1809.06 20.6775 1801.21 22.5941V22.5941Z" fill="white"/>
<path d="M1644.56 407.137H1063.48V206.456H1644.56V407.137Z" fill="white"/>
<path d="M1474.67 477.966H905.181V759.313H1474.67V477.966Z" fill="white"/>
<path d="M1092.84 543.098C1091.01 543.098 1089.27 543.835 1087.98 545.147C1086.69 546.459 1085.97 548.239 1085.97 550.095C1085.97 551.951 1086.69 553.73 1087.98 555.042C1089.27 556.355 1091.01 557.092 1092.84 557.092H1416.5C1418.32 557.087 1420.06 556.348 1421.34 555.036C1422.63 553.725 1423.35 551.948 1423.35 550.095C1423.35 548.242 1422.63 546.465 1421.34 545.153C1420.06 543.841 1418.32 543.102 1416.5 543.098H1092.84Z" fill="#E6E6E6"/>
<path d="M1092.84 585.08C1091.93 585.077 1091.04 585.255 1090.2 585.604C1089.37 585.954 1088.61 586.467 1087.97 587.116C1087.33 587.764 1086.82 588.535 1086.48 589.384C1086.13 590.233 1085.95 591.143 1085.95 592.062C1085.95 592.982 1086.12 593.893 1086.47 594.743C1086.81 595.594 1087.31 596.366 1087.95 597.018C1088.59 597.669 1089.34 598.186 1090.18 598.539C1091.01 598.892 1091.9 599.074 1092.81 599.074H1232.11C1233.01 599.074 1233.9 598.893 1234.74 598.542C1235.57 598.19 1236.33 597.675 1236.96 597.025C1237.6 596.375 1238.11 595.604 1238.45 594.755C1238.8 593.906 1238.98 592.996 1238.98 592.077C1238.98 591.158 1238.8 590.248 1238.45 589.4C1238.11 588.551 1237.6 587.779 1236.96 587.129C1236.33 586.48 1235.57 585.964 1234.74 585.613C1233.9 585.261 1233.01 585.08 1232.11 585.08H1092.84Z" fill="#E6E6E6"/>
<path d="M966.102 652.199C960.879 652.199 956.629 655.338 956.629 659.196C956.629 663.054 960.879 666.193 966.102 666.193H1412.66C1417.88 666.193 1422.13 663.054 1422.13 659.196C1422.13 655.339 1417.88 652.199 1412.66 652.199H966.102Z" fill="#E6E6E6"/>
<path d="M966.102 694.182C960.879 694.182 956.629 697.321 956.629 701.179C956.629 705.037 960.879 708.176 966.102 708.176H1309.87C1315.09 708.176 1319.34 705.036 1319.34 701.179C1319.34 697.321 1315.09 694.182 1309.87 694.182H966.102Z" fill="#E6E6E6"/>
<path d="M1480.47 765.216H899.39V472.063H1480.47V765.216ZM910.973 753.411H1468.88V483.868H910.973V753.411Z" fill="#E6E6E6"/>
<path d="M1256.93 277.49C1255.11 277.49 1253.36 278.227 1252.07 279.54C1250.78 280.852 1250.06 282.632 1250.06 284.487C1250.06 286.343 1250.78 288.123 1252.07 289.435C1253.36 290.747 1255.11 291.484 1256.93 291.484H1580.59C1582.41 291.48 1584.15 290.741 1585.43 289.429C1586.72 288.117 1587.44 286.34 1587.44 284.487C1587.44 282.635 1586.72 280.858 1585.43 279.546C1584.15 278.234 1582.41 277.495 1580.59 277.49H1256.93Z" fill="#E6E6E6"/>
<path d="M1256.93 319.473C1256.02 319.47 1255.13 319.648 1254.3 319.997C1253.46 320.346 1252.7 320.86 1252.06 321.508C1251.42 322.157 1250.91 322.928 1250.57 323.776C1250.22 324.625 1250.04 325.535 1250.04 326.455C1250.04 327.375 1250.21 328.286 1250.56 329.136C1250.9 329.986 1251.4 330.759 1252.04 331.41C1252.68 332.062 1253.44 332.578 1254.27 332.931C1255.1 333.284 1256 333.466 1256.9 333.467H1511.58C1513.4 333.467 1515.15 332.73 1516.43 331.418C1517.72 330.105 1518.44 328.326 1518.44 326.47C1518.44 324.614 1517.72 322.834 1516.43 321.522C1515.15 320.21 1513.4 319.473 1511.58 319.473H1256.93Z" fill="#E6E6E6"/>
<path d="M1644.56 407.137H1063.48V206.456H1644.56V407.137ZM1075.06 395.333H1632.97V218.261H1075.06V395.333Z" fill="#E6E6E6"/>
<path d="M502.807 1171.58H532.098L546.033 1056.43L502.8 1056.43L502.807 1171.58Z" fill="#FFB6B6"/>
<path d="M588.59 1199.3L496.53 1199.3L496.529 1163.05L557.359 1163.05C565.642 1163.05 573.585 1166.4 579.442 1172.37C585.299 1178.34 588.59 1186.43 588.59 1194.87L588.59 1199.3V1199.3Z" fill="#2F2E41"/>
<path d="M209.904 1132.89L235.572 1147.27L302.219 1053.21L264.335 1031.99L209.904 1132.89Z" fill="#FFB6B6"/>
<path d="M271.972 1199.3L191.3 1154.1L208.436 1122.33L261.741 1152.2C268.999 1156.27 274.375 1163.11 276.685 1171.21C278.996 1179.32 278.052 1188.03 274.062 1195.42L271.972 1199.3V1199.3Z" fill="#2F2E41"/>
<path d="M501.438 1107.67C498.828 1107.66 496.307 1106.69 494.347 1104.94C492.387 1103.18 491.121 1100.76 490.786 1098.12L454.153 810.424C453.991 809.152 453.439 807.964 452.575 807.03C451.711 806.097 450.58 805.466 449.343 805.226C448.106 804.987 446.826 805.153 445.687 805.699C444.548 806.245 443.607 807.144 442.999 808.268L290.328 1090.56C289.069 1092.87 287.039 1094.63 284.609 1095.54C282.179 1096.45 279.509 1096.44 277.085 1095.52L243.808 1082.59C242.469 1082.07 241.246 1081.29 240.21 1080.28C239.174 1079.27 238.347 1078.06 237.775 1076.72C237.204 1075.38 236.901 1073.94 236.885 1072.48C236.868 1071.02 237.137 1069.58 237.677 1068.22L343.436 803.445C343.703 802.772 343.885 802.067 343.976 801.348C358.3 688.354 394.746 630.893 405.575 615.974C406.366 614.877 406.886 613.603 407.093 612.258C407.299 610.914 407.185 609.538 406.76 608.248L405.271 603.697C404.677 601.89 404.555 599.957 404.917 598.088C405.28 596.219 406.115 594.478 407.34 593.039C446.36 547.743 514.37 572.46 515.052 572.714L515.393 572.843L515.606 573.14C591.865 679.727 563.67 1025.92 557.243 1094.24C557.004 1096.8 555.88 1099.2 554.073 1101.01C552.265 1102.81 549.89 1103.91 547.366 1104.1L502.272 1107.64C501.992 1107.66 501.714 1107.67 501.438 1107.67Z" fill="#2F2E41"/>
<path d="M480.762 308.269C516.764 308.269 545.95 278.524 545.95 241.832C545.95 205.139 516.764 175.395 480.762 175.395C444.759 175.395 415.573 205.139 415.573 241.832C415.573 278.524 444.759 308.269 480.762 308.269Z" fill="#FFB8B8"/>
<path d="M379.979 664.584L571.8 682.377C555.076 623.112 539.754 564.055 552.243 505.211C568.103 452.678 569.577 423.577 527.74 398.836L499.491 334.613L448.367 332.718L423.438 325.755C403.298 358.757 395.06 397.876 400.137 436.395C410.974 520.156 408.048 597.882 379.979 664.584Z" fill="#7030A0"/>
<path d="M409.095 368.118L389.801 277.864C385.775 256.5 386.785 234.466 392.748 213.578C393.397 211.437 394.18 209.341 395.091 207.302C400.432 195.439 408.829 185.275 419.389 177.89C429.949 170.506 442.276 166.178 455.057 165.367C498.907 162.28 505.345 166.991 506.93 169.315C531.709 168.295 550.923 178.052 559.689 196.107C560.548 197.899 561.01 199.861 561.044 201.855C561.078 203.849 560.683 205.826 559.886 207.648C559.089 209.469 557.91 211.09 556.432 212.397C554.954 213.704 553.213 214.665 551.331 215.211C539.085 218.81 521.872 222.807 508.964 221.632C483.088 253.263 493.666 311.216 519.918 345.746L520.95 347.103L494.94 352.536L464.714 309.638C464.116 308.789 463.25 308.175 462.261 307.899C461.272 307.623 460.22 307.701 459.281 308.12C458.342 308.539 457.572 309.275 457.101 310.203C456.63 311.131 456.486 312.196 456.693 313.22L465.869 358.653L409.095 368.118Z" fill="#2F2E41"/>
<path d="M781.699 611.144L307.264 953.071L193.573 789.219L668.008 447.292L781.699 611.144Z" fill="white"/>
<path d="M391.76 733.387C390.273 734.458 389.265 736.087 388.957 737.917C388.649 739.746 389.067 741.624 390.118 743.139C391.17 744.655 392.769 745.682 394.563 745.996C396.358 746.31 398.201 745.884 399.688 744.812L663.952 554.356C665.434 553.283 666.437 551.654 666.742 549.828C667.047 548.001 666.629 546.126 665.58 544.613C664.53 543.101 662.935 542.074 661.143 541.759C659.352 541.443 657.511 541.864 656.024 542.93L391.76 733.387Z" fill="#E6E6E6"/>
<path d="M415.544 767.664C414.057 768.733 413.048 770.36 412.737 772.187C412.427 774.015 412.841 775.893 413.888 777.409C414.936 778.926 416.531 779.956 418.324 780.274C420.116 780.593 421.96 780.173 423.449 779.107L423.472 779.09L631.389 629.243C632.876 628.172 633.884 626.542 634.192 624.713C634.5 622.884 634.082 621.006 633.031 619.49C632.51 618.74 631.85 618.102 631.087 617.612C630.325 617.122 629.475 616.789 628.586 616.634C626.791 616.32 624.948 616.746 623.461 617.817L415.544 767.664Z" fill="#E6E6E6"/>
<path d="M781.699 611.144L307.264 953.071L193.573 789.219L668.008 447.292L781.699 611.144ZM310.034 936.617L765.554 608.321L665.239 463.746L209.718 792.042L310.034 936.617Z" fill="#E6E6E6"/>
<path d="M1865.02 550.437C1866.71 550.371 1868.38 550.662 1869.95 551.292C1871.44 551.899 1872.78 552.812 1873.91 553.975C1875.04 555.145 1875.92 556.539 1876.5 558.069C1877.11 559.692 1877.39 561.425 1877.31 563.162C1877.25 564.944 1876.84 566.695 1876.12 568.319C1875.41 569.911 1874.43 571.36 1873.21 572.595C1872.01 573.823 1870.59 574.817 1869.04 575.528C1867.46 576.25 1865.76 576.647 1864.03 576.695C1862.34 576.747 1860.67 576.441 1859.11 575.795C1857.63 575.179 1856.29 574.258 1855.17 573.091C1854.05 571.917 1853.18 570.523 1852.61 568.994C1852.01 567.377 1851.74 565.653 1851.82 563.925C1851.89 562.153 1852.29 560.41 1853.01 558.794C1853.71 557.217 1854.69 555.782 1855.89 554.557C1857.08 553.331 1858.49 552.336 1860.03 551.621C1861.6 550.896 1863.3 550.494 1865.02 550.437V550.437Z" fill="#F2F2F2"/>
<path d="M531.17 717.115L500.318 545.228L502.491 438.928L432.957 436.714L445.995 556.301L490.954 722.128C487.223 726.751 484.936 732.407 484.389 738.368C483.843 744.328 485.061 750.318 487.888 755.566C490.714 760.813 495.019 765.077 500.246 767.807C505.473 770.537 511.384 771.607 517.214 770.881C523.044 770.154 528.527 767.663 532.954 763.73C537.382 759.796 540.551 754.601 542.054 748.814C543.556 743.027 543.322 736.914 541.382 731.264C539.442 725.613 535.885 720.685 531.17 717.115H531.17Z" fill="#FFB8B8"/>
<path d="M428.611 447.786C453.803 438.007 481.644 438.007 506.837 447.786L502.491 359.204C502.491 354.55 501.592 349.943 499.844 345.644C498.097 341.345 495.536 337.439 492.308 334.149C489.079 330.858 485.247 328.248 481.029 326.468C476.811 324.687 472.29 323.771 467.724 323.771V323.771C463.158 323.771 458.637 324.687 454.419 326.468C450.201 328.248 446.368 330.858 443.14 334.149C439.911 337.439 437.35 341.345 435.603 345.644C433.856 349.943 432.957 354.55 432.957 359.204L428.611 447.786Z" fill="#7030A0"/>
<path d="M1222.77 308.946C1222.84 281.69 1195.02 266.627 1163.22 259.444C1122.45 250.236 1092.53 268.582 1103.42 308.641C1105.89 317.72 1111.83 328.332 1119.18 337.415L1177.74 337.564C1197.33 327.083 1222.72 330.102 1222.77 308.946Z" fill="#7030A0"/>
<path d="M1164.81 349.368C1168.39 344.095 1172.93 340.295 1177.93 337.405L1119.13 337.255C1134.22 354.07 1154.26 364.887 1164.81 349.368Z" fill="#7030A0"/>
<path d="M1158.04 282.194C1162.47 282.205 1166.05 284.769 1166.04 287.922L1166.01 299.336L1149.99 299.295L1150.02 287.881C1150.03 284.729 1153.62 282.183 1158.04 282.194ZM1170.01 299.346L1170.04 287.932C1170.05 283.204 1164.69 279.358 1158.05 279.341C1151.42 279.324 1146.03 283.142 1146.02 287.87L1145.99 299.285C1141.57 299.274 1137.97 301.819 1137.97 304.97L1137.93 319.237C1137.92 322.389 1141.5 324.953 1145.92 324.965L1169.95 325.026C1174.37 325.037 1177.96 322.491 1177.97 319.339L1178.01 305.072C1178.02 301.922 1174.44 299.358 1170.01 299.346ZM1145.98 302.138L1170.01 302.199C1172.22 302.205 1174.01 303.486 1174 305.062L1173.97 319.329C1173.96 320.905 1172.17 322.179 1169.95 322.173L1145.93 322.112C1143.72 322.106 1141.93 320.823 1141.93 319.247L1141.97 304.98C1141.97 303.404 1143.77 302.132 1145.98 302.138Z" fill="white"/>
<path d="M383.471 786.524C366.579 765.133 335.426 770.63 306.054 784.775C268.395 802.913 256.364 835.887 289.804 860.489C297.384 866.063 308.63 870.686 320.038 873.225L365.996 836.934C374.821 816.547 396.581 803.127 383.471 786.524Z" fill="#7030A0"/>
<path d="M363.205 854.221C362.735 847.861 363.924 842.065 366.042 836.695L319.897 873.134C342.17 876.922 364.592 872.934 363.205 854.221Z" fill="#7030A0"/>
<path d="M316.143 805.813C319.614 803.072 324.012 802.855 325.966 805.329L333.04 814.287L320.469 824.213L313.395 815.255C311.442 812.781 312.671 808.554 316.143 805.813ZM336.181 811.806L329.107 802.848C326.177 799.137 319.582 799.463 314.375 803.574C309.169 807.685 307.321 814.027 310.252 817.737L317.326 826.696C313.855 829.436 312.625 833.663 314.578 836.135L323.42 847.332C325.373 849.806 329.77 849.59 333.24 846.85L352.096 831.96C355.568 829.218 356.798 824.991 354.844 822.517L346.003 811.32C344.05 808.848 339.653 809.064 336.181 811.806ZM319.093 828.935L337.949 814.045C339.685 812.674 341.884 812.564 342.861 813.801L351.703 824.998C352.679 826.235 352.064 828.35 350.328 829.721L331.472 844.611C329.738 845.98 327.538 846.088 326.561 844.851L317.72 833.654C316.743 832.417 317.359 830.304 319.093 828.935Z" fill="white"/>
<path d="M1062.77 578.946C1062.84 551.69 1035.02 536.627 1003.22 529.444C962.45 520.236 932.526 538.582 943.421 578.641C945.892 587.72 951.826 598.332 959.183 607.415L1017.74 607.564C1037.33 597.083 1062.72 600.102 1062.77 578.946Z" fill="#7030A0"/>
<path d="M1004.81 619.368C1008.39 614.095 1012.93 610.295 1017.93 607.405L959.129 607.255C974.219 624.07 994.259 634.887 1004.81 619.368Z" fill="#7030A0"/>
<path d="M998.045 552.194C1002.47 552.205 1006.05 554.769 1006.04 557.922L1006.01 569.336L989.993 569.295L990.022 557.881C990.03 554.729 993.621 552.183 998.045 552.194ZM1010.01 569.346L1010.04 557.932C1010.05 553.204 1004.69 549.358 998.052 549.341C991.419 549.324 986.028 553.142 986.016 557.87L985.987 569.285C981.565 569.274 977.974 571.819 977.966 574.97L977.93 589.237C977.922 592.389 981.5 594.953 985.922 594.965L1009.95 595.026C1014.37 595.037 1017.96 592.491 1017.97 589.339L1018.01 575.072C1018.02 571.922 1014.44 569.358 1010.01 569.346ZM985.98 572.138L1010.01 572.199C1012.22 572.205 1014.01 573.486 1014 575.062L1013.97 589.329C1013.96 590.905 1012.17 592.179 1009.95 592.173L985.929 592.112C983.719 592.106 981.929 590.823 981.933 589.247L981.969 574.98C981.973 573.404 983.77 572.132 985.98 572.138Z" fill="white"/>
</g>
<defs>
<clipPath id="clip0_2971_1385">
<rect width="1900" height="1200" fill="white"/>
</clipPath>
</defs>
</svg>
