<svg width="2400" height="1903" viewBox="0 0 2400 1903" fill="none" xmlns="http://www.w3.org/2000/svg">
<g clip-path="url(#clip0_2955_1880)">
<path d="M1265.25 1765.33C1057.52 1765.33 861.494 1701.12 698.37 1579.63L703.346 1573.6C865.038 1694.01 1059.34 1757.66 1265.25 1757.66C1471.32 1757.66 1665.74 1693.92 1827.51 1573.33L1832.49 1579.37C1669.29 1701.03 1473.14 1765.33 1265.25 1765.33V1765.33Z" fill="#3F3D56"/>
<path d="M2188.54 1504.93C2196.59 1505.42 2201.04 1495.58 2194.95 1489.84L2194.34 1487.47C2194.42 1487.29 2194.5 1487.1 2194.58 1486.91C2202.72 1467.81 2230.32 1467.94 2238.39 1487.07C2245.56 1504.04 2254.68 1521.05 2256.93 1539C2257.93 1546.93 2257.48 1555 2255.69 1562.77C2272.48 1526.69 2281.32 1487.3 2281.32 1447.67C2281.32 1437.72 2280.76 1427.76 2279.63 1417.83C2278.7 1409.71 2277.42 1401.64 2275.76 1393.64C2266.77 1350.4 2247.31 1309.22 2219.24 1274.82C2205.75 1267.57 2194.5 1256.23 2187.7 1242.63C2185.26 1237.73 2183.35 1232.45 2182.44 1227.08C2183.98 1227.28 2188.23 1204.27 2187.07 1202.86C2189.21 1199.67 2193.04 1198.08 2195.38 1194.96C2207 1179.46 2223.02 1182.16 2231.38 1203.23C2249.24 1212.1 2249.41 1226.8 2238.45 1240.95C2231.48 1249.94 2230.52 1262.12 2224.4 1271.75C2225.03 1272.55 2225.69 1273.31 2226.32 1274.11C2237.86 1288.67 2247.84 1304.32 2256.25 1320.76C2253.87 1302.49 2257.39 1280.47 2263.37 1266.28C2270.18 1250.11 2282.95 1236.49 2294.2 1222.51C2307.71 1205.72 2335.41 1213.05 2337.79 1234.34C2337.81 1234.54 2337.83 1234.75 2337.86 1234.95C2336.18 1235.88 2334.55 1236.87 2332.95 1237.91C2323.83 1243.84 2326.98 1257.74 2337.79 1259.38L2338.03 1259.42C2337.43 1265.34 2336.4 1271.21 2334.88 1276.98C2349.31 1331.87 2318.17 1351.86 2273.69 1352.75C2272.71 1353.25 2271.75 1353.74 2270.77 1354.22C2275.28 1366.7 2278.88 1379.5 2281.55 1392.48C2283.94 1403.94 2285.6 1415.53 2286.53 1427.17C2287.69 1441.85 2287.59 1456.61 2286.33 1471.27L2286.4 1470.75C2289.6 1454.61 2298.51 1439.53 2311.45 1429.08C2330.72 1413.5 2357.96 1407.76 2378.75 1395.24C2388.76 1389.22 2401.59 1397 2399.84 1408.42L2399.75 1408.97C2396.66 1410.21 2393.64 1411.64 2390.72 1413.25C2389.05 1414.18 2387.41 1415.16 2385.81 1416.2C2376.69 1422.14 2379.84 1436.04 2390.65 1437.68L2390.89 1437.72C2391.07 1437.74 2391.22 1437.77 2391.4 1437.79C2386.08 1450.2 2378.68 1461.71 2369.42 1471.64C2360.4 1519.56 2321.66 1524.11 2280.21 1510.15H2280.19C2275.65 1529.57 2269.03 1548.54 2260.53 1566.61H2190.3C2190.04 1565.85 2189.82 1565.05 2189.59 1564.29C2196.09 1564.68 2202.63 1564.31 2209.02 1563.15C2203.81 1556.86 2198.6 1550.52 2193.39 1544.23C2193.27 1544.1 2193.17 1543.98 2193.07 1543.86C2190.42 1540.64 2187.75 1537.44 2185.11 1534.22L2185.11 1534.22C2184.94 1524.34 2186.15 1514.49 2188.53 1504.93L2188.54 1504.93V1504.93Z" fill="#ABE8C0"/>
<path d="M211.622 1504.93C203.57 1505.42 199.12 1495.58 205.212 1489.84L205.818 1487.47C205.738 1487.29 205.658 1487.1 205.577 1486.91C197.435 1467.81 169.839 1467.94 161.766 1487.07C154.601 1504.04 145.478 1521.05 143.231 1539C142.224 1546.93 142.677 1555 144.465 1562.77C127.675 1526.69 118.839 1487.3 118.839 1447.67C118.839 1437.72 119.393 1427.76 120.526 1417.83C121.457 1409.71 122.741 1401.64 124.403 1393.64C133.389 1350.4 152.847 1309.22 180.914 1274.82C194.406 1267.57 205.658 1256.23 212.455 1242.63C214.896 1237.73 216.81 1232.45 217.716 1227.08C216.18 1227.28 211.926 1204.27 213.084 1202.86C210.944 1199.67 207.114 1198.08 204.777 1194.96C193.154 1179.46 177.141 1182.16 168.781 1203.23C150.923 1212.1 150.75 1226.8 161.708 1240.95C168.679 1249.94 169.637 1262.12 175.754 1271.75C175.124 1272.55 174.47 1273.31 173.841 1274.11C162.3 1288.67 152.319 1304.32 143.905 1320.76C146.283 1302.49 142.772 1280.47 136.787 1266.28C129.974 1250.11 117.204 1236.49 105.958 1222.51C92.4496 1205.72 64.75 1213.05 62.3702 1234.34C62.3472 1234.54 62.3248 1234.75 62.3027 1234.95C63.9731 1235.88 65.6096 1236.87 67.208 1237.91C76.3257 1243.84 73.1747 1257.74 62.3712 1259.38L62.1266 1259.42C62.7308 1265.34 63.7628 1271.21 65.273 1276.98C50.846 1331.87 81.9929 1351.86 126.466 1352.75C127.448 1353.25 128.405 1353.74 129.387 1354.22C124.881 1366.7 121.281 1379.5 118.613 1392.48C116.222 1403.94 114.56 1415.53 113.629 1427.17C112.471 1441.85 112.572 1456.61 113.83 1471.27L113.755 1470.75C110.558 1454.61 101.647 1439.53 88.7083 1429.08C69.4337 1413.5 42.2024 1407.76 21.4086 1395.24C11.399 1389.22 -1.42747 1397 0.319462 1408.42L0.404501 1408.97C3.50064 1410.21 6.5212 1411.64 9.44122 1413.25C11.1116 1414.18 12.748 1415.16 14.3465 1416.2C23.4642 1422.14 20.3131 1436.04 9.5097 1437.68L9.26487 1437.72C9.08871 1437.74 8.93761 1437.77 8.76169 1437.79C14.073 1450.2 21.4734 1461.71 30.7368 1471.64C39.7576 1519.56 78.5023 1524.11 119.947 1510.15H119.972C124.503 1529.57 131.123 1548.54 139.632 1566.61H209.862C210.114 1565.85 210.34 1565.05 210.567 1564.29C204.072 1564.68 197.528 1564.31 191.134 1563.15C196.345 1556.86 201.555 1550.52 206.766 1544.23C206.892 1544.1 206.992 1543.98 207.093 1543.86C209.736 1540.64 212.404 1537.44 215.047 1534.22L215.049 1534.22C215.214 1524.34 214.01 1514.49 211.624 1504.93L211.622 1504.93V1504.93Z" fill="#ABE8C0"/>
<path d="M587.187 1576.27L583.911 1580.05C455.998 1472.73 382.635 1316.39 382.635 1151.11C382.635 1000.56 442.227 859.029 550.431 752.58C658.637 646.131 802.506 587.507 955.539 587.507C1108.57 587.507 1252.44 646.131 1360.65 752.58C1468.85 859.029 1528.44 1000.56 1528.44 1151.11C1528.44 1316.39 1455.08 1472.73 1327.17 1580.05L1323.89 1576.27" fill="#E0DEFF"/>
<path d="M1841.2 1574.08L1836.14 1568.25C2031.93 1403.98 2144.22 1164.67 2144.22 911.705C2144.22 436.032 1750.84 49.0434 1267.32 49.0434C783.803 49.0434 390.43 436.032 390.43 911.705C390.43 1164.67 502.719 1403.98 698.507 1568.25L693.449 1574.08C495.923 1408.35 382.635 1166.92 382.635 911.705C382.635 679.224 474.658 460.665 641.749 296.284C808.842 131.904 1031.01 41.3752 1267.32 41.3752C1503.64 41.3752 1725.8 131.904 1892.9 296.284C2059.99 460.665 2152.01 679.224 2152.01 911.705C2152.01 1166.92 2038.72 1408.35 1841.2 1574.08V1574.08Z" fill="#3F3D56"/>
<path d="M1539.44 1572.54C1539.44 1575.07 1541.5 1577.11 1544.07 1577.11H2394.82C2397.39 1577.11 2399.45 1575.07 2399.45 1572.54C2399.45 1570.01 2397.39 1567.98 2394.82 1567.98H1544.07C1541.5 1567.98 1539.44 1570.01 1539.44 1572.54Z" fill="#E0DEFF"/>
<path d="M1271.22 45.2092H1263.43V311.3H1271.22V45.2092Z" fill="#3F3D56"/>
<path d="M662.074 899.057H391.596V906.725H662.074V899.057Z" fill="#3F3D56"/>
<path d="M689.877 256.79L683.837 261.639L854.854 467.788L860.894 462.939L689.877 256.79Z" fill="#3F3D56"/>
<path d="M765.533 1256.69L556.021 1424.98L560.949 1430.92L770.461 1262.63L765.533 1256.69Z" fill="#3F3D56"/>
<path d="M2143.05 899.057H1872.57V906.725H2143.05V899.057Z" fill="#3F3D56"/>
<path d="M1844.76 256.784L1673.76 462.945L1679.8 467.794L1850.8 261.633L1844.76 256.784Z" fill="#3F3D56"/>
<path d="M1769.09 1256.71L1764.17 1262.65L1973.72 1430.9L1978.65 1424.96L1769.09 1256.71Z" fill="#3F3D56"/>
<path d="M1267.32 992.22C1327.59 992.22 1376.45 944.156 1376.45 884.867C1376.45 825.577 1327.59 777.513 1267.32 777.513C1207.06 777.513 1158.2 825.577 1158.2 884.867C1158.2 944.156 1207.06 992.22 1267.32 992.22Z" fill="#3F3D56"/>
<path d="M1770.08 1295.11C1791.6 1295.11 1809.05 1277.94 1809.05 1256.77C1809.05 1235.59 1791.6 1218.43 1770.08 1218.43C1748.55 1218.43 1731.1 1235.59 1731.1 1256.77C1731.1 1277.94 1748.55 1295.11 1770.08 1295.11Z" fill="#3F3D56"/>
<path d="M1855.82 950.046C1877.34 950.046 1894.79 932.88 1894.79 911.705C1894.79 890.53 1877.34 873.365 1855.82 873.365C1834.29 873.365 1816.84 890.53 1816.84 911.705C1816.84 932.88 1834.29 950.046 1855.82 950.046Z" fill="#3F3D56"/>
<path d="M1668.75 505.296C1690.27 505.296 1707.72 488.13 1707.72 466.955C1707.72 445.78 1690.27 428.615 1668.75 428.615C1647.22 428.615 1629.77 445.78 1629.77 466.955C1629.77 488.13 1647.22 505.296 1668.75 505.296Z" fill="#3F3D56"/>
<path d="M1263.43 359.601C1284.95 359.601 1302.4 342.436 1302.4 321.261C1302.4 300.086 1284.95 282.92 1263.43 282.92C1241.9 282.92 1224.45 300.086 1224.45 321.261C1224.45 342.436 1241.9 359.601 1263.43 359.601Z" fill="#3F3D56"/>
<path d="M862.004 505.296C883.528 505.296 900.977 488.13 900.977 466.955C900.977 445.78 883.528 428.615 862.004 428.615C840.48 428.615 823.031 445.78 823.031 466.955C823.031 488.13 840.48 505.296 862.004 505.296Z" fill="#3F3D56"/>
<path d="M663.241 938.543C684.765 938.543 702.214 921.378 702.214 900.203C702.214 879.028 684.765 861.862 663.241 861.862C641.717 861.862 624.268 879.028 624.268 900.203C624.268 921.378 641.717 938.543 663.241 938.543Z" fill="#3F3D56"/>
<path d="M772.366 1291.28C793.89 1291.28 811.339 1274.11 811.339 1252.94C811.339 1231.76 793.89 1214.6 772.366 1214.6C750.841 1214.6 733.393 1231.76 733.393 1252.94C733.393 1274.11 750.841 1291.28 772.366 1291.28Z" fill="#3F3D56"/>
<path d="M1053.21 931.037C1074.73 931.037 1092.18 913.872 1092.18 892.697C1092.18 871.522 1074.73 854.356 1053.21 854.356C1031.69 854.356 1014.24 871.522 1014.24 892.697C1014.24 913.872 1031.69 931.037 1053.21 931.037Z" fill="#3F3D56"/>
<path d="M1952.66 826.405L1080.47 863.356C1065.42 863.994 1053.74 876.516 1054.39 891.324L1054.39 891.324C1055.04 906.133 1067.76 917.621 1082.82 916.983L1955.01 880.032C1970.06 879.395 1981.74 866.873 1981.09 852.064C1980.44 837.256 1967.71 825.768 1952.66 826.405Z" fill="#7030A0"/>
<path d="M1566.98 1869.95L1521.53 1869.94L1499.9 1697.46L1566.99 1697.47L1566.98 1869.95Z" fill="#A0616A"/>
<path d="M1411.25 1868.93C1409.83 1871.28 1409.09 1878.85 1409.09 1881.57C1409.09 1889.95 1415.99 1896.75 1424.51 1896.75H1565.28C1571.09 1896.75 1575.8 1892.11 1575.8 1886.4V1880.63C1575.8 1880.63 1582.77 1863.3 1568.43 1841.94C1568.43 1841.94 1550.61 1858.67 1523.99 1832.47L1516.13 1818.48L1459.3 1859.37L1427.8 1863.19C1420.9 1864.02 1414.79 1863.06 1411.25 1868.93V1868.93Z" fill="#2F2E41"/>
<path d="M1806.33 1869.95L1760.87 1869.94L1739.25 1697.46L1806.34 1697.47L1806.33 1869.95Z" fill="#A0616A"/>
<path d="M1650.6 1868.93C1649.18 1871.28 1648.44 1878.85 1648.44 1881.57C1648.44 1889.95 1655.34 1896.75 1663.86 1896.75H1804.63C1810.44 1896.75 1815.15 1892.11 1815.15 1886.4V1880.63C1815.15 1880.63 1822.12 1863.3 1807.78 1841.94C1807.78 1841.94 1789.96 1858.67 1763.33 1832.47L1755.48 1818.48L1698.65 1859.37L1667.15 1863.19C1660.25 1864.02 1654.14 1863.06 1650.6 1868.93V1868.93Z" fill="#2F2E41"/>
<path d="M1911.99 481.522L1916.8 684.09L1872.24 866.408L1830.75 852.844L1842.83 686.756L1832.2 462.958L1911.99 481.522Z" fill="#A0616A"/>
<path d="M1873.13 895.519C1876.98 869.394 1867.32 846.394 1851.55 844.146C1835.79 841.899 1819.88 861.255 1816.04 887.38C1812.19 913.504 1821.85 936.505 1837.62 938.752C1853.39 941 1869.29 921.644 1873.13 895.519Z" fill="#A0616A"/>
<path d="M1807.1 298.269C1807.1 298.269 1883.57 298.098 1896.49 342.178C1909.91 388.013 1931.33 558.962 1922.07 558.972L1826.6 570.843L1807.1 298.269Z" fill="#7030A0"/>
<path d="M1511.58 503.111L1469.45 701.448L1383.91 869.02L1346.64 846.53L1396.8 687.497L1461.56 467.183L1511.58 503.111Z" fill="#A0616A"/>
<path d="M1378.05 897.569C1387.83 872.989 1383.74 848.43 1368.91 842.714C1354.07 836.998 1334.11 852.29 1324.33 876.869C1314.54 901.449 1318.63 926.008 1333.47 931.724C1348.3 937.44 1368.26 922.148 1378.05 897.569Z" fill="#A0616A"/>
<path d="M1497.96 306.425C1497.96 306.425 1539.77 324.771 1551.47 369.18C1562.1 409.577 1588.4 587.342 1511.13 578.997L1413.7 571.329C1413.01 476.981 1454.41 388.025 1497.96 306.425V306.425Z" fill="#7030A0"/>
<path d="M1485.57 884.867L1469.98 1022.89L1477.78 1410.74L1493.37 1774.37H1575.82L1668.75 1111.08L1729.02 1774.37H1824.76L1851.92 1325.78C1851.92 1325.78 1871.41 907.871 1836.33 873.364C1801.25 838.858 1485.57 884.867 1485.57 884.867Z" fill="#2F2E41"/>
<path d="M1744.74 227.327H1617.07L1588.85 265.667C1588.85 265.667 1534.29 273.335 1499.21 307.842L1495.32 675.911L1469.98 916.596L1851.89 905.954L1828.53 773.679L1844.09 309.427C1844.09 309.427 1803.2 261.833 1775.92 269.501L1744.74 227.327V227.327Z" fill="#7030A0"/>
<path d="M1648.5 206.827C1701.26 206.827 1744.03 164.751 1744.03 112.847C1744.03 60.9432 1701.26 18.8667 1648.5 18.8667C1595.74 18.8667 1552.97 60.9432 1552.97 112.847C1552.97 164.751 1595.74 206.827 1648.5 206.827Z" fill="#A0616A"/>
<path d="M1730.57 25.3343C1719.89 16.075 1705.22 10.7446 1691.23 11.6893C1682.74 12.2619 1674.51 9.63762 1666.98 5.75376C1666.47 5.49082 1665.95 5.25142 1665.42 5.03691C1660.67 3.10669 1655.39 2.89041 1650.26 3.01287C1640.9 3.23621 1629.83 -5.99975 1622.5 6.80885C1594.75 1.66839 1592.19 17.5303 1579.28 26.8773C1575.62 24.7543 1551.95 28.6218 1549.46 32.4416C1547.57 35.3505 1546.25 38.314 1545.35 41.1917C1544.78 43.0377 1548.24 49.7728 1547.98 51.511C1547.72 53.2493 1543.73 49.9908 1543.7 51.5472C1543.61 55.7133 1544.2 59.095 1544.7 60.9809C1545.96 65.7944 1532.97 59.6277 1528.71 62.2987C1524.45 64.97 1528.79 77.3288 1524.62 80.1394C1519.65 83.4926 1522.94 87.1991 1527.28 91.5818C1530.27 94.6023 1533.75 97.944 1535.36 101.713C1539.31 110.95 1517.6 119.135 1527.59 117.183C1537.91 115.169 1541.27 130.96 1549.95 125.118C1569.58 111.902 1568.87 112.987 1586 129.219C1590.75 133.726 1600.1 116.075 1606.39 118.056C1618.24 121.789 1627.92 134.299 1635.75 153.21C1636.86 155.887 1626.36 199.555 1625.88 202.405C1624.75 209.046 1656.18 194.062 1656.1 201.305C1655.98 210.863 1673.26 198.815 1678.23 207.192C1678.85 206.429 1713.89 190.754 1715.57 189.537L1739.84 166.454C1755.75 139.664 1761.83 107.354 1756.71 76.7365C1753.49 57.453 1745.48 38.2504 1730.57 25.3343H1730.57Z" fill="#2F2E41"/>
<path d="M1262.73 1898.44C1262.73 1900.97 1264.79 1903 1267.36 1903H2118.11C2120.68 1903 2122.74 1900.97 2122.74 1898.44C2122.74 1895.91 2120.68 1893.88 2118.11 1893.88H1267.36C1264.79 1893.88 1262.73 1895.91 1262.73 1898.44Z" fill="#CCCCCC"/>
<path d="M0 1572.54C0 1575.07 2.06569 1577.11 4.63803 1577.11H855.381C857.953 1577.11 860.018 1575.07 860.018 1572.54C860.018 1570.01 857.953 1567.98 855.381 1567.98H4.63803C2.06569 1567.98 0 1570.01 0 1572.54Z" fill="#E0DEFF"/>
</g>
<defs>
<clipPath id="clip0_2955_1880">
<rect width="2400" height="1903" fill="white"/>
</clipPath>
</defs>
</svg>
