<svg width="2775" height="2193" viewBox="0 0 2775 2193" fill="none" xmlns="http://www.w3.org/2000/svg">
<path d="M2105.68 1812.48C2053.24 1795.68 2009.03 1759.86 1981.01 1711.5C1971.67 1695.35 1964.38 1670.14 1959.34 1636.59C1956.18 1615 1957.78 1592.77 1964.02 1571.55C1970.26 1550.33 1980.98 1530.65 1995.4 1513.96C1984.95 1519.69 1973.97 1524.27 1962.66 1527.62L1956.92 1529.37L1958.59 1523.45C1959.68 1519.6 1960.85 1515.78 1962.06 1512.12C1969.25 1490.53 1992.17 1473.62 1991.6 1451.35C1989.18 1357.48 1920.58 1242.99 2103.59 1157.55C2120.52 1149.65 2111.27 1120.04 2117.33 1101.81C2176.72 923.22 2521.1 691.68 2535.16 877.3C2552.5 1106.21 2705.19 1131.24 2755.79 1193.59L2755.74 1196.84L2752.6 1197.12C2736.43 1198.79 2720.2 1198.16 2704.36 1195.24C2719.41 1203.88 2735.46 1210.62 2752.17 1215.33L2754.76 1216.05L2754.52 1218.85C2752.1 1246.57 2746.41 1274.01 2737.58 1300.55L2736.62 1303.41C2729.86 1323.55 2727.24 1344.78 2728.92 1365.72C2730.61 1386.65 2736.57 1406.82 2746.42 1424.92C2761.88 1453.73 2771.24 1485.78 2773.9 1519.02C2776.56 1552.25 2772.45 1585.95 2761.84 1617.97C2749.25 1655.83 2708.09 1697.63 2675.77 1726.03C2667.57 1733.28 2657.95 1738.57 2647.63 1741.51C2637.32 1744.45 2626.58 1744.97 2616.22 1743.02C2606.38 1741.24 2597.12 1737.24 2589.1 1731.29C2581.08 1725.35 2574.48 1717.6 2569.78 1708.61C2572.73 1732.29 2579.21 1755.23 2588.99 1776.61L2590.8 1780.55L2586.59 1781.56C2546.13 1791.27 2504.29 1789.81 2465.35 1777.31L2463.07 1776.58C2434.62 1767.12 2404.41 1763.69 2374.22 1766.49C2344.03 1769.29 2314.47 1778.27 2287.26 1792.89C2259.34 1808.43 2228.89 1818.17 2197.71 1821.53C2166.53 1824.89 2135.24 1821.81 2105.68 1812.48Z" fill="#1BCD82" fill-opacity="0.21"/>
<path d="M1997.14 2130.63C1996.18 2130.33 1995.38 2129.69 1994.86 2128.85C1994.35 2128.01 1994.16 2127.02 1994.33 2126.06C2013.98 2032.57 2043.62 1941.39 2082.76 1854.02C2143.77 1715.94 2255.81 1524.81 2443.09 1398.35C2443.54 1398.05 2444.04 1397.84 2444.58 1397.73C2445.11 1397.61 2445.66 1397.61 2446.2 1397.7C2446.74 1397.8 2447.25 1398 2447.71 1398.29C2448.17 1398.58 2448.56 1398.96 2448.87 1399.4C2449.18 1399.84 2449.4 1400.33 2449.52 1400.85C2449.63 1401.38 2449.64 1401.92 2449.54 1402.44C2449.45 1402.97 2449.24 1403.47 2448.95 1403.92C2448.65 1404.37 2448.27 1404.75 2447.82 1405.06C2262.16 1530.42 2150.97 1720.16 2090.39 1857.26C2051.5 1944.05 2022.05 2034.62 2002.52 2127.47C2002.42 2128.05 2002.19 2128.59 2001.85 2129.07C2001.52 2129.55 2001.08 2129.96 2000.57 2130.26C2000.06 2130.56 1999.48 2130.74 1998.89 2130.81C1998.3 2130.87 1997.7 2130.81 1997.14 2130.63Z" fill="white"/>
<path d="M2282.69 1628.42C2281.85 1628.15 2281.13 1627.62 2280.62 1626.89C2280.12 1626.16 2279.85 1625.27 2279.87 1624.36C2279.89 1623.45 2280.18 1622.55 2280.72 1621.81C2281.25 1621.06 2282 1620.49 2282.84 1620.2C2329.09 1605.72 2376.69 1597.17 2424.55 1594.75C2499.43 1590.63 2608.11 1599.97 2700.61 1667.86C2701.05 1668.19 2701.42 1668.6 2701.7 1669.08C2701.98 1669.55 2702.17 1670.09 2702.24 1670.65C2702.32 1671.2 2702.29 1671.78 2702.16 1672.33C2702.02 1672.89 2701.78 1673.41 2701.45 1673.88C2701.12 1674.35 2700.71 1674.75 2700.24 1675.05C2699.76 1675.36 2699.24 1675.57 2698.69 1675.67C2698.15 1675.77 2697.6 1675.76 2697.06 1675.64C2696.53 1675.52 2696.03 1675.3 2695.59 1674.97C2604.98 1608.47 2498.26 1599.34 2424.69 1603.39C2377.6 1605.75 2330.77 1614.15 2285.27 1628.38C2284.43 1628.67 2283.52 1628.69 2282.69 1628.42Z" fill="white"/>
<path d="M2258.26 1099.2C2258.49 1098.31 2258.99 1097.5 2259.67 1096.9C2260.36 1096.3 2261.21 1095.93 2262.09 1095.85C2262.98 1095.77 2263.85 1095.98 2264.59 1096.45C2265.34 1096.92 2265.91 1097.62 2266.22 1098.46C2281.86 1144.53 2291.81 1192.63 2295.85 1241.67C2302.48 1318.36 2297.3 1431.32 2234.92 1533.98C2234.62 1534.47 2234.23 1534.9 2233.78 1535.25C2233.33 1535.59 2232.82 1535.84 2232.28 1535.98C2231.75 1536.12 2231.19 1536.16 2230.65 1536.08C2230.1 1536 2229.59 1535.81 2229.12 1535.52C2228.66 1535.23 2228.26 1534.85 2227.94 1534.39C2227.63 1533.94 2227.41 1533.42 2227.29 1532.87C2227.17 1532.32 2227.16 1531.74 2227.26 1531.18C2227.36 1530.62 2227.57 1530.07 2227.86 1529.59C2288.97 1429.03 2294.02 1318.1 2287.5 1242.75C2283.54 1194.51 2273.77 1147.18 2258.4 1101.85C2258.08 1101.02 2258.03 1100.08 2258.26 1099.2Z" fill="white"/>
<path d="M2123.81 2120.73C2123.81 2160.21 1648.38 2192.24 1061.9 2192.24C475.425 2192.24 0 2160.21 0 2120.73C0 2110.86 29.6737 2101.47 83.3643 2092.92C239.673 2068.01 599.579 2050.31 1022.6 2049.29C1035.65 2049.25 1048.75 2049.23 1061.9 2049.23C1648.38 2049.23 2123.81 2081.25 2123.81 2120.73Z" fill="#F0EFFF"/>
<path d="M620.958 1992.45C480.636 1400.14 491.844 805.27 703.781 207.014C705.494 170.877 720.06 136.252 744.281 110.736C768.503 85.22 800.403 70.896 832.983 70.908L2048.58 72.8489C2081.16 72.9419 2111.72 87.366 2133.57 112.955C2155.42 138.545 2166.78 173.211 2165.14 209.348L2082.31 1994.79C2080.6 2030.92 2066.03 2065.55 2041.81 2091.06C2017.59 2116.58 1985.69 2130.9 1953.11 2130.89L737.513 2128.95C704.937 2128.86 674.371 2114.43 652.52 2088.84C630.669 2063.25 619.318 2028.59 620.958 1992.45Z" fill="#EBD4FD"/>
<path d="M739.061 1453.24C629.93 1164.46 689.072 751.27 792.09 305.634C793.687 271.797 807.324 239.38 830.01 215.493C852.696 191.606 882.577 178.201 913.098 178.219L1958.09 180.118C1988.61 180.211 2017.25 193.723 2037.72 217.688C2058.2 241.653 2068.84 274.116 2067.31 307.954L1993.91 1896.42C1992.31 1930.26 1978.68 1962.68 1955.99 1986.57C1933.3 2010.45 1903.42 2023.86 1872.9 2023.84L1225.55 2022.66C1089.61 2022.24 962.05 1962.06 870.848 1855.31C779.646 1748.56 732.251 1603.96 739.061 1453.24Z" fill="white"/>
<path d="M1747.09 537.447L916.23 536.543C908.076 536.534 901.478 543.137 901.493 551.292L901.493 551.292C901.509 559.447 908.132 566.064 916.286 566.073L1747.14 566.977C1755.3 566.986 1761.89 560.382 1761.88 552.228C1761.86 544.073 1755.24 537.455 1747.09 537.447Z" fill="#EBD4FD"/>
<path d="M1756.27 715.97L915.667 715.056C907.513 715.047 900.915 721.651 900.93 729.805L900.93 729.805C900.946 737.96 907.569 744.577 915.723 744.586L1756.32 745.501C1764.48 745.509 1771.08 738.906 1771.06 730.752C1771.05 722.597 1764.42 715.979 1756.27 715.97Z" fill="#EBD4FD"/>
<path d="M1754.24 889.78L913.638 888.866C905.484 888.857 898.886 895.461 898.901 903.615L898.901 903.615C898.917 911.77 905.54 918.388 913.694 918.396L1754.3 919.311C1762.45 919.32 1769.05 912.716 1769.03 904.562C1769.02 896.407 1762.39 889.789 1754.24 889.78Z" fill="#EBD4FD"/>
<path d="M1760.3 1063.34L919.701 1062.43C911.547 1062.42 904.949 1069.02 904.964 1077.18L904.964 1077.18C904.98 1085.33 911.603 1091.95 919.757 1091.96L1760.36 1092.87C1768.51 1092.88 1775.11 1086.28 1775.1 1078.12C1775.08 1069.97 1768.46 1063.35 1760.3 1063.34Z" fill="#EBD4FD"/>
<path d="M1765.86 1210.89L925.255 1209.98C917.101 1209.97 910.503 1216.57 910.518 1224.73L910.518 1224.73C910.534 1232.88 917.157 1239.5 925.311 1239.51L1765.91 1240.42C1774.07 1240.43 1780.66 1233.83 1780.65 1225.67C1780.63 1217.52 1774.01 1210.9 1765.86 1210.89Z" fill="#EBD4FD"/>
<path d="M1661.72 1415.3L1285.05 1414.89C1258.95 1414.86 1237.84 1435.99 1237.89 1462.09C1237.94 1488.18 1259.13 1509.36 1285.23 1509.39L1661.9 1509.8C1688 1509.83 1709.11 1488.7 1709.06 1462.6C1709.01 1436.51 1687.81 1415.33 1661.72 1415.3Z" fill="#7030A0"/>
<path d="M1820.05 1873.65L1665.55 1879.04C1662.78 1879.14 1660.08 1877.9 1658.04 1875.61C1656 1873.31 1654.79 1870.15 1654.67 1866.8L1648.15 1680.25C1648.04 1676.9 1649.03 1673.66 1650.9 1671.23C1652.78 1668.8 1655.38 1667.38 1658.15 1667.28L1812.66 1661.88C1815.42 1661.79 1818.12 1663.02 1820.16 1665.32C1822.2 1667.61 1823.42 1670.78 1823.54 1674.12L1830.05 1860.68C1830.16 1864.02 1829.18 1867.26 1827.3 1869.69C1825.43 1872.13 1822.82 1873.55 1820.05 1873.65Z" fill="#EBD4FD"/>
<path d="M1585.89 1881.82L1431.39 1887.22C1428.62 1887.31 1425.92 1886.07 1423.88 1883.78C1421.84 1881.48 1420.63 1878.32 1420.51 1874.98L1413.99 1688.42C1413.88 1685.08 1414.87 1681.83 1416.74 1679.4C1418.62 1676.97 1421.22 1675.55 1423.99 1675.45L1578.5 1670.05C1581.26 1669.96 1583.96 1671.2 1586 1673.49C1588.04 1675.79 1589.26 1678.95 1589.38 1682.29L1595.89 1868.85C1596 1872.19 1595.01 1875.44 1593.14 1877.87C1591.27 1880.3 1588.66 1881.72 1585.89 1881.82Z" fill="#EBD4FD"/>
<path d="M1461.03 368.372L943.124 367.809C934.97 367.8 928.372 374.404 928.387 382.558L928.387 382.558C928.403 390.713 935.026 397.33 943.18 397.339L1461.09 397.903C1469.24 397.911 1475.84 391.308 1475.82 383.153C1475.81 374.999 1469.18 368.381 1461.03 368.372Z" fill="#EBD4FD"/>
<path d="M1405.89 2147.34L1405.78 2147.95C1405.65 2147.35 1405.53 2146.74 1405.42 2146.13C1405.2 2145.16 1405.02 2144.18 1404.84 2143.19C1397.94 2104.74 1401.74 2065.39 1415.92 2028.53C1418.64 2021.33 1421.74 2014.27 1425.23 2007.34C1438.54 1980.5 1457.42 1956.1 1480.89 1935.41C1488.51 1928.51 1497.2 1922.61 1506.71 1917.89C1508.1 1917.23 1509.51 1916.61 1510.94 1916.04C1519.73 1912.27 1529.63 1911 1539.27 1912.41C1542.77 1912.99 1546.16 1914 1549.35 1915.41C1550.47 1915.89 1551.55 1916.41 1552.6 1916.98C1559.05 1920.72 1564.55 1925.59 1568.76 1931.29C1572.98 1937 1575.82 1943.41 1577.1 1950.13C1578.93 1960.15 1578.51 1970.39 1575.87 1980.27C1575.64 1981.22 1575.4 1982.16 1575.14 1983.09C1573.26 1989.68 1570.91 1996.15 1568.08 2002.46C1539.84 2066.73 1479.15 2123.75 1405.89 2147.34Z" fill="#40ED7B" fill-opacity="0.35"/>
<path d="M1549.16 1915.6C1527.12 1943.61 1506.3 1972.32 1486.7 2001.75C1467.13 2031.16 1448.84 2061.19 1431.82 2091.85C1422.31 2109 1413.2 2126.33 1404.52 2143.83C1403.56 2145.77 1406.8 2147.45 1407.77 2145.49C1423.29 2114.25 1440.12 2083.56 1458.27 2053.41C1476.42 2023.3 1495.83 1993.83 1516.53 1964.99C1528.1 1948.86 1540.07 1932.95 1552.41 1917.26C1553.79 1915.5 1550.53 1913.85 1549.16 1915.6Z" fill="white"/>
<path d="M1572.74 1980.43C1556.18 1999.47 1531.8 2011.96 1504.89 2015.21C1497.39 2016.11 1489.79 2016.25 1482.25 2015.6C1479.83 2015.4 1479.82 2018.73 1482.21 2018.93C1510.27 2021.02 1538.14 2013.23 1559.75 1997.26C1565.81 1992.78 1571.26 1987.69 1575.99 1982.09C1577.44 1980.39 1574.18 1978.74 1572.74 1980.43Z" fill="white"/>
<path d="M1431.29 2083.68C1427.44 2078.83 1424.25 2073.6 1421.76 2068.09C1416.09 2055.54 1414.08 2041.93 1415.91 2028.51C1418.63 2021.32 1421.74 2014.25 1425.22 2007.32C1425.43 2007.6 1425.56 2007.91 1425.59 2008.24C1425.62 2008.57 1425.55 2008.9 1425.39 2009.2C1422.94 2014.4 1421.18 2019.83 1420.14 2025.39C1416.41 2045.21 1421.58 2065.53 1434.56 2082.03C1434.72 2082.21 1434.83 2082.42 1434.87 2082.65C1434.92 2082.88 1434.9 2083.11 1434.81 2083.33C1434.66 2083.62 1434.43 2083.87 1434.15 2084.06C1433.86 2084.24 1433.52 2084.36 1433.16 2084.39C1432.81 2084.43 1432.45 2084.38 1432.12 2084.26C1431.79 2084.13 1431.51 2083.93 1431.29 2083.68Z" fill="white"/>
<path d="M1507.27 1915.77C1502.73 1931.74 1504.08 1948.58 1511.12 1963.83C1511.37 1964.21 1511.78 1964.48 1512.26 1964.6C1512.74 1964.72 1513.25 1964.66 1513.68 1964.44C1514.11 1964.22 1514.41 1963.86 1514.55 1963.43C1514.68 1963.01 1514.62 1962.56 1514.38 1962.18C1507.79 1947.71 1506.57 1931.77 1510.89 1916.64C1511 1916.22 1510.93 1915.78 1510.68 1915.41C1510.43 1915.04 1510.03 1914.77 1509.56 1914.66C1509.09 1914.54 1508.58 1914.6 1508.16 1914.8C1507.73 1915.01 1507.41 1915.36 1507.27 1915.77Z" fill="white"/>
<path d="M1405.42 2067.07L1405.65 2067.66C1405.22 2067.18 1404.79 2066.69 1404.37 2066.2C1403.67 2065.42 1402.99 2064.63 1402.32 2063.83C1376.01 2032.62 1358.7 1996.2 1351.9 1957.74C1350.53 1950.25 1349.57 1942.72 1349.02 1935.15C1346.71 1905.91 1350.62 1876.55 1360.53 1848.58C1363.65 1839.34 1368.25 1830.55 1374.19 1822.46C1375.08 1821.31 1376 1820.18 1376.97 1819.09C1382.77 1812.14 1390.87 1806.95 1400.14 1804.24C1403.55 1803.31 1407.09 1802.81 1410.65 1802.75C1411.89 1802.71 1413.12 1802.74 1414.35 1802.8C1422.02 1803.46 1429.45 1805.52 1436.18 1808.84C1442.91 1812.16 1448.79 1816.67 1453.46 1822.09C1460.34 1830.22 1465.35 1839.46 1468.2 1849.29C1468.49 1850.22 1468.77 1851.16 1469.03 1852.09C1470.83 1858.69 1472.14 1865.39 1472.96 1872.14C1481.71 1940.66 1457.91 2016.09 1405.42 2067.07Z" fill="#58F08B" fill-opacity="0.31"/>
<path d="M1410.59 1802.99C1405.78 1836.85 1402.43 1870.83 1400.53 1904.94C1398.64 1939.02 1398.22 1973.13 1399.25 2007.27C1399.83 2026.38 1400.87 2045.46 1402.38 2064.53C1402.54 2066.64 1406.3 2066.8 1406.13 2064.66C1403.46 2030.62 1402.24 1996.52 1402.49 1962.37C1402.74 1928.25 1404.45 1894.17 1407.63 1860.13C1409.41 1841.09 1411.65 1822.09 1414.34 1803.12C1414.64 1801 1410.89 1800.88 1410.59 1802.99Z" fill="white"/>
<path d="M1465.51 1850.72C1460.85 1874.38 1445.82 1895.46 1423.7 1909.39C1417.53 1913.28 1410.87 1916.52 1403.85 1919.05C1401.61 1919.86 1403.34 1922.81 1405.56 1922C1431.51 1912.32 1452.1 1893.98 1462.85 1870.96C1465.86 1864.5 1468.02 1857.75 1469.27 1850.86C1469.66 1848.75 1465.9 1848.63 1465.51 1850.72Z" fill="white"/>
<path d="M1394.5 2000.25C1388.54 1997.54 1382.96 1994.22 1377.87 1990.37C1366.25 1981.59 1357.32 1970.36 1351.89 1957.72C1350.53 1950.23 1349.57 1942.7 1349.01 1935.14C1349.34 1935.29 1349.62 1935.52 1349.82 1935.8C1350.02 1936.08 1350.13 1936.4 1350.15 1936.73C1350.71 1942.34 1352 1947.88 1354 1953.22C1361.11 1972.31 1376.37 1988.18 1396.52 1997.45C1396.76 1997.55 1396.97 1997.69 1397.13 1997.88C1397.29 1998.06 1397.39 1998.28 1397.43 1998.51C1397.45 1998.82 1397.38 1999.14 1397.22 1999.42C1397.06 1999.7 1396.82 1999.95 1396.53 2000.12C1396.23 2000.3 1395.89 2000.41 1395.53 2000.43C1395.18 2000.45 1394.82 2000.39 1394.5 2000.25Z" fill="white"/>
<path d="M1373.57 1820.34C1377.95 1836.35 1387.99 1850.71 1402.23 1861.32C1402.65 1861.55 1403.15 1861.63 1403.64 1861.54C1404.13 1861.44 1404.55 1861.18 1404.82 1860.81C1405.08 1860.44 1405.16 1859.99 1405.05 1859.56C1404.95 1859.14 1404.66 1858.76 1404.25 1858.52C1390.82 1848.41 1381.36 1834.8 1377.24 1819.63C1377.12 1819.21 1376.82 1818.85 1376.41 1818.63C1375.99 1818.4 1375.49 1818.33 1375.02 1818.42C1374.54 1818.51 1374.12 1818.76 1373.85 1819.12C1373.58 1819.48 1373.48 1819.92 1373.57 1820.34Z" fill="white"/>
<path d="M1407.05 2147.73L1407.6 2148.12C1406.95 2147.92 1406.28 2147.71 1405.63 2147.5C1404.57 2147.18 1403.52 2146.84 1402.46 2146.48C1361.29 2132.71 1324.53 2110.27 1295.37 2081.11C1289.66 2075.45 1284.27 2069.56 1279.19 2063.45C1259.44 2039.91 1244.85 2013.31 1236.17 1985.02C1233.18 1975.75 1231.7 1966.15 1231.77 1956.5C1231.82 1955.11 1231.91 1953.72 1232.06 1952.34C1232.72 1943.72 1236.38 1935.49 1242.55 1928.79C1244.86 1926.39 1247.53 1924.28 1250.49 1922.53C1251.52 1921.91 1252.57 1921.34 1253.65 1920.81C1260.51 1917.71 1268.02 1915.91 1275.71 1915.5C1283.4 1915.09 1291.11 1916.09 1298.34 1918.44C1309.09 1922 1318.94 1927.41 1327.33 1934.34C1328.14 1934.98 1328.94 1935.63 1329.73 1936.3C1335.27 1941 1340.45 1946.02 1345.25 1951.32C1394.35 2004.89 1420.23 2079.78 1407.05 2147.73Z" fill="#40ED7B" fill-opacity="0.28"/>
<path d="M1250.6 1922.78C1267.16 1953.59 1285.03 1983.82 1304.21 2013.47C1323.37 2043.08 1343.78 2072.03 1365.44 2100.3C1377.57 2116.12 1390.06 2131.7 1402.94 2147.05C1404.36 2148.75 1407.63 2147.1 1406.19 2145.38C1383.2 2117.97 1361.42 2089.82 1340.83 2060.93C1320.26 2032.06 1300.95 2002.53 1282.9 1972.33C1272.81 1955.44 1263.12 1938.36 1253.84 1921.1C1252.8 1919.17 1249.56 1920.85 1250.6 1922.78Z" fill="white"/>
<path d="M1325.94 1936.82C1336.42 1958.98 1336.59 1983.9 1326.43 2006.17C1323.6 2012.38 1319.96 2018.29 1315.59 2023.76C1314.2 2025.51 1317.45 2027.17 1318.84 2025.44C1334.8 2004.92 1340.98 1979.66 1336.02 1955.14C1334.62 1948.26 1332.33 1941.55 1329.19 1935.14C1328.23 1933.19 1324.99 1934.88 1325.94 1936.82Z" fill="white"/>
<path d="M1357.16 2096.66C1350.49 2097.21 1343.77 2097.07 1337.13 2096.25C1321.99 2094.38 1307.63 2089.18 1295.37 2081.11C1289.65 2075.45 1284.26 2069.57 1279.18 2063.46C1279.55 2063.43 1279.93 2063.49 1280.27 2063.63C1280.6 2063.77 1280.9 2063.98 1281.11 2064.25C1285 2068.72 1289.46 2072.76 1294.4 2076.32C1312.01 2089.01 1334.53 2095.12 1357.16 2093.33C1357.42 2093.3 1357.68 2093.32 1357.93 2093.4C1358.17 2093.48 1358.39 2093.61 1358.56 2093.79C1358.77 2094.04 1358.91 2094.34 1358.95 2094.66C1358.99 2094.97 1358.93 2095.29 1358.79 2095.58C1358.65 2095.87 1358.43 2096.12 1358.14 2096.31C1357.85 2096.5 1357.52 2096.62 1357.16 2096.66Z" fill="white"/>
<path d="M1229.98 1955.05C1243.42 1966.45 1260.62 1973.76 1279.08 1975.92C1280.09 1976.04 1280.95 1975.07 1280.96 1974.26C1280.95 1973.82 1280.74 1973.41 1280.39 1973.1C1280.04 1972.79 1279.57 1972.61 1279.08 1972.6C1261.61 1970.48 1245.35 1963.51 1232.64 1952.7C1230.9 1951.21 1228.24 1953.56 1229.98 1955.05Z" fill="white"/>
<path d="M1736.97 2149.07V1965.9C1736.97 1965.9 1799.88 2095.76 1736.97 2149.07Z" fill="#BCF9D1" fill-opacity="0.41"/>
<path d="M1740.86 2149.02L1621.96 2025.15C1621.96 2025.15 1748.8 2060.39 1740.86 2149.02Z" fill="#BCF9D1" fill-opacity="0.41"/>
<path d="M359.087 2149.07V1965.9C359.087 1965.9 296.182 2095.76 359.087 2149.07Z" fill="#F1F1F1"/>
<path d="M355.195 2149.02L474.102 2025.15C474.102 2025.15 347.261 2060.39 355.195 2149.02Z" fill="#F1F1F1"/>
<path d="M1795.54 2095.14C1797.09 2095.2 1798.62 2094.77 1799.93 2093.91C1801.23 2093.05 1802.25 2091.8 1802.83 2090.33C1803.42 2088.86 1803.55 2087.25 1803.2 2085.7C1802.86 2084.16 1802.06 2082.76 1800.91 2081.7C1800.71 2080.93 1800.56 2080.37 1800.37 2079.6C1801.82 2075.74 1804.36 2072.41 1807.68 2070.03C1811 2067.66 1814.94 2066.35 1819 2066.27C1823.05 2066.19 1827.04 2067.35 1830.44 2069.59C1833.85 2071.84 1836.52 2075.07 1838.11 2078.87C1847.29 2100.21 1859.13 2122.28 1853.57 2145.93C1890.98 2063.08 1877.04 1960.61 1819.94 1890.63C1804.26 1882.02 1791.47 1866.58 1788.01 1848.55C1795.76 1851.14 1805.32 1844.65 1799.44 1836.42C1796.9 1833.27 1794.33 1830.16 1791.78 1827.01C1820.81 1794.9 1856.22 1844.58 1824.34 1887.86C1835.03 1901.25 1844.31 1915.74 1852.04 1931.1C1850.13 1914.73 1852.07 1898.13 1857.69 1882.67C1863.39 1868.27 1874.22 1856.07 1883.74 1843.57C1895.32 1828.34 1919.5 1835.08 1921.25 1854.25C1910.47 1857.97 1909.22 1873.91 1921.61 1875.96C1918.7 1911.69 1896.12 1944.71 1864.76 1960.67C1876.71 1993.84 1881.58 2029.22 1879.06 2064.45C1884.24 2023.25 1927.48 2012.84 1957.63 1996.2C1959.54 1994.92 1961.78 1994.23 1964.07 1994.23C1966.36 1994.23 1968.61 1994.9 1970.53 1996.18C1972.45 1997.45 1973.96 1999.26 1974.89 2001.4C1975.81 2003.53 1976.11 2005.9 1975.74 2008.2C1971.57 2009.97 1967.59 2012.17 1963.85 2014.74C1962.1 2015.97 1960.76 2017.71 1960.02 2019.74C1959.28 2021.78 1959.18 2023.99 1959.72 2026.08C1960.26 2028.18 1961.43 2030.05 1963.06 2031.44C1964.69 2032.83 1966.7 2033.68 1968.81 2033.86C1953.9 2072.52 1914.67 2098.77 1874.12 2099.02C1870.38 2116.31 1864.89 2133.16 1857.74 2149.3L1797.56 2149.88C1797.34 2149.2 1797.13 2148.5 1796.93 2147.82C1802.51 2148.12 1808.1 2147.73 1813.58 2146.65C1798.67 2129.01 1787.19 2120.05 1795.54 2095.14Z" fill="#15C06E" fill-opacity="0.29"/>
<path d="M276.969 2088.25C275.416 2088.3 273.883 2087.87 272.578 2087.01C271.273 2086.16 270.259 2084.91 269.673 2083.44C269.087 2081.97 268.958 2080.36 269.303 2078.81C269.648 2077.27 270.45 2075.87 271.602 2074.81C271.8 2074.04 271.942 2073.48 272.14 2072.71C270.691 2068.85 268.143 2065.52 264.824 2063.14C261.504 2060.77 257.564 2059.46 253.509 2059.38C249.454 2059.3 245.468 2060.46 242.063 2062.7C238.657 2064.95 235.987 2068.18 234.395 2071.98C225.213 2093.32 213.381 2115.39 218.942 2139.04C181.525 2056.19 195.47 1953.72 252.565 1883.74C268.246 1875.13 281.035 1859.69 284.496 1841.66C276.75 1844.25 267.184 1837.76 273.067 1829.53C275.612 1826.38 278.182 1823.27 280.728 1820.12C251.698 1788.01 216.289 1837.69 248.167 1880.97C237.482 1894.36 228.199 1908.85 220.47 1924.2C222.374 1907.84 220.439 1891.24 214.822 1875.78C209.118 1861.37 198.288 1849.18 188.767 1836.68C177.192 1821.45 153.011 1828.19 151.255 1847.36C162.035 1851.08 163.291 1867.02 150.901 1869.07C153.808 1904.8 176.383 1937.82 207.751 1953.78C195.802 1986.95 190.927 2022.33 193.45 2057.56C188.271 2016.36 145.023 2005.95 114.881 1989.31C112.965 1988.03 110.725 1987.34 108.434 1987.34C106.144 1987.34 103.901 1988.01 101.981 1989.29C100.061 1990.56 98.5461 1992.37 97.6208 1994.51C96.6956 1996.64 96.4001 1999.01 96.7706 2001.31C100.936 2003.08 104.917 2005.27 108.658 2007.85C110.41 2009.08 111.747 2010.82 112.487 2012.85C113.226 2014.88 113.331 2017.1 112.787 2019.19C112.244 2021.29 111.078 2023.16 109.45 2024.55C107.821 2025.94 105.811 2026.79 103.693 2026.97C118.603 2065.63 157.841 2091.88 198.39 2092.12C202.125 2109.42 207.614 2126.27 214.768 2142.41L274.949 2142.99C275.172 2142.31 275.372 2141.61 275.573 2140.93C269.999 2141.23 264.41 2140.84 258.93 2139.76C273.834 2122.12 285.316 2113.16 276.971 2088.25H276.969Z" fill="#15C06E" fill-opacity="0.24"/>
<path d="M1059.46 366.3L696.632 362.858C687.736 362.759 679.01 357.432 672.484 347.559C665.957 337.682 662.3 324.226 662.428 310.133L664.949 54.16C665.098 40.067 669.019 26.683 675.74 16.932C682.458 7.18496 691.287 2.02494 700.182 2.09394L1063.02 5.53694C1071.91 5.63694 1080.64 10.9629 1087.16 20.8359C1093.69 30.7129 1097.35 44.1689 1097.22 58.2619L1094.7 314.233C1094.55 328.326 1090.63 341.711 1083.91 351.461C1077.19 361.209 1068.36 366.369 1059.46 366.3Z" fill="white" stroke="#2F2E41" stroke-width="4"/>
<path d="M995.351 243.604L775.019 241.841C749.105 241.633 727.94 262.472 727.744 288.386C727.549 314.3 748.398 335.475 774.311 335.683L994.644 337.446C1020.56 337.653 1041.72 316.814 1041.92 290.9C1042.11 264.987 1021.26 243.811 995.351 243.604Z" fill="#EBD4FD"/>
<path d="M870.597 120.371C893.919 120.592 912.974 105.676 913.157 87.056C913.341 68.435 894.583 53.1609 871.261 52.9399C847.939 52.7179 828.885 67.6339 828.701 86.2549C828.518 104.875 847.275 120.15 870.597 120.371Z" fill="#FFB6B6"/>
<path d="M972.932 178.924C949.809 199.528 917.428 212.012 882.781 213.681C848.134 215.351 814 206.072 787.747 187.848L799.342 162.676C801.951 158.211 806.035 154.401 811.157 151.656C816.28 148.911 822.247 147.334 828.419 147.095L835.641 146.809L852.97 135.12C852.97 135.12 899.361 134.238 898.679 133.598L926.639 147.356L926.617 147.263L937.655 147.907C943.822 148.263 949.757 149.952 954.825 152.794C959.893 155.636 963.901 159.523 966.42 164.038L972.932 178.924Z" fill="#7030A0"/>
<path d="M915.669 66.15C912.201 55.918 904.181 47.034 893.113 41.166C884.292 36.554 873.252 34.138 863.184 36.437C853.117 38.736 844.724 46.527 845.298 55.036C841.682 54.016 837.548 55.288 834.872 57.501C832.196 59.715 830.739 62.714 829.688 65.702C826.371 75.205 826.485 85.273 830.018 94.748L829.805 96.101C834.711 95.5 838.461 92.179 840.808 88.624C843.154 85.07 844.523 81.115 847.062 77.649C849.602 74.184 853.792 71.111 858.756 71.05L858.259 77.102C862.545 75.386 866.832 73.67 871.119 71.955C870.084 73.885 869.049 75.814 868.015 77.744C871.756 76.535 875.496 75.327 879.237 74.118C878.802 75.979 878.367 77.84 877.932 79.701C881.696 73.016 893.16 70.173 900.902 74.004C905.399 76.229 908.324 80.145 909.843 84.244C911.362 88.342 911.628 92.665 911.884 96.938C917.74 87.387 919.083 76.457 915.669 66.15Z" fill="#2F2E41"/>
<path d="M834.461 267.854C838.301 267.89 841.665 268.583 844.553 269.933C847.442 271.284 849.897 273.27 851.919 275.892L846.935 281.541C845.208 279.305 843.304 277.666 841.223 276.622C839.186 275.536 836.802 274.98 834.071 274.954C832.279 274.937 830.784 275.158 829.585 275.616C828.428 276.074 827.569 276.685 827.007 277.447C826.487 278.21 826.223 279.061 826.213 280C826.202 281.152 826.64 282.137 827.528 282.956C828.417 283.733 829.946 284.387 832.117 284.92L839.971 286.787C844.143 287.765 847.116 289.201 848.889 291.095C850.706 292.947 851.599 295.345 851.57 298.289C851.543 301.062 850.794 303.445 849.324 305.436C847.854 307.385 845.813 308.88 843.2 309.922C840.587 310.922 837.595 311.405 834.225 311.373C831.281 311.345 828.575 310.978 826.107 310.272C823.683 309.524 821.516 308.522 819.609 307.266C817.701 306.011 816.115 304.567 814.851 302.933L819.901 297.029C820.869 298.403 822.073 299.631 823.513 300.711C824.953 301.792 826.588 302.66 828.416 303.318C830.287 303.933 832.247 304.25 834.295 304.27C836.044 304.286 837.518 304.108 838.716 303.736C839.958 303.321 840.881 302.753 841.485 302.034C842.133 301.272 842.462 300.358 842.472 299.291C842.483 298.182 842.108 297.239 841.348 296.464C840.631 295.647 839.271 295.015 837.27 294.569L828.714 292.568C826.245 291.947 824.119 291.159 822.337 290.204C820.597 289.206 819.265 287.956 818.341 286.453C817.461 284.909 817.03 283.092 817.051 281.001C817.076 278.484 817.781 276.229 819.166 274.237C820.551 272.244 822.529 270.684 825.1 269.557C827.714 268.387 830.835 267.819 834.461 267.854ZM869.049 268.822L868.633 311.06L859.801 310.976L860.217 268.738L869.049 268.822ZM896.95 311.968C893.068 311.932 889.663 311.046 886.736 309.311C883.851 307.577 881.614 305.081 880.025 301.823C878.436 298.565 877.664 294.654 877.709 290.089C877.753 285.566 878.645 281.692 880.383 278.466C882.122 275.197 884.557 272.702 887.689 270.983C890.864 269.263 894.52 268.423 898.658 268.463C903.224 268.506 906.906 269.394 909.705 271.128C912.504 272.818 914.719 275.442 916.348 278.999L908.121 282.441C907.461 280.173 906.304 278.498 904.651 277.416C903.04 276.291 901.04 275.718 898.651 275.695C896.262 275.672 894.187 276.229 892.427 277.364C890.666 278.457 889.306 280.086 888.346 282.253C887.387 284.378 886.891 286.997 886.861 290.112C886.829 293.312 887.251 296.025 888.125 298.252C888.999 300.436 890.306 302.092 892.044 303.217C893.825 304.301 896.017 304.855 898.62 304.88C900.028 304.893 901.331 304.735 902.529 304.405C903.769 304.075 904.841 303.574 905.744 302.899C906.646 302.225 907.359 301.357 907.881 300.296C908.404 299.234 908.672 297.999 908.686 296.591L908.695 295.631L897.624 295.526L897.688 289.062L916.375 289.24L916.155 311.511L909.948 311.452L909.398 302.23L910.924 303.333C909.957 306.139 908.272 308.3 905.868 309.813C903.506 311.284 900.534 312.002 896.95 311.968ZM962.563 269.709L962.147 311.947L952.036 311.851L937.497 286.88L933.917 279.934L933.853 279.933L934.037 287.231L933.797 311.678L925.861 311.603L926.277 269.365L936.324 269.46L950.864 294.367L954.443 301.377L954.571 301.379L954.387 294.08L954.628 269.634L962.563 269.709Z" fill="#7030A0"/>
<path d="M177.993 1299.49C182.789 1294.33 186.476 1288.1 188.793 1281.25C191.111 1274.39 192.003 1267.07 191.406 1259.8C190.81 1252.53 188.74 1245.49 185.341 1239.18C181.943 1232.86 177.299 1227.42 171.737 1223.25L216.512 1052.54L134.879 1080.48L104.876 1238.3C98.9772 1248.82 96.8698 1261.3 98.9527 1273.38C101.035 1285.46 107.164 1296.3 116.176 1303.84C125.189 1311.38 136.46 1315.11 147.853 1314.3C159.246 1313.5 169.97 1308.23 177.993 1299.49Z" fill="#FFB7B7"/>
<path d="M217.383 1163.92C215.925 1164.22 214.442 1164.35 212.957 1164.32L134.646 1162.63C131.699 1162.57 128.799 1161.83 126.137 1160.47C123.476 1159.1 121.115 1157.14 119.212 1154.72C117.309 1152.3 115.907 1149.47 115.099 1146.42C114.291 1143.37 114.097 1140.17 114.528 1137.03L193.969 559.49C196.341 542.782 204.186 527.541 216.089 516.516C227.991 505.491 243.165 499.41 258.87 499.371C268.786 499.398 278.568 501.849 287.475 506.539C296.382 511.229 304.183 518.035 310.287 526.444C316.392 534.853 320.641 544.644 322.714 555.08C324.786 565.51 324.628 576.32 322.252 586.68L265.942 832.08L234.009 1144.43C233.546 1149.17 231.679 1153.62 228.686 1157.13C225.692 1160.64 221.73 1163.02 217.383 1163.92Z" fill="#3F3D56"/>
<path d="M250.13 2075.64H293.712L314.447 1894.77H250.123L250.13 2075.64Z" fill="#FFB7B7"/>
<path d="M239.016 2060.34H324.842H324.846C339.352 2060.34 353.263 2066.54 363.52 2077.58C373.778 2088.62 379.541 2103.58 379.542 2119.19V2121.11H239.018L239.016 2060.34Z" fill="#2F2E41"/>
<path d="M435.969 2060.42L479.277 2065.65L518.618 1888.38L454.695 1880.67L435.969 2060.42Z" fill="#FFB7B7"/>
<path d="M426.497 2043.86L511.789 2054.15H511.793C526.208 2055.89 539.391 2063.72 548.441 2075.92C557.491 2088.12 561.667 2103.68 560.052 2119.2L559.854 2121.1L420.205 2104.25L426.497 2043.86Z" fill="#2F2E41"/>
<path d="M209.225 1069.1C209.225 1069.1 149.476 1211.42 202.239 1303.87L233.674 2023.61H305.847L375.865 1442.21L500.283 1614.34L424.482 2016.07L512.753 2021.4L635.365 1614.34C635.365 1614.34 541.17 1165.48 510.062 1154.67L489.619 1052.06L209.225 1069.1Z" fill="#2F2E41"/>
<path d="M182.634 1194.05C182.634 1194.05 128.808 1260.52 270.999 1283.47C413.191 1306.42 562.492 1272 566.047 1226.09C569.602 1180.19 182.634 1194.05 182.634 1194.05Z" fill="#CBCBCB"/>
<path d="M895.428 369.487C895.207 375.976 893.668 382.333 890.917 388.112C888.166 393.891 884.271 398.951 879.506 402.935C874.742 406.919 869.223 409.731 863.339 411.172C857.455 412.613 851.35 412.648 845.452 411.275L791.704 494.677L736.635 471.893L814.075 355.26C816.875 344.752 823.16 335.714 831.739 329.859C840.319 324.004 850.596 321.739 860.624 323.493C870.652 325.246 879.733 330.897 886.148 339.374C892.562 347.851 895.864 358.566 895.428 369.487Z" fill="#FFB7B7"/>
<path d="M440.869 476.8L364.877 439.809L267.513 447.298C267.513 447.298 150.132 594.97 196.345 736.49L167.906 1229.92C349.2 1283.47 431.611 1183.03 562.488 1226.1L522.063 677.71L440.869 476.8Z" fill="#7030A0"/>
<path d="M390.078 512.716L440.867 476.786C440.867 476.786 511.417 465.311 539.617 494.751C539.617 494.751 635.335 503.371 658.453 529.081L683.906 535.255L768.464 417.438L820.207 447.69L745.557 665.72L522.06 677.69L390.078 512.716Z" fill="#3F3D56"/>
<path d="M407.611 398.313C465.742 364.12 487.106 285.695 455.329 223.144C423.551 160.594 350.666 137.606 292.535 171.799C234.404 205.992 213.04 284.418 244.817 346.968C276.595 409.518 349.48 432.506 407.611 398.313Z" fill="#FFB7B7"/>
<path d="M246.322 184.144C267.734 142.705 294.491 115.873 338.545 116.842C382.599 117.81 420.707 115.936 440.528 158.281C445.767 147.727 448.39 135.899 448.145 123.936C454.131 128.117 458.848 134.091 461.715 141.123C464.583 148.154 465.475 155.935 464.282 163.505C468.137 161.075 471.364 157.643 473.667 153.523C475.97 149.402 477.275 144.726 477.462 139.923C492.165 145.188 495.988 167.483 488.548 182.108C481.109 196.734 466.518 205.192 452.52 212.341C438.521 219.491 444.984 257.305 435.843 270.768C429.463 280.164 426.545 291.679 422.246 302.356C422.067 302.778 421.76 303.122 421.376 303.334C411.52 309.248 405.298 319.814 407.038 331.812C407.245 332.712 407.196 333.657 406.898 334.527C394.42 359.821 380.951 386.287 358.333 401.38C340.185 413.173 318.446 416.788 297.836 411.443C274.717 405.495 254.731 389.002 240.319 368.662C225.907 348.322 216.637 324.282 209.671 299.828C203.492 278.135 198.999 254.94 203.898 232.872C208.797 210.804 225.394 190.368 246.421 188.663" fill="#2F2E41"/>
<path d="M2352.86 1453.2C2352.86 1304.82 2224.41 1223.2 2077.69 1184.54C1889.57 1134.98 1751.8 1235.27 1802.51 1453.2C1814.01 1502.59 1841.5 1560.28 1875.53 1609.62H2145.56C2235.76 1552.29 2352.86 1568.37 2352.86 1453.2Z" fill="#7030A0"/>
<path d="M2086.06 1674.06C2102.53 1645.3 2123.4 1624.55 2146.41 1608.75H1875.28C1945.06 1700.08 2037.6 1758.69 2086.06 1674.06Z" fill="#7030A0"/>
<path d="M2054.08 1308.46C2074.47 1308.46 2091.01 1322.37 2091.01 1339.53V1401.67H2017.15V1339.53C2017.15 1322.37 2033.68 1308.46 2054.08 1308.46ZM2109.47 1401.67V1339.53C2109.47 1313.79 2084.67 1292.93 2054.08 1292.93C2023.49 1292.93 1998.68 1313.79 1998.68 1339.53V1401.67C1978.29 1401.67 1961.76 1415.58 1961.76 1432.73V1510.4C1961.76 1527.56 1978.29 1541.47 1998.68 1541.47H2109.47C2129.87 1541.47 2146.4 1527.56 2146.4 1510.4V1432.73C2146.4 1415.58 2129.87 1401.67 2109.47 1401.67ZM1998.68 1417.2H2109.47C2119.67 1417.2 2127.94 1424.15 2127.94 1432.73V1510.4C2127.94 1518.98 2119.67 1525.94 2109.47 1525.94H1998.68C1988.49 1525.94 1980.22 1518.98 1980.22 1510.4V1432.73C1980.22 1424.15 1988.49 1417.2 1998.68 1417.2Z" fill="white"/>
<path d="M877.336 1959.73C879.82 1960.95 882.82 1959.86 884.06 1957.3L891.906 1939.07L882.382 1934.82L874.535 1953.05C873.523 1955.72 874.773 1958.7 877.336 1959.73Z" fill="#7030A0" fill-opacity="0.68"/>
<path d="M854.92 1998.61L864.445 2002.86L868.368 1993.75C869.277 1991.08 868.059 1988.18 865.568 1987.07C863.078 1985.96 860.152 1987.01 858.844 1989.5L854.92 1998.61Z" fill="#7030A0" fill-opacity="0.68"/>
<path d="M876.215 1975.52C876.716 1974.28 876.72 1972.9 876.226 1971.67L875.748 1970.81C875.555 1970.51 875.326 1970.24 875.067 1970.01C874.852 1969.76 874.602 1969.54 874.326 1969.36C874.034 1969.17 873.729 1968.99 873.414 1968.84C872.168 1968.3 870.767 1968.23 869.464 1968.66C868.854 1968.89 868.294 1969.25 867.816 1969.71C866.364 1971.1 865.908 1973.27 866.679 1975.13C866.963 1975.75 867.355 1976.31 867.837 1976.78C868.313 1977.27 868.874 1977.67 869.491 1977.95C870.738 1978.5 872.138 1978.56 873.441 1978.14C874.661 1977.68 875.659 1976.74 876.215 1975.52Z" fill="#7030A0" fill-opacity="0.68"/>
<path d="M910.539 2034.77C907.969 2034.42 905.636 2033.08 904.012 2031.01L888.821 2012.19L864.906 2013.57C861.3 2013.78 857.868 2012.06 855.834 2009.02C853.8 2005.97 853.452 2002.04 854.915 1998.62C856.086 1995.89 859.169 1994.62 861.801 1995.79C864.433 1996.96 865.617 2000.12 864.447 2002.85L864.439 2002.87L888.369 2001.42C891.698 2001.22 894.896 2002.68 896.956 2005.35L912.098 2024.1L932.961 1975.59C933.721 1973.83 935.331 1972.6 937.184 1972.38C939.038 1972.15 940.853 1972.96 941.946 1974.5C943.04 1976.04 943.245 1978.08 942.485 1979.84L921.598 2028.34C920.14 2031.79 917.042 2034.22 913.439 2034.74C912.477 2034.89 911.501 2034.9 910.539 2034.77Z" fill="#7030A0" fill-opacity="0.68"/>
<path d="M935.864 1962.19C929.8 1961.37 924.165 1958.6 919.752 1954.29L913.976 1948.63C910.578 1945.32 906.087 1943.46 901.383 1943.41L893.269 1943.28C880.778 1943.13 869.893 1934.75 866.266 1922.48L864.122 1914.72C862.854 1910.24 859.949 1906.47 856.014 1904.18L849.032 1900.03C838.25 1893.79 832.965 1880.81 836.132 1868.36L838.211 1860.62C839.384 1856.22 838.791 1851.55 836.568 1847.66L832.626 1840.63C826.424 1829.62 828.408 1815.56 837.425 1806.62L843.165 1800.91C846.382 1797.76 848.246 1793.42 848.334 1788.88L848.477 1780.87C848.876 1768.05 857.554 1756.97 869.659 1753.83L877.526 1751.7C881.945 1750.55 885.788 1747.7 888.249 1743.72L892.46 1736.83C899.341 1725.98 912.145 1720.81 924.206 1724.02L932.051 1726.06C936.592 1727.26 941.428 1726.67 945.613 1724.39L952.743 1720.49C963.903 1714.39 977.501 1716.23 986.549 1725.09L992.329 1730.74C995.729 1734.05 1000.22 1735.91 1004.92 1735.97L1013.04 1736.1C1025.53 1736.24 1036.41 1744.62 1040.04 1756.9L1042.18 1764.66C1043.45 1769.13 1046.36 1772.91 1050.29 1775.19L1057.27 1779.34C1068.05 1785.59 1073.34 1798.57 1070.17 1811.02L1068.09 1818.76C1066.92 1823.15 1067.51 1827.83 1069.73 1831.72L1073.68 1838.75C1079.88 1849.75 1077.89 1863.81 1068.88 1872.75L1063.14 1878.46C1059.92 1881.61 1058.06 1885.95 1057.97 1890.49V1890.5L1057.82 1898.5C1057.43 1911.33 1048.75 1922.41 1036.64 1925.54L1028.78 1927.67C1024.36 1928.82 1020.52 1931.68 1018.06 1935.65L1013.84 1942.54C1006.95 1953.38 994.159 1958.54 982.098 1955.35L974.25 1953.32C969.709 1952.11 964.871 1952.7 960.686 1954.98L953.559 1958.88C948.116 1961.86 941.927 1963.02 935.864 1962.19ZM905.129 1932.92C911.179 1933.73 916.803 1936.48 921.209 1940.78L926.985 1946.44C932.85 1952.07 941.563 1953.25 948.767 1949.4L955.892 1945.5C962.379 1941.96 969.884 1941.03 976.931 1942.89L984.776 1944.93C992.443 1947.01 1000.61 1943.77 1005.04 1936.9L1009.25 1930.01C1013.14 1923.68 1019.24 1919.12 1026.26 1917.27L1034.12 1915.15C1041.65 1913.25 1047.09 1906.41 1047.39 1898.45L1047.54 1890.44C1047.67 1883.02 1050.71 1875.93 1055.95 1870.78L1061.68 1865.07C1067.28 1859.62 1068.5 1850.95 1064.63 1844.22L1060.69 1837.19C1057.07 1830.83 1056.12 1823.2 1058.05 1816.02L1060.12 1808.29C1062.03 1800.54 1058.69 1792.51 1051.97 1788.68L1044.99 1784.53C1038.75 1780.88 1034.14 1774.86 1032.15 1767.74L1030 1759.98C1027.65 1752.18 1020.68 1746.89 1012.73 1746.85L1004.61 1746.72C997.315 1746.63 990.35 1743.73 985.089 1738.59L979.312 1732.94C973.449 1727.3 964.733 1726.12 957.53 1729.98L950.405 1733.88C943.918 1737.41 936.416 1738.35 929.371 1736.49L921.525 1734.45C913.858 1732.36 905.687 1735.59 901.262 1742.48L897.05 1749.37C893.155 1755.69 887.06 1760.25 880.04 1762.1L872.176 1764.23C864.647 1766.12 859.21 1772.96 858.905 1780.93L858.762 1788.93C858.629 1796.35 855.599 1803.44 850.356 1808.6L844.617 1814.31C839.021 1819.75 837.797 1828.42 841.676 1835.15L845.618 1842.18C849.235 1848.54 850.188 1856.17 848.263 1863.35L846.183 1871.1C844.273 1878.84 847.61 1886.87 854.332 1890.7L861.312 1894.85C867.557 1898.5 872.159 1904.52 874.154 1911.64L876.298 1919.4C878.668 1927.19 885.625 1932.48 893.576 1932.53L901.69 1932.66C902.841 1932.68 903.989 1932.76 905.129 1932.92Z" fill="#7030A0" fill-opacity="0.68"/>
<path d="M941.85 1919.76C899.098 1913.95 869.491 1873.44 875.722 1829.29C881.953 1785.13 921.662 1754.05 964.414 1759.86C1007.17 1765.68 1036.77 1806.18 1030.54 1850.34C1024.27 1894.47 984.589 1925.52 941.85 1919.76ZM962.91 1770.52C925.858 1765.49 891.443 1792.43 886.043 1830.69C880.643 1868.96 906.302 1904.07 943.354 1909.1C980.407 1914.14 1014.82 1887.2 1020.22 1848.94C1025.58 1810.68 999.939 1775.6 962.91 1770.52Z" fill="#7030A0" fill-opacity="0.68"/>
<path d="M966.597 2026.08C963.65 2025.67 961.029 2023.98 959.398 2021.44L911.125 1945.92C909.551 1943.46 910.23 1940.11 912.643 1938.46C915.055 1936.8 918.287 1937.46 919.861 1939.92L968.117 2015.41L980.211 1993.95C981.88 1991.03 984.761 1989.05 988.009 1988.59L1011.81 1985.42L991.163 1953.11C989.588 1950.64 990.268 1947.3 992.68 1945.64C995.093 1943.99 998.324 1944.64 999.899 1947.11L1020.53 1979.41C1022.5 1982.5 1022.76 1986.44 1021.24 1989.83C1019.71 1993.22 1016.6 1995.58 1013.02 1996.08L989.209 1999.25L977.137 2020.69C974.985 2024.52 970.814 2026.65 966.595 2026.07L966.597 2026.08Z" fill="#7030A0" fill-opacity="0.68"/>
</svg>
