<svg width="1600" height="1200" viewBox="0 0 1600 1200" fill="none" xmlns="http://www.w3.org/2000/svg">
<path d="M96.5441 974.535C98.5124 1048.74 110.819 1122.3 133.102 1193.04C133.596 1194.68 134.145 1196.3 134.678 1197.94H271.095C270.952 1196.47 270.803 1194.82 270.66 1193.04C261.565 1087.41 313.527 452.206 376.229 342.268C370.736 351.186 85.9669 638.914 96.5441 974.535Z" fill="#ABE8C0"/>
<path d="M106.781 1193.04C107.922 1194.68 109.108 1196.32 110.323 1197.94H212.666C211.891 1196.54 210.992 1194.9 209.949 1193.04C193.044 1162.22 143.003 1070.07 96.5544 974.535C46.6573 871.874 0.840961 765.32 4.69928 726.755C3.50356 735.448 -31.0389 1000.6 106.781 1193.04Z" fill="#ABE8C0"/>
<path d="M544.443 821.393C544.12 822.605 543.892 823.84 543.761 825.087L445.213 877.367L422.331 862.81L396.07 894.822L434.099 924.568C437.171 926.971 440.932 928.302 444.817 928.362C448.702 928.422 452.502 927.208 455.646 924.901L558.101 849.716C562.519 851.573 567.391 852.026 572.07 851.017C576.749 850.008 581.013 847.584 584.294 844.067C587.576 840.55 589.72 836.107 590.441 831.33C591.162 826.552 590.426 821.666 588.331 817.321C586.236 812.976 582.881 809.378 578.712 807.006C574.544 804.635 569.759 803.601 564.995 804.043C560.23 804.485 555.712 806.382 552.041 809.481C548.37 812.581 545.72 816.736 544.443 821.393V821.393Z" fill="#9E616A"/>
<path d="M663.257 1175.63L683.017 1162.8L643.406 1079.71L614.244 1098.65L663.257 1175.63Z" fill="#9E616A"/>
<path d="M654.069 1172.39L692.981 1147.11L692.983 1147.11C699.56 1142.84 707.547 1141.38 715.189 1143.06C722.83 1144.74 729.499 1149.41 733.728 1156.05L734.247 1156.87L670.536 1198.26L654.069 1172.39Z" fill="#2F2E41"/>
<path d="M378.577 1032.91L530.252 934.812C530.252 934.812 558.12 932.095 574.845 965.391L675.861 1111.96L632.764 1141.42L520.671 1023.85L443.753 1100.69C443.753 1100.69 557.079 1081.92 553.246 1157.41C550.205 1217.32 395.102 1196.77 331.206 1185.73C319.069 1183.73 307.518 1179.06 297.371 1172.04C287.224 1165.02 278.73 1155.84 272.493 1145.13C265.64 1133.13 261.956 1119.49 267.712 1106.61C283.061 1072.24 378.577 1032.91 378.577 1032.91Z" fill="#2F2E41"/>
<path d="M303.386 1114.89L259.676 1105.95L272.132 889.246L322.426 827.019L352.391 821.66C361.323 820.024 370.538 821.837 378.21 826.741C385.881 831.644 391.449 839.28 393.809 848.135L407.017 896.874C429.427 935.201 398.033 979.642 395.138 983.592L396.769 1050.81L303.386 1114.89Z" fill="#7030A0"/>
<path d="M344.085 835.508L346.859 825.597C346.859 825.597 376.955 803.19 422.944 861.258L400.908 900.938L353.003 899.003L344.085 835.508Z" fill="#7030A0"/>
<path d="M413.32 758.388C421.846 793.694 388.237 796.318 348.37 806.141C308.502 815.965 277.473 829.269 268.947 793.963C260.42 758.656 261.094 692.183 317.494 678.286C375.836 663.91 404.793 723.082 413.32 758.388Z" fill="#2F2E41"/>
<path d="M336.265 807.581C363.879 807.581 386.264 784.969 386.264 757.076C386.264 729.182 363.879 706.57 336.265 706.57C308.651 706.57 286.266 729.182 286.266 757.076C286.266 784.969 308.651 807.581 336.265 807.581Z" fill="#9E616A"/>
<path d="M278.979 766.091L298.191 761.357L300.878 735.296L308.362 758.851L317.544 756.588L319.112 741.386L323.478 755.126L391.709 738.314C388.382 724.538 379.774 712.661 367.779 705.297C355.783 697.932 341.383 695.682 327.745 699.043L317.856 701.479C311.104 703.143 304.742 706.134 299.133 710.282C293.525 714.429 288.78 719.652 285.17 725.652C281.56 731.652 279.155 738.311 278.093 745.25C277.031 752.188 277.332 759.27 278.979 766.091Z" fill="#2F2E41"/>
<path d="M421.893 1006.83C420.691 1007.14 419.516 1007.56 418.379 1008.06L324.576 947.524L325.748 920.234L285.206 913.065L278.485 961.173C277.942 965.06 278.662 969.019 280.536 972.457C282.411 975.895 285.339 978.627 288.88 980.241L404.313 1032.85C404.907 1037.64 406.932 1042.14 410.12 1045.75C413.307 1049.35 417.505 1051.89 422.155 1053.03C426.806 1054.16 431.688 1053.84 436.154 1052.1C440.619 1050.37 444.455 1047.3 447.152 1043.31C449.849 1039.32 451.279 1034.59 451.251 1029.76C451.224 1024.92 449.74 1020.21 446.998 1016.25C444.256 1012.29 440.385 1009.27 435.901 1007.59C431.416 1005.9 426.53 1005.64 421.893 1006.83V1006.83Z" fill="#9E616A"/>
<path d="M330.012 836.912L322.943 827.91C322.943 827.91 294.558 818.675 279.229 857.387C263.899 896.099 278.27 933.844 278.27 933.844L345.338 939.651L350.128 876.743L330.012 836.912Z" fill="#7030A0"/>
<path d="M1076.28 269.452H1600V443.122H1580.16V488.542L1535.2 443.122H1076.28V269.452Z" fill="#F0EFFF"/>
<path d="M1585.45 286.363H1090.83V425.299H1585.45V286.363Z" fill="white"/>
<path d="M1545.68 352.181H1130.6V359.481H1545.68V352.181Z" fill="#E6E6E6"/>
<path d="M1545.27 377.436H1130.6V384.736H1545.27V377.436Z" fill="#E6E6E6"/>
<path d="M1175.72 144H652V317.67H671.838V363.093L716.803 317.67H1175.72V144Z" fill="#F0EFFF"/>
<path d="M1161.17 160.912H666.547V299.848H1161.17V160.912Z" fill="white"/>
<path d="M1125.37 228.066H710.291V235.367H1125.37V228.066Z" fill="#E6E6E6"/>
<path d="M1124.96 253.321H710.291V260.621H1124.96V253.321Z" fill="#E6E6E6"/>
<path d="M638.613 782.773H637.686V757.117C637.686 755.167 637.306 753.236 636.567 751.434C635.828 749.633 634.745 747.996 633.38 746.617C632.015 745.238 630.395 744.144 628.611 743.398C626.828 742.652 624.916 742.268 622.986 742.268H569.175C567.244 742.268 565.333 742.652 563.549 743.398C561.766 744.144 560.145 745.238 558.78 746.617C557.415 747.996 556.332 749.632 555.594 751.434C554.855 753.236 554.475 755.167 554.475 757.117V897.868C554.475 899.818 554.855 901.749 555.594 903.55C556.332 905.352 557.415 906.989 558.78 908.368C560.145 909.747 561.766 910.84 563.549 911.587C565.333 912.333 567.244 912.717 569.175 912.717H622.986C624.916 912.717 626.828 912.333 628.611 911.587C630.395 910.84 632.015 909.747 633.38 908.368C634.745 906.989 635.828 905.352 636.567 903.55C637.306 901.749 637.686 899.818 637.686 897.868V801.035H638.613V782.773Z" fill="#3F3D56"/>
<path d="M623.579 746.131H616.555C616.878 746.931 617.001 747.799 616.914 748.658C616.826 749.518 616.531 750.342 616.054 751.059C615.577 751.776 614.933 752.364 614.178 752.77C613.423 753.176 612.581 753.389 611.726 753.389H580.898C580.043 753.389 579.201 753.176 578.446 752.77C577.691 752.364 577.047 751.776 576.57 751.059C576.093 750.342 575.798 749.518 575.71 748.658C575.623 747.799 575.746 746.931 576.069 746.131H569.509C566.597 746.131 563.805 747.299 561.746 749.379C559.688 751.458 558.531 754.279 558.531 757.22V897.765C558.531 899.221 558.815 900.663 559.367 902.008C559.918 903.354 560.727 904.576 561.746 905.606C562.766 906.636 563.976 907.452 565.308 908.01C566.64 908.567 568.067 908.854 569.509 908.854H623.579C625.02 908.854 626.448 908.567 627.78 908.01C629.112 907.452 630.322 906.636 631.341 905.606C632.361 904.576 633.169 903.354 633.721 902.008C634.273 900.663 634.557 899.221 634.557 897.765V897.765V757.22C634.557 755.764 634.273 754.322 633.721 752.976C633.169 751.631 632.361 750.409 631.341 749.379C630.322 748.349 629.112 747.532 627.78 746.975C626.448 746.418 625.02 746.131 623.579 746.131V746.131Z" fill="white"/>
<path d="M1221.66 512.472H578.554V725.732H602.913V781.505L658.129 725.732H1221.66V512.472Z" fill="white"/>
<path d="M600.873 786.483V727.793H576.513V510.41H1223.7V727.793H658.975L600.873 786.483ZM580.595 723.669H604.955V776.528L657.284 723.669H1219.62V514.534H580.595L580.595 723.669Z" fill="#3F3D56"/>
<path d="M1159.82 615.701H650.132V624.666H1159.82V615.701Z" fill="#E6E6E6"/>
<path d="M1159.32 646.713H650.132V655.677H1159.32V646.713Z" fill="#E6E6E6"/>
<path d="M1439 746.716C1439 674.023 1368.47 634.036 1287.91 615.096C1184.62 590.816 1108.97 639.949 1136.82 746.716C1143.13 770.913 1158.23 799.176 1176.91 823.348H1325.18C1374.7 795.261 1439 803.139 1439 746.716Z" fill="#7030A0"/>
<path d="M1292.51 854.918C1301.55 840.828 1313.01 830.662 1325.64 822.922H1176.77C1215.09 867.666 1265.9 896.379 1292.51 854.918Z" fill="#7030A0"/>
<path d="M1274.95 675.806C1286.14 675.806 1295.23 682.62 1295.23 691.027V721.47H1254.67V691.027C1254.67 682.62 1263.75 675.806 1274.95 675.806ZM1305.36 721.47V691.027C1305.36 678.417 1291.74 668.197 1274.95 668.197C1258.15 668.197 1244.53 678.417 1244.53 691.027V721.47C1233.33 721.47 1224.26 728.285 1224.26 736.687V774.739C1224.26 783.146 1233.33 789.96 1244.53 789.96H1305.36C1316.56 789.96 1325.64 783.146 1325.64 774.739V736.687C1325.64 728.285 1316.56 721.47 1305.36 721.47ZM1244.53 729.079H1305.36C1310.96 729.079 1315.5 732.484 1315.5 736.687V774.739C1315.5 778.942 1310.96 782.352 1305.36 782.352H1244.53C1238.93 782.352 1234.39 778.942 1234.39 774.739V736.687C1234.39 732.484 1238.93 729.079 1244.53 729.079Z" fill="white"/>
<path d="M1000.8 594.08H658.729C652.438 594.073 646.406 591.683 641.958 587.433C637.509 583.184 635.007 577.422 635 571.413V560.667C635.007 554.658 637.509 548.896 641.958 544.647C646.406 540.397 652.438 538.007 658.729 538H1000.8C1007.09 538.007 1013.12 540.397 1017.57 544.647C1022.02 548.896 1024.52 554.658 1024.53 560.667V571.413C1024.52 577.422 1022.02 583.184 1017.57 587.433C1013.12 591.683 1007.09 594.073 1000.8 594.08V594.08ZM658.729 542.318C653.636 542.323 648.753 544.258 645.152 547.698C641.551 551.138 639.525 555.802 639.52 560.667V571.413C639.525 576.278 641.551 580.942 645.152 584.382C648.753 587.822 653.636 589.757 658.729 589.762H1000.8C1005.89 589.757 1010.78 587.822 1014.38 584.382C1017.98 580.942 1020 576.278 1020.01 571.413V560.667C1020 555.802 1017.98 551.138 1014.38 547.698C1010.78 544.258 1005.89 542.323 1000.8 542.318H658.729Z" fill="#3F3D56"/>
<path d="M709.564 583C719.264 583 727.128 575.389 727.128 566C727.128 556.611 719.264 549 709.564 549C699.864 549 692 556.611 692 566C692 575.389 699.864 583 709.564 583Z" fill="#7030A0"/>
<path d="M769.282 583C778.982 583 786.846 575.389 786.846 566C786.846 556.611 778.982 549 769.282 549C759.582 549 751.718 556.611 751.718 566C751.718 575.389 759.582 583 769.282 583Z" fill="#7030A0"/>
<path d="M829 583C838.7 583 846.564 575.389 846.564 566C846.564 556.611 838.7 549 829 549C819.3 549 811.436 556.611 811.436 566C811.436 575.389 819.3 583 829 583Z" fill="#7030A0"/>
<path d="M948.436 583C958.136 583 966 575.389 966 566C966 556.611 958.136 549 948.436 549C938.736 549 930.872 556.611 930.872 566C930.872 575.389 938.736 583 948.436 583Z" fill="#7030A0"/>
<path d="M888.718 583C898.418 583 906.282 575.389 906.282 566C906.282 556.611 898.418 549 888.718 549C879.018 549 871.154 556.611 871.154 566C871.154 575.389 879.018 583 888.718 583Z" fill="#7030A0"/>
</svg>
