<svg width="1600" height="1200" viewBox="0 0 1600 1200" fill="none" xmlns="http://www.w3.org/2000/svg">
<g clip-path="url(#clip0_2971_1507)">
<path d="M1456.42 1095.47C1425.75 1126.84 1390.6 1153.93 1352.02 1175.93C1351.13 1176.45 1350.24 1176.94 1349.33 1177.44L1286.87 1124.64C1287.53 1124.05 1288.25 1123.4 1289.04 1122.68C1335.58 1080.47 1566.62 785.307 1582.02 713.431C1580.95 719.419 1595.91 954.245 1456.42 1095.47Z" fill="#F0F0F0"/>
<path d="M1364.07 1186.12C1362.89 1186.39 1361.69 1186.64 1360.48 1186.87L1313.62 1147.25C1314.54 1146.95 1315.61 1146.59 1316.83 1146.18C1336.94 1139.38 1396.82 1118.85 1456.41 1095.47C1520.45 1070.33 1584.17 1041.93 1597.88 1023.74C1594.94 1027.97 1504.38 1156.15 1364.07 1186.12Z" fill="#F0F0F0"/>
<path d="M1455.55 314.276H1448.88V139.644C1448.88 126.371 1446.14 113.228 1440.82 100.965C1435.51 88.7028 1427.71 77.5607 1417.89 68.1752C1408.06 58.7898 1396.4 51.3448 1383.56 46.2655C1370.73 41.1861 1356.97 38.5718 1343.07 38.5718H955.764C941.87 38.5717 928.111 41.186 915.274 46.2654C902.437 51.3447 890.773 58.7896 880.948 68.175C871.123 77.5605 863.33 88.7025 858.013 100.965C852.695 113.228 849.959 126.371 849.958 139.644V1097.69C849.958 1110.96 852.695 1124.11 858.012 1136.37C863.33 1148.63 871.123 1159.77 880.948 1169.16C890.773 1178.54 902.437 1185.99 915.274 1191.07C928.111 1196.15 941.869 1198.76 955.764 1198.76H1343.07C1356.97 1198.76 1370.73 1196.15 1383.56 1191.07C1396.4 1185.99 1408.06 1178.54 1417.89 1169.16C1427.71 1159.77 1435.51 1148.63 1440.82 1136.37C1446.14 1124.11 1448.88 1110.96 1448.88 1097.69V438.583H1455.55V314.276Z" fill="#3F3D56"/>
<path d="M1426.36 140.339V1096.99C1426.36 1106.9 1424.31 1116.72 1420.34 1125.88C1416.37 1135.03 1410.55 1143.35 1403.21 1150.36C1395.87 1157.37 1387.16 1162.93 1377.57 1166.72C1367.98 1170.51 1357.71 1172.46 1347.33 1172.45H958.157C947.782 1172.46 937.509 1170.5 927.924 1166.71C918.339 1162.92 909.63 1157.36 902.294 1150.35C894.959 1143.35 889.139 1135.03 885.17 1125.87C881.2 1116.71 879.157 1106.9 879.158 1096.99V140.339C879.157 130.428 881.2 120.615 885.17 111.459C889.139 102.303 894.959 93.9834 902.294 86.9758C909.63 79.9681 918.339 74.4095 927.924 70.6174C937.509 66.8252 947.782 64.8738 958.157 64.8745H1005.38C1003.07 70.3198 1002.18 76.2259 1002.82 82.0732C1003.45 87.9205 1005.57 93.53 1009.01 98.4082C1012.44 103.286 1017.08 107.284 1022.51 110.049C1027.94 112.815 1034 114.263 1040.15 114.267H1262.03C1268.19 114.272 1274.25 112.83 1279.69 110.068C1285.12 107.305 1289.76 103.307 1293.2 98.4256C1296.63 93.5445 1298.76 87.9307 1299.39 82.0795C1300.01 76.2283 1299.12 70.3195 1296.79 64.8745H1347.33C1357.71 64.8709 1367.98 66.8202 1377.57 70.611C1387.16 74.4019 1395.87 79.9599 1403.21 86.9678C1410.55 93.9757 1416.37 102.296 1420.34 111.454C1424.31 120.611 1426.36 130.426 1426.36 140.339V140.339Z" fill="white"/>
<path d="M1340.67 689.921H998.599C992.607 689.915 986.863 687.638 982.626 683.591C978.39 679.544 976.007 674.057 976 668.333V657.588C976.007 651.864 978.39 646.377 982.626 642.33C986.863 638.283 992.607 636.006 998.599 636H1340.67C1346.66 636.006 1352.41 638.283 1356.64 642.33C1360.88 646.377 1363.26 651.864 1363.27 657.588V668.333C1363.26 674.057 1360.88 679.544 1356.64 683.591C1352.41 687.638 1346.66 689.915 1340.67 689.921Z" fill="#F0F0F0"/>
<path d="M1341.8 675.08H999.729C993.438 675.073 987.406 672.683 982.958 668.433C978.509 664.184 976.007 658.422 976 652.413V641.667C976.007 635.658 978.509 629.896 982.958 625.647C987.406 621.397 993.438 619.007 999.729 619H1341.8C1348.09 619.007 1354.12 621.397 1358.57 625.647C1363.02 629.896 1365.52 635.658 1365.53 641.667V652.413C1365.52 658.422 1363.02 664.184 1358.57 668.433C1354.12 672.683 1348.09 675.073 1341.8 675.08V675.08ZM999.729 623.318C994.636 623.323 989.753 625.258 986.152 628.698C982.551 632.138 980.525 636.802 980.52 641.667V652.413C980.525 657.278 982.551 661.942 986.152 665.382C989.753 668.822 994.636 670.757 999.729 670.762H1341.8C1346.89 670.757 1351.78 668.822 1355.38 665.382C1358.98 661.942 1361 657.278 1361.01 652.413V641.667C1361 636.802 1358.98 632.138 1355.38 628.698C1351.78 625.258 1346.89 623.323 1341.8 623.318H999.729Z" fill="#3F3D56"/>
<path d="M1426.36 140.339V348.424C1391.74 357.122 1355.5 358.12 1320.43 351.341C1285.35 344.561 1252.36 330.185 1224.01 309.318C1195.66 288.451 1172.7 261.65 1156.89 230.976C1141.09 200.302 1132.86 166.573 1132.84 132.384C1132.84 126.281 1133.09 120.242 1133.61 114.267H1262.03C1268.19 114.272 1274.25 112.83 1279.69 110.068C1285.12 107.305 1289.76 103.307 1293.2 98.4256C1296.63 93.5445 1298.76 87.9307 1299.39 82.0795C1300.01 76.2283 1299.12 70.3195 1296.79 64.8745H1347.33C1357.71 64.8709 1367.98 66.8202 1377.57 70.611C1387.16 74.4019 1395.87 79.9599 1403.21 86.9678C1410.55 93.9757 1416.37 102.296 1420.34 111.454C1424.31 120.611 1426.36 130.426 1426.36 140.339V140.339Z" fill="#F0F0F0"/>
<path d="M1075.8 1159.46C1075.8 1163.85 1075.63 1168.18 1075.26 1172.45H958.157C947.782 1172.45 937.509 1170.5 927.924 1166.71C918.339 1162.92 909.63 1157.36 902.294 1150.35C894.959 1143.35 889.139 1135.03 885.17 1125.87C881.2 1116.71 879.157 1106.9 879.158 1096.99V994.664C903.704 991.614 928.648 993.598 952.328 1000.48C976.009 1007.36 997.881 1018.99 1016.49 1034.58C1035.1 1050.18 1050.01 1069.38 1060.24 1090.91C1070.46 1112.45 1075.77 1135.81 1075.8 1159.46H1075.8Z" fill="#7030A0"/>
<path d="M131.348 979.914C134.638 981.296 138.368 981.376 141.72 980.134C145.071 978.893 147.77 976.433 149.226 973.293L254.716 744.906C257.13 739.68 257.868 733.887 256.836 728.26C255.803 722.633 253.047 717.425 248.916 713.294C244.785 709.163 239.465 706.295 233.627 705.053C227.79 703.811 221.698 704.251 216.123 706.316H216.122C209.68 708.666 204.29 713.076 200.868 718.794C200.323 719.699 199.83 720.631 199.389 721.586L93.8989 949.972C93.1799 951.529 92.7889 953.205 92.7482 954.906C92.7074 956.606 93.0178 958.298 93.6615 959.884C94.3052 961.47 95.2697 962.919 96.4998 964.149C97.7299 965.379 99.2016 966.365 100.831 967.052L131.348 979.914Z" fill="#7030A0"/>
<path d="M250.385 838.67L146.042 816.519L171.868 751.255C176.268 735.303 186.506 721.386 200.727 712.028C214.948 702.669 232.209 698.49 249.38 700.247L250.385 700.354L250.385 838.67Z" fill="#2F2E41"/>
<path d="M461.141 983.18C458.072 983.175 455.071 982.321 452.499 980.721C449.927 979.121 447.896 976.843 446.651 974.164L341.162 745.777C337.807 738.51 337.495 730.292 340.29 722.812C343.085 715.332 348.775 709.161 356.189 705.566C363.603 701.972 372.177 701.229 380.147 703.489C388.117 705.75 394.877 710.842 399.036 717.719V717.718C399.621 718.689 400.151 719.69 400.624 720.715L506.113 949.102C507.807 952.768 507.906 956.928 506.39 960.664C504.873 964.401 501.865 967.409 498.026 969.027L466.475 982.325L466.459 982.291C464.754 982.879 462.954 983.18 461.141 983.18V983.18Z" fill="#7030A0"/>
<path d="M315.221 904.754C311.627 904.758 308.18 906.124 305.638 908.552C303.096 910.98 301.666 914.273 301.662 917.707V1183.27C301.666 1186.7 303.096 1189.99 305.638 1192.42C308.18 1194.85 311.627 1196.22 315.221 1196.22H348.576C352.171 1196.22 355.618 1194.85 358.16 1192.42C360.702 1189.99 362.132 1186.7 362.136 1183.27V917.707C362.132 914.273 360.702 910.98 358.16 908.552C355.618 906.124 352.171 904.758 348.576 904.754H315.221Z" fill="#7030A0"/>
<path d="M249.25 904.754C245.655 904.758 242.209 906.124 239.667 908.552C237.125 910.98 235.695 914.273 235.691 917.707V1183.27C235.695 1186.7 237.125 1189.99 239.667 1192.42C242.209 1194.85 245.655 1196.22 249.25 1196.22H282.605C286.2 1196.22 289.647 1194.85 292.189 1192.42C294.731 1189.99 296.161 1186.7 296.165 1183.27V917.707C296.161 914.273 294.731 910.98 292.189 908.552C289.647 906.124 286.2 904.758 282.605 904.754H249.25Z" fill="#7030A0"/>
<path d="M297.917 626.532C361.57 626.532 413.171 577.24 413.171 516.434C413.171 455.629 361.57 406.336 297.917 406.336C234.263 406.336 182.662 455.629 182.662 516.434C182.662 577.24 234.263 626.532 297.917 626.532Z" fill="#7030A0"/>
<path d="M336.271 562.651C343.742 562.453 353.04 562.205 360.203 557.207C362.336 555.657 364.089 553.681 365.338 551.417C366.587 549.152 367.303 546.654 367.435 544.097C367.565 542.28 367.252 540.459 366.523 538.776C365.794 537.094 364.667 535.595 363.231 534.397C359.489 531.377 354.026 530.669 348.139 532.322L354.239 489.738L349.761 489.152L342.59 539.215L346.329 537.575C350.664 535.676 356.615 534.709 360.313 537.695C361.221 538.475 361.929 539.445 362.381 540.529C362.832 541.613 363.016 542.782 362.918 543.945C362.809 545.848 362.271 547.706 361.343 549.393C360.414 551.08 359.116 552.555 357.537 553.72C351.963 557.61 344.551 558.111 336.145 558.336L336.271 562.651Z" fill="#2F2E41"/>
<path d="M400.726 493.411H376.384V497.729H400.726V493.411Z" fill="#2F2E41"/>
<path d="M323.89 493.411H299.548V497.729H323.89V493.411Z" fill="#2F2E41"/>
<path d="M412.117 984.522L370.634 695.244C370.189 692.142 368.583 689.299 366.114 687.241C363.644 685.183 360.477 684.049 357.2 684.05H325.888C326.018 683.337 326.086 682.614 326.091 681.891V671.097C326.091 667.662 324.662 664.367 322.119 661.938C319.577 659.509 316.128 658.144 312.532 658.144H285.413C281.817 658.144 278.368 659.509 275.825 661.938C273.282 664.367 271.854 667.662 271.854 671.097V681.891C271.858 682.614 271.926 683.337 272.057 684.05H240.745C237.468 684.05 234.301 685.183 231.831 687.242C229.361 689.3 227.755 692.142 227.31 695.244L185.828 984.522C185.565 986.354 185.716 988.219 186.271 989.991C186.826 991.763 187.771 993.401 189.044 994.795C190.316 996.188 191.887 997.305 193.649 998.071C195.412 998.836 197.325 999.233 199.261 999.233H398.683C400.619 999.233 402.533 998.836 404.295 998.071C406.058 997.305 407.628 996.188 408.901 994.795C410.174 993.401 411.119 991.763 411.674 989.991C412.228 988.219 412.38 986.354 412.117 984.522V984.522Z" fill="#2F2E41"/>
<path d="M347.56 838.669V700.353L348.565 700.247C365.757 698.491 383.037 702.684 397.267 712.065C411.497 721.445 421.733 735.39 426.114 751.367L451.903 816.519L347.56 838.669Z" fill="#2F2E41"/>
<path d="M292.113 629.968L212.394 600.41C199.359 595.577 186.25 590.89 173.284 585.891C167.729 584.042 162.613 581.161 158.229 577.415C154.413 573.556 151.812 568.747 150.724 563.541C147.959 552.377 148.459 540.171 148.656 528.779C148.809 516.316 149.883 503.878 151.869 491.56C155.35 468.411 163.526 446.133 175.938 425.975C198.294 390.934 236.813 364.571 281.119 366.675C301.632 367.649 322.262 374.68 337.502 388.077C339.092 389.892 340.875 391.544 342.824 393.005C344.179 393.49 345.653 393.584 347.063 393.277C348.923 393.162 350.784 393.075 352.647 393.015C359.111 392.754 365.586 393.014 372.004 393.79C383.7 394.998 394.786 399.395 403.937 406.457C411.553 412.715 417.75 421.55 418.388 431.369C418.696 435.876 417.916 440.391 416.108 444.564C414.3 448.738 411.512 452.459 407.96 455.441C398.449 463.098 384.88 460.406 373.471 459.829L331.677 457.714L310.502 456.642C306.142 456.421 306.154 462.899 310.502 463.119L366.784 465.967C375.829 466.425 385.15 467.546 394.202 467.028C401.157 466.727 407.798 464.175 413.034 459.791C417.816 455.595 421.377 450.287 423.372 444.385C425.367 438.482 425.727 432.187 424.416 426.112C421.515 412.862 411.192 401.902 399.09 395.381C382.625 386.509 362.959 385.659 344.535 386.971L346.932 387.919C326.091 366.551 294.167 357.529 264.197 360.686C232.553 364.02 204.409 380.884 184.188 403.943C161.642 429.653 149.356 461.711 144.58 494.677C142.094 512.475 141.276 530.449 142.135 548.387C142.099 556.297 143.516 564.153 146.321 571.596C149.52 578.84 155.306 584.765 162.648 588.318C171.066 592.2 179.721 595.596 188.565 598.488L217.935 609.378L275.626 630.768L290.311 636.213C294.38 637.722 296.143 631.462 292.113 629.968Z" fill="#2F2E41"/>
<path d="M166.769 409.883C159.841 409.883 153.069 407.921 147.308 404.244C141.548 400.567 137.058 395.342 134.407 389.227C131.756 383.113 131.062 376.385 132.414 369.894C133.765 363.403 137.101 357.441 142 352.762C146.899 348.082 153.141 344.895 159.935 343.604C166.73 342.313 173.773 342.975 180.174 345.508C186.574 348.041 192.045 352.329 195.894 357.832C199.743 363.335 201.797 369.804 201.797 376.422C201.787 385.294 198.093 393.799 191.526 400.072C184.959 406.345 176.056 409.873 166.769 409.883ZM166.769 349.437C161.182 349.437 155.72 351.02 151.075 353.985C146.429 356.95 142.809 361.165 140.671 366.096C138.533 371.026 137.973 376.452 139.063 381.687C140.153 386.921 142.844 391.729 146.794 395.503C150.745 399.277 155.778 401.847 161.258 402.889C166.738 403.93 172.418 403.395 177.579 401.353C182.741 399.311 187.153 395.852 190.257 391.414C193.361 386.977 195.018 381.759 195.018 376.422C195.009 369.268 192.03 362.409 186.734 357.35C181.439 352.291 174.258 349.445 166.769 349.437V349.437Z" fill="#2F2E41"/>
<path d="M752.315 617.246L676.498 561.854L618.511 634.279L694.328 689.671L752.315 617.246Z" fill="#F0F0F0"/>
<path d="M323.831 122.765C335.81 122.756 347.625 125.426 358.33 130.563C369.034 135.7 378.331 143.159 385.475 152.345L429.746 97.0502L296.912 0L195.318 126.891L252.569 168.72C258.298 155.146 268.144 143.519 280.842 135.33C293.54 127.141 308.511 122.766 323.831 122.765V122.765Z" fill="#F0F0F0"/>
<path d="M1597.74 1200H2.25989C1.66053 1200 1.08571 1199.77 0.661904 1199.37C0.238093 1198.96 0 1198.41 0 1197.84C0 1197.27 0.238093 1196.72 0.661904 1196.31C1.08571 1195.91 1.66053 1195.68 2.25989 1195.68H1597.74C1598.34 1195.68 1598.91 1195.91 1599.34 1196.31C1599.76 1196.72 1600 1197.27 1600 1197.84C1600 1198.41 1599.76 1198.96 1599.34 1199.37C1598.91 1199.77 1598.34 1200 1597.74 1200Z" fill="#3F3D56"/>
<path d="M1208.33 841.79H1045.93C1039.94 841.784 1034.2 839.507 1029.96 835.46C1025.72 831.413 1023.34 825.926 1023.33 820.202V809.457C1023.34 803.734 1025.72 798.246 1029.96 794.199C1034.2 790.152 1039.94 787.876 1045.93 787.869H1208.33C1214.32 787.876 1220.07 790.152 1224.31 794.199C1228.54 798.246 1230.93 803.734 1230.93 809.457V820.202C1230.93 825.926 1228.54 831.413 1224.31 835.46C1220.07 839.507 1214.32 841.784 1208.33 841.79V841.79Z" fill="#7030A0"/>
<path d="M1225.44 821.076H1063.04C1056.75 821.069 1050.72 818.679 1046.27 814.429C1041.82 810.18 1039.32 804.418 1039.32 798.409V787.663C1039.32 781.654 1041.82 775.892 1046.27 771.643C1050.72 767.393 1056.75 765.003 1063.04 764.996H1225.44C1231.74 765.003 1237.77 767.393 1242.22 771.643C1246.66 775.892 1249.17 781.654 1249.17 787.663V798.409C1249.17 804.418 1246.66 810.18 1242.22 814.429C1237.77 818.679 1231.74 821.069 1225.44 821.076V821.076ZM1063.04 769.314C1057.95 769.319 1053.07 771.254 1049.47 774.694C1045.87 778.134 1043.84 782.798 1043.84 787.663V798.409C1043.84 803.274 1045.87 807.938 1049.47 811.378C1053.07 814.818 1057.95 816.753 1063.04 816.759H1225.44C1230.54 816.753 1235.42 814.818 1239.02 811.378C1242.62 807.938 1244.65 803.274 1244.65 798.409V787.663C1244.65 782.798 1242.62 778.134 1239.02 774.694C1235.42 771.254 1230.54 769.319 1225.44 769.314H1063.04Z" fill="#3F3D56"/>
<path d="M1280 347.716C1280 275.023 1219.55 235.036 1150.5 216.096C1061.96 191.816 997.121 240.949 1020.99 347.716C1026.4 371.913 1039.34 400.176 1055.35 424.348H1182.44C1224.89 396.261 1280 404.139 1280 347.716Z" fill="#7030A0"/>
<path d="M1154.43 455.918C1162.19 441.828 1172.01 431.662 1182.84 423.922H1055.23C1088.08 468.666 1131.63 497.379 1154.43 455.918Z" fill="#7030A0"/>
<path d="M1139.38 276.806C1148.98 276.806 1156.76 283.621 1156.76 292.028V322.471H1122V292.028C1122 283.621 1129.78 276.806 1139.38 276.806ZM1165.45 322.471V292.028C1165.45 279.417 1153.78 269.198 1139.38 269.198C1124.99 269.198 1113.31 279.417 1113.31 292.028V322.471C1103.72 322.471 1095.94 329.286 1095.94 337.688V375.739C1095.94 384.146 1103.72 390.961 1113.31 390.961H1165.45C1175.05 390.961 1182.83 384.146 1182.83 375.739V337.688C1182.83 329.286 1175.05 322.471 1165.45 322.471ZM1113.31 330.079H1165.45C1170.25 330.079 1174.15 333.484 1174.15 337.688V375.739C1174.15 379.943 1170.25 383.352 1165.45 383.352H1113.31C1108.52 383.352 1104.62 379.943 1104.62 375.739V337.688C1104.62 333.484 1108.52 330.079 1113.31 330.079Z" fill="white"/>
<path d="M1050.56 664C1060.26 664 1068.13 656.389 1068.13 647C1068.13 637.611 1060.26 630 1050.56 630C1040.86 630 1033 637.611 1033 647C1033 656.389 1040.86 664 1050.56 664Z" fill="#7030A0"/>
<path d="M1110.28 664C1119.98 664 1127.85 656.389 1127.85 647C1127.85 637.611 1119.98 630 1110.28 630C1100.58 630 1092.72 637.611 1092.72 647C1092.72 656.389 1100.58 664 1110.28 664Z" fill="#7030A0"/>
<path d="M1170 664C1179.7 664 1187.56 656.389 1187.56 647C1187.56 637.611 1179.7 630 1170 630C1160.3 630 1152.44 637.611 1152.44 647C1152.44 656.389 1160.3 664 1170 664Z" fill="#7030A0"/>
<path d="M1289.44 664C1299.14 664 1307 656.389 1307 647C1307 637.611 1299.14 630 1289.44 630C1279.74 630 1271.87 637.611 1271.87 647C1271.87 656.389 1279.74 664 1289.44 664Z" fill="#7030A0"/>
<path d="M1229.72 664C1239.42 664 1247.28 656.389 1247.28 647C1247.28 637.611 1239.42 630 1229.72 630C1220.02 630 1212.15 637.611 1212.15 647C1212.15 656.389 1220.02 664 1229.72 664Z" fill="#7030A0"/>
</g>
<defs>
<clipPath id="clip0_2971_1507">
<rect width="1600" height="1200" fill="white"/>
</clipPath>
</defs>
</svg>
