<svg width="120" height="120" viewBox="0 0 120 120" fill="none" xmlns="http://www.w3.org/2000/svg">
  <path d="M104.012 0H16.012C12.6998 0.00351562 10.0155 2.68781 10.012 6V12.087H10.0117V20.0869C10.0117 21.1915 10.9073 22.0868 12.0116 22.0868C13.1163 22.0868 14.0116 21.1915 14.0116 20.0869V12.0884L14.0118 12.0879V6C14.013 4.89586 14.9076 4.00102 16.0117 4.00008H104.012C105.116 4.00125 106.011 4.89586 106.012 6V72.412C105.479 74.9414 98.0645 106.469 60.0116 115.941C21.5814 106.382 14.5579 75.1659 14.0118 72.4148V36.087C14.0118 34.9823 13.1163 34.087 12.0119 34.087C10.9073 34.087 10.012 34.9823 10.012 36.087V72.6087H10.0513C10.0377 72.7275 10.0354 72.8475 10.0443 72.9668C10.1106 73.332 17.1653 109.668 59.5403 119.943C59.8502 120.019 60.1738 120.019 60.4837 119.943C102.858 109.668 109.913 73.332 109.98 72.9668C110.001 72.8489 110.012 72.7291 110.012 72.6094V6C110.008 2.68781 107.324 0.00351562 104.012 0Z" fill="white"/>
  <path d="M12.0117 30.0869C12.8202 30.0836 13.5482 29.5957 13.8583 28.849C14.1684 28.102 14.0003 27.2421 13.4317 26.6669L13.132 26.4267C13.0204 26.3508 12.8992 26.2901 12.7715 26.246C12.6581 26.1883 12.5367 26.1483 12.4113 26.1269C12.2793 26.1044 12.1457 26.0911 12.0119 26.0869C11.4824 26.0941 10.9752 26.3013 10.5918 26.6669C10.1067 27.1343 9.89361 27.8172 10.0272 28.4777C10.1608 29.1382 10.6223 29.6845 11.2511 29.9269C11.4916 30.0293 11.7501 30.0839 12.0117 30.0869Z" fill="white"/>
  <path fill-rule="evenodd" clip-rule="evenodd" d="M59.9121 10.0501C69.269 10.0284 78.3041 13.4643 85.2823 19.698C92.2604 25.9316 96.6896 34.5234 97.7194 43.8236C98.7491 53.1237 96.3068 62.4764 90.8614 70.0856C86.2706 76.5005 79.8182 81.295 72.4324 83.8559C73.4615 84.9329 74.0936 86.3926 74.0936 87.9998V99.9996C74.0936 103.314 71.4074 106 68.0941 106H52.0934C48.7802 106 46.094 103.314 46.094 99.9996V87.9998C46.094 86.4167 46.7072 84.9768 47.7091 83.9047C40.3216 81.3759 33.8563 76.6148 29.241 70.2281C23.7604 62.6442 21.2748 53.3029 22.2615 43.9981C23.2482 34.6933 27.6376 26.0811 34.5868 19.8152C41.5361 13.5494 50.5552 10.0717 59.9121 10.0501ZM80.0801 75.4988C77.065 77.7005 73.6934 79.4023 70.0937 80.5195V79.9999C70.0937 74.4775 65.6168 69.9996 60.0934 69.9996C54.5709 69.9996 50.094 74.4775 50.094 79.9999V80.5773C46.4233 79.4612 42.9857 77.7381 39.9169 75.4969L48.1473 71.1826C50.4433 69.8488 51.8985 67.4339 52.0048 64.7807V59.8637C52.0048 59.4932 51.9016 59.1298 51.7069 58.8143C50.0595 55.9258 48.8474 52.8103 48.1092 49.5682C47.9606 49.0764 47.6596 48.6447 47.2498 48.3349C46.7285 47.7217 46.3094 47.0285 46.0086 46.2822V42.0549L47.6577 39.6565C47.8875 39.3212 48.0094 38.9237 48.0075 38.5172V30.7423C48.0073 30.6601 48.0018 30.578 47.9915 30.4965C47.8422 28.3607 48.5264 26.2502 49.9004 24.6083C51.8693 22.3917 55.2631 21.2685 59.9759 21.2485C64.689 21.2285 68.1129 22.3936 70.0874 24.6144C71.4615 26.2506 72.1497 28.3548 72.0082 30.4868C71.9977 30.5715 71.9925 30.657 71.9922 30.7425V38.5175C71.9922 38.9206 72.1142 39.3143 72.3421 39.6467L73.9911 42.0551V46.3243C73.727 47.0435 73.3537 47.7179 72.8838 48.323C72.4485 48.6056 72.1404 49.0464 72.0244 49.5522C71.2664 52.7975 70.0146 55.9072 68.3127 58.7724C68.1043 59.0982 67.9938 59.477 67.9948 59.8637V64.7807C67.9874 67.4715 69.4795 69.9424 71.8644 71.1885L80.0801 75.4988ZM83.4109 72.7252L73.7175 67.6387C72.6623 67.0741 72.0004 65.9773 71.9925 64.7804V60.4231C73.6706 57.4991 74.9408 54.3594 75.7681 51.091C76.6989 49.9944 77.4126 48.7309 77.8708 47.3674C77.9486 47.1507 77.9886 46.9221 77.9886 46.6918V41.4351C77.9886 41.0319 77.8667 40.6383 77.6388 40.3058L75.9898 37.8974V30.842C76.2307 27.6389 75.2027 24.4694 73.1277 22.0176C70.3675 18.8695 65.9461 17.2707 59.9759 17.2507C54.0258 17.2707 49.6065 18.8698 46.8583 22.0138C44.7865 24.4694 43.7635 27.6411 44.01 30.8442V37.8976L42.3609 40.3061C42.133 40.6385 42.0111 41.0324 42.0111 41.4353V46.692C42.0111 46.949 42.0607 47.2033 42.1571 47.4417C42.6772 48.7804 43.4266 50.018 44.3717 51.0993C45.1759 54.3451 46.398 57.4724 48.0075 60.4034V64.7807C47.9032 65.9508 47.2664 67.0079 46.2806 67.6468L36.5907 72.7268C35.058 71.2759 33.6541 69.6765 32.402 67.9438C27.4846 61.1393 25.2544 52.7579 26.1397 44.4094C27.025 36.0608 30.9634 28.3336 37.1985 22.7117C43.4335 17.0898 51.5258 13.9695 59.9211 13.9501C68.3165 13.9307 76.423 17.0135 82.6841 22.6065C88.9451 28.1995 92.9192 35.9084 93.8431 44.2528C94.767 52.5971 92.5756 60.9887 87.6898 67.8159C86.4152 69.597 84.9807 71.2388 83.4109 72.7252ZM52.0935 86.0003H52.0934C50.9893 86.0003 50.0939 86.8957 50.0939 87.9998V99.9996C50.0939 101.105 50.9893 102 52.0934 102H68.0941C69.1982 102 70.0936 101.105 70.0936 99.9996V87.9998C70.0936 86.8957 69.1982 86.0003 68.0941 86.0003H52.0935ZM66.0938 82.0004V79.9999C66.0938 76.6866 63.4076 73.9996 60.0934 73.9996C56.7801 73.9996 54.0939 76.6866 54.0939 79.9999V82.0004H66.0938ZM60.0933 98.0001C58.9891 98.0001 58.0938 97.1047 58.0938 95.9997V91.9998C58.0938 90.8956 58.9891 90.0002 60.0933 90.0002C61.1983 90.0002 62.0937 90.8956 62.0937 91.9998V95.9997C62.0937 97.1047 61.1983 98.0001 60.0933 98.0001Z" fill="white"/>
</svg>
