<svg width="120" height="120" viewBox="0 0 120 120" fill="none" xmlns="http://www.w3.org/2000/svg">
  <g clip-path="url(#clip0)">
    <path d="M2 100C0.896753 100.003 0.00318558 100.897 0 102V110H4V102C3.99671 100.897 3.1032 100.003 2 100Z" fill="white"/>
    <path d="M4 10H0V86C0 87.1046 0.89543 88 2 88C3.10457 88 4 87.1046 4 86V10Z" fill="white"/>
    <path d="M0 94C0.0079178 94.5294 0.215005 95.0364 0.58 95.42L0.88 95.66C0.991512 95.7356 1.11257 95.7962 1.24 95.84C1.35332 95.8978 1.47467 95.9382 1.6 95.96C1.73226 95.9825 1.86591 95.9958 2 96C2.52953 95.9926 3.03673 95.7855 3.42 95.42C4.17491 94.6238 4.17491 93.3762 3.42 92.58C3.22868 92.3993 3.00468 92.2568 2.76 92.16C2.51956 92.0575 2.26135 92.0032 2 92C1.47062 92.0081 0.963682 92.2152 0.58 92.58C0.215172 92.9637 0.00811372 93.4706 0 94H0Z" fill="white"/>
    <path d="M94 42.2C92.8954 42.2 92 41.3046 92 40.2V10C91.9964 6.6878 89.3122 4.00364 86 4H10C6.6878 4.00364 4.00364 6.6878 4 10C4 11.1046 3.10457 12 2 12C0.895431 12 0 11.1046 0 10C0.00650228 4.47985 4.47985 0.00650228 10 0H86C91.5202 0.00650228 95.9935 4.47985 96 10V40.2C96 41.3046 95.1046 42.2 94 42.2Z" fill="white"/>
    <path d="M86 120H10C4.47985 119.993 0.00650228 115.52 0 110C0 108.895 0.895431 108 2 108C3.10457 108 4 108.895 4 110C4.00364 113.312 6.6878 115.996 10 116H86C89.3122 115.996 91.9964 113.312 92 110V67.84C92 66.7354 92.8954 65.84 94 65.84C95.1046 65.84 96 66.7354 96 67.84V110C95.9935 115.52 91.5202 119.993 86 120Z" fill="white"/>
    <path d="M20.0001 30H2.00012C1.19133 29.9998 0.462252 29.5125 0.152764 28.7653C-0.156724 28.0181 0.0143038 27.158 0.58612 26.586L26.5861 0.585998C27.1581 0.0141817 28.0182 -0.156846 28.7654 0.152642C29.5127 0.462129 30 1.19121 30.0001 2V20C29.9936 25.5201 25.5203 29.9935 20.0001 30ZM6.82832 26H20.0001C23.3123 25.9964 25.9965 23.3122 26.0001 20V6.8282L6.82832 26Z" fill="white"/>
    <path d="M81.3963 78.8964C80.5007 78.897 79.7138 78.3021 79.4703 77.4402C79.2268 76.5783 79.586 75.6596 80.3495 75.1914C86.6479 71.1557 92.4705 66.4219 97.7069 61.08C112.941 45.8418 117.518 33.795 115.598 31.875C113.678 29.955 101.625 34.5332 86.3925 49.7656C81.0502 55.002 76.3161 60.8246 72.2799 67.123C71.9129 67.7455 71.2385 68.1215 70.5161 68.1067C69.7936 68.0919 69.1353 67.6884 68.7941 67.0514C68.4529 66.4144 68.4819 65.6428 68.8699 65.0332C73.071 58.467 78.0006 52.3966 83.5651 46.9376C96.6687 33.83 112.848 23.4688 118.427 29.0468C123.997 34.6172 113.643 50.8008 100.536 63.9082C95.0767 69.472 89.0062 74.4011 82.4399 78.6016C82.1259 78.7942 81.7647 78.8962 81.3963 78.8964Z" fill="white"/>
    <path d="M75.998 83.957C74.9373 83.9585 73.9197 83.5375 73.17 82.7872L64.6856 74.3C63.125 72.7375 63.125 70.2063 64.6856 68.6438L67.5136 65.8156C69.0769 64.257 71.6066 64.257 73.17 65.8156L81.6562 74.3C83.2123 75.864 83.2132 78.3911 81.6582 79.9562L78.8262 82.7864C78.0765 83.537 77.0588 83.9582 75.998 83.957ZM67.5136 71.4726L75.998 79.96L78.8282 77.1318L70.3418 68.6456L67.5136 71.4736V71.4726Z" fill="white"/>
    <path d="M63.2716 91.8574C62.741 91.8579 62.2322 91.6471 61.8576 91.2714L56.2002 85.6152C55.4965 84.9118 55.4174 83.7979 56.0146 83.002L64.5002 71.6876C64.8472 71.2234 65.379 70.9332 65.9572 70.8926C66.5367 70.8433 67.1078 71.0561 67.5138 71.4726L75.9982 79.96C76.4078 80.3701 76.6195 80.9377 76.5783 81.5158C76.5371 82.094 76.2471 82.6258 75.7834 82.9736L64.471 91.458C64.1253 91.7183 63.7042 91.8585 63.2716 91.8574ZM60.2542 84.0136L63.4602 87.2168L71.5402 81.1568L66.3176 75.9322L60.2542 84.0136Z" fill="white"/>
    <path d="M98.627 50.8458C97.8181 50.8458 97.0888 50.3585 96.7793 49.6111C96.4697 48.8638 96.6408 48.0036 97.2128 47.4316L98.627 46.0176C99.4113 45.2568 100.661 45.2663 101.434 46.039C102.206 46.8117 102.216 48.0615 101.455 48.8458L100.041 50.2598C99.6664 50.6355 99.1575 50.8463 98.627 50.8458Z" fill="white"/>
    <path d="M81.6561 67.8164C80.8473 67.8162 80.1183 67.329 79.8088 66.5817C79.4993 65.8345 79.6703 64.9744 80.2421 64.4024L91.5545 53.0878C92.0576 52.5719 92.7992 52.3664 93.496 52.55C94.1928 52.7335 94.737 53.2777 94.9206 53.9745C95.1041 54.6713 94.8987 55.413 94.3827 55.916L83.0703 67.2304C82.6956 67.6061 82.1867 67.817 81.6561 67.8164Z" fill="white"/>
    <path d="M43.4727 106C42.5136 106 41.6894 105.32 41.5081 104.378C41.3269 103.436 41.8398 102.498 42.7305 102.143L56.4905 96.6386L58.7971 94.33L61.4827 88.9628C61.9767 87.9747 63.1783 87.5743 64.1664 88.0683C65.1544 88.5624 65.5549 89.7639 65.0609 90.752L62.2307 96.4102C62.1345 96.6026 62.0079 96.7782 61.8557 96.9302L59.0277 99.7584C58.8358 99.9499 58.6072 100.101 58.3557 100.202L44.2157 105.858C43.9794 105.953 43.7271 106.001 43.4727 106Z" fill="white"/>
    <path d="M43.4726 106C42.8091 106 42.1887 105.671 41.8165 105.122C41.4444 104.572 41.369 103.874 41.6152 103.258L47.2714 89.1152C47.3725 88.8637 47.5233 88.6352 47.7148 88.4434L50.543 85.6152C50.6951 85.4631 50.8707 85.3365 51.063 85.2402L56.7194 82.4122C57.7075 81.9182 58.9089 82.3187 59.4029 83.3067C59.897 84.2948 59.4965 85.4962 58.5084 85.9902L53.1432 88.6738L50.834 90.98L45.33 104.742C45.0266 105.502 44.2909 106 43.4726 106Z" fill="white"/>
    <path d="M54.78 94.68C54.52 94.6837 54.2617 94.6361 54.02 94.54C53.7806 94.4355 53.5633 94.2862 53.38 94.1C53.1872 93.9224 53.0368 93.7036 52.94 93.46C52.8374 93.2126 52.7831 92.9478 52.78 92.68C52.7832 92.4186 52.8375 92.1604 52.94 91.92C53.0369 91.6764 53.1872 91.4576 53.38 91.28C53.8541 90.8148 54.5269 90.6132 55.1786 90.7412C55.8303 90.8691 56.3771 91.3101 56.64 91.92C56.7371 92.1614 56.7847 92.4198 56.78 92.68C56.7987 93.2145 56.5876 93.7314 56.2 94.1C56.0133 94.2913 55.7884 94.4412 55.54 94.54C55.2984 94.6361 55.0401 94.6837 54.78 94.68Z" fill="white"/>
    <path d="M60 106H12C10.8954 106 10 105.105 10 104C10 102.895 10.8954 102 12 102H60C61.1046 102 62 102.895 62 104C62 105.105 61.1046 106 60 106Z" fill="white"/>
    <path d="M80 106H68C66.8954 106 66 105.105 66 104C66 102.895 66.8954 102 68 102H80C81.1046 102 82 102.895 82 104C82 105.105 81.1046 106 80 106Z" fill="white"/>
    <path d="M22 44H14C12.8954 44 12 43.1046 12 42C12 40.8954 12.8954 40 14 40H22C23.1046 40 24 40.8954 24 42C24 43.1046 23.1046 44 22 44Z" fill="white"/>
    <path d="M52 44H32C30.8954 44 30 43.1046 30 42C30 40.8954 30.8954 40 32 40H52C53.1046 40 54 40.8954 54 42C54 43.1046 53.1046 44 52 44Z" fill="white"/>
    <path d="M22 74H14C12.8954 74 12 73.1046 12 72C12 70.8954 12.8954 70 14 70H22C23.1046 70 24 70.8954 24 72C24 73.1046 23.1046 74 22 74Z" fill="white"/>
    <path d="M44 74H32C30.8954 74 30 73.1046 30 72C30 70.8954 30.8954 70 32 70H44C45.1046 70 46 70.8954 46 72C46 73.1046 45.1046 74 44 74Z" fill="white"/>
    <path d="M62 54H14C12.8954 54 12 53.1046 12 52C12 50.8954 12.8954 50 14 50H62C63.1046 50 64 50.8954 64 52C64 53.1046 63.1046 54 62 54Z" fill="white"/>
    <path d="M62 64H14C12.8954 64 12 63.1046 12 62C12 60.8954 12.8954 60 14 60H62C63.1046 60 64 60.8954 64 62C64 63.1046 63.1046 64 62 64Z" fill="white"/>
    <path d="M37.0004 18.2098H41.0004C42.1045 18.2098 42.9999 17.3144 42.9999 16.2094C42.9999 15.1052 42.1045 14.2098 41.0004 14.2098H37.0004C35.8954 14.2098 35 15.1052 35 16.2094C35 17.3144 35.8954 18.2098 37.0004 18.2098Z" fill="white"/>
    <path d="M47 16.2093C47 17.3144 47.8954 18.2098 49.0004 18.2098H68.1726L65.5862 20.7952C65.0662 21.2978 64.8574 22.0413 65.0405 22.7407C65.2236 23.4393 65.7702 23.9858 66.4697 24.169C67.1682 24.3521 67.9125 24.1433 68.4143 23.6233L74.4146 17.6238C75.1947 16.842 75.1947 15.5767 74.4146 14.7957L68.4143 8.79536C67.6297 8.0373 66.3818 8.04829 65.6109 8.82008C64.8391 9.59096 64.8281 10.8388 65.5862 11.6234L68.1726 14.2098H49.0004C47.8954 14.2098 47 15.1052 47 16.2093Z" fill="white"/>
    <path d="M113.172 14.2098H94.0003C92.8961 14.2098 92.0007 15.1052 92.0007 16.2093C92.0007 17.3144 92.8961 18.2098 94.0003 18.2098H113.172L110.586 20.7952C110.067 21.2978 109.858 22.0413 110.041 22.7407C110.224 23.4393 110.77 23.9858 111.469 24.169C112.169 24.3521 112.912 24.1433 113.414 23.6233L119.414 17.6238C120.195 16.842 120.195 15.5767 119.414 14.7957L113.414 8.79536C112.629 8.0373 111.383 8.04829 110.611 8.82008C109.839 9.59096 109.829 10.8388 110.586 11.6234L113.172 14.2098Z" fill="white"/>
    <path d="M86.0004 18.2098C87.1045 18.2098 87.9999 17.3144 87.9999 16.2094C87.9999 15.1052 87.1045 14.2098 86.0004 14.2098H82.0004C80.8954 14.2098 80 15.1052 80 16.2094C80 17.3144 80.8954 18.2098 82.0004 18.2098H86.0004Z" fill="white"/>
  </g>
  <defs>
    <clipPath id="clip0">
      <rect width="120" height="120" fill="white"/>
    </clipPath>
  </defs>
</svg>
