<svg width="106" height="120" viewBox="0 0 106 120" fill="none" xmlns="http://www.w3.org/2000/svg">
  <path d="M102 72H100V55.9999C100.016 49.0807 96.7683 42.559 91.2368 38.4021C85.7053 34.2452 78.5377 32.94 71.8959 34.8799C71.6782 33.3466 71.0196 31.9097 69.9998 30.7439V20.112C70.3908 15.3799 68.8875 10.6861 65.8198 7.06195C61.7119 2.37609 55.0439 0 45.9998 0C36.9558 0 30.2878 2.37609 26.1799 7.06195C23.1127 10.6863 21.6091 15.3799 21.9998 20.112V30.7439C20.7166 32.1947 20.0058 34.0631 19.9999 36V43.9999C20.0013 46.4196 21.1003 48.708 22.988 50.2219C24.3703 55.4529 26.7513 60.367 30 64.6938V71.3198C30.0042 73.2525 28.9432 75.0302 27.24 75.9438L9.40008 85.6859C3.60586 88.8466 0.00046875 94.9195 0 101.52V110C0 111.104 0.895547 112 1.99992 112H9.99984C11.1045 112 11.9998 111.104 11.9998 110C11.9998 108.895 11.1042 108 9.99984 108H3.99984V101.52C4.00219 96.3837 6.80859 91.6587 11.3177 89.1998L29.1457 79.4639C32.1415 77.8519 34.0069 74.7218 33.9996 71.3198V63.9998C33.9998 63.5304 33.8348 63.0759 33.5337 62.7159C30.2944 58.541 27.9687 53.7316 26.7077 48.6C26.5936 48.094 26.2856 47.6531 25.8497 47.3721C24.6998 46.6357 24.003 45.3656 23.9998 44.0002V36C24.0023 34.8682 24.4903 33.792 25.3397 33.0441C25.7597 32.6651 25.9995 32.1258 25.9997 31.56V19.9999C25.9997 19.9123 25.9938 19.8248 25.9816 19.7379C25.6854 16.1004 26.8352 12.4929 29.1816 9.69797C32.5015 5.91586 38.1577 4.00008 45.9996 4.00008C53.8116 4.00008 59.4577 5.90414 62.7757 9.65812C65.1286 12.4673 66.2918 16.084 66.0178 19.7381C66.0059 19.8248 65.9998 19.9125 65.9998 20.0002V31.5602C66 32.126 66.2398 32.6651 66.6598 33.0443C67.5094 33.7922 67.9971 34.8684 67.9997 36.0002V36.4282C60.6429 40.1824 56.0086 47.7408 55.9997 56.0002V72H53.9998C51.7905 72 49.9997 73.7909 49.9997 76.0001V106C50.0053 106.67 50.0588 107.338 50.1598 108H25.9999C24.8953 108 24 108.896 24 110C24 111.105 24.8955 112 25.9999 112H51.3698C53.6843 116.879 58.5991 119.993 63.9999 120H91.9999C99.7282 119.991 105.991 113.728 106 106V75.9998C106 73.7909 104.209 72 102 72ZM60 55.9999C60 46.0589 68.059 37.9999 78 37.9999C87.941 37.9999 96 46.0589 96 55.9999V72H60V55.9999ZM91.9999 116H63.9999C59.2495 115.994 55.1566 112.653 54.1999 108H60C61.1046 108 61.9999 107.105 61.9999 106C61.9999 104.895 61.1044 104 60 104H54V100H60C61.1046 100 61.9999 99.1048 61.9999 98.0002C61.9999 96.8955 61.1044 96.0002 60 96.0002H54V92.0002H60C61.1046 92.0002 61.9999 91.1048 61.9999 90.0002C61.9999 88.8956 61.1044 88.0003 60 88.0003H54V84H60C61.1046 84 61.9999 83.1045 61.9999 82.0001C61.9999 80.8955 61.1044 80.0002 60 80.0002H54V76.0001H102V80.0002H96C94.8954 80.0002 94.0001 80.8957 94.0001 82.0001C94.0001 83.1047 94.8956 84 96 84H102V88.0001H96C94.8954 88.0001 94.0001 88.8956 94.0001 90C94.0001 91.1044 94.8956 91.9999 96 91.9999H102V96H96C94.8954 96 94.0001 96.8953 94.0001 97.9999C94.0001 99.1045 94.8956 99.9998 96 99.9998H102V104H96C94.8954 104 94.0001 104.895 94.0001 106C94.0001 107.104 94.8956 108 96 108H101.8C100.843 112.653 96.7502 115.994 91.9999 116Z" fill="#171044"/>
</svg>
