<svg width="120" height="120" viewBox="0 0 120 120" fill="none" xmlns="http://www.w3.org/2000/svg">
<g clip-path="url(#clip0)">
<path d="M2.2195 62.0084C3.32468 62.0084 4.22018 61.112 4.22018 60.0078V10.0016C4.22018 6.68696 6.90669 4.00046 10.2204 4.00046H100.232C103.547 4.00046 106.233 6.68696 106.233 10.0016V92.0123C106.233 93.1166 107.129 94.0121 108.233 94.0121C109.338 94.0121 110.234 93.1166 110.234 92.0123V10.0016C110.227 4.48025 105.753 0.00640953 100.232 0H10.2204C4.69998 0.00640953 0.226136 4.48025 0.219727 10.0016V60.0078C0.219727 60.5379 0.430325 61.047 0.804824 61.4224C1.18024 61.7969 1.68934 62.0084 2.2195 62.0084Z" fill="#7661D6"/>
<path d="M1.09937 69.6687C1.21108 69.7447 1.33195 69.8052 1.45922 69.8491C1.57276 69.9068 1.69363 69.9471 1.81907 69.9691C1.95184 69.9911 2.08552 70.0048 2.21921 70.0094C2.74845 70.0011 3.25572 69.7942 3.63937 69.4288C3.82067 69.2375 3.9626 69.0141 4.05965 68.7687C4.36182 68.0224 4.197 67.169 3.63937 66.5885C3.448 66.4081 3.22459 66.2653 2.97919 66.1682C2.73929 66.0657 2.48108 66.0117 2.21921 66.0089C1.68996 66.0162 1.1827 66.2232 0.79904 66.5885C0.0253199 67.3778 0.0253199 68.6405 0.79904 69.4288L1.09937 69.6687Z" fill="#7661D6"/>
<path d="M10.2199 94.0121H46.2249C47.3292 94.0121 48.2247 93.1166 48.2247 92.0124C48.2247 90.9072 47.3292 90.0117 46.2249 90.0117H10.2199C6.9062 90.0117 4.21969 87.3252 4.21969 84.0105V76.0096C4.21969 74.9053 3.32419 74.0098 2.21901 74.0098C1.11474 74.0098 0.219238 74.9053 0.219238 76.0096V84.0105C0.225648 89.5319 4.69949 94.0057 10.2199 94.0121Z" fill="#7661D6"/>
<path d="M98.2316 50.0062C99.3359 50.0062 100.231 49.1107 100.231 48.0064V24.0028C100.231 21.7933 98.4404 20.0023 96.2309 20.0023H14.2202C12.062 19.9565 10.2737 21.6651 10.2197 23.8233V80.1904C10.2737 82.3486 12.062 84.0563 14.2202 84.0105H42.2243C43.3286 84.0105 44.2241 83.115 44.2241 82.0107C44.2241 80.9056 43.3286 80.0101 42.2243 80.0101H32.2227V72.0091H40.2236C41.3288 72.0091 42.2243 71.1136 42.2243 70.0094C42.2243 68.9042 41.3288 68.0087 40.2236 68.0087H32.2227V60.0078H44.2241C45.3292 60.0078 46.2247 59.1123 46.2247 58.0071C46.2247 56.9028 45.3292 56.0073 44.2241 56.0073H32.2227V48.0064H54.2257C55.3308 48.0064 56.2263 47.1109 56.2263 46.0057C56.2263 44.9015 55.3308 44.006 54.2257 44.006H32.2227V36.005H96.2309V48.0064C96.2309 49.1107 97.1264 50.0062 98.2316 50.0062ZM28.2222 24.0028V32.0046H14.2202V24.0028H28.2222ZM28.2222 80.0101H14.2202V72.0091H28.2222V80.0101ZM28.2222 68.0087H14.2202V60.0078H28.2222V68.0087ZM28.2222 56.0073H14.2202V48.0064H28.2222V56.0073ZM28.2222 44.006H14.2202V36.005H28.2222V44.006ZM32.2227 32.0046V24.0028H96.2309V32.0046H32.2227Z" fill="#7661D6"/>
<path d="M18.2209 14.002C19.3261 14.002 20.2216 13.1065 20.2216 12.0014C20.2216 10.8971 19.3261 10.0016 18.2209 10.0016H14.2205C13.1162 10.0016 12.2207 10.8971 12.2207 12.0014C12.2207 13.1065 13.1162 14.002 14.2205 14.002H18.2209Z" fill="#7661D6"/>
<path d="M30.2233 14.002C31.3276 14.002 32.2231 13.1065 32.2231 12.0014C32.2231 10.8971 31.3276 10.0016 30.2233 10.0016H26.2229C25.1177 10.0016 24.2222 10.8971 24.2222 12.0014C24.2222 13.1065 25.1177 14.002 26.2229 14.002H30.2233Z" fill="#7661D6"/>
<path d="M46.2252 14.002C47.3295 14.002 48.225 13.1065 48.225 12.0014C48.225 10.8971 47.3295 10.0016 46.2252 10.0016H38.2243C37.1191 10.0016 36.2236 10.8971 36.2236 12.0014C36.2236 13.1065 37.1191 14.002 38.2243 14.002H46.2252Z" fill="#7661D6"/>
<path d="M98.2323 10.0016H54.2263C53.1221 10.0016 52.2266 10.8971 52.2266 12.0014C52.2266 13.1065 53.1221 14.002 54.2263 14.002H98.2323C99.3365 14.002 100.232 13.1065 100.232 12.0014C100.232 10.8971 99.3365 10.0016 98.2323 10.0016Z" fill="#7661D6"/>
<path d="M74.2867 54.0067C72.9672 54.0067 71.6515 54.1348 70.3576 54.3912C67.7975 54.8994 65.3628 55.9075 63.1927 57.3597C62.0967 58.0932 61.0748 58.9319 60.1427 59.8659C59.6226 60.3676 59.4139 61.1121 59.597 61.8107C59.7801 62.5103 60.3268 63.0569 61.0254 63.24C61.7249 63.4222 62.4684 63.2144 62.9711 62.6943C63.7192 61.949 64.5387 61.2787 65.4177 60.6936C67.1483 59.5344 69.0922 58.7296 71.1359 58.3258C72.1734 58.1179 73.2282 58.0108 74.2867 58.0071C75.3909 58.0071 76.2864 57.1116 76.2864 56.0073C76.2864 54.9022 75.3909 54.0067 74.2867 54.0067Z" fill="#7661D6"/>
<path d="M57.0261 68.5086C55.9438 68.2953 54.8935 68.9994 54.6783 70.0808C54.4183 71.3746 54.2864 72.6904 54.2837 74.0098C54.2837 75.1141 55.1792 76.0096 56.2844 76.0096C57.3886 76.0096 58.2841 75.1141 58.2841 74.0098C58.2841 72.9523 58.3876 71.8965 58.5927 70.8591C58.807 69.7777 58.1065 68.7265 57.0261 68.5086Z" fill="#7661D6"/>
<path d="M97.8318 89.1472C105.576 77.1166 103.013 61.1834 91.8838 52.1909C80.756 43.1974 64.6397 44.0334 54.5016 54.1302C44.3645 64.227 43.4635 80.3406 52.4121 91.505C61.3608 102.669 77.2829 105.297 89.3447 97.6005L109.989 118.241C112.326 120.582 116.118 120.587 118.46 118.25C120.801 115.913 120.804 112.122 118.469 109.78L97.8318 89.1472ZM57.3108 90.9813C47.9374 81.6078 47.9374 66.4099 57.3108 57.0365C66.6852 47.663 81.8822 47.663 91.2566 57.0365C100.63 66.4099 100.63 81.6078 91.2566 90.9813C86.7772 95.5238 80.6644 98.0803 74.286 98.0803C67.9067 98.0803 61.7939 95.5238 57.3145 90.9813H57.3108ZM115.634 115.431C114.859 116.2 113.608 116.2 112.834 115.431L92.5788 95.174C93.0915 94.7318 93.6034 94.2959 94.0896 93.8097C94.5749 93.3244 94.9714 92.8556 95.3971 92.3676L115.648 112.614C116.029 112.984 116.244 113.494 116.24 114.025C116.236 114.557 116.017 115.064 115.63 115.429L115.634 115.431Z" fill="#7661D6"/>
</g>
<defs>
<clipPath id="clip0">
<rect width="120" height="120" fill="white"/>
</clipPath>
</defs>
</svg>
