<svg width="120" height="120" viewBox="0 0 120 120" fill="none" xmlns="http://www.w3.org/2000/svg">
<g clip-path="url(#clip0)">
<path d="M2 36C3.10457 36 4 35.1046 4 34C4 32.8954 3.10457 32 2 32C0.89543 32 0 32.8954 0 34C0 35.1046 0.89543 36 2 36Z" fill="#7661D6"/>
<path d="M14 56H42C49.7283 55.9912 55.9912 49.7283 56 42V14C55.9912 6.27167 49.7283 0.00881728 42 0H14C6.27167 0.00881728 0.00881728 6.27167 0 14V26C0 27.1046 0.895431 28 2 28C3.10457 28 4 27.1046 4 26V14C4.00661 8.47989 8.47989 4.00661 14 4H42C47.5201 4.00661 51.9934 8.47989 52 14V42C51.9934 47.5201 47.5201 51.9934 42 52H14C8.47989 51.9934 4.00661 47.5201 4 42C4 40.8954 3.10457 40 2 40C0.895431 40 0 40.8954 0 42C0.00881728 49.7283 6.27167 55.9912 14 56Z" fill="#7661D6"/>
<path d="M12 18V14C12 12.8954 12.8954 12 14 12H22C23.1046 12 24 11.1046 24 10C24 8.89543 23.1046 8 22 8H14C10.6863 8 8 10.6863 8 14V18C8 19.1046 8.89543 20 10 20C11.1046 20 12 19.1046 12 18Z" fill="#7661D6"/>
<path d="M34 12C35.1046 12 36 11.1046 36 10C36 8.89543 35.1046 8 34 8H30C28.8954 8 28 8.89543 28 10C28 11.1046 28.8954 12 30 12H34Z" fill="#7661D6"/>
<path d="M44 48C45.1046 48 46 47.1046 46 46C46 44.8954 45.1046 44 44 44H40C38.8954 44 38 44.8954 38 46C38 47.1046 38.8954 48 40 48H44Z" fill="#7661D6"/>
<path d="M106 0H78C70.2717 0.00881728 64.0088 6.27167 64 14V42C64.0088 49.7283 70.2717 55.9912 78 56H106C113.728 55.9912 119.991 49.7283 120 42V14C119.991 6.27167 113.728 0.00881728 106 0ZM116 42C115.993 47.5201 111.52 51.9934 106 52H78C72.4799 51.9934 68.0066 47.5201 68 42V14C68.0066 8.47989 72.4799 4.00661 78 4H106C111.52 4.00661 115.993 8.47989 116 14V42Z" fill="#7661D6"/>
<path d="M108 44H104C102.895 44 102 44.8954 102 46C102 47.1046 102.895 48 104 48H108C109.105 48 110 47.1046 110 46C110 44.8954 109.105 44 108 44Z" fill="#7661D6"/>
<path d="M14 120H42C49.7283 119.991 55.9912 113.728 56 106V78C55.9912 70.2717 49.7283 64.0088 42 64H14C6.27167 64.0088 0.00881728 70.2717 0 78V106C0.00881728 113.728 6.27167 119.991 14 120ZM4 78C4.00661 72.4799 8.47989 68.0066 14 68H42C47.5201 68.0066 51.9934 72.4799 52 78V106C51.9934 111.52 47.5201 115.993 42 116H14C8.47989 115.993 4.00661 111.52 4 106V78Z" fill="#7661D6"/>
<path d="M10 84C11.1046 84 12 83.1046 12 82V78C12 76.8954 12.8954 76 14 76H22C23.1046 76 24 75.1046 24 74C24 72.8954 23.1046 72 22 72H14C10.6863 72 8 74.6863 8 78V82C8 83.1046 8.89543 84 10 84Z" fill="#7661D6"/>
<path d="M30 76H34C35.1046 76 36 75.1046 36 74C36 72.8954 35.1046 72 34 72H30C28.8954 72 28 72.8954 28 74C28 75.1046 28.8954 76 30 76Z" fill="#7661D6"/>
<path d="M86 8H78C74.6863 8 72 10.6863 72 14V18C72 19.1046 72.8954 20 74 20C75.1046 20 76 19.1046 76 18V14C76 12.8954 76.8954 12 78 12H86C87.1046 12 88 11.1046 88 10C88 8.89543 87.1046 8 86 8Z" fill="#7661D6"/>
<path d="M98 8H94C92.8954 8 92 8.89543 92 10C92 11.1046 92.8954 12 94 12H98C99.1046 12 100 11.1046 100 10C100 8.89543 99.1046 8 98 8Z" fill="#7661D6"/>
<path d="M86 72H78C74.6863 72 72 74.6863 72 78V82C72 83.1046 72.8954 84 74 84C75.1046 84 76 83.1046 76 82V78C76 76.8954 76.8954 76 78 76H86C87.1046 76 88 75.1046 88 74C88 72.8954 87.1046 72 86 72Z" fill="#7661D6"/>
<path d="M98 72H94C92.8954 72 92 72.8954 92 74C92 75.1046 92.8954 76 94 76H98C99.1046 76 100 75.1046 100 74C100 72.8954 99.1046 72 98 72Z" fill="#7661D6"/>
<path d="M40 112H44C45.1046 112 46 111.105 46 110C46 108.895 45.1046 108 44 108H40C38.8954 108 38 108.895 38 110C38 111.105 38.8954 112 40 112Z" fill="#7661D6"/>
<path d="M106 64H78C70.2717 64.0088 64.0088 70.2717 64 78V106C64.0088 113.728 70.2717 119.991 78 120H106C113.728 119.991 119.991 113.728 120 106V78C119.991 70.2717 113.728 64.0088 106 64ZM116 106C115.993 111.52 111.52 115.993 106 116H78C72.4799 115.993 68.0066 111.52 68 106V78C68.0066 72.4799 72.4799 68.0066 78 68H106C111.52 68.0066 115.993 72.4799 116 78V106Z" fill="#7661D6"/>
<path d="M108 108H104C102.895 108 102 108.895 102 110C102 111.105 102.895 112 104 112H108C109.105 112 110 111.105 110 110C110 108.895 109.105 108 108 108Z" fill="#7661D6"/>
</g>
<defs>
<clipPath id="clip0">
<rect width="120" height="120" fill="white"/>
</clipPath>
</defs>
</svg>
