<svg width="120" height="120" viewBox="0 0 120 120" fill="none" xmlns="http://www.w3.org/2000/svg">
<path d="M27.9151 50.6014C28.4171 50.7659 28.9609 50.7483 29.4512 50.5519C29.9092 50.3403 30.275 49.9699 30.4808 49.5094C30.6732 49.0395 30.6779 48.5133 30.4937 48.0401L30.3226 47.7033C30.2546 47.5889 30.1724 47.4837 30.0774 47.3904C30.0003 47.2901 29.9089 47.2018 29.8063 47.1282C29.6978 47.0501 29.5838 46.9796 29.4657 46.917C28.9829 46.6859 28.4282 46.6557 27.9231 46.8333C26.8771 47.2957 26.3779 48.4978 26.7882 49.5654C26.8993 49.8052 27.0582 50.0199 27.2551 50.1964C27.4452 50.3749 27.6697 50.5128 27.9151 50.6014Z" fill="#7661D6"/>
<path d="M50.6703 83.9793C47.8178 82.7718 45.2265 81.0227 43.0396 78.8289C42.5345 78.3236 41.7981 78.1265 41.1079 78.3112C40.4177 78.4961 39.8788 79.0352 39.6937 79.7252C39.5088 80.4152 39.7061 81.1516 40.2112 81.6569C48.2603 89.7201 60.3955 92.0954 70.8907 87.6627C71.5489 87.3843 72.0082 86.7761 72.0961 86.0669C72.184 85.3576 71.8871 84.6557 71.3168 84.2252C70.7466 83.7946 69.99 83.7006 69.3321 83.9791C63.364 86.485 56.6387 86.485 50.6703 83.9793Z" fill="#7661D6"/>
<path d="M83.1719 73.8201C83.6603 74.0278 84.2116 74.0324 84.7035 73.8332C85.1955 73.634 85.5883 73.2475 85.795 72.7586C90.2362 62.2631 87.8596 50.1225 79.7892 42.076C79.0064 41.3026 77.7459 41.3066 76.9683 42.0849C76.1904 42.8633 76.1873 44.1237 76.9612 44.9058C83.8736 51.8023 85.9108 62.2029 82.1116 71.1977C81.6808 72.2149 82.1554 73.3886 83.1719 73.8201Z" fill="#7661D6"/>
<path d="M60.0002 33.8671C52.5741 33.8671 45.4521 36.8169 40.2012 42.068C34.9503 47.3192 32.0002 54.4409 32.0002 61.867C32.0002 62.9716 32.8956 63.8669 34.0002 63.8669C35.1048 63.8669 36.0001 62.9714 36.0001 61.867C35.9994 55.5017 38.5276 49.3967 43.0287 44.8958C47.5299 40.3949 53.6346 37.8664 60 37.8671C61.1046 37.8671 61.9999 36.9716 61.9999 35.8672C61.9999 34.7628 61.1048 33.8671 60.0002 33.8671Z" fill="#7661D6"/>
<path d="M10.0003 71.8671C14.7499 71.8605 18.8418 68.5195 19.798 63.8672H24.1014C24.5113 71.5603 27.3908 78.9163 32.3127 84.8432L23.5225 93.5298C19.2428 90.6948 13.5114 91.5608 10.2604 95.5339C7.00942 99.507 7.29489 105.296 10.9211 108.93C14.5471 112.564 20.3359 112.862 24.3161 109.62C28.2962 106.377 29.1746 100.648 26.3488 96.3622L35.0518 87.7618C48.2 100.494 68.8239 101.291 82.915 89.6099L95.9241 102.621C93.0934 106.903 93.9652 112.634 97.9419 115.881C101.918 119.128 107.708 118.836 111.338 115.206C114.968 111.576 115.26 105.787 112.013 101.81C108.766 97.8338 103.035 96.962 98.7521 99.7927L85.8381 86.8771C91.8566 80.6713 95.4294 72.4996 95.8984 63.8676H100.202C101.229 68.8975 105.897 72.333 111.005 71.8169C116.112 71.3008 120 67.0012 120 61.8675C120 56.7338 116.112 52.4342 111.005 51.9181C105.897 51.402 101.229 54.8374 100.202 59.8673H95.8988C95.4308 51.2677 91.8819 43.1244 85.9016 36.927L102.573 20.256C106.865 23.0369 112.564 22.1284 115.78 18.1511C118.995 14.1738 118.689 8.41075 115.07 4.79647C111.43 1.15195 105.616 0.871644 101.642 4.14843C97.6677 7.42521 96.8347 13.1857 99.718 17.4541L82.9844 34.1877C69.5519 23.0071 50.0253 23.1046 36.7053 34.419L36.7051 34.4192C36.1086 34.9285 35.5705 35.5004 35.008 36.047L26.3415 27.3812C29.1711 23.0992 28.2988 17.3702 24.3229 14.1243C20.3469 10.8785 14.5591 11.1707 10.9303 14.8003C7.30145 18.4298 7.01012 24.2176 10.2567 28.1931C13.5032 32.1686 19.2323 33.04 23.5138 30.2097L32.2956 38.9905C31.8496 39.5309 31.3717 40.0454 30.9575 40.6109C30.6254 41.0427 30.4883 41.5932 30.5792 42.1301C30.6702 42.6671 30.981 43.1419 31.4366 43.4401C32.3347 44.0185 33.5256 43.8174 34.1837 42.9758C35.6689 40.9484 37.3841 39.1004 39.2949 37.4682L39.2954 37.4678C50.7483 27.7485 67.42 27.3034 79.3752 36.3978C91.3304 45.4922 95.3509 61.6781 89.0406 75.3096C82.7303 88.941 67.7882 96.3486 53.1185 93.118C38.4488 89.8874 28.0007 76.8883 28.0004 61.867C28.0208 60.7734 28.0593 59.6815 28.1741 58.5942C28.2221 57.9682 28.3393 57.3504 28.4169 56.7279C28.5625 55.6655 27.865 54.6703 26.8166 54.4449C26.285 54.3345 25.7312 54.4486 25.2866 54.7603C24.842 55.0718 24.5458 55.5535 24.4679 56.0906C24.3779 56.7905 24.2504 57.4866 24.1942 58.1899C24.1356 58.7482 24.0986 59.3072 24.0688 59.8669H19.7983C18.7457 54.7107 13.877 51.2525 8.66199 51.957C3.44693 52.6615 -0.330006 57.2871 0.0229617 62.5378C0.375929 67.7885 4.73787 71.8671 10.0003 71.8671ZM13.7582 26.1105C12.0419 24.3946 11.5284 21.8137 12.457 19.5716C13.3856 17.3296 15.5734 15.8674 18.0004 15.8674C20.4273 15.8674 22.6152 17.3294 23.5438 19.5716C24.4724 21.8139 23.9589 24.3946 22.2426 26.1105C19.8681 28.3759 16.1324 28.3759 13.7582 26.1105ZM103.758 7.6242C106.101 5.28139 109.9 5.28163 112.243 7.62513C114.586 9.96864 114.586 13.7676 112.242 16.1104C109.868 18.3761 106.132 18.3761 103.758 16.1104C101.418 13.7655 101.418 9.96911 103.758 7.6242ZM110 55.8671C113.314 55.8671 116 58.5535 116 61.867C116 65.1806 113.314 67.867 110 67.867C106.686 67.867 104 65.1806 104 61.867C104.004 58.5549 106.688 55.8708 110 55.8671ZM108.51 103.891C110.853 106.235 110.853 110.034 108.51 112.377C106.166 114.72 102.367 114.72 100.024 112.377C97.6805 110.034 97.6803 106.235 100.024 103.891C101.144 102.757 102.672 102.118 104.267 102.118C105.861 102.118 107.389 102.757 108.51 103.891ZM22.2426 106.11C19.8681 108.376 16.1327 108.376 13.7582 106.11C12.0419 104.394 11.5284 101.813 12.457 99.5713C13.3856 97.329 15.5734 95.867 18.0004 95.867C20.4273 95.867 22.6152 97.329 23.5438 99.5713C24.4724 101.813 23.9586 104.394 22.2426 106.11ZM10.0003 55.8671C13.3138 55.8671 16.0002 58.5535 16.0002 61.867C16.0002 65.1806 13.3138 67.867 10.0003 67.867C6.68669 67.867 4.00029 65.1806 4.00029 61.867C4.00404 58.5549 6.68809 55.8708 10.0003 55.8671Z" fill="#7661D6"/>
<path d="M8.16045 62.6269C8.20358 62.7546 8.26405 62.8758 8.34022 62.9874C8.42014 63.087 8.5003 63.1866 8.58045 63.2871C8.68006 63.3671 8.77967 63.4472 8.87928 63.5264C8.99107 63.6024 9.11271 63.6631 9.24068 63.7071C9.35389 63.7645 9.47506 63.8051 9.59998 63.8274C9.7324 63.8494 9.86623 63.8628 10.0003 63.8674C10.2616 63.8642 10.5197 63.8098 10.7601 63.7074C10.8829 63.6673 10.998 63.6061 11.1 63.5267C11.219 63.4474 11.3208 63.3675 11.4204 63.2874C11.5003 63.1868 11.5804 63.0872 11.6606 62.9876C11.7358 62.8758 11.7963 62.7546 11.8404 62.6271C11.8983 62.5139 11.9386 62.3923 11.9594 62.2667C11.9838 62.1347 11.9974 62.0011 12.0004 61.8673C11.9974 61.6057 11.943 61.3472 11.8404 61.1065C11.7438 60.8618 11.6013 60.638 11.4206 60.4472C11.321 60.3673 11.2195 60.2871 11.1002 60.207C10.9983 60.1275 10.8832 60.0664 10.7604 60.0263C10.3954 59.8671 9.98974 59.8254 9.60021 59.9072C9.47506 59.9285 9.35389 59.9689 9.24092 60.0263C9.11295 60.0701 8.99154 60.131 8.87951 60.207L8.58069 60.4472C8.39975 60.638 8.25725 60.8618 8.16069 61.1065C8.05803 61.3472 8.00366 61.6057 8.00061 61.8673C8.00389 62.0011 8.01702 62.1347 8.03975 62.2667C8.06202 62.3918 8.1028 62.5132 8.16045 62.6269Z" fill="#7661D6"/>
<path d="M108.16 62.6269C108.203 62.7546 108.264 62.8758 108.34 62.9874C108.414 63.0919 108.494 63.192 108.58 63.2871C108.68 63.367 108.779 63.4472 108.879 63.5264C108.991 63.6023 109.112 63.6631 109.24 63.7071C109.354 63.7645 109.475 63.8051 109.6 63.8273C109.732 63.8503 109.866 63.8637 110 63.8674C110.127 63.8637 110.254 63.8503 110.379 63.8273C110.512 63.8081 110.64 63.7676 110.76 63.7071C110.887 63.6631 111.008 63.6023 111.119 63.5264C111.219 63.4474 111.32 63.3673 111.42 63.2871C111.5 63.1866 111.58 63.087 111.66 62.9874C111.735 62.8756 111.796 62.7544 111.84 62.6269C111.898 62.5137 111.938 62.392 111.959 62.2664C112.014 62.0025 112.014 61.7304 111.959 61.4667C111.938 61.3411 111.898 61.2197 111.84 61.1063C111.796 60.9792 111.735 60.8585 111.66 60.747C111.58 60.6464 111.5 60.5468 111.42 60.4472C111.32 60.3673 111.219 60.2871 111.119 60.207C111.008 60.131 110.887 60.0703 110.76 60.0263C110.64 59.9658 110.512 59.9255 110.379 59.9072C110.123 59.8467 109.856 59.8467 109.6 59.9072C109.475 59.9285 109.354 59.9688 109.241 60.0263C109.113 60.0701 108.991 60.131 108.879 60.207L108.58 60.4472C108.214 60.8302 108.007 61.3376 108 61.8673C108.004 62.0011 108.018 62.1345 108.039 62.2666C108.062 62.3918 108.102 62.5132 108.16 62.6269Z" fill="#7661D6"/>
<path d="M19.4202 100.447C18.6184 99.7067 17.3823 99.7067 16.5803 100.447C16.4038 100.641 16.2618 100.864 16.1603 101.106C16.0577 101.347 16.0033 101.605 16.0002 101.867C16.0035 102.397 16.2112 102.906 16.5803 103.287C17.1524 103.864 18.0168 104.037 18.7673 103.726C19.5177 103.414 20.005 102.68 20.0003 101.867C19.9973 101.605 19.9429 101.347 19.8402 101.106C19.7387 100.864 19.5967 100.641 19.4202 100.447Z" fill="#7661D6"/>
<path d="M106.58 13.2871C106.963 13.6523 107.471 13.8592 108 13.8672C108.53 13.8627 109.038 13.6551 109.42 13.2871C109.597 13.0926 109.739 12.8692 109.84 12.6269C110.054 12.1424 110.054 11.5907 109.84 11.1065C109.739 10.8644 109.597 10.6415 109.42 10.4472C108.618 9.70705 107.382 9.70705 106.58 10.4472C106.399 10.638 106.257 10.8618 106.16 11.1065C105.947 11.591 105.947 12.1427 106.16 12.6269C106.261 12.8692 106.403 13.0926 106.58 13.2871Z" fill="#7661D6"/>
<path d="M102.86 109.546C103.228 109.922 103.734 110.132 104.26 110.127C104.395 110.133 104.53 110.12 104.66 110.086C104.789 110.062 104.915 110.029 105.039 109.987C105.157 109.928 105.271 109.861 105.379 109.787C105.489 109.719 105.59 109.639 105.68 109.546C105.866 109.363 106.015 109.146 106.119 108.907C106.214 108.658 106.261 108.393 106.26 108.127C106.263 107.867 106.216 107.608 106.119 107.367C106.011 107.124 105.862 106.901 105.68 106.707C105.58 106.627 105.481 106.546 105.379 106.466C105.159 106.324 104.916 106.223 104.66 106.167C104.008 106.042 103.336 106.244 102.86 106.707C102.485 107.086 102.271 107.594 102.26 108.127C102.263 108.395 102.318 108.659 102.42 108.907C102.517 109.15 102.667 109.369 102.86 109.546Z" fill="#7661D6"/>
<path d="M16.5803 20.4472C16.3993 20.638 16.2568 20.8619 16.1603 21.1065C15.9467 21.591 15.9467 22.1427 16.1603 22.6269C16.2524 22.8742 16.3953 23.099 16.5803 23.2872C17.3689 24.0606 18.6315 24.0606 19.4202 23.2872C19.6051 23.0992 19.7481 22.8742 19.8402 22.6269C19.9426 22.3867 19.9972 22.1284 20.0002 21.8673C20.0049 21.0547 19.5177 20.3202 18.7672 20.0085C18.0167 19.6968 17.1524 19.8702 16.5803 20.4472Z" fill="#7661D6"/>
<path d="M68.476 51.2172L56.0859 65.7716L51.413 61.0996C50.6284 60.3415 49.3814 60.3525 48.6096 61.1234C47.8378 61.8952 47.8277 63.1422 48.5858 63.9277L53.2752 68.6171C54.7566 70.0875 57.1168 70.1791 58.7071 68.8277C58.7877 68.7591 58.8619 68.684 58.9296 68.6034L71.5294 53.8036C72.2481 52.9613 72.1473 51.697 71.306 50.9792C70.4637 50.2614 69.1993 50.3612 68.4815 51.2035L68.476 51.2172Z" fill="#7661D6"/>
</svg>
