<svg width="120" height="120" viewBox="0 0 120 120" fill="none" xmlns="http://www.w3.org/2000/svg">
<g clip-path="url(#clip0)">
<path d="M12 22.0001C12.8126 22.0048 13.5471 21.5175 13.8588 20.767C14.1705 20.0166 13.9971 19.1522 13.42 18.5801L13.12 18.3401C13.0085 18.2644 12.8876 18.2037 12.7601 18.1601C12.6466 18.1022 12.5254 18.0619 12.4001 18.0401C12.2679 18.0178 12.134 18.0045 12 18C11.4705 18.0077 10.9636 18.2149 10.5799 18.5801C10.3992 18.7713 10.2565 18.9954 10.1599 19.2401C9.85825 19.9861 10.0225 20.8397 10.5799 21.42C10.7711 21.6007 10.9952 21.7434 11.2399 21.84C11.4804 21.9424 11.7386 21.9968 12 22.0001Z" fill="#7661D6"/>
<path fill-rule="evenodd" clip-rule="evenodd" d="M112 73.9999H118C119.105 73.9999 120 74.8955 120 76.0001V118C120 119.105 119.105 120 118 120H4.00008C1.79086 120 0 118.209 0 116V78C0 75.7908 1.79086 73.9999 3.99984 74.0002H9.99984V28.0001C9.99984 26.8957 10.8954 26.0002 11.9998 26.0002C13.1041 26.0002 13.9997 26.8955 13.9997 28.0001V73.9999H19.9997C22.2089 73.9999 23.9998 75.7908 23.9998 78V82.0003H61.1265C61.2383 83.3501 61.4306 84.6855 61.7002 86.0002H24.0002C21.791 86.0002 20.0002 84.2093 20.0002 82.0001V78H4.00008L4.00031 116H76V116H86V116H116V78H105.011V74.0002H108V34.0001H98.0002C95.7909 34.0001 94.0001 32.2092 94.0001 30V19.9999H86.828L89.4119 22.5839C89.786 22.9605 89.9972 23.4691 90 24V58.8092L86.0002 56.7907V26.0002H76.0001C73.7909 26.0002 72 24.2093 72 22.0001V12H64.8279L67.4119 14.584C67.7859 14.9606 67.9971 15.4692 67.9999 16.0001L68.0001 62.8579L63.9998 64.8764V18.0002H53.9998C51.7906 18.0002 49.9997 16.2094 49.9997 14.0002V4.00008H13.9997V12C13.9997 13.1044 13.1041 13.9999 11.9998 13.9999C10.8954 13.9999 9.99984 13.1046 9.99984 12V4.00008C9.99984 1.79086 11.7907 0 13.9999 0H51.9998C52.5307 0.0028125 53.0393 0.213984 53.4159 0.588047L60.8278 7.99969H73.9999C74.5308 8.0025 75.0394 8.21367 75.416 8.58773L82.8281 15.9998H96C96.529 16.0027 97.0359 16.2122 97.4121 16.5839L111.412 30.5838C111.786 30.9605 111.997 31.4691 112 31.9999V73.9999ZM48.0001 96H65.4738C66.2697 97.3921 67.1654 98.7291 68.1555 100H48.0001C46.8957 100 46.0002 100.896 46.0002 102C46.0002 103.104 46.8955 104 48.0001 104H71.8234C72.4185 104.552 73.0356 105.086 73.6739 105.598L75.3505 106.978C74.3937 107.623 73.2409 108 72.0001 108H48.0001C44.6865 108 42.0001 105.314 42.0001 102C42.0001 98.6864 44.6865 96 48.0001 96ZM105.172 30L97.9999 22.8279V30H105.172ZM80.584 19.4119L76.0001 14.828L75.9998 21.9998H83.172L80.584 19.4119ZM58.5839 11.412L54 6.82805V13.9999H61.1719L58.5839 11.412Z" fill="#7661D6"/>
<path d="M40 20C40 18.8954 39.1046 18 38 18H22C20.8954 18 20 18.8954 20 20C20 21.1046 20.8954 22 22 22H38C39.1046 22 40 21.1046 40 20Z" fill="#7661D6"/>
<path fill-rule="evenodd" clip-rule="evenodd" d="M22 32H32H34H43H44H55C56.1046 32 57 31.1046 57 30C57 28.8954 56.1046 28 55 28H44H43H34H32H22C20.8954 28 20 28.8954 20 30C20 31.1046 20.8954 32 22 32Z" fill="#7661D6"/>
<path d="M43 42H55C56.1046 42 57 41.1046 57 40C57 38.8954 56.1046 38 55 38H43C41.8954 38 41 38.8954 41 40C41 41.1046 41.8954 42 43 42Z" fill="#7661D6"/>
<path d="M22 42H34C35.1046 42 36 41.1046 36 40C36 38.8954 35.1046 38 34 38H22C20.8954 38 20 38.8954 20 40C20 41.1046 20.8954 42 22 42Z" fill="#7661D6"/>
<path d="M48.8 56.7C48.6736 56.1643 48.6205 55.614 48.642 55.064C48.7998 53.4877 48.3242 51.9133 47.32 50.688C46.0951 49.6817 44.5192 49.2058 42.942 49.366C42.3926 49.3873 41.8429 49.3335 41.308 49.206C40.8723 48.9254 40.4749 48.5892 40.126 48.206C39.1038 46.9451 37.6163 46.1498 36 46C34.385 46.1529 32.8997 46.9503 31.88 48.212C31.5313 48.5947 31.1347 48.9308 30.7 49.212C30.1644 49.3392 29.6141 49.393 29.064 49.372C27.4871 49.2113 25.9113 49.6864 24.686 50.692C23.6819 51.9181 23.2063 53.4931 23.364 55.07C23.3855 55.62 23.3324 56.1703 23.206 56.706C22.9248 57.1413 22.5887 57.5385 22.206 57.888C20.9476 58.9062 20.1524 60.3884 20 62C20.1523 63.6146 20.9499 65.0995 22.212 66.118C22.5947 66.4675 22.9308 66.8647 23.212 67.3C23.3384 67.8357 23.3915 68.386 23.37 68.936C23.2122 70.5123 23.6878 72.0867 24.692 73.312C25.917 74.3183 27.4928 74.7941 29.07 74.634C29.6194 74.6127 30.1692 74.6665 30.704 74.794C31.1398 75.0746 31.5371 75.4107 31.886 75.794C32.9054 77.052 34.388 77.847 36 78C37.615 77.8471 39.1003 77.0497 40.12 75.788C40.4687 75.4053 40.8653 75.0692 41.3 74.788C41.8356 74.6608 42.3859 74.6069 42.936 74.628C44.5129 74.7887 46.0888 74.3136 47.314 73.308C48.3181 72.0819 48.7937 70.5069 48.636 68.93C48.6145 68.38 48.6676 67.8297 48.794 67.294C49.0753 66.8587 49.4114 66.4615 49.794 66.112C51.0525 65.0938 51.8476 63.6116 52 62C51.8477 60.3853 51.0501 58.9005 49.788 57.882C49.4096 57.5318 49.0775 57.1346 48.8 56.7ZM46.924 63.332C46.1688 64.0219 45.5518 64.8493 45.106 65.77C44.7602 66.76 44.6028 67.806 44.642 68.854C44.6569 69.3902 44.6154 69.9265 44.518 70.454C43.9774 70.5961 43.4183 70.6548 42.86 70.628C41.8108 70.589 40.7635 70.7464 39.772 71.092C38.8544 71.5391 38.0293 72.1551 37.34 72.908C36.9558 73.3339 36.5094 73.6994 36.016 73.992C35.5123 73.7058 35.0584 73.3397 34.672 72.908C33.9824 72.1547 33.1565 71.5385 32.238 71.092C31.248 70.7462 30.202 70.5888 29.154 70.628C28.6137 70.6439 28.0733 70.6017 27.542 70.502C27.4038 69.9614 27.3459 69.4034 27.37 68.846C27.4092 67.798 27.2518 66.752 26.906 65.762C26.4602 64.8413 25.8432 64.0139 25.088 63.324C24.6613 62.9432 24.2945 62.5002 24 62.01C24.2856 61.507 24.6511 61.0538 25.082 60.668C25.8372 59.9781 26.4542 59.1507 26.9 58.23C27.2458 57.24 27.4032 56.194 27.364 55.146C27.3501 54.6098 27.3917 54.0736 27.488 53.546C28.0288 53.4049 28.5877 53.3462 29.146 53.372C30.1953 53.411 31.2425 53.2536 32.234 52.908C33.1516 52.4609 33.9767 51.8448 34.666 51.092C35.0527 50.6624 35.5025 50.2942 36 50C36.5037 50.2862 36.9576 50.6523 37.344 51.084C38.0336 51.8373 38.8595 52.4535 39.778 52.9C40.768 53.2458 41.8141 53.4032 42.862 53.364C43.4023 53.3491 43.9426 53.3913 44.474 53.49C44.6132 54.0304 44.6712 54.5885 44.646 55.146C44.6068 56.194 44.7642 57.24 45.11 58.23C45.5558 59.1507 46.1728 59.9781 46.928 60.668C47.3511 61.0548 47.7126 61.504 48 62C47.7096 62.4967 47.3447 62.9459 46.918 63.332H46.924Z" fill="#7661D6"/>
<path d="M36 56C32.6863 56 30 58.6863 30 62C30 65.3137 32.6863 68 36 68C39.3137 68 42 65.3137 42 62C42 58.6863 39.3137 56 36 56ZM36 64C34.8954 64 34 63.1046 34 62C34 60.8954 34.8954 60 36 60C37.1046 60 38 60.8954 38 62C38 63.1046 37.1046 64 36 64Z" fill="#7661D6"/>
<path d="M83.0118 112.007C82.0094 112.008 81.0379 111.66 80.2638 111.023L73.6739 105.598C65.7384 99.2309 61.0884 89.6316 61.0118 79.458V68.8624C61.0057 67.3439 61.8597 65.9529 63.2167 65.2716L80.3212 56.6407C82.0139 55.7918 84.0079 55.7913 85.701 56.6398L102.807 65.2725C104.164 65.9536 105.018 67.3444 105.011 68.8624V79.458C104.934 89.6332 100.283 99.2337 92.3453 105.601L85.761 111.023C84.9864 111.66 84.0145 112.008 83.0118 112.007ZM83.0118 60.0009C82.7032 60.0007 82.3987 60.0729 82.1231 60.2119L65.0186 68.8427L65.0118 79.458C65.0913 88.4341 69.2046 96.8981 76.2131 102.507L82.8058 107.936C82.9256 108.035 83.0992 108.035 83.2188 107.936L89.8066 102.51C96.817 96.9012 100.932 88.436 101.012 79.4583V68.8627L101.005 68.8432L83.8996 60.2109C83.6242 60.0726 83.32 60.0007 83.0118 60.0009Z" fill="#7661D6"/>
<path d="M83.0119 96C75.2799 96 69.012 89.7319 69.012 82.0001C69.012 74.2683 75.2801 68.0002 83.0119 68.0002C90.7437 68.0002 97.0118 74.268 97.0118 82.0001C97.0034 89.7284 90.7404 95.9913 83.0119 96ZM83.0119 72C77.4891 72 73.0118 76.4773 73.0118 82.0001C73.0118 87.5229 77.4891 92.0001 83.0119 92.0001C88.5347 92.0001 93.012 87.5229 93.012 82.0001C93.0054 76.4798 88.5321 72.0066 83.0119 72Z" fill="#7661D6"/>
<path d="M81.0119 88.0001C80.4813 88.0008 79.9725 87.7898 79.5979 87.4141L77.598 85.4142C76.829 84.6312 76.8349 83.3749 77.6107 82.5989C78.3867 81.8229 79.6429 81.8173 80.426 82.5862L81.0119 83.1722L85.5979 78.5862C86.381 77.8172 87.6372 77.823 88.4132 78.5988C89.1893 79.3748 89.1949 80.6311 88.4259 81.4141L82.4259 87.4141C82.0514 87.7896 81.5425 88.0006 81.0119 88.0001Z" fill="#7661D6"/>
</g>
<defs>
<clipPath id="clip0">
<rect width="120" height="120" fill="white"/>
</clipPath>
</defs>
</svg>
