<svg width="120" height="120" viewBox="0 0 120 120" fill="none" xmlns="http://www.w3.org/2000/svg">
<path fill-rule="evenodd" clip-rule="evenodd" d="M103.6 17.2V49.7C103.5 79.5 86.2999 106.7 59.4 119.5C58.3 120 57 120 55.9 119.5C51.2 117.3 46.8 114.7 42.7001 111.6C34.1001 115.3 23.9001 114.4 15.9001 108.9L15.7001 108.7C5.70007 101.7 1.40007 89 5.20007 77.4C6.69069 72.5307 9.56385 68.2538 13.2307 64.9621C13.2204 64.9081 13.2101 64.8541 13.2 64.8C12.2 59.8 11.7 54.7 11.7 49.6C11.7 48.5 12.6 47.6 13.7 47.6C14.8 47.6 15.7 48.5 15.7 49.6C15.7 54 16.1 58.1 16.8 62.2L16.8081 62.2569L16.9001 62.2C18.067 61.4221 19.2339 60.8333 20.4928 60.2497C19.9971 56.7664 19.7 53.2827 19.7 49.7V24.7C19.7 22.6 21.2999 20.9 23.2999 20.7C32.4 19.7 45.3999 17.2 55.5 10.7C56.7999 9.89998 58.5 9.89998 59.7999 10.7C69.8999 17.2 82.9 19.7 92 20.7C94 20.9 95.6 22.6 95.8 24.9V49.9C95.8 75.2 82 98.4 59.7999 110.5C58.5 111.1 57.1 111.1 55.9 110.5C54 109.4 52.2 108.3 50.4 107.1C50.2784 107.019 50.1572 106.938 50.0363 106.856C49.2575 107.537 48.4762 108.216 47.6001 108.8C47.3825 109.018 47.1124 109.183 46.866 109.333C46.7726 109.39 46.6825 109.445 46.6001 109.5C50 111.9 53.7 114.1 57.5999 115.9C83.2 103.8 99.5 78.1 99.6 49.8V17.2C93 17 70.3999 15.3 57.7 4.09999C44.9 15.2 22.4 17 15.7 17.2V33.7C15.7 34.8 14.8 35.7 13.7 35.7C12.6 35.7 11.7 34.8 11.7 33.7V17.2C11.7 15.1 13.4 13.3 15.5 13.2C21.8 13 43.2 11.4 55 1.09999C56.5 -0.300012 58.8 -0.300012 60.4 1.09999C72 11.4 93.5 13 99.8 13.3C101.9 13.3 103.6 15.1 103.6 17.2ZM43.2 106.9L43.2001 106.9C43.2373 106.863 43.2884 106.839 43.343 106.814C43.4351 106.772 43.5373 106.726 43.6001 106.6C43.3001 106.3 43.0001 106.1 42.7001 105.9L41.5001 105.3L36.6001 102.8C35.3001 102.2 34.5001 100.9 34.5001 99.4V98.5C34.5001 97.5 35.1001 96.5 36.1001 96C36.3423 95.9193 36.6497 95.7082 36.917 95.5246C36.9808 95.4808 37.0423 95.4386 37.1 95.4001L37.0999 95.4C38.1999 94.6 39.0999 93.6 39.7999 92.4L39.8001 92.4C40.2001 91.7 40.5001 90.9 40.7001 90.1C40.8001 89.4 41.3001 88.9 42.0001 88.7C42.6001 88.6 42.9001 88.1 42.9001 87.5V85.8C42.9001 85.3 42.6001 84.8 42.2001 84.6C41.7001 84.3 41.3001 83.7 41.2001 83.1C40.8001 79.8 39.4001 76.1 31.7001 76.1H31.0001H29.5001C29.4189 76.1 29.3375 76.099 29.2558 76.0969L29.2999 76.1999L29.2999 76.2C27.6999 76.2 26 75.8 24.5 75.1C24.4704 75.0261 24.441 74.9521 24.4117 74.878C24.3715 74.8587 24.3358 74.8357 24.3001 74.8C24.2001 76.1 23.8001 77.4 23.3001 78.6C23.0001 79.3 22.8001 79.9 22.6001 80.6C22.4001 81.4 22.3001 82.2 22.2001 83C22.2001 83.7 21.8001 84.3 21.2001 84.6C20.9001 84.8 20.7001 85.2 20.7001 85.6V85.7V87.4C20.6001 87.9 20.9001 88.4 21.4001 88.6C22.0001 88.8 22.5001 89.4 22.7001 90C23.3001 92.4 24.9001 94.5 27.0001 95.7C27.0619 95.7 27.1237 95.7382 27.2091 95.791L27.2091 95.791L27.2093 95.7911C27.262 95.8237 27.3238 95.8619 27.4001 95.9C28.3001 96.3 28.9001 97.3 29.0001 98.3V98.5V99.3C28.9001 100.8 28.1001 102.2 26.8001 102.8L20.4001 106C20.3001 106.1 20.1751 106.2 20.0501 106.3C19.9251 106.4 19.8001 106.5 19.7001 106.6C25.7001 110.1 32.7001 110.8 39.1001 108.7L39.0999 108.7C40.5 108.2 41.9 107.6 43.2 106.9ZM22.7001 68.9C22.6238 68.9 22.5476 68.9 22.4714 68.9014C22.4477 68.9005 22.4239 68.9 22.4 68.9L22.4008 68.9031C22.1006 68.9125 21.8003 68.9499 21.5001 69.1C20.6001 69.5 20.0001 70.4 20.1001 71.4C20.1001 72 20.2001 72.6 20.4001 73.3C20.5001 73.8 20.5001 74.4 20.4001 74.9C20.3001 75.7 20.1001 76.5 19.8001 77.2C19.3001 78.5 18.9001 79.8 18.6001 81.2C18.6001 81.2899 18.5799 81.3798 18.5576 81.4788C18.5304 81.6 18.5001 81.7349 18.5001 81.9C17.4001 82.9 16.8001 84.4 16.8001 85.9V87.6C16.8001 89.4 17.7001 91.2 19.3001 92.2C20.3001 95.3 22.5001 97.8 25.3001 99.4L18.8001 102.6C18.0001 103.1 17.2001 103.7 16.6001 104.4C10.9001 99.8 7.80007 93 7.80007 85.9C7.80007 79.6 10.2001 73.8 14.3001 69.5C15.3001 68.4 16.5001 67.4 17.7001 66.5C18.7946 65.704 19.9882 65.007 21.2807 64.3104L21.2999 64.4C22.5 63.8 23.8 63.3 25.1 63L25.0782 62.9051L25.1001 62.9L26.3001 62.6C37.2001 60.1 48.3001 65.4 53.2001 75.4C57.5001 84.1 56.0001 94.5 49.8001 101.7C48.9001 102.7 48.0001 103.6 47.0001 104.5C46.3001 103.7 45.5001 103 44.6001 102.6L44.4001 102.5L38.6001 99.6V99.4L38.6001 99.4C39.1001 99.1 39.6001 98.8 40.0001 98.4C41.1001 97.6 42.0001 96.6 42.8001 95.5C43.5001 94.5 44.0001 93.4 44.4001 92.2C46.0001 91.3 47.0001 89.5 47.0001 87.6V85.9C47.0001 84.3 46.3001 82.8 45.1001 81.8C44.3001 77.2 41.3001 72.2 31.8001 72.2H30.8001C29.8001 72.3 28.8001 72.2 27.9001 72C27.1001 71.8 26.4001 71.5 25.7001 71C25.2001 70.6 24.7001 70.2 24.2001 69.7C23.8001 69.2 23.3001 68.9 22.7001 68.9ZM23.7 49.8C23.7 52.8668 23.8957 55.9337 24.384 58.9037L24.4001 58.9C26.8001 58.2 29.2001 57.9 31.8001 57.9C44.0001 57.9 54.8001 65.9 58.4001 77.5C58.9765 79.3484 59.3514 81.2245 59.5343 83.1H62.4H62.5H65.7H66.4H69H69.7H73C74.1 83.1 75 84 75 85.1C75 86.2 74.1 87.1 73 87.1H69.7H69H66.4H65.7H62.5H62.4H59.636C59.35 93.2729 57.0233 99.2172 53.0001 103.9L52.9224 103.986C52.9816 104.024 53.0407 104.062 53.0999 104.1C54.5999 105.1 56.1 106 57.7 106.9C78.6 95.5 91.5999 73.6 91.5999 49.8V24.8C81.9999 23.8 68.3999 21.1 57.5999 14.2C46.8999 21.1 33.2 23.8 23.7 24.8V49.8ZM11.8 41.7C11.8 42.8 12.7 43.7 13.8 43.7C14.9 43.7 15.8 42.8 15.8 41.7C15.8 40.6 14.9 39.7 13.8 39.7C12.7 39.7 11.8 40.6 11.8 41.7ZM101.6 83.1H112.7L110.1 80.5C109.3 79.7 109.3 78.5 110.1 77.7C110.9 77 112.1 76.9 112.9 77.7L118.9 83.7C119.7 84.5 119.7 85.7 118.9 86.5L112.9 92.5C112.4 93 111.7 93.2 111 93C110.3 92.8 109.8 92.3 109.6 91.6C109.4 90.9 109.6 90.2 110.1 89.7L112.7 87.1H101.6C100.5 87.1 99.6 86.2 99.6 85.1C99.6 84 100.5 83.1 101.6 83.1ZM54.2999 49.3C54.7 49.7 55.2 49.9 55.7 49.9H55.9C56.5 49.8 57 49.5 57.4 49L65.4 37C65.8 36.4 65.8 35.6 65.5 35C65.2 34.4 64.6 33.9 63.7999 33.9C63.1 33.9 62.4 34.2 62 34.8L55.4 44.7L53.0999 42.4C52.2999 41.6 51.1 41.7 50.2999 42.4C49.5 43.2 49.5 44.4 50.2999 45.2L54.2999 49.3ZM73.7 51.9C73.7 55.2 70.9999 57.9 67.6999 57.9H47.7C44.4 57.9 41.7 55.2 41.7 51.9V31.9C41.7 28.6 44.4 25.9 47.7 25.9H67.6999C70.9999 25.9 73.7 28.6 73.7 31.9V51.9ZM45.7 31.9V51.9C45.7 53 46.6 53.9 47.7 53.9H67.6999C68.7999 53.9 69.7 53 69.7 51.9V31.9C69.7 30.8 68.7999 29.9 67.6999 29.9H47.7C46.6 29.9 45.7 30.8 45.7 31.9Z" fill="#7661D6"/>
</svg>
