<svg width="120" height="120" viewBox="0 0 120 120" fill="none" xmlns="http://www.w3.org/2000/svg">
<g clip-path="url(#clip0)">
<path d="M108.116 101.764C114.016 98.2992 117.054 91.4616 115.67 84.761C114.287 78.0602 108.79 72.9846 102 72.139V70.0001C102 68.8955 101.105 68.0002 100 68.0002C98.8955 68.0002 98.0002 68.8955 98.0002 70.0001V72.139C91.1905 72.9877 85.6833 78.0905 84.3191 84.8161C82.9548 91.5415 86.038 98.3869 91.9787 101.822C87.7416 103.691 84.2272 106.887 81.965 110.927C78.9029 105.84 74.2475 101.906 68.7209 99.7341C75.8998 95.7581 79.4809 87.4296 77.4275 79.4841C75.3741 71.5385 68.2065 65.9878 60.0001 65.9878C51.7937 65.9878 44.626 71.5385 42.5727 79.4841C40.5193 87.4296 44.1001 95.7581 51.2792 99.7341C45.7527 101.906 41.0973 105.84 38.0352 110.927C35.773 106.887 32.2585 103.691 28.0215 101.822C33.9622 98.3869 37.0454 91.5415 35.6811 84.8161C34.3168 78.0907 28.8097 72.9879 21.9999 72.139V70.0001C21.9999 68.8955 21.1044 68.0002 20 68.0002C18.8956 68.0002 18.0001 68.8955 18.0001 70.0001V72.139C11.2105 72.9844 5.71319 78.0602 4.32991 84.761C2.94663 91.4618 5.98437 98.2995 11.8841 101.764C6.04812 104.174 1.67819 109.179 0.0771779 115.286C-0.153681 116.427 0.142803 117.612 0.883897 118.51C1.65194 119.455 2.80577 120.003 4.02358 120H115.977C117.195 120.002 118.348 119.455 119.116 118.51C119.858 117.612 120.154 116.427 119.923 115.286C118.322 109.179 113.952 104.174 108.116 101.764ZM88.0002 88.0001C88.0002 83.1466 90.9237 78.7709 95.408 76.9134C99.8921 75.056 105.054 76.0828 108.485 79.5148C111.917 82.9467 112.944 88.1081 111.087 92.5922C109.229 97.0763 104.854 100 100 100C93.3758 99.9928 88.0074 94.6245 88.0002 88.0001ZM46.0001 84C46.0001 76.268 52.2683 70.0001 60.0001 70.0001C67.7319 70.0001 74 76.2682 74 84C74 91.7318 67.7321 97.9999 60.0001 97.9999C52.2718 97.9912 46.0088 91.7285 46.0001 84ZM7.99999 88.0001C7.99999 83.1466 10.9236 78.7709 15.4079 76.9134C19.8919 75.056 25.0534 76.0828 28.4853 79.5148C31.9173 82.9467 32.9441 88.1081 31.0866 92.5922C29.2292 97.0763 24.8537 100 20 100C13.3756 99.9928 8.00726 94.6245 7.99999 88.0001ZM3.9971 116.087C5.31241 109.648 12.7257 104 19.8612 104C27.2012 104 34.4178 109.685 35.7167 116.006L3.9971 116.087ZM40.1837 116C41.8098 109.505 50.8126 102 60.0001 102C69.1876 102 78.1904 109.505 79.8165 116H40.1837ZM115.977 116H84.2844C85.5861 109.682 92.8009 104 100.139 104C107.275 104 114.688 109.648 116.019 115.98C116.008 115.991 115.993 115.999 115.977 116Z" fill="#7661D6"/>
<path d="M18.0002 48C18.0002 49.1046 18.8958 49.9999 20.0002 49.9999C21.1045 49.9999 22.0001 49.1044 22.0001 48V42C22.0001 40.8954 21.1045 40.0001 20.0002 40.0001C18.8958 40.0001 18.0002 40.8954 18.0002 42V48Z" fill="#7661D6"/>
<path d="M18.0002 61.9999C18.0002 63.1045 18.8958 63.9998 20.0002 63.9998C21.1045 63.9998 22.0001 63.1045 22.0001 61.9999V55.9999C22.0001 54.8953 21.1045 54 20.0002 54C18.8958 54 18.0002 54.8955 18.0002 55.9999V61.9999Z" fill="#7661D6"/>
<path d="M102 42C102 40.8954 101.105 40.0001 100 40.0001C98.8956 40.0001 98.0002 40.8956 98.0002 42V48C98.0002 49.1046 98.8958 49.9999 100 49.9999C101.105 49.9999 102 49.1044 102 48V42Z" fill="#7661D6"/>
<path d="M100 54C98.8956 54 98.0002 54.8955 98.0002 55.9999V61.9999C98.0002 63.1045 98.8958 63.9998 100 63.9998C101.105 63.9998 102 63.1045 102 61.9999V55.9999C102 54.8955 101.105 54 100 54Z" fill="#7661D6"/>
<path d="M60.0002 0C58.8956 0 58.0003 0.895547 58.0003 1.99992V4.10133C45.2379 5.09977 35.1002 15.2377 34.1016 28.0001H22.0003C19.792 28.0022 18.0026 29.7919 18.0002 32.0002V34.0001C18.0002 35.1047 18.8958 36 20.0002 36C21.1045 36 22.0001 35.1045 22.0001 34.0001V32.0002H34.1013C35.0998 44.7626 45.2377 54.9002 58.0001 55.8989V60C58.0001 61.1046 58.8956 61.9999 60 61.9999C61.1044 61.9999 61.9999 61.1044 61.9999 60V55.8987C74.7624 54.9002 84.9 44.7623 85.8987 31.9999H97.9999V33.9998C97.9999 35.1045 98.8955 35.9998 99.9998 35.9998C101.104 35.9998 102 35.1042 102 33.9998V31.9999C101.998 29.7916 100.208 28.0022 97.9997 27.9998H85.8984C84.9 15.2374 74.7621 5.09977 61.9997 4.10109V1.99992C62.0002 0.895547 61.1049 0 60.0002 0ZM58.0003 31.9999V39.7978C54.0769 38.989 51.0113 35.9234 50.2024 31.9999H58.0003ZM50.2024 28.0001C51.0113 24.0766 54.0769 21.011 58.0003 20.2022V28.0001H50.2024ZM62.0002 31.9999H69.7981C68.9892 35.9234 65.9236 38.989 62.0002 39.7978V31.9999ZM62.0002 28.0001V20.2022C65.9236 21.011 68.9892 24.0766 69.7981 28.0001H62.0002ZM58.0003 8.10141V16.1597C51.8693 17.0536 47.0541 21.8691 46.1599 28.0001H38.1016C39.0792 17.4417 47.442 9.07899 58.0003 8.10141ZM38.1016 31.9999H46.1599C47.0538 38.1309 51.8693 42.9462 58.0003 43.8403V51.8986C47.442 50.921 39.0792 42.5583 38.1016 31.9999ZM62.0002 51.8986V43.8403C68.1312 42.9464 72.9464 38.1309 73.8406 31.9999H81.8988C80.9215 42.5583 72.5585 50.921 62.0002 51.8986ZM81.8988 28.0001H73.8406C72.9467 21.8691 68.1312 17.0538 62.0002 16.1597V8.10141C72.5585 9.07899 80.9215 17.4417 81.8988 28.0001Z" fill="#7661D6"/>
</g>
<defs>
<clipPath id="clip0">
<rect width="120" height="120" fill="white"/>
</clipPath>
</defs>
</svg>
