<svg width="120" height="120" viewBox="0 0 120 120" fill="none" xmlns="http://www.w3.org/2000/svg">
<g clip-path="url(#clip0)">
<path d="M37.6129 94.0385C38.6227 94.3629 39.7052 93.813 40.0389 92.8063L42.0445 85.7035L38.1953 84.6163L36.1895 91.7199C35.9477 92.7524 36.5828 93.7869 37.6129 94.0385Z" fill="#7661D6"/>
<path d="M31.1753 109.477L35.0249 110.564L36.0277 107.012C36.2305 105.986 35.6111 104.976 34.6046 104.692C33.5981 104.408 32.5421 104.944 32.1783 105.925L31.1753 109.477Z" fill="#7661D6"/>
<path d="M38.0335 99.9091C38.1574 99.4283 38.0846 98.9179 37.8311 98.4909L37.6029 98.1961C37.5137 98.0976 37.4124 98.0108 37.3013 97.9377C37.2059 97.8553 37.0992 97.7867 36.9845 97.7341C36.863 97.6781 36.7379 97.6299 36.6101 97.5899C36.1068 97.4519 35.5708 97.4977 35.0981 97.7191C34.8789 97.8369 34.6851 97.9969 34.5279 98.1899C34.0503 98.7741 33.9935 99.5962 34.3863 100.241C34.5274 100.455 34.7067 100.642 34.9153 100.793C35.1229 100.95 35.3574 101.068 35.6073 101.141C36.1106 101.279 36.6465 101.233 37.1191 101.012C37.5584 100.781 37.8874 100.384 38.0335 99.9091Z" fill="#7661D6"/>
<path d="M54.2647 120.005C53.2685 120.005 52.3094 119.627 51.5811 118.947L44.7951 112.78L35.7752 114.484C34.4153 114.743 33.018 114.281 32.0811 113.262C31.1442 112.243 30.801 110.812 31.1736 109.478C31.4723 108.415 32.5768 107.795 33.6404 108.094C34.7039 108.392 35.3239 109.497 35.0252 110.56L35.0232 110.566L44.0448 108.835C45.3 108.594 46.5944 108.973 47.5211 109.853L54.2853 116L59.6153 97.0957C59.8097 96.4081 60.3561 95.8763 61.0488 95.7007C61.7415 95.5252 62.4752 95.7325 62.9736 96.2447C63.472 96.7568 63.6593 97.4959 63.4649 98.1835L58.1249 117.084C57.7552 118.426 56.7079 119.477 55.3661 119.85C55.0079 119.952 54.6373 120.004 54.2647 120.005Z" fill="#7661D6"/>
<path d="M60.0002 92.0156C57.6502 92.0165 55.3592 91.2805 53.4494 89.9112L50.9494 88.1172C49.4798 87.0703 47.6723 86.6099 45.881 86.8262L42.7884 87.1836C38.031 87.7568 33.4422 85.215 31.4046 80.878L30.173 78.1298C29.4505 76.5446 28.1433 75.3 26.5246 74.6562L23.6468 73.4776C19.2119 71.7171 16.5058 67.2041 17.0422 62.4628L17.4172 59.5068C17.6273 57.8299 17.1513 56.1393 16.0972 54.8184L14.2212 52.4288C11.272 48.686 11.272 43.4098 14.2212 39.667L16.0972 37.2774C17.1514 35.9561 17.6274 34.265 17.4172 32.5878L17.0422 29.6338C16.5055 24.8925 19.211 20.3792 23.6458 18.6182L26.5226 17.44C28.1416 16.7958 29.4492 15.5509 30.172 13.9654L31.4036 11.2174C33.4377 6.87718 38.0291 4.33398 42.7874 4.91178L45.88 5.26918C47.6711 5.48527 49.4784 5.02449 50.9474 3.97718L53.4494 2.18418C57.3653 -0.623406 62.635 -0.623406 66.551 2.18418L69.052 3.97618C70.522 5.0222 72.3289 5.48317 74.1204 5.26918L77.213 4.91178C81.9704 4.33855 86.5592 6.88036 88.5968 11.2174L89.8284 13.9664C90.551 15.5515 91.8582 16.796 93.4768 17.44L96.3538 18.6188C100.789 20.3791 103.495 24.8929 102.957 29.6344L102.584 32.5876C102.373 34.2649 102.849 35.9563 103.903 37.278L105.78 39.668C108.728 43.4107 108.728 48.6853 105.78 52.428L103.905 54.8176C102.85 56.1381 102.374 57.8291 102.585 59.506V59.508L102.958 62.463C103.496 67.2042 100.79 71.7176 96.3548 73.4778L93.4788 74.6554C91.8597 75.2996 90.5522 76.5445 89.8294 78.13L88.5978 80.8772C86.5575 85.2118 81.9708 87.7528 77.214 87.1838L74.1202 86.8262C72.3287 86.6091 70.5208 87.07 69.0518 88.1182L66.5508 89.9102C64.6414 91.2802 62.3502 92.0166 60.0002 92.0156ZM46.7424 82.7756C49.0861 82.771 51.3722 83.5019 53.2786 84.8654L55.7786 86.6594C58.3108 88.4395 61.6877 88.4398 64.2202 86.66L66.7202 84.868C68.9967 83.2385 71.8006 82.52 74.5802 82.8536L77.6728 83.211C80.6996 83.5933 83.631 81.9936 84.9472 79.2412L86.1788 76.4942C87.32 73.97 89.3927 71.9846 91.9638 70.9532L94.8388 69.7764C97.6004 68.7027 99.3008 65.9124 98.9892 62.9658L98.6162 60.0088C98.268 57.2706 99.0406 54.5079 100.759 52.3476L102.632 49.959C104.468 47.6748 104.468 44.421 102.632 42.1368L100.757 39.747C99.0401 37.5853 98.2685 34.8223 98.6168 32.084L98.9898 29.1318C99.3015 26.1845 97.6004 23.3936 94.838 22.32L91.9622 21.1422C89.3921 20.1107 87.3198 18.1262 86.178 15.6032L84.9464 12.8542C83.6314 10.1007 80.699 8.50081 77.672 8.88538L74.5802 9.24218C71.8005 9.57602 68.9966 8.85734 66.7202 7.22758L64.2202 5.43658C61.6882 3.65521 58.3105 3.65521 55.7786 5.43658L53.2786 7.22858C51.0016 8.85576 48.1991 9.57387 45.4202 9.24218L42.3276 8.88478C39.3 8.49841 36.3664 10.0992 35.0532 12.8544L33.8216 15.6026C32.6795 18.1259 30.6069 20.1107 28.0366 21.1426L25.1606 22.3194C22.3991 23.3938 20.6989 26.1841 21.0102 29.1308L21.3852 32.085C21.7328 34.8234 20.961 37.5863 19.2444 39.748L17.3684 42.1376C15.5324 44.4215 15.5324 47.6751 17.3684 49.959L19.2444 52.3476C20.9611 54.509 21.7332 57.2715 21.386 60.0098L21.011 62.9658C20.6999 65.9123 22.4001 68.7022 25.1614 69.7764L28.0382 70.9542C30.6089 71.9853 32.6814 73.9703 33.8224 76.4942L35.054 79.2422C36.3732 81.9917 39.3023 83.5901 42.3284 83.212L45.421 82.8546C45.8595 82.8028 46.3008 82.7767 46.7424 82.7764V82.7756Z" fill="#7661D6"/>
<path d="M60 76.0958C43.4315 76.0958 30 62.6643 30 46.0958C30 29.5272 43.4315 16.0958 60 16.0958C76.5685 16.0958 90 29.5272 90 46.0958C89.9812 62.6565 76.5607 76.0769 60 76.0958ZM60 20.0958C45.6406 20.0958 34 31.7364 34 46.0958C34 60.4552 45.6406 72.0958 60 72.0958C74.3594 72.0958 86 60.4552 86 46.0958C85.9841 31.7429 74.3528 20.1116 60 20.0958Z" fill="#7661D6"/>
<path d="M75.1147 113.998C73.9726 113.997 72.8855 113.507 72.1285 112.652L49.7205 87.2636C48.9897 86.4352 49.0688 85.1712 49.8973 84.4404C50.7257 83.7097 51.9897 83.7888 52.7205 84.6172L75.1205 109.996L78.5677 101.49C79.0456 100.33 80.0348 99.4571 81.2455 99.127L90.1273 96.767L80.5405 85.9034C79.8096 85.075 79.8887 83.811 80.7171 83.0801C81.5456 82.3493 82.8096 82.4284 83.5405 83.2568L93.1205 94.1168C94.0336 95.1568 94.3458 96.5941 93.9463 97.9192C93.5468 99.2442 92.4922 100.269 91.1565 100.631L82.2737 102.991L78.8337 111.489C78.2206 113.005 76.7489 113.998 75.1137 113.997L75.1147 113.998Z" fill="#7661D6"/>
</g>
<defs>
<clipPath id="clip0">
<rect width="120" height="120" fill="white"/>
</clipPath>
</defs>
</svg>
