<svg width="120" height="120" viewBox="0 0 120 120" fill="none" xmlns="http://www.w3.org/2000/svg">
<g clip-path="url(#clip0)">
<path d="M4.03993 88C2.93536 88.0055 2.03546 87.1146 2.02993 86.01C2.02441 84.9054 2.91536 84.0055 4.01993 84H4.03993C5.1445 84 6.03993 84.8954 6.03993 86C6.03993 87.1046 5.1445 88 4.03993 88Z" fill="#7661D6"/>
<path d="M12 92C13.1046 92 14 91.1046 14 90V86C14 84.8954 13.1046 84 12 84C10.8954 84 10 84.8954 10 86V90C10 91.1046 10.8954 92 12 92Z" fill="#7661D6"/>
<path d="M20 92C21.1046 92 22 91.1046 22 90V86C22 84.8954 21.1046 84 20 84C18.8954 84 18 84.8954 18 86V90C18 91.1046 18.8954 92 20 92Z" fill="#7661D6"/>
<path d="M10 102C10 103.105 10.8954 104 12 104C13.1046 104 14 103.105 14 102V98C14 96.8955 13.1046 96 12 96C10.8954 96 10 96.8955 10 98V102Z" fill="#7661D6"/>
<path d="M18 102C18 103.105 18.8954 104 20 104C21.1046 104 22 103.105 22 102V98C22 96.8955 21.1046 96 20 96C18.8954 96 18 96.8955 18 98V102Z" fill="#7661D6"/>
<path d="M100 92C101.105 92 102 91.1046 102 90V86C102 84.8954 101.105 84 100 84C98.8954 84 98 84.8954 98 86V90C98 91.1046 98.8954 92 100 92Z" fill="#7661D6"/>
<path d="M108 92C109.105 92 110 91.1046 110 90V86C110 84.8954 109.105 84 108 84C106.895 84 106 84.8954 106 86V90C106 91.1046 106.895 92 108 92Z" fill="#7661D6"/>
<path d="M100 104C101.105 104 102 103.105 102 102V98C102 96.8955 101.105 96 100 96C98.8954 96 98 96.8955 98 98V102C98 103.105 98.8954 104 100 104Z" fill="#7661D6"/>
<path d="M108 104C109.105 104 110 103.105 110 102V98C110 96.8955 109.105 96 108 96C106.895 96 106 96.8955 106 98V102C106 103.105 106.895 104 108 104Z" fill="#7661D6"/>
<path d="M118 108.556V78C118 75.7909 116.209 74 114 74H92V72C92 68.6863 89.3137 66 86 66H83.916C82.9219 54.3348 73.6658 45.0837 62 44.096V26C62 24.8954 61.1046 24 60 24C58.8954 24 58 24.8954 58 26V26.614L46 31.108C44.7939 31.5595 43.9946 32.7121 43.9946 34C43.9946 35.2879 44.7939 36.4405 46 36.892L58 41.386V44.096C46.3342 45.0837 37.0781 54.3348 36.084 66H34C30.6863 66 28 68.6863 28 72V74H6C3.79086 74 2 75.7909 2 78C2 79.1046 2.89543 80 4 80C5.10457 80 6 79.1046 6 78H35.926L28.554 83.168C26.9546 84.2926 26.0019 86.1248 26 88.08V108H6V94C6 92.8954 5.10457 92 4 92C2.89543 92 2 92.8954 2 94V108.556C0.766497 109.265 0.00429 110.577 0 112V116C0 118.209 1.79086 120 4 120H116C118.209 120 120 118.209 120 116V112C119.996 110.577 119.234 109.265 118 108.556ZM114 108H94V88.08C93.9996 86.1239 93.0458 84.2908 91.444 83.168L84.072 78H114V108ZM49.688 34L58 30.886V37.114L49.688 34ZM32 74V72C32 70.8954 32.8954 70 34 70H42C43.1046 70 44 69.1046 44 68C44 66.8954 43.1046 66 42 66H40.102C41.1279 55.7792 49.7298 47.9975 60.002 47.9975C70.2742 47.9975 78.8761 55.7792 79.902 66H78C76.8954 66 76 66.8954 76 68C76 69.1046 76.8954 70 78 70H86C87.1046 70 88 70.8954 88 72V74H78.368L62.282 62.722C60.9099 61.7689 59.0901 61.7689 57.718 62.722L41.632 74H32ZM30 88.08C29.9999 87.4277 30.3179 86.8164 30.852 86.442L59.984 66L89.146 86.442C89.6809 86.816 89.9996 87.4274 90 88.08V108H84V92C84 88.6863 81.3137 86 78 86C74.6863 86 72 88.6863 72 92V108H66V88C66 84.6863 63.3137 82 60 82C56.6863 82 54 84.6863 54 88V108H48V92C48 88.6863 45.3137 86 42 86C38.6863 86 36 88.6863 36 92V108H30V88.08ZM80 108H76V92C76 90.8954 76.8954 90 78 90C79.1046 90 80 90.8954 80 92V108ZM62 108H58V88C58 86.8954 58.8954 86 60 86C61.1046 86 62 86.8954 62 88V108ZM44 108H40V92C40 90.8954 40.8954 90 42 90C43.1046 90 44 90.8954 44 92V108ZM4 116V112H116V116H4Z" fill="#7661D6"/>
<path d="M100 39.84C89.0091 39.7959 80.1307 30.8578 80.1602 19.8668C80.1898 8.8758 89.1157 -0.0145135 100.107 1.77882e-05C111.098 0.0147834 120 8.92877 120 19.9198C119.966 30.9385 111.018 39.8499 100 39.84ZM100 4.0001C91.218 4.04416 84.1305 11.1912 84.1598 19.9732C84.1891 28.7552 91.3244 35.8547 100.106 35.8402C108.889 35.8256 116 28.7023 116 19.9202C115.968 11.1099 108.81 3.98838 100 4.0001Z" fill="#7661D6"/>
<path d="M96.7275 27.651C96.1969 27.6517 95.6881 27.4408 95.3136 27.0651L92.04 23.7918C91.2591 23.0109 91.2591 21.7445 92.04 20.9636C92.821 20.1827 94.0873 20.1827 94.8683 20.9636L96.7275 22.8229L105.132 14.4187C105.914 13.6443 107.175 13.6476 107.953 14.4257C108.731 15.2038 108.734 16.4645 107.96 17.2466L98.1418 27.0651C97.767 27.4408 97.2582 27.6517 96.7275 27.651Z" fill="#7661D6"/>
</g>
<defs>
<clipPath id="clip0">
<rect width="120" height="120" fill="white"/>
</clipPath>
</defs>
</svg>
