<svg width="120" height="120" viewBox="0 0 120 120" fill="none" xmlns="http://www.w3.org/2000/svg">
<g clip-path="url(#clip0)">
<path fill-rule="evenodd" clip-rule="evenodd" d="M32.8734 116C32.4779 116.453 32.3028 117.066 32.4117 117.669C32.5416 118.39 33.0551 118.982 33.7497 119.212C35.1152 119.73 36.564 119.997 38.0247 120H100.004C106.626 119.993 111.993 114.626 112 108.004V26.0314C112 26.0095 111.994 25.9891 111.988 25.9686C111.982 25.9497 111.977 25.9308 111.976 25.9106C111.964 25.7294 111.928 25.5509 111.868 25.3789C111.85 25.3157 111.828 25.2526 111.802 25.1912C111.708 24.9826 111.579 24.7904 111.42 24.6256V24.6156L87.4277 0.623831C87.2584 0.463666 87.0634 0.333704 86.8502 0.239436C86.7852 0.212895 86.7184 0.189099 86.6507 0.169879C86.4841 0.11222 86.3102 0.0774413 86.1345 0.0655432C86.1148 0.064687 86.0961 0.0590244 86.077 0.0532394C86.0553 0.0466574 86.033 0.039917 86.0082 0.039917H65.0001V4.03854H84.0093V22.0319C84.0093 25.345 86.6946 28.0303 90.0068 28.0303H108.001V108.004C108.001 112.42 104.421 116.002 100.004 116.002H38.0247C37.9776 116.002 37.9304 116.001 37.8833 116H32.8734ZM88.0079 22.0319C88.0079 23.1365 88.903 24.0316 90.0068 24.0316H105.174L88.0079 6.86567V22.0319Z" fill="#7661D6"/>
<path fill-rule="evenodd" clip-rule="evenodd" d="M73 0H43C41.8954 0 41 0.89543 41 2C41 3.10457 41.8954 4 43 4H73V0ZM30 116H41V120H30C24.4799 119.993 20.0066 115.52 20 110C20 108.895 20.8954 108 22 108C23.1046 108 24 108.895 24 110C24 113.314 26.6863 116 30 116Z" fill="#7661D6"/>
<path d="M51 44H96C97.1046 44 98 43.1046 98 42C98 40.8954 97.1046 40 96 40H51C49.8954 40 49 40.8954 49 42C49 43.1046 49.8954 44 51 44Z" fill="#7661D6"/>
<path d="M45 52H96C97.1046 52 98 51.1046 98 50C98 48.8954 97.1046 48 96 48H45C43.8954 48 43 48.8954 43 50C43 51.1046 43.8954 52 45 52Z" fill="#7661D6"/>
<path d="M36 60H68C69.1046 60 70 59.1046 70 58C70 56.8954 69.1046 56 68 56H36C34.8954 56 34 56.8954 34 58C34 59.1046 34.8954 60 36 60Z" fill="#7661D6"/>
<path d="M36 68H60C61.1046 68 62 67.1046 62 66C62 64.8954 61.1046 64 60 64H36C34.8954 64 34 64.8954 34 66C34 67.1046 34.8954 68 36 68Z" fill="#7661D6"/>
<path d="M82 86C86.4183 86 90 82.4183 90 78C90 73.5817 86.4183 70 82 70C77.5817 70 74 73.5817 74 78C74 82.4183 77.5817 86 82 86ZM82 74C84.2091 74 86 75.7909 86 78C86 80.2091 84.2091 82 82 82C79.7909 82 78 80.2091 78 78C78 75.7909 79.7909 74 82 74Z" fill="#7661D6"/>
<path d="M75.056 109.764C75.7067 110.112 76.4962 110.074 77.11 109.664L82 106.4L86.89 109.66C87.5031 110.069 88.2915 110.108 88.9418 109.761C89.592 109.414 89.9986 108.737 90 108V92.2C91.7073 92.3327 93.4003 91.8035 94.728 90.722C95.8162 89.3815 96.3456 87.673 96.206 85.952C96.1908 85.286 96.271 84.6213 96.444 83.978C96.7657 83.4386 97.1601 82.946 97.616 82.514C98.9684 81.3774 99.8238 79.7578 100 78C99.8253 76.2401 98.9698 74.6181 97.616 73.48C97.1601 73.048 96.7657 72.5554 96.444 72.016C96.2706 71.3728 96.1912 70.7079 96.208 70.042C96.346 68.3209 95.816 66.6127 94.728 65.272C93.3875 64.1838 91.679 63.6544 89.958 63.794C89.292 63.8092 88.6273 63.729 87.984 63.556C87.4446 63.2343 86.952 62.8399 86.52 62.384C85.3819 61.0302 83.7599 60.1747 82 60C80.2401 60.1747 78.6181 61.0302 77.48 62.384C77.048 62.8399 76.5554 63.2343 76.016 63.556C75.3728 63.7294 74.7079 63.8088 74.042 63.792C72.3209 63.654 70.6127 64.184 69.272 65.272C68.1838 66.6125 67.6544 68.321 67.794 70.042C67.8092 70.708 67.729 71.3727 67.556 72.016C67.2343 72.5554 66.8399 73.048 66.384 73.48C65.0302 74.6181 64.1747 76.2401 64 78C64.1747 79.7599 65.0302 81.3819 66.384 82.52C66.8399 82.952 67.2343 83.4446 67.556 83.984C67.7294 84.6272 67.8088 85.2921 67.792 85.958C67.654 87.6791 68.184 89.3873 69.272 90.728C70.6001 91.8083 72.2934 92.3355 74 92.2V108C73.9997 108.738 74.4056 109.416 75.056 109.764ZM83.11 102.336C82.4379 101.888 81.5621 101.888 80.89 102.336L78 104.262V94.094C79.042 95.2154 80.4726 95.8971 82 96C83.5274 95.8971 84.958 95.2154 86 94.094V104.262L83.11 102.336ZM71.8 85.8C71.8208 84.659 71.6387 83.5233 71.262 82.446C70.7764 81.4492 70.1167 80.547 69.314 79.782C68.784 79.23 68 78.4 68 78C68 77.6 68.784 76.77 69.304 76.214C70.1067 75.449 70.7664 74.5469 71.252 73.55C71.6306 72.4743 71.8161 71.3402 71.8 70.2C71.7617 69.4876 71.8671 68.7748 72.11 68.104C72.7797 67.8654 73.4901 67.7621 74.2 67.8C75.341 67.8208 76.4767 67.6387 77.554 67.262C78.5509 66.7764 79.453 66.1167 80.218 65.314C80.774 64.794 81.618 64.01 82.004 64.01C82.39 64.01 83.234 64.794 83.79 65.314C84.555 66.1167 85.4571 66.7764 86.454 67.262C87.5314 67.6383 88.6669 67.8211 89.808 67.802C90.5204 67.7637 91.2332 67.8691 91.904 68.112C92.1451 68.7825 92.2505 69.4944 92.214 70.206C92.1932 71.3471 92.3753 72.4827 92.752 73.56C93.2376 74.5569 93.8973 75.459 94.7 76.224C95.22 76.78 96.004 77.624 96.004 78.01C96.004 78.396 95.22 79.24 94.7 79.796C93.8973 80.561 93.2376 81.4632 92.752 82.46C92.3732 83.5323 92.1864 84.6629 92.2 85.8C92.2383 86.5124 92.1329 87.2252 91.89 87.896C91.2195 88.1372 90.5076 88.2425 89.796 88.206C88.655 88.1852 87.5193 88.3674 86.442 88.744C85.4451 89.2296 84.543 89.8893 83.778 90.692C83.222 91.212 82.378 91.996 81.992 91.996C81.606 91.996 80.762 91.212 80.206 90.692C79.441 89.8893 78.5389 89.2296 77.542 88.744C76.4686 88.3677 75.3373 88.1836 74.2 88.2C73.4876 88.2383 72.7748 88.1329 72.104 87.89C71.8654 87.2203 71.7621 86.5099 71.8 85.8Z" fill="#7661D6"/>
<path d="M60 94C55.79 94 54.424 91.488 53.22 89.272C52.454 87.86 51.66 86.4 49.944 86.322C48.344 86.254 47.21 87.578 46.344 88.89C46.234 89.054 46.132 89.206 46.034 89.344C46.01 88.968 46 88.526 46 88C46 84.736 43.914 80.94 41.224 80.94C40.254 80.94 38 81.434 38 86C37.9155 89.1811 36.7042 92.2288 34.582 94.6C33.8251 95.3858 33.8377 96.6333 34.6102 97.4037C35.3828 98.1741 36.6303 98.1831 37.414 97.424C39.9823 94.6372 41.5725 91.0895 41.944 87.318C41.9804 87.5435 41.9991 87.7716 42 88C42 90.976 42.188 93.94 44.444 94.622C46.844 95.352 48.746 92.484 49.664 91.11L49.704 91.184C51.4092 95.3559 55.4934 98.0597 60 98C61.1046 98 62 97.1046 62 96C62 94.8954 61.1046 94 60 94Z" fill="#7661D6"/>
<path d="M22 104C23.1046 104 24 103.105 24 102C24 100.895 23.1046 100 22 100C20.8954 100 20 100.895 20 102C20 103.105 20.8954 104 22 104Z" fill="#7661D6"/>
<path d="M24 70V64C24 62.8954 23.1046 62 22 62C20.8954 62 20 62.8954 20 64V94C20 95.1046 20.8954 96 22 96C23.1046 96 24 95.1046 24 94V70Z" fill="#7661D6"/>
<path d="M22.0001 56.0032C20.9977 56.0043 20.0262 55.6568 19.2521 55.0197L12.6621 49.5939C4.72667 43.2271 0.076673 33.6278 3.23942e-05 23.4543V12.8587C-0.00606136 11.3402 0.847999 9.94916 2.20503 9.26783L19.3095 0.636974C21.0021 -0.211932 22.9962 -0.212404 24.6893 0.636034L41.7957 9.26877C43.1522 9.94987 44.006 11.3406 43.9997 12.8587V23.4543C43.9226 33.6295 39.2712 43.2299 31.3336 49.597L24.7493 55.0197C23.9747 55.6565 23.0028 56.0041 22.0001 56.0032ZM22.0001 3.99721C21.6914 3.99697 21.387 4.06916 21.1114 4.20814L4.00691 12.839L4.00011 23.4543C4.07956 32.4304 8.19284 40.8944 15.2014 46.5032L21.7941 51.9321C21.9139 52.0317 22.0875 52.0317 22.2071 51.9321L28.7949 46.5063C35.8053 40.8974 39.9202 32.4323 39.9999 23.4546V12.8589L39.9931 12.8395L22.8879 4.20721C22.6125 4.06892 22.3083 3.99697 22.0001 3.99721Z" fill="#7661D6"/>
<path d="M21.9999 39.9963C14.2679 39.9963 8 33.7281 8 25.9963C8 18.2646 14.2681 11.9964 21.9999 11.9964C29.7317 11.9964 35.9998 18.2643 35.9998 25.9963C35.9914 33.7246 29.7284 39.9876 21.9999 39.9963ZM21.9999 15.9963C16.4771 15.9963 11.9998 20.4735 11.9998 25.9963C11.9998 31.5192 16.4771 35.9964 21.9999 35.9964C27.5227 35.9964 32 31.5192 32 25.9963C31.9934 20.4761 27.5201 16.0028 21.9999 15.9963Z" fill="#7661D6"/>
<path d="M20.0001 31.9964C19.4694 31.9971 18.9606 31.7861 18.5861 31.4104L16.5862 29.4105C15.8172 28.6274 15.823 27.3712 16.5988 26.5952C17.3748 25.8192 18.6311 25.8135 19.4141 26.5825L20.0001 27.1685L24.5861 22.5824C25.3691 21.8135 26.6254 21.8193 27.4014 22.5951C28.1774 23.3711 28.183 24.6274 27.4141 25.4104L21.4141 31.4104C21.0395 31.7859 20.5307 31.9968 20.0001 31.9964Z" fill="#7661D6"/>
</g>
<defs>
<clipPath id="clip0">
<rect width="120" height="120" fill="white"/>
</clipPath>
</defs>
</svg>
