<svg width="120" height="120" viewBox="0 0 120 120" fill="none" xmlns="http://www.w3.org/2000/svg">
<g clip-path="url(#clip0)">
<path fill-rule="evenodd" clip-rule="evenodd" d="M85.6899 0H9.99993C4.47983 0.00661224 0.00653839 4.47989 -7.62939e-05 10V90C3.8147e-05 90.5304 0.210823 91.039 0.585922 91.414L24.5859 115.414C24.9609 115.789 25.4695 116 25.9999 116H77.9999C79.1045 116 79.9999 115.105 79.9999 114C79.9999 112.895 79.1045 112 77.9999 112H27.9999V98C27.9933 92.4799 23.52 88.0066 17.9999 88H3.99992V10C3.99992 6.68629 6.68623 4 9.99993 4H85.6899C89.0037 4 91.6899 6.68629 91.6899 10V47C91.6899 48.1046 92.5854 49 93.69 49C94.7946 49 95.6899 48.1046 95.6899 47V10C95.6833 4.47989 91.21 0.00661224 85.6899 0ZM6.82793 92H17.9999C21.3136 92 23.9999 94.6863 23.9999 98V109.172L6.82793 92ZM15.358 18.064C15.3795 18.614 15.3264 19.1643 15.2 19.7C14.9225 20.1346 14.5904 20.5318 14.212 20.882C12.9499 21.9005 12.1523 23.3853 12 25C12.1524 26.6116 12.9475 28.0938 14.206 29.112C14.5887 29.4615 14.9247 29.8587 15.206 30.294C15.3324 30.8297 15.3855 31.38 15.364 31.93C15.2063 33.5069 15.6819 35.0819 16.686 36.308C17.9112 37.3136 19.4871 37.7887 21.064 37.628C21.6141 37.6069 22.1644 37.6608 22.7 37.788C23.1347 38.0692 23.5313 38.4053 23.88 38.788C24.8997 40.0497 26.385 40.8471 28 41C29.612 40.847 31.0946 40.052 32.114 38.794C32.4629 38.4107 32.8602 38.0746 33.296 37.794C33.8308 37.6665 34.3806 37.6127 34.93 37.634C36.5072 37.7942 38.083 37.3183 39.308 36.312C40.3122 35.0867 40.7878 33.5123 40.63 31.936C40.6085 31.386 40.6616 30.8357 40.788 30.3C41.0692 29.8647 41.4053 29.4675 41.788 29.118C43.0501 28.0995 43.8477 26.6146 44 25C43.8476 23.3884 43.0524 21.9062 41.794 20.888C41.4113 20.5385 41.0752 20.1413 40.794 19.706C40.6676 19.1703 40.6145 18.62 40.636 18.07C40.7937 16.4931 40.3181 14.9181 39.314 13.692C38.0887 12.6864 36.5129 12.2113 34.936 12.372C34.3859 12.393 33.8356 12.3392 33.3 12.212C32.8653 11.9308 32.4687 11.5947 32.12 11.212C31.1003 9.95032 29.615 9.15291 28 9C26.3837 9.14983 24.8962 9.94515 23.874 11.206C23.5251 11.5892 23.1277 11.9254 22.692 12.206C22.1572 12.3335 21.6074 12.3873 21.058 12.366C19.4808 12.2058 17.9049 12.6817 16.68 13.688C15.6758 14.9133 15.2002 16.4877 15.358 18.064ZM18.894 28.77C18.4482 27.8493 17.8312 27.0219 17.076 26.332H17.082C16.6553 25.9459 16.2904 25.4967 16 25C16.2874 24.504 16.6489 24.0548 17.072 23.668C17.8272 22.9781 18.4442 22.1507 18.89 21.23C19.2358 20.24 19.3932 19.194 19.354 18.146C19.3288 17.5885 19.3868 17.0304 19.526 16.49C20.0574 16.3913 20.5977 16.3491 21.138 16.364C22.1859 16.4032 23.232 16.2458 24.222 15.9C25.1405 15.4535 25.9664 14.8373 26.656 14.084C27.0424 13.6523 27.4963 13.2862 28 13C28.4975 13.2942 28.9473 13.6624 29.334 14.092C30.0233 14.8448 30.8484 15.4609 31.766 15.908C32.7574 16.2536 33.8047 16.411 34.854 16.372C35.4123 16.3462 35.9712 16.4049 36.512 16.546C36.6083 17.0736 36.6499 17.6098 36.636 18.146C36.5968 19.194 36.7542 20.24 37.1 21.23C37.5458 22.1507 38.1628 22.9781 38.918 23.668C39.3489 24.0538 39.7144 24.507 40 25.01C39.7055 25.5002 39.3387 25.9432 38.912 26.324C38.1568 27.0139 37.5398 27.8413 37.094 28.762C36.7482 29.752 36.5908 30.798 36.63 31.846C36.6541 32.4034 36.5962 32.9614 36.458 33.502C35.9267 33.6017 35.3863 33.6439 34.846 33.628C33.798 33.5888 32.752 33.7462 31.762 34.092C30.8435 34.5385 30.0176 35.1547 29.328 35.908C28.9416 36.3397 28.4877 36.7058 27.984 36.992C27.4906 36.6994 27.0442 36.3339 26.66 35.908C25.9707 35.1551 25.1456 34.5391 24.228 34.092C23.2365 33.7464 22.1892 33.589 21.14 33.628C20.5817 33.6548 20.0226 33.5961 19.482 33.454C19.3847 32.9265 19.3431 32.3902 19.358 31.854C19.3972 30.806 19.2398 29.76 18.894 28.77ZM14.032 51H22.032C23.1366 51 24.032 50.1046 24.032 49C24.032 47.8954 23.1366 47 22.032 47H14.032C12.9274 47 12.032 47.8954 12.032 49C12.032 50.1046 12.9274 51 14.032 51ZM38.031 104H60.0311C61.1356 104 62.0311 103.105 62.0311 102C62.0311 100.896 61.1356 100 60.0311 100H38.031C36.9264 100 36.031 100.896 36.031 102C36.031 103.105 36.9264 104 38.031 104ZM52.0325 51H32.0325C30.9279 51 30.0325 50.1046 30.0325 49C30.0325 47.8954 30.9279 47 32.0325 47H52.0325C53.137 47 54.0325 47.8954 54.0325 49C54.0325 50.1046 53.137 51 52.0325 51ZM14.032 80.9999H22.032C23.1366 80.9999 24.032 80.1045 24.032 78.9999C24.032 77.8954 23.1366 77 22.032 77H14.032C12.9274 77 12.032 77.8954 12.032 78.9999C12.032 80.1045 12.9274 80.9999 14.032 80.9999ZM44.0325 80.9999H32.0325C30.9279 80.9999 30.0325 80.1045 30.0325 78.9999C30.0325 77.8954 30.9279 77 32.0325 77H44.0325C45.1371 77 46.0325 77.8954 46.0325 78.9999C46.0325 80.1045 45.1371 80.9999 44.0325 80.9999ZM14.032 61H62.0318C63.1364 61 64.0318 60.1046 64.0318 59C64.0318 57.8954 63.1364 57 62.0318 57H14.032C12.9274 57 12.032 57.8954 12.032 59C12.032 60.1046 12.9274 61 14.032 61ZM62.0318 70.9999H14.032C12.9274 70.9999 12.032 70.1045 12.032 68.9999C12.032 67.8954 12.9274 67 14.032 67H62.0318C63.1364 67 64.0318 67.8954 64.0318 68.9999C64.0318 70.1045 63.1364 70.9999 62.0318 70.9999ZM28 19C31.3137 19 34 21.6863 34 25C34 28.3137 31.3137 31 28 31C24.6863 31 22 28.3137 22 25C22 21.6863 24.6863 19 28 19ZM28 27C29.1046 27 30 26.1046 30 25C30 23.8954 29.1046 23 28 23C26.8954 23 26 23.8954 26 25C26 26.1046 26.8954 27 28 27ZM117.16 110.32L97.6199 119.656C95.13 120.845 92.1471 119.79 90.9584 117.3L88.5308 112.218L86.8455 108.69C86.2483 107.434 86.2046 105.984 86.7255 104.694L85.0745 101.249C85.0345 101.15 84.9648 101.067 84.8755 101.01L75.4981 95.4307C74.7215 94.9694 74.1002 94.2876 73.7132 93.4719L70.5695 86.8765C70.2793 86.2701 70.1258 85.6069 70.1202 84.9344L70.0002 50.511C69.9928 48.928 70.8969 47.4817 72.3246 46.7962C72.3934 46.7608 72.465 46.732 72.5376 46.7078C73.198 46.4307 73.9188 46.3349 74.6285 46.4279C75.0312 45.801 75.5995 45.2969 76.2692 44.9713C76.3343 44.9406 76.4013 44.9146 76.4692 44.8913C77.8578 44.3109 79.4529 44.5314 80.6323 45.4671C80.6395 45.4671 80.6438 45.4747 80.6482 45.4826C80.6512 45.4879 80.6542 45.4934 80.6584 45.4968L88.7485 52.0736C89.5623 52.7814 89.6683 54.0064 88.9884 54.8435C88.3076 55.6797 87.0864 55.8266 86.2279 55.1737L78.1954 48.6443C78.1745 48.6307 78.1519 48.6215 78.1292 48.6124C78.1025 48.6016 78.0759 48.5908 78.0522 48.5727C78.0029 48.5978 77.9517 48.6211 77.8997 48.6406L88.3606 70.3363C91.8011 69.9531 95.0044 72.1445 95.8945 75.4901C96.7846 78.8348 95.0937 82.3283 91.9183 83.7057C88.7429 85.0832 85.0373 83.9308 83.2022 80.9954C81.368 78.06 81.9568 74.2242 84.5872 71.9733L74.0825 50.405L73.9709 50.4552L74.1169 84.9381C74.1225 85.0209 74.1439 85.1018 74.1811 85.1763L77.3202 91.7512C77.3648 91.8535 77.4402 91.9382 77.536 91.9949L86.9078 97.569C87.6872 98.0313 88.3085 98.7187 88.6899 99.5418L89.7493 101.752L108.074 92.9938L107.063 90.8676C106.657 90.0389 106.507 89.1078 106.634 88.1935L108.176 77.4015C108.193 77.2889 108.177 77.1727 108.128 77.0694L104.984 70.501C104.933 70.4108 104.865 70.3308 104.784 70.2666L98.6188 65.2524C98.0654 64.8022 97.7938 64.0897 97.9063 63.3847C98.0198 62.6797 98.5007 62.0881 99.1676 61.8342C99.8344 61.5794 100.587 61.7003 101.141 62.1504L107.337 67.1926V67.2028C107.345 67.2083 107.353 67.2121 107.362 67.2159C107.372 67.2204 107.383 67.225 107.393 67.2326C107.897 67.6595 108.305 68.1869 108.591 68.7821L111.744 75.3766C112.127 76.1914 112.259 77.101 112.125 77.9912L110.592 88.707C110.565 88.8483 110.587 88.9934 110.653 89.1209L112.21 92.393C112.256 92.4059 112.303 92.4156 112.349 92.4252L112.349 92.4253C112.416 92.4392 112.483 92.4531 112.549 92.4767C113.8 92.9138 114.825 93.8337 115.395 95.0308L117.081 98.5624L119.514 103.653C120.7 106.144 119.647 109.125 117.16 110.32ZM86.4278 78.5585C86.9506 79.6533 88.0806 80.3248 89.2916 80.2606C90.5027 80.1964 91.5555 79.4086 91.9592 78.2655C92.3638 77.1224 92.0392 75.8482 91.1379 75.0381C90.2366 74.227 88.9354 74.0391 87.8407 74.5618C87.1208 74.9013 86.5655 75.5143 86.3004 76.2649C86.0353 77.0164 86.0809 77.8423 86.4278 78.5585ZM94.5682 115.578C94.6816 115.818 94.8872 116.003 95.1374 116.091C95.3867 116.181 95.661 116.166 95.8992 116.049L115.435 106.714C115.676 106.6 115.861 106.395 115.95 106.143C116.039 105.892 116.023 105.615 115.907 105.375L114.338 102.091L92.9972 112.284L94.5682 115.578ZM90.4487 106.96L91.2746 108.685L112.609 98.4861L111.782 96.7571C111.667 96.5171 111.463 96.332 111.212 96.2436C111.105 96.2074 110.992 96.1878 110.879 96.1878C110.731 96.1878 110.585 96.2213 110.453 96.2855L90.9231 105.623C90.6822 105.736 90.4961 105.942 90.4078 106.193C90.3185 106.444 90.3334 106.72 90.4487 106.96ZM95.2379 59.9265C95.3188 59.8196 95.3932 59.707 95.4592 59.5908C95.5234 59.4792 95.5699 59.3592 95.5997 59.2346C95.6462 59.1062 95.675 58.9713 95.6871 58.8346V58.4514C95.6081 57.6431 95.0463 56.9632 94.2678 56.7316C93.4893 56.5 92.6484 56.7623 92.1397 57.3957C91.9778 57.6013 91.8569 57.8366 91.7844 58.0877C91.7072 58.3379 91.6765 58.6011 91.6941 58.8634C91.8337 59.9507 92.7982 60.7404 93.8929 60.6613C94.4175 60.5953 94.8984 60.3321 95.2379 59.9265Z" fill="#7661D6"/>
</g>
<defs>
<clipPath id="clip0">
<rect width="120" height="120" fill="white" transform="matrix(-1 0 0 1 120 0)"/>
</clipPath>
</defs>
</svg>
