<svg width="120" height="120" viewBox="0 0 120 120" fill="none" xmlns="http://www.w3.org/2000/svg">
<g clip-path="url(#clip0)">
<path d="M21.6497 31.4932C21.7285 31.5912 21.8227 31.6772 21.928 31.7467C22.0387 31.8218 22.1549 31.8886 22.2757 31.9472C22.7653 32.1522 23.3126 32.1741 23.8169 32.0094C24.0585 31.9179 24.2809 31.7824 24.4731 31.6095C25.0533 31.0805 25.2592 30.2559 24.9965 29.5156C24.9059 29.2721 24.7751 29.0461 24.6085 28.8466C24.4465 28.6434 24.2461 28.4741 24.0191 28.3487C23.546 28.0998 22.9951 28.0467 22.4835 28.1986C21.981 28.3963 21.571 28.7761 21.3358 29.262C21.1061 29.7553 21.0686 30.3163 21.2324 30.8352L21.3999 31.1812C21.4685 31.2965 21.5527 31.4017 21.6497 31.4932Z" fill="#7661D6"/>
<path d="M119.49 44.9637C116.161 19.9739 95.2972 1.02617 70.1025 0.112829C69.3951 0.0689002 68.705 0.046936 68.0141 0.046936C67.8457 0.046936 67.6736 0.046936 67.5162 0.0634093C67.0083 0.0634093 66.5004 0.0789672 65.9787 0.109168H65.8964C58.3059 0.460595 50.8765 2.42639 44.1051 5.87476C37.3576 9.43113 31.4474 14.3877 26.7717 20.4132L25.572 22.109C25.2489 22.5355 25.1171 23.0773 25.2077 23.6044C25.2983 24.1325 25.6031 24.5983 26.0497 24.8939C26.9621 25.4888 28.1784 25.2792 28.8391 24.4134L29.9465 22.8467C33.7811 17.9157 38.5116 13.7535 43.891 10.5797C37.8618 16.6958 33.4306 24.2011 30.9861 32.4349C27.8333 33.7052 24.8664 35.3937 22.1638 37.4547C22.1272 36.6383 21.5973 35.9254 20.8259 35.6554C20.3152 35.4742 19.7524 35.5145 19.2719 35.7643C18.7914 36.0151 18.4363 36.4544 18.2927 36.977C17.9449 38.3186 17.5212 39.6438 17.2411 40.9991L16.5117 45.0955H16.552C16.412 46.039 16.9666 46.9469 17.8689 47.2534C18.3732 47.4191 18.9223 47.3779 19.3964 47.139C19.8695 46.8993 20.2282 46.4819 20.3939 45.9777C21.3942 42.953 24.6385 39.9979 29.6307 37.4565C29.4642 38.2042 29.2949 38.9501 29.1585 39.7023C28.9636 40.7887 29.6875 41.8283 30.7738 42.0232C31.861 42.2182 32.9007 41.4952 33.0956 40.4079C33.3967 38.7323 33.8012 37.063 34.267 35.4093C38.2892 33.9056 42.4377 32.7598 46.6621 31.9847C46.8324 32.3736 47.0328 32.7479 47.2616 33.1049L38.3368 45.23C36.5184 44.5335 34.6011 44.1281 32.6554 44.0302H30.8278C26.4057 44.2023 17.9275 46.7016 17.5074 54.9217C17.4855 55.3738 17.4754 55.7701 17.4617 56.1819C16.5758 55.9622 15.6496 55.9677 14.7665 56.1974C11.967 56.9314 11.6695 60.5637 12.3413 63.841C13.3571 66.5636 15.5435 68.685 18.2945 69.6203C17.9934 72.6706 19.2838 75.6604 21.7099 77.5338C21.9836 77.7672 22.2297 78.0033 22.4594 78.2348C21.493 81.0481 20.1175 83.7021 18.3769 86.1145C13.1521 86.5245 8.21933 88.6916 4.38201 92.2617C1.2814 95.9517 -0.274398 100.697 0.0404221 105.507C0.0404221 119.601 28.7531 120.001 32.0276 120.001C35.3021 120.001 64.0157 119.601 64.0157 105.507C64.3287 100.697 62.7729 95.9517 59.6732 92.2617C55.8358 88.6916 50.9031 86.5254 45.6783 86.1145C41.9801 80.4139 41.5481 78.1012 41.5216 77.9173C41.5216 77.8971 41.5097 77.8788 41.5079 77.8596C41.6223 77.7534 41.7239 77.6455 41.8502 77.5393C42.9923 76.6104 43.912 75.4362 44.5408 74.1046L52.1102 76.8172C52.4881 78.9066 52.9091 80.9383 53.3795 82.8656C53.6596 83.9199 54.7331 84.5541 55.7919 84.2924C56.8508 84.0297 57.5042 82.9672 57.2599 81.9038C56.9789 80.7598 56.7117 79.5838 56.46 78.3748L73.1537 84.3445C73.5426 86.4165 74.7324 88.2505 76.4666 89.4485C74.3114 95.1747 71.6867 98.9315 69.1535 99.8091C68.2886 100.117 67.7514 100.981 67.8557 101.892C67.8557 101.946 67.8274 101.994 67.8301 102.049V102.08C67.8438 102.147 67.8622 102.214 67.8841 102.28C68.0232 103.246 68.8478 103.964 69.8234 103.971H69.8948C97.9046 103.077 120.113 80.0505 119.994 52.027C119.994 51.0798 119.969 50.15 119.914 49.1899C119.965 48.8056 119.991 48.4175 119.994 48.0286C119.987 46.9871 119.817 45.953 119.49 44.9637ZM77.0102 82.8656C77.0102 80.6573 78.8003 78.8672 81.0086 78.8672C81.166 78.8727 81.3234 78.8892 81.4781 78.9148H81.5001C81.609 78.934 81.7188 78.9441 81.8286 78.945C83.885 79.3761 85.2578 81.3254 84.9695 83.4074C84.6803 85.4894 82.8298 86.9921 80.7332 86.8475C78.6365 86.702 77.0093 84.9586 77.0102 82.8574V82.8656ZM45.4861 65.0966C45.8083 63.5939 46.0087 62.0683 46.0865 60.5335C46.6539 60.2123 47.2936 60.0384 47.9452 60.0284C48.0706 60.9252 48.0395 61.8367 47.8537 62.7235C47.3375 63.754 46.5075 64.5942 45.4825 65.1222L45.4861 65.0966ZM54.0192 52.027C54.0147 46.9423 54.2764 41.8603 54.8026 36.8031C58.3809 36.4535 61.282 33.751 61.8824 30.2056C63.8418 30.1013 65.8488 30.0354 68.0141 30.0354C72.1607 30.0418 76.3055 30.2669 80.4293 30.7098C80.9565 34.1463 81.3408 37.6908 81.5907 41.3057C78.5843 42.2657 76.4282 44.9106 76.0951 48.0487L54.0513 54.3982C54.0394 53.6048 54.0192 52.8049 54.0192 52.027ZM84.0077 52.8772C81.8579 52.8808 80.0925 51.1814 80.0138 49.0335C79.936 46.8855 81.5733 45.0616 83.7175 44.9097H83.8338C83.8576 44.9097 83.8759 44.896 83.8997 44.8941C83.9235 44.8923 83.9656 44.8941 83.9994 44.8941C86.2077 44.8941 87.9978 46.6842 87.9978 48.8925C87.9978 51.1008 86.2077 52.8909 83.9994 52.8909L84.0077 52.8772ZM61.5246 26.2173C60.8071 24.202 59.3135 22.5584 57.3761 21.6533C59.9907 11.2569 63.9736 4.42147 67.7514 4.05997H67.8118H68.0113C71.6619 4.05997 76.754 11.1608 79.7292 26.651C75.9303 26.2868 72.0225 26.0516 68.0113 26.0516C65.7225 26.037 63.5993 26.1074 61.5246 26.2173ZM54.0192 32.8843C51.8109 32.8843 50.0208 31.0942 50.0208 28.8859C50.0208 26.6776 51.8109 24.8875 54.0192 24.8875C56.2275 24.8875 58.0176 26.6776 58.0176 28.8859C58.0176 31.0942 56.2275 32.8843 54.0192 32.8843ZM83.8759 27.0629C82.1206 17.3529 79.4409 9.90794 76.1646 5.31742C86.529 8.54158 95.4034 17.794 100.202 30.6357C94.8799 28.95 89.4145 27.7538 83.8759 27.0629ZM59.7528 5.35128C56.7684 10.1495 54.6297 15.4237 53.4271 20.9449C49.5944 21.2305 46.5139 24.2149 46.1066 28.0366C42.6271 28.6809 39.1934 29.5494 35.8265 30.6357C40.6247 17.8407 49.4406 8.60381 59.7528 5.35128ZM54.593 65.254L54.5189 64.4825C54.5189 64.4249 54.5189 64.3242 54.5189 64.2684C54.4027 62.9295 54.3194 61.5878 54.2453 60.2004C54.2169 59.6385 54.2032 59.0848 54.1794 58.5266L76.6661 52.027C77.638 54.2573 79.5727 55.9238 81.922 56.5553C81.8323 59.5543 81.6602 62.4508 81.4067 65.2485C72.4966 66.247 63.5032 66.2488 54.593 65.254ZM85.9213 56.6175C89.5573 55.7298 92.0877 52.4333 92.0054 48.6912C91.923 44.949 89.2507 41.767 85.579 41.0394C85.3475 37.689 84.9951 34.4026 84.5238 31.1812C90.4001 31.9618 96.1749 33.3821 101.743 35.4175C103.244 40.8262 104.003 46.4142 104 52.027C103.994 54.6728 103.815 57.3139 103.464 59.9359C97.6813 62.2641 91.6356 63.8748 85.461 64.7342C85.6806 62.1031 85.8343 59.4005 85.9213 56.6257V56.6175ZM106.399 37.4711C111.315 39.9723 114.531 42.8807 115.596 45.8853C115.733 46.8855 115.837 47.9169 115.913 49.0499C115.395 52.1332 112.514 55.1944 107.728 57.8731C107.898 55.9577 108.013 54.0147 108.013 52.027C108.012 47.1308 107.471 42.2493 106.399 37.4711ZM113.7 37.333C111.039 35.3296 108.128 33.6823 105.039 32.4349C102.588 24.1755 98.137 16.6491 92.0804 10.5229C102.372 16.4551 110.08 26.0159 113.692 37.333H113.7ZM50.2203 35.8733C50.4308 35.9895 50.6322 36.1213 50.8546 36.2174C50.2981 41.4686 50.0199 46.7464 50.0208 52.027C50.0208 53.181 50.041 54.3607 50.0684 55.5477L48.3131 56.0538C47.5737 56.0007 46.8305 56.0721 46.114 56.2652C46.0984 55.8295 46.0883 55.4058 46.0645 54.9244C45.9556 51.8257 44.4181 48.952 41.8996 47.1427L50.2203 35.8733ZM16.2335 62.9231C16.0294 61.9704 15.9882 60.9902 16.11 60.0238C16.5886 60.0567 17.0535 60.2022 17.4653 60.4503C17.5367 61.9557 17.7262 63.4539 18.0327 64.93C17.2741 64.423 16.6554 63.733 16.2335 62.9231ZM22.3313 69.041C22.3478 68.7243 22.3533 68.3967 22.3633 68.0727C22.3633 67.8632 22.3835 67.6609 22.3835 67.4495C22.3679 66.3906 22.2389 65.3373 21.9973 64.3068C21.3914 61.2867 21.2249 58.1953 21.504 55.1276C21.8417 48.5027 30.6182 48.0451 30.9102 48.0286H32.5858C32.6774 48.0286 41.7303 48.4624 42.0716 55.1303C42.3508 58.1971 42.1842 61.2895 41.5756 64.3086C41.3358 65.3391 41.2077 66.3934 41.1921 67.4513C41.1921 67.9931 41.2178 68.523 41.2443 69.0511C41.7147 71.102 40.9377 73.238 39.2611 74.5082C38.0458 75.5744 36.9714 76.7898 36.0617 78.125C34.8948 79.7385 34.6011 80.0267 33.5367 80.0267H30.0289C28.9672 80.0267 28.6726 79.7385 27.5075 78.1268C26.5979 76.7907 25.5234 75.5753 24.309 74.5082C22.6269 73.2371 21.849 71.0956 22.3231 69.041H22.3313ZM32.0276 88.5131C28.8474 88.3393 25.6992 87.7847 22.6516 86.8622C23.6629 85.256 24.5689 83.5868 25.3642 81.8635C26.4972 83.2701 28.2232 84.0663 30.0289 84.0151H33.5367C35.5217 84.0617 37.3978 83.1109 38.5354 81.4837C39.3636 83.3452 40.3273 85.1435 41.4182 86.864C38.3652 87.7874 35.2124 88.3411 32.0276 88.5131ZM60.0173 105.507C60.0173 114.063 39.2886 116.002 32.0276 116.002C24.7666 116.002 4.03882 114.073 4.03882 105.507C3.74871 101.716 4.91464 97.9587 7.29958 94.999C10.2483 92.3367 13.9502 90.6547 17.8955 90.1843C18.7264 93.3453 21.4939 99.6426 30.7839 107.068C30.8324 107.106 30.8919 107.116 30.9422 107.15C31.0566 107.224 31.1774 107.286 31.3037 107.336C31.4172 107.383 31.5343 107.42 31.6542 107.446C31.7805 107.468 31.9086 107.477 32.0377 107.476C32.1621 107.477 32.2866 107.467 32.4092 107.446C32.5328 107.421 32.6536 107.382 32.7689 107.332C32.8933 107.283 33.0123 107.223 33.1231 107.15C33.178 107.126 33.232 107.099 33.2832 107.068C42.564 99.6426 45.3406 93.3453 46.1725 90.1843C50.1169 90.6547 53.8188 92.3367 56.7684 94.999C59.1479 97.9605 60.3092 101.718 60.0173 105.507ZM41.6955 90.9283C39.4625 95.6259 36.1495 99.7277 32.0276 102.9C27.9047 99.7277 24.5909 95.625 22.3551 90.9283C25.5051 91.8371 28.7522 92.3679 32.0276 92.5115C35.3021 92.3679 38.5473 91.8371 41.6955 90.9283ZM45.2702 70.1163C45.2702 69.9644 45.2702 69.8125 45.2702 69.6624C47.3897 68.9229 49.2512 67.5895 50.634 65.8223L50.7704 67.261C50.9424 68.9824 51.1538 70.6599 51.3863 72.3054L45.2702 70.1163ZM55.0351 69.3284C59.3455 69.7878 63.678 70.0184 68.0141 70.0202C72.3547 70.0193 76.6927 69.7878 81.0086 69.3265C80.7716 71.3015 80.5007 73.1767 80.1969 74.9503C77.1347 75.2642 74.5265 77.3142 73.4996 80.2162L55.6565 73.8347C55.4185 72.3658 55.219 70.8622 55.0351 69.3284ZM81.0086 90.8624C84.8048 90.8587 88.0747 88.1873 88.8361 84.469C89.5966 80.7497 87.6391 77.0085 84.1495 75.514C84.5037 73.4174 84.8148 71.1761 85.083 68.8204C91.0993 68.0178 97.0141 66.5792 102.727 64.5283C99.2673 81.7573 89.0375 94.7748 76.2268 98.7356C77.8943 96.2628 79.246 93.5914 80.2509 90.7846C80.5016 90.823 80.7551 90.8496 81.0086 90.8624ZM92.0502 93.6335C100.246 85.1837 105.523 74.3344 107.11 62.6714C110.283 61.2547 113.2 59.3255 115.745 56.9616C114.225 72.2917 105.402 85.947 92.0502 93.6335Z" fill="#7661D6"/>
</g>
<defs>
<clipPath id="clip0">
<rect width="120" height="120" fill="white"/>
</clipPath>
</defs>
</svg>
