<svg width="120" height="120" viewBox="0 0 120 120" fill="none" xmlns="http://www.w3.org/2000/svg">
<g clip-path="url(#clip)">
<path d="M112 6H60C55.5817 6 52 9.58172 52 14H14C8.47715 14 4 18.4772 4 24C4 25.1046 4.89543 26 6 26C7.10457 26 8 25.1046 8 24C8 20.6863 10.6863 18 14 18H52V86H8V40C8 38.8954 7.10457 38 6 38C4.89543 38 4 38.8954 4 40V86C1.79086 86 0 87.7909 0 90V98C0 103.523 4.47715 108 10 108H52.28C53.1896 111.523 56.3617 113.988 60 114H112C116.418 114 120 110.418 120 106V14C120 9.58172 116.418 6 112 6ZM99.38 10L96.82 12.74C96.0866 13.5206 95.0708 13.9745 94 14H78.2C77.0943 14.0016 76.0374 13.5455 75.28 12.74L72.62 10H99.38ZM56 14C56 11.7909 57.7909 10 60 10H67.14L72.26 15.48C73.7747 17.091 75.8887 18.0032 78.1 18H94C96.2113 18.0032 98.3253 17.091 99.84 15.48L104.86 10H112C114.209 10 116 11.7909 116 14V96C116 98.2092 114.209 100 112 100H60C57.7909 100 56 98.2092 56 96V14ZM52 90V96H46C43.7909 96 42 94.2092 42 92V90H52ZM4 98V90H38V92C38 96.4183 41.5817 100 46 100H52V104H10C6.68629 104 4 101.314 4 98ZM112 110H60C57.7909 110 56 108.209 56 106V102.88C57.208 103.607 58.5901 103.994 60 104H112C113.41 103.994 114.792 103.607 116 102.88V106C116 108.209 114.209 110 112 110Z" fill="#7661D6"/>
<path d="M6 34C7.10457 34 8 33.1046 8 32C8 30.8954 7.10457 30 6 30C4.89543 30 4 30.8954 4 32C4 33.1046 4.89543 34 6 34Z" fill="#7661D6"/>
<path d="M30 94H24C22.8954 94 22 94.8954 22 96C22 97.1046 22.8954 98 24 98H30C31.1046 98 32 97.1046 32 96C32 94.8954 31.1046 94 30 94Z" fill="#7661D6"/>
<path d="M14 30C14.5316 30.0031 15.0426 29.7944 15.42 29.42L19.42 25.42C20.2042 24.6358 20.2042 23.3642 19.42 22.58C18.6358 21.7958 17.3642 21.7958 16.58 22.58L12.58 26.58C12.2014 26.9555 11.9884 27.4667 11.9884 28C11.9884 28.5333 12.2014 29.0445 12.58 29.42C12.9574 29.7944 13.4684 30.0031 14 30Z" fill="#7661D6"/>
<path d="M12.58 39.42C12.9555 39.7986 13.4667 40.0116 14 40.0116C14.5333 40.0116 15.0445 39.7986 15.42 39.42L29.42 25.42C30.2042 24.6358 30.2042 23.3642 29.42 22.58C28.6357 21.7958 27.3642 21.7958 26.58 22.58L12.58 36.58C12.2014 36.9555 11.9884 37.4667 11.9884 38C11.9884 38.5333 12.2014 39.0445 12.58 39.42Z" fill="#7661D6"/>
<path d="M62 30C62.5316 30.0031 63.0426 29.7944 63.42 29.42L67.42 25.42C68.2042 24.6358 68.2042 23.3642 67.42 22.58C66.6358 21.7958 65.3642 21.7958 64.58 22.58L60.58 26.58C60.2014 26.9555 59.9884 27.4667 59.9884 28C59.9884 28.5333 60.2014 29.0445 60.58 29.42C60.9574 29.7944 61.4684 30.0031 62 30Z" fill="#7661D6"/>
<path d="M62 42C62.5316 42.0031 63.0426 41.7944 63.42 41.42L79.42 25.42C80.2043 24.6358 80.2043 23.3642 79.42 22.58C78.6358 21.7958 77.3643 21.7958 76.58 22.58L60.58 38.58C60.2014 38.9555 59.9884 39.4667 59.9884 40C59.9884 40.5333 60.2014 41.0445 60.58 41.42C60.9574 41.7944 61.4684 42.0031 62 42Z" fill="#7661D6"/>
<path d="M85.0004 57.9998C81.6862 57.9998 79 55.3137 79 52.0004C79 48.6862 81.6862 46 85.0004 46C88.3137 46 90.9998 48.6862 90.9998 52.0004C90.9998 53.5916 90.3681 55.1177 89.2429 56.2429C88.1177 57.3681 86.5916 57.9998 85.0004 57.9998ZM85.0004 49.9999C83.8953 49.9999 82.9999 50.8953 82.9999 52.0004C82.9999 53.1045 83.8953 53.9999 85.0004 53.9999C86.1045 53.9999 86.9999 53.1045 86.9999 52.0004C86.9999 50.8953 86.1045 49.9999 85.0004 49.9999Z" fill="#7661D6"/>
<path d="M85.0004 74.0005C83.8953 74.0005 82.9999 73.1051 82.9999 72.0001V56.0003C82.9999 54.8953 83.8953 53.9999 85.0004 53.9999C86.1045 53.9999 86.9999 54.8953 86.9999 56.0003V72.0001C86.9999 73.1051 86.1045 74.0005 85.0004 74.0005Z" fill="#7661D6"/>
<path d="M90.9998 72.0001H85.0004C83.8953 72.0001 82.9999 71.1047 82.9999 70.0005C82.9999 68.8955 83.8953 68.0001 85.0004 68.0001H90.9998C92.1049 68.0001 93.0002 68.8955 93.0002 70.0005C93.0002 71.1047 92.1049 72.0001 90.9998 72.0001Z" fill="#7661D6"/>
<path d="M89.0003 66.0006H85.0004C83.8953 66.0006 82.9999 65.1052 82.9999 64.0002C82.9999 62.8961 83.8953 62.0007 85.0004 62.0007H89.0003C90.1044 62.0007 90.9998 62.8961 90.9998 64.0002C90.9998 65.1052 90.1044 66.0006 89.0003 66.0006Z" fill="#7661D6"/>
<path d="M12 98C13.1046 98 14 97.1046 14 96C14 94.8954 13.1046 94 12 94C10.8954 94 10 94.8954 10 96C10 97.1046 10.8954 98 12 98Z" fill="#7661D6"/>
<path d="M18 98C19.1046 98 20 97.1046 20 96C20 94.8954 19.1046 94 18 94C16.8954 94 16 94.8954 16 96C16 97.1046 16.8954 98 18 98Z" fill="#7661D6"/>
</g>
<defs>
<clipPath id="clip">
<rect width="120" height="120" fill="white"/>
</clipPath>
</defs>
</svg>
