<svg width="120" height="120" viewBox="0 0 120 120" fill="none" xmlns="http://www.w3.org/2000/svg">
<path d="M19.2458 99.84C19.3593 99.8979 19.4804 99.9382 19.6058 99.96C19.738 99.9823 19.8718 99.9956 20.0059 100C20.5353 99.9923 21.0423 99.7851 21.426 99.42C21.6067 99.2287 21.7494 99.0047 21.846 98.76C22.1476 98.014 21.9833 97.1604 21.426 96.5801C21.2347 96.3994 21.0107 96.2566 20.766 96.1601C20.5255 96.0577 20.2672 96.0033 20.0059 96C19.1933 95.9953 18.4588 96.4826 18.1471 97.233C17.8356 97.9835 18.0088 98.8479 18.5858 99.42L18.8858 99.66C18.9971 99.7357 19.1183 99.7964 19.2458 99.84Z" fill="#7661D6"/>
<path d="M96.0059 0H24.0059C20.6923 0 18.0059 2.68641 18.0059 6V90C18.0059 91.1046 18.9014 91.9999 20.0058 91.9999C21.1102 91.9999 22.0057 91.1046 22.0057 90V28.0001H98.0058V114C98.0058 115.105 97.1105 116 96.0059 116H24.0059C22.9013 116 22.0059 115.105 22.0059 114V106C22.0059 104.895 21.1104 104 20.006 104C18.9016 104 18.0061 104.895 18.0061 106V114C18.0061 117.314 20.6925 120 24.0061 120H96.0061C99.3197 120 102.006 117.314 102.006 114V6C102.006 2.68641 99.3195 0 96.0059 0ZM22.0059 24V6C22.0059 4.89539 22.9015 4.00008 24.0059 4.00008H96.0059C97.1105 4.00008 98.0058 4.89563 98.0058 6V24H22.0059Z" fill="#7661D6"/>
<path d="M32.0054 7.99994C28.6918 7.99994 26.0054 10.6863 26.0054 13.9999C26.0054 17.3135 28.6918 19.9999 32.0054 19.9999C35.319 19.9999 38.0054 17.3135 38.0054 13.9999C38.0054 10.6863 35.3192 7.99994 32.0054 7.99994ZM32.0054 16.0001C30.9008 16.0001 30.0054 15.1046 30.0054 14.0002C30.0054 12.8958 30.901 12.0003 32.0054 12.0003C33.1097 12.0003 34.0053 12.8958 34.0053 14.0002C34.0053 15.1046 33.11 16.0001 32.0054 16.0001Z" fill="#7661D6"/>
<path d="M76.0054 12H44.0053C42.9007 12 42.0054 12.8955 42.0054 13.9999C42.0054 15.1043 42.9009 15.9998 44.0053 15.9998H76.0052C77.1098 15.9998 78.0051 15.1043 78.0051 13.9999C78.0051 12.8955 77.1098 12 76.0054 12Z" fill="#7661D6"/>
<path d="M92.0058 7.99994H86.0058C84.9012 7.99994 84.0059 8.89549 84.0059 9.99986C84.0059 11.1042 84.9012 11.9998 86.0058 11.9998H92.0058C93.1104 11.9998 94.0057 11.1042 94.0057 9.99986C94.0057 8.89549 93.1104 7.99994 92.0058 7.99994Z" fill="#7661D6"/>
<path d="M92.0058 13.9999H86.0058C84.9012 13.9999 84.0059 14.8955 84.0059 15.9998C84.0059 17.1044 84.9012 17.9998 86.0058 17.9998H92.0058C93.1104 17.9998 94.0057 17.1044 94.0057 15.9998C94.0059 14.8955 93.1104 13.9999 92.0058 13.9999Z" fill="#7661D6"/>
<path d="M34.0059 78V85.9999C34.0059 88.2092 35.7967 90 38.0059 90H82.0059C84.2151 90 86.006 88.2092 86.006 85.9999V78C86.006 75.7908 84.2151 73.9999 82.0059 73.9999H38.0057C35.7967 73.9999 34.0059 75.7908 34.0059 78ZM82.0059 85.9999H38.0057V78H82.0056V85.9999H82.0059Z" fill="#7661D6"/>
<path d="M34.0061 106C34.0061 108.209 35.797 110 38.0062 110H82.0061C84.2153 110 86.0062 108.209 86.0062 106V98.0001C86.0062 95.7909 84.2153 94.0001 82.0061 94.0001H38.0059C35.7967 94.0001 34.0059 95.7909 34.0059 98.0001V106H34.0061ZM38.0059 97.9999H82.0059V106H38.0059V97.9999Z" fill="#7661D6"/>
<path d="M60.0059 34.0001C54.4859 34.0066 50.0126 38.4799 50.0058 44.0001V48C48.9012 48 48.0059 48.8953 48.0059 49.9999V61.9999C48.0059 66.4181 51.5876 69.9998 56.0058 69.9998H64.0057C68.4239 69.9998 72.0056 66.4181 72.0056 61.9999V49.9999C72.0056 48.8953 71.1103 48 70.0057 48V43.9999C69.9992 38.4799 65.5259 34.0066 60.0059 34.0001ZM64.0059 66H56.006C53.7968 66 52.0059 64.2091 52.0059 61.9999V60H54.0059C55.1105 60 56.0058 59.1047 56.0058 58C56.0058 56.8954 55.1102 56.0001 54.0059 56.0001H52.0059V52.0001H68.006V56.0001H66.0061C64.9015 56.0001 64.0062 56.8957 64.0062 58C64.0062 59.1047 64.9017 60 66.0061 60H68.006V61.9999C68.0058 64.2091 66.2149 66 64.0059 66ZM54.0059 48V43.9999C54.0059 40.6863 56.6923 37.9999 60.0059 37.9999C63.3195 37.9999 66.0059 40.6863 66.0059 43.9999V48H54.0059Z" fill="#7661D6"/>
</svg>
