<svg width="120" height="120" viewBox="0 0 120 120" fill="none" xmlns="http://www.w3.org/2000/svg">
<path d="M69.375 43.9999H50.625C48.0718 43.9973 46.0027 41.9282 46.0001 39.375V12.625C46.0027 10.0718 48.0718 8.00247 50.625 8.00012H69.375C71.9283 8.0027 73.9976 10.0718 74 12.625V39.375C73.9976 41.9282 71.9283 43.9975 69.375 43.9999ZM50.625 12C50.2803 12.0009 50.0011 12.2803 50.0002 12.625V39.375C50.0011 39.7197 50.2805 39.9989 50.6253 40H69.3753C69.72 39.9991 69.9994 39.7197 70.0004 39.375V12.625C69.9994 12.2803 69.72 12.0011 69.3753 12H50.625Z" fill="#7661D6"/>
<path d="M106 91.9999C105.739 91.9966 105.481 91.9422 105.24 91.8398C104.995 91.7433 104.771 91.6008 104.58 91.4198C104.404 91.2251 104.262 91.0019 104.16 90.7596C104.058 90.5194 104.003 90.2611 104 90C104 88.8954 104.895 88.0001 106 88.0001C107.104 88.0001 108 88.8956 108 90C107.996 90.2613 107.942 90.5194 107.84 90.7598C107.658 91.2621 107.262 91.6577 106.76 91.8398C106.519 91.9422 106.261 91.9968 106 91.9999Z" fill="#7661D6"/>
<path d="M31.9999 100.035C12 100.035 12 96.2754 12 94.6699V92.0215C11.9991 88.8881 13.7102 86.0043 16.4609 84.5039L24 80.789V80.0369C20.6552 78.1495 18.1995 75.0079 17.1757 71.3065C15.2196 70.2761 13.9966 68.2458 13.9999 66.0351V64.0352C14.0027 62.2127 14.8378 60.4915 16.2675 59.3613C16.515 57.5458 16.9861 55.7681 17.67 54.0684C17.967 53.3437 18.2189 52.8047 18.4221 52.3633C18.9652 51.1973 18.9652 51.1973 18.5784 49.248C18.3891 48.2929 18.262 47.4218 18.1781 46.6776C18.053 45.6103 18.6532 44.59 19.6467 44.1811C20.6405 43.7721 21.7849 44.074 22.4475 44.9198C22.9755 45.5395 23.5938 46.076 24.2815 46.5117C26.2043 47.7129 28.4745 48.2348 30.7287 47.9941C31.1428 47.9608 31.5666 47.944 32.0002 47.9433C41.1741 47.9433 46.4494 51.7753 47.6974 59.3358C49.1487 60.4631 49.9983 62.1972 50.0002 64.035V66.0349C50.0037 68.2458 48.7805 70.2759 46.8244 71.3065C45.8006 75.0079 43.3451 78.1495 40.0001 80.0369V80.8104L47.2755 84.5252C50.1787 85.9706 52.0104 88.9383 52.0001 92.1815V94.6699C52.0001 96.2754 52.0001 100.035 31.9999 100.035ZM16.0001 94.2187C17.246 94.9765 22.3223 96.0351 32.0002 96.0351C41.678 96.0351 46.7541 94.9765 48.0002 94.2187V92.1815C48.0054 90.4514 47.0269 88.8684 45.4767 88.0994L45.4631 88.0917L37.928 84.244C36.7434 83.6404 35.9984 82.4229 36.0002 81.0935V78.7868C36 77.9878 36.4753 77.2652 37.2091 76.9488C40.3366 75.5334 42.5841 72.6897 43.2384 69.3199C43.4159 68.6569 43.9209 68.1311 44.5763 67.9272C45.4109 67.6715 45.9858 66.9075 46.0001 66.0347V64.0347C45.993 63.2925 45.5737 62.6158 44.9121 62.2788C44.328 61.9722 43.9331 61.3968 43.8574 60.7418C43.1445 54.6558 39.4882 51.9429 31.9999 51.9429C31.6758 51.9429 31.3573 51.9565 31.0467 51.982C28.1918 52.2628 25.3188 51.6759 22.8026 50.2985C22.9739 51.5981 22.7086 52.9179 22.0486 54.0506C21.8651 54.4472 21.6384 54.9335 21.3729 55.5839C20.7166 57.2299 20.2978 58.9608 20.1288 60.7244C20.0602 61.3851 19.6678 61.9685 19.0819 62.2811C18.4242 62.6203 18.0077 63.2953 17.9998 64.0352V66.0351C18.0141 66.9079 18.589 67.672 19.4236 67.9277C20.0791 68.1314 20.5842 68.6571 20.7616 69.3204C21.416 72.6902 23.6634 75.5339 26.7909 76.9493C27.5248 77.2654 28.0001 77.988 27.9998 78.787V81.078C27.9954 82.4266 27.2285 83.6566 26.0194 84.2538L18.3028 88.0547C16.8743 88.8633 15.9937 90.3801 16.0001 92.0215V94.2187ZM24.2578 80.662L24.2538 80.6641L24.2578 80.662Z" fill="#7661D6"/>
<path d="M82.0001 58.0352H62.0002C60.8956 58.0352 60.0002 57.1396 60.0002 56.0353C60.0002 54.9309 60.8958 54.0353 62.0002 54.0353H82.0001C83.1047 54.0353 84 54.9307 84 56.0353C84 57.1399 83.1045 58.0352 82.0001 58.0352Z" fill="#7661D6"/>
<path d="M64.0001 92.0351H62.0002C60.8956 92.0351 60.0002 91.1397 60.0002 90.0351C60.0002 88.9305 60.8958 88.0352 62.0002 88.0352H64.0001C65.1047 88.0352 66 88.9305 66 90.0351C66 91.1397 65.1047 92.0351 64.0001 92.0351Z" fill="#7661D6"/>
<path d="M76.0001 92.0351H72C70.8954 92.0351 70.0001 91.1397 70.0001 90.0351C70.0001 88.9305 70.8954 88.0352 72 88.0352H76.0001C77.1047 88.0352 78 88.9305 78 90.0351C78 91.1397 77.1047 92.0351 76.0001 92.0351Z" fill="#7661D6"/>
<path d="M86 92.0351H84C82.8954 92.0351 82.0001 91.1397 82.0001 90.0351C82.0001 88.9305 82.8954 88.0352 84 88.0352H86C87.1046 88.0352 87.9999 88.9305 87.9999 90.0351C88.0001 91.1397 87.1046 92.0351 86 92.0351Z" fill="#7661D6"/>
<path d="M98 92.0351H93.9999C92.8953 92.0351 92 91.1397 92 90.0351C92 88.9305 92.8953 88.0352 93.9999 88.0352H98C99.1046 88.0352 99.9999 88.9305 99.9999 90.0351C100 91.1397 99.1046 92.0351 98 92.0351Z" fill="#7661D6"/>
<path d="M106 70.0352H61.9999C60.8953 70.0352 60 69.1396 60 68.0353C60 66.9309 60.8955 66.0353 61.9999 66.0353H106C107.104 66.0353 108 66.9307 108 68.0353C108 69.1399 107.105 70.0352 106 70.0352Z" fill="#7661D6"/>
<path d="M106 82.0352H61.9999C60.8953 82.0352 60 81.1399 60 80.0353C60 78.9307 60.8955 78.0353 61.9999 78.0353H106C107.104 78.0353 108 78.9309 108 80.0353C108 81.1396 107.105 82.0352 106 82.0352Z" fill="#7661D6"/>
<path d="M110.644 112H9.35555C4.19109 111.994 0.00609375 107.809 0 102.645V37.3554C0.00609375 32.1911 4.19109 28.0061 9.35555 27.9998H48C48.5306 27.9996 49.0395 28.21 49.4145 28.5853C49.7897 28.9605 50.0002 29.4693 49.9999 29.9997V39.3747C50.0009 39.7195 50.2802 39.9986 50.625 39.9998H69.375C69.7198 39.9989 69.9991 39.7195 70.0001 39.3747V29.9997C69.9998 29.4691 70.2103 28.9603 70.5855 28.5853C70.9608 28.21 71.4696 27.9996 72 27.9998H110.644C115.809 28.0059 119.994 32.1909 120 37.3554V102.645C119.994 107.809 115.809 111.994 110.644 112ZM9.35555 31.9999C6.39914 32.0032 4.00336 34.399 4.00008 37.3554V102.645C4.00336 105.601 6.39914 107.997 9.35555 108H110.645C113.601 107.997 115.997 105.601 116 102.645V37.3554C115.997 34.399 113.601 32.0032 110.645 31.9999H74.0002V39.375C73.9976 41.9283 71.9285 43.9976 69.375 43.9999H50.625C48.0717 43.9973 46.0027 41.9283 46.0001 39.375V31.9999H9.35555Z" fill="#7661D6"/>
<path d="M60 30C55.5818 30 52.0001 26.4182 52.0001 22C52.0001 17.5818 55.5818 13.9999 60 13.9999C64.4182 13.9999 68 17.5816 68 21.9998C67.9957 26.4164 64.4166 29.9955 60 30ZM60 18C57.7908 18 56 19.7908 56 22C56 24.2093 57.7908 26.0001 60 26.0001C62.2093 26.0001 64.0001 24.2093 64.0001 22C63.9971 19.792 62.2081 18.0028 60 18Z" fill="#7661D6"/>
</svg>
