<svg width="120" height="120" viewBox="0 0 120 120" fill="none" xmlns="http://www.w3.org/2000/svg">
<g clip-path="url(#clip0)">
<path fill-rule="evenodd" clip-rule="evenodd" d="M114 52C116.9 52 119.4 54.1 119.9 57C120.4 59.8 118.7 62.7 116 63.6V72C116 75.3 113.3 78 110 78H67.9997V86H97.9997C101.3 86 104 88.7 104 92V108.4C106.7 109.4 108.4 112.2 107.9 115.1C107.4 118 104.9 120.1 102 120.1C99.0997 120.1 96.5997 118 96.0997 115.1C95.5997 112.2 97.1997 109.4 99.9997 108.4V92C99.9997 90.9 99.0997 90 97.9997 90H67.9997V113C67.9997 116.9 64.7997 120 60.9997 120H52.9997C51.2997 120 49.9997 118.6 49.9997 117V104H37.9997C36.8997 104 35.9997 104.9 35.9997 106V108.4C38.6997 109.4 40.3997 112.2 39.8997 115.1C39.3997 118 36.8997 120.1 33.9997 120.1C31.0997 120.1 28.5997 118 28.0997 115.1C27.5997 112.2 29.1997 109.4 31.9997 108.4V106C31.9997 102.7 34.6997 100 37.9997 100H49.9997V92H9.99965C8.89965 92 7.99965 92.9 7.99965 94V102.4C10.7997 103.4 12.3997 106.2 11.8997 109.1C11.3997 112 8.89965 114.1 5.99965 114.1C3.09965 114.1 0.599654 112 0.0996545 109.1C-0.400346 106.2 1.19965 103.4 3.99965 102.4V94C3.99965 90.7 6.69966 88 9.99965 88H49.9997V80H41.9997C40.8997 80 39.9997 79.1 39.9997 78C39.9997 76.9 40.8997 76 41.9997 76H49.9997V52.5C39.2997 48.7 31.9997 38.5 31.9997 27C31.9997 12.1 44.0997 0 58.9997 0C73.8997 0 85.9997 12.1 85.9997 27C85.9997 38.5 78.6997 48.8 67.9997 52.5V62H81.9997C83.0997 62 83.9997 61.1 83.9997 60V57.6C81.2997 56.6 79.5997 53.8 80.0997 50.9C80.5997 48 83.0997 45.9 85.9997 45.9C88.8997 45.9 91.3997 48 91.8997 50.9C92.3997 53.8 90.7997 56.6 87.9997 57.6V60C87.9997 63.3 85.2997 66 81.9997 66H67.9997V74H110C111.1 74 112 73.1 112 72V63.7C109.3 62.7 107.6 59.9 108.1 57C108.6 54.1 111.1 52 114 52ZM87.9997 52C87.9997 50.9 87.0997 50 85.9997 50C84.8997 50 83.9997 50.9 83.9997 52C83.9997 53.1 84.8997 54 85.9997 54C87.0997 54 87.9997 53.1 87.9997 52ZM3.99965 108C3.99965 109.1 4.89965 110 5.99965 110C7.09965 110 7.99965 109.1 7.99965 108C7.99965 106.9 7.09965 106 5.99965 106C4.89965 106 3.99965 106.9 3.99965 108ZM31.9997 114C31.9997 115.1 32.8997 116 33.9997 116C35.0997 116 35.9997 115.1 35.9997 114C35.9997 112.9 35.0997 112 33.9997 112C32.8997 112 31.9997 112.9 31.9997 114ZM104 114C104 112.9 103.1 112 102 112C100.9 112 99.9997 112.9 99.9997 114C99.9997 115.1 100.9 116 102 116C103.1 116 104 115.1 104 114ZM64.8997 49.5C64.9997 49.4 64.9997 49.4 65.1997 49.3L65.3997 49.1H65.5997C75.2997 46.2 82.0997 37.2 82.0997 27C82.0997 14.3 71.6997 3.9 58.9997 3.9C46.2997 3.9 35.8997 14.3 36.1997 27C36.1997 37.1 42.9997 46.2 52.6997 49.1H52.8997C52.9497 49.1 52.9997 49.125 53.0497 49.15C53.0997 49.175 53.1497 49.2 53.1997 49.2H53.2997C53.3497 49.2 53.3746 49.225 53.3997 49.25C53.4247 49.275 53.4497 49.3 53.4997 49.3L53.6997 49.5C53.6997 49.55 53.7247 49.575 53.7497 49.6C53.7747 49.625 53.7997 49.65 53.7997 49.7C53.7997 49.8 53.8997 50 53.9997 50.1C53.9997 50.15 54.0247 50.175 54.0497 50.2C54.0747 50.225 54.0997 50.25 54.0997 50.3V50.4C54.1996 50.5 54.1997 50.6 54.1997 50.7V51V116.2H61.1997C62.7997 116.2 64.1997 114.9 64.1997 113.2V51.2V50.9C64.2997 50.8 64.2997 50.7 64.2997 50.6V50.5C64.2997 50.45 64.3247 50.425 64.3497 50.4C64.3747 50.375 64.3997 50.35 64.3997 50.3C64.3997 50.1 64.4997 50 64.5997 49.9C64.5997 49.8 64.6997 49.7 64.6997 49.7C64.6997 49.6382 64.7379 49.6146 64.7906 49.582C64.8233 49.5618 64.8615 49.5382 64.8997 49.5ZM112 58C112 59.1 112.9 60 114 60C115.1 60 116 59.1 116 58C116 56.9 115.1 56 114 56C112.9 56 112 56.9 112 58ZM58.9998 17.5C63.9998 17.5 67.9998 21.5 67.9998 26.5C67.9998 31.5 63.9998 35.5 58.9998 35.5C53.9998 35.5 49.9998 31.5 49.9998 26.5C49.9998 21.5 53.9998 17.5 58.9998 17.5ZM58.9998 21.5C56.1998 21.5 53.9998 23.7 53.9998 26.5C53.9998 29.3 56.1998 31.5 58.9998 31.5C61.7998 31.5 63.9998 29.3 63.9998 26.5C63.9998 23.7 61.7998 21.5 58.9998 21.5ZM35.5998 79.1L35.3998 79.4C34.8998 80 33.9998 80.2 33.1998 79.9C32.4998 79.5 31.9998 78.8 31.9998 78C31.9998 77.896 32.0118 77.804 32.0233 77.7157C32.0451 77.5493 32.0651 77.396 31.9998 77.2C32.1998 76.7 32.5998 76.3 33.0998 76.1C33.5998 75.9 34.0998 75.9 34.5998 76.1C34.8998 76.2 35.0998 76.3 35.2998 76.5C35.6998 76.9 35.8998 77.4 35.8998 77.9V78.3C35.8998 78.5 35.8998 78.6 35.7998 78.7C35.7616 78.7764 35.738 78.8382 35.7178 78.8909L35.7178 78.891C35.6852 78.9764 35.6616 79.0382 35.5998 79.1ZM23.9997 52C23.9997 48.9 21.6997 46.4 18.6997 46C15.6997 45.6 12.8997 47.6 12.1997 50.6C11.4997 53.6 13.1997 56.6 15.9997 57.6V74C15.9997 77.3 18.6997 80 21.9997 80H25.9997C27.0997 80 27.9997 79.1 27.9997 78C27.9997 76.9 27.0997 76 25.9997 76H21.9997C20.8997 76 19.9997 75.1 19.9997 74V57.6C22.3997 56.8 23.9997 54.5 23.9997 52ZM17.9997 50C19.0997 50 19.9997 50.9 19.9997 52C19.9997 53.1 19.0997 54 17.9997 54C16.8997 54 15.9997 53.1 15.9997 52C15.9997 50.9 16.8997 50 17.9997 50Z" fill="#7661D6"/>
</g>
<defs>
<clipPath id="clip0">
<rect width="120" height="120" fill="white"/>
</clipPath>
</defs>
</svg>
