<svg width="350" height="374" viewBox="0 0 350 374" fill="none" xmlns="http://www.w3.org/2000/svg">
<path d="M175 373.826C170.07 373.826 165.141 373.005 161.033 370.54L15.6103 292.488C5.75112 287.559 0 277.7 0 267.019V106.808C0 96.1268 5.75112 86.2676 15.6103 81.338L161.033 3.28634C165.141 0.821546 170.07 0 175 0C179.93 0 184.859 0.821546 188.967 3.28634L334.39 81.338C344.249 86.2676 350 96.1268 350 106.808V266.197C350 276.878 344.249 286.737 334.39 291.667L188.967 369.718C184.038 372.183 179.93 373.826 175 373.826Z" fill="url(#paint0_linear)"/>
<path d="M175 73.1179C238.263 73.1179 290.023 119.949 290.023 184.033C290.023 248.939 238.263 296.592 175 296.592C110.915 296.592 59.9766 249.761 59.9766 184.033C59.9766 119.949 110.915 73.1179 175 73.1179ZM175 261.263C215.258 261.263 248.122 229.221 248.122 184.855C248.122 140.489 215.258 109.268 175 109.268C134.742 109.268 101.878 140.489 101.878 184.855C101.878 229.221 134.742 261.263 175 261.263Z" fill="white"/>
<defs>
<linearGradient id="paint0_linear" x1="0" y1="186.736" x2="349.823" y2="186.736" gradientUnits="userSpaceOnUse">
<stop stop-color="#E4424E"/>
<stop offset="1" stop-color="#9B2167"/>
</linearGradient>
</defs>
</svg>
