<svg width="120" height="120" viewBox="0 0 120 120" fill="none" xmlns="http://www.w3.org/2000/svg">
<path d="M25.9998 36C26.8124 36.0047 27.547 35.5174 27.8587 34.7669C28.1702 34.0165 27.997 33.1521 27.4199 32.58L27.1199 32.34C27.0084 32.2643 26.8874 32.2038 26.7599 32.16C26.6465 32.1023 26.5253 32.0618 26.3999 32.04C26.2677 32.0177 26.1339 32.0044 25.9998 31.9999C25.4704 32.0076 24.9634 32.2148 24.5798 32.58C24.3991 32.7712 24.2563 32.9953 24.1598 33.24C23.8581 33.986 24.0224 34.8396 24.5798 35.4199C24.771 35.6006 24.9951 35.7434 25.2398 35.8399C25.4805 35.9426 25.7385 35.9969 25.9998 36Z" fill="#7661D6"/>
<path d="M30 120H90C93.3136 120 96 117.314 96 114V6C96 2.68641 93.3136 0 90 0H30C26.6864 0 24 2.68641 24 6V25.9999C24 27.1045 24.8955 27.9998 25.9999 27.9998C27.1043 27.9998 27.9998 27.1043 27.9998 25.9999V19.9999H33.9998C35.1045 19.9999 35.9998 19.1046 35.9998 18C35.9998 16.8954 35.1045 16.0001 33.9998 16.0001H27.9998V6C27.9998 4.89539 28.8954 4.00008 29.9998 4.00008H89.9998C91.1044 4.00008 91.9997 4.89563 91.9997 6V16.0001H46.0001C44.8955 16.0001 44.0002 16.8956 44.0002 18C44.0002 19.1046 44.8957 19.9999 46.0001 19.9999H92.0002V97.9999H86.0002C84.8955 97.9999 84.0002 98.8952 84.0002 99.9998C84.0002 101.104 84.8955 102 86.0002 102H92.0002V114C92.0002 115.104 91.1048 116 90.0002 116H30C28.8954 116 28.0001 115.104 28.0001 114V102H74.0002C75.1048 102 76.0001 101.104 76.0001 99.9998C76.0001 98.8952 75.1045 97.9999 74.0002 97.9999H28.0001V42C28.0001 40.8954 27.1045 40.0001 26.0002 40.0001C24.8958 40.0001 24.0002 40.8956 24.0002 42V114C24 117.314 26.6864 120 30 120Z" fill="#7661D6"/>
<path d="M57.9999 108C56.8953 108 56 108.896 56 110C56 111.105 56.8955 112 57.9999 112H62C63.1046 112 63.9999 111.104 63.9999 110C63.9999 108.895 63.1046 108 62 108H57.9999Z" fill="#7661D6"/>
<path d="M58 74C56.8954 74 56 73.1045 56 72V48C56 46.8954 56.8954 46 58 46C59.1046 46 60 46.8954 60 48V72C60 73.1045 59.1046 74 58 74Z" fill="#7661D6"/>
<path d="M64 50H52C50.8954 50 50 49.1045 50 48C50 46.8954 50.8954 46 52 46H64C65.1046 46 66 46.8954 66 48C66 49.1045 65.1046 50 64 50Z" fill="#7661D6"/>
<path d="M72 74C70.8954 74 70 73.1045 70 72V48C70 46.8954 70.8954 46 72 46C73.1046 46 74 46.8954 74 48V72C74 73.1045 73.1046 74 72 74Z" fill="#7661D6"/>
<path d="M80 62H72C70.8954 62 70 61.1045 70 60V48C70 46.8954 70.8954 46 72 46H80C84.4183 46 88 49.5817 88 54C88 58.4183 84.4183 62 80 62ZM74 58H80C82.2091 58 84 56.2091 84 54C84 51.7908 82.2091 50 80 50H74V58Z" fill="#7661D6"/>
<path fill-rule="evenodd" clip-rule="evenodd" d="M37.0237 52.3074C36.2633 54.0687 36 56.702 36 60C36 63.298 36.2633 65.9313 37.0237 67.6926C37.3861 68.5321 37.8218 69.076 38.3112 69.4187C38.7885 69.7529 39.4646 70 40.5 70C41.5354 70 42.2115 69.7529 42.6888 69.4187C43.1782 69.076 43.6139 68.5321 43.9763 67.6926C44.7367 65.9313 45 63.298 45 60C45 56.702 44.7367 54.0687 43.9763 52.3074C43.6139 51.4679 43.1782 50.924 42.6888 50.5813C42.2115 50.2471 41.5354 50 40.5 50C39.4646 50 38.7885 50.2471 38.3112 50.5813C37.8218 50.924 37.3861 51.4679 37.0237 52.3074ZM36.0169 47.3047C37.274 46.4245 38.7854 46 40.5 46C42.2146 46 43.726 46.4245 44.9831 47.3047C46.228 48.1765 47.0736 49.3899 47.6487 50.722C48.7633 53.3038 49 56.6706 49 60C49 63.3294 48.7633 66.6962 47.6487 69.278C47.0736 70.6101 46.228 71.8235 44.9831 72.6953C43.726 73.5755 42.2146 74 40.5 74C38.7854 74 37.274 73.5755 36.0169 72.6953C34.772 71.8235 33.9264 70.6101 33.3513 69.278C32.2367 66.6962 32 63.3294 32 60C32 56.6706 32.2367 53.3038 33.3513 50.722C33.9264 49.3899 34.772 48.1765 36.0169 47.3047Z" fill="#7661D6"/>
</svg>
