<svg width="120" height="120" viewBox="0 0 120 120" fill="none" xmlns="http://www.w3.org/2000/svg">
<path d="M25.9998 36.0001C26.8124 36.0048 27.547 35.5175 27.8587 34.767C28.1702 34.0166 27.997 33.1522 27.4199 32.5801L27.1199 32.3401C27.0084 32.2644 26.8874 32.2039 26.7599 32.1601C26.6465 32.1024 26.5253 32.0619 26.3999 32.0401C26.2677 32.0178 26.1339 32.0045 25.9998 32C25.4704 32.0077 24.9634 32.2149 24.5798 32.5801C24.3991 32.7713 24.2563 32.9954 24.1598 33.2401C23.8581 33.9861 24.0224 34.8397 24.5798 35.42C24.771 35.6007 24.9951 35.7434 25.2398 35.84C25.4805 35.9427 25.7385 35.997 25.9998 36.0001Z" fill="#7661D6"/>
<path d="M30 120H90C93.3136 120 96 117.314 96 114V6C96 2.68641 93.3136 0 90 0H30C26.6864 0 24 2.68641 24 6V25.9999C24 27.1045 24.8955 27.9998 25.9999 27.9998C27.1043 27.9998 27.9998 27.1043 27.9998 25.9999V19.9999H33.9998C35.1045 19.9999 35.9998 19.1046 35.9998 18C35.9998 16.8954 35.1045 16.0001 33.9998 16.0001H27.9998V6C27.9998 4.89539 28.8954 4.00008 29.9998 4.00008H89.9998C91.1044 4.00008 91.9997 4.89563 91.9997 6V16.0001H46.0001C44.8955 16.0001 44.0002 16.8956 44.0002 18C44.0002 19.1046 44.8957 19.9999 46.0001 19.9999H92.0002V97.9999H86.0002C84.8955 97.9999 84.0002 98.8952 84.0002 99.9998C84.0002 101.104 84.8955 102 86.0002 102H92.0002V114C92.0002 115.104 91.1048 116 90.0002 116H30C28.8954 116 28.0001 115.104 28.0001 114V102H74.0002C75.1048 102 76.0001 101.104 76.0001 99.9998C76.0001 98.8952 75.1045 97.9999 74.0002 97.9999H28.0001V42C28.0001 40.8954 27.1045 40.0001 26.0002 40.0001C24.8958 40.0001 24.0002 40.8956 24.0002 42V114C24 117.314 26.6864 120 30 120Z" fill="#7661D6"/>
<path d="M57.9999 108C56.8953 108 56 108.896 56 110C56 111.105 56.8955 112 57.9999 112H62C63.1046 112 63.9999 111.104 63.9999 110C63.9999 108.895 63.1046 108 62 108H57.9999Z" fill="#7661D6"/>
<path d="M40.7078 63.5393C41.2863 63.4135 41.6641 62.8552 41.566 62.2711C41.3331 60.8893 41.2099 59.4913 41.1978 58.0898H39C39.0121 59.6201 39.1464 61.1473 39.4024 62.6559C39.4542 62.9482 39.6223 63.2073 39.8683 63.3738C40.1142 63.5398 40.4171 63.5997 40.7078 63.5393Z" fill="#7661D6"/>
<path d="M49.9201 79.2272L51.2385 77.469C48.8209 75.6727 46.7328 73.4719 45.0657 70.9632L44.5023 70.0774C44.1854 69.5713 43.5219 69.4108 43.0083 69.7162C42.4952 70.022 42.3201 70.682 42.6144 71.2016L43.2296 72.171C45.0365 74.8909 47.2997 77.2784 49.9201 79.2272V79.2272Z" fill="#7661D6"/>
<path d="M42.6695 66.3061C42.5714 66.0435 42.3767 65.8277 42.1252 65.7039L41.9275 65.6345C41.8556 65.6154 41.7821 65.6058 41.7077 65.6048C41.6382 65.5953 41.5673 65.5953 41.4979 65.6048C41.4234 65.6154 41.35 65.631 41.2781 65.6521C41.0014 65.7437 40.7725 65.9414 40.6417 66.2019C40.5824 66.3378 40.5497 66.4841 40.5451 66.6325C40.524 67.0923 40.7851 67.5194 41.2046 67.7095C41.3394 67.7644 41.4838 67.791 41.6297 67.7885C41.7731 67.7905 41.9159 67.7634 42.0482 67.7085C42.3123 67.5888 42.5251 67.3791 42.6484 67.117C42.7555 66.8584 42.7625 66.5697 42.6695 66.3061Z" fill="#7661D6"/>
<path d="M59.8792 85.86C59.1669 85.8615 58.4727 85.6326 57.9013 85.207L49.9034 79.2324C49.418 78.8682 49.3194 78.1791 49.6836 77.6936C50.0478 77.2082 50.7365 77.1101 51.2224 77.4738L59.2202 83.4464C59.6121 83.7356 60.1468 83.7356 60.5387 83.4464L68.5356 77.4718C74.8135 73.0058 78.5476 65.7816 78.5607 58.077V41.197C72.659 38.6435 66.3096 37.2843 59.8792 37.1978C53.4494 37.2843 47.1 38.6435 41.1978 41.197V58.077C41.1978 58.6842 40.7058 59.1762 40.0991 59.1762C39.492 59.1762 39 58.6842 39 58.077V40.4947C39 40.0782 39.2354 39.6974 39.6077 39.5113C45.9716 36.5951 52.8799 35.0578 59.8792 35C66.879 35.0578 73.7873 36.5951 80.1508 39.5113C80.5235 39.6974 80.759 40.0782 80.759 40.4947V58.077C80.7534 66.4763 76.6914 74.3559 69.852 79.2324L61.8577 85.207C61.2862 85.6326 60.592 85.8615 59.8792 85.86V85.86Z" fill="#7661D6"/>
<path d="M59.8616 79.619C59.2101 79.6185 58.5738 79.4248 58.032 79.0631L52.6585 75.4805L52.6087 75.4433C46.4847 70.8671 43.3779 65.0253 43.3779 58.0803V43.7944C43.3774 43.3568 43.6365 42.9609 44.0374 42.7858C54.1058 38.2901 65.6113 38.2901 75.6797 42.7858C76.0832 42.9589 76.3447 43.3553 76.3452 43.7944V58.0803C76.3452 65.0253 73.239 70.8671 67.1144 75.4433L61.6927 79.0596C61.1509 79.4233 60.514 79.618 59.8616 79.619ZM53.9026 73.6685L59.2509 77.2346C59.6206 77.4816 60.103 77.4816 60.4728 77.2346L65.8453 73.6519C71.3375 69.5441 74.1475 64.2949 74.1475 58.0803V44.5233C65.0233 40.6212 54.7004 40.6212 45.5757 44.5233V58.0803C45.5757 64.2858 48.3772 69.529 53.9026 73.666V73.6685Z" fill="#7661D6"/>
<path d="M64.2912 67.968H55.4996C53.679 67.968 52.2031 66.492 52.2031 64.671V58.0777C52.2031 56.2572 53.679 54.7812 55.4996 54.7812H64.2912C66.1117 54.7812 67.5876 56.2572 67.5876 58.0777V64.671C67.5876 66.492 66.1117 67.968 64.2912 67.968V67.968ZM55.4996 56.979C54.8929 56.979 54.4009 57.471 54.4009 58.0777V64.671C54.4009 65.2782 54.8929 65.7702 55.4996 65.7702H64.2912C64.8979 65.7702 65.3898 65.2782 65.3898 64.671V58.0777C65.3898 57.471 64.8979 56.979 64.2912 56.979H55.4996Z" fill="#7661D6"/>
<path d="M59.8701 63.5801C59.2635 63.5801 58.7715 63.0882 58.7715 62.481V60.2832C58.7715 59.6765 59.2635 59.1846 59.8701 59.1846C60.4773 59.1846 60.9693 59.6765 60.9693 60.2832V62.481C60.9693 63.0882 60.4773 63.5801 59.8701 63.5801Z" fill="#7661D6"/>
<path d="M64.2848 56.9606H55.4932C54.8865 56.9606 54.3945 56.4686 54.3945 55.8615V53.6637C54.3945 50.6293 56.8544 48.1689 59.8887 48.1689C62.9236 48.1689 65.3835 50.6293 65.3835 53.6637V55.8615C65.3835 56.4686 64.8915 56.9606 64.2848 56.9606ZM56.5923 54.7628H63.1857V53.6637C63.1857 51.8432 61.7098 50.3667 59.8887 50.3667C58.0682 50.3667 56.5923 51.8432 56.5923 53.6637V54.7628Z" fill="#7661D6"/>
</svg>
