<svg width="120" height="120" viewBox="0 0 120 120" fill="none" xmlns="http://www.w3.org/2000/svg">
<g clip-path="url(#clip0)">
<path d="M14.6625 15.506C15.2094 15.5066 15.7327 15.2833 16.1105 14.888C17.9832 12.925 19.9944 11.099 22.1285 9.42398C22.7128 8.99062 23.0156 8.27423 22.9195 7.55321C22.8233 6.83218 22.3432 6.22023 21.6658 5.95517C20.9884 5.6901 20.2205 5.81372 19.6605 6.27798C17.375 8.07087 15.2208 10.0252 13.2145 12.126C12.6623 12.7052 12.5086 13.5579 12.8238 14.2936C13.1389 15.0292 13.8622 15.5061 14.6625 15.506Z" fill="#7661D6"/>
<path d="M1.32636 35.882C2.36345 36.2545 3.50643 35.7179 3.88236 34.682C5.67141 29.6875 8.16313 24.9734 11.2824 20.682C11.9313 19.7873 11.7321 18.5359 10.8374 17.887C9.94266 17.2381 8.69129 17.4373 8.04236 18.332C4.70269 22.9307 2.0346 27.9814 0.118356 33.332C-0.249382 34.3696 0.290526 35.5093 1.32636 35.882Z" fill="#7661D6"/>
<path d="M8.93839 32.772C8.49656 33.7849 8.9595 34.9642 9.97239 35.406C10.9853 35.8478 12.1646 35.3849 12.6064 34.372C15.5786 27.5901 20.0646 21.5791 25.7204 16.8C26.2917 16.3471 26.5712 15.6192 26.45 14.9003C26.3288 14.1814 25.8261 13.5854 25.1379 13.3448C24.4497 13.1043 23.6851 13.2572 23.1424 13.744C17.0173 18.9192 12.1584 25.4282 8.93839 32.772Z" fill="#7661D6"/>
<path d="M103.89 14.888C104.653 15.6877 105.92 15.7177 106.719 14.955C107.519 14.1923 107.549 12.9257 106.786 12.126C104.78 10.0252 102.626 8.07087 100.34 6.27798C99.7805 5.81372 99.0126 5.6901 98.3352 5.95517C97.6578 6.22023 97.1777 6.83219 97.0816 7.55321C96.9854 8.27423 97.2883 8.99062 97.8725 9.42398C100.007 11.099 102.018 12.925 103.89 14.888Z" fill="#7661D6"/>
<path d="M116.118 34.674C116.343 35.3678 116.927 35.8843 117.643 36.022C118.36 36.1597 119.094 35.8968 119.56 35.3357C120.026 34.7747 120.149 34.0046 119.882 33.326C117.966 27.9753 115.298 22.9247 111.958 18.326C111.309 17.4313 110.058 17.232 109.163 17.881C108.269 18.5299 108.069 19.7813 108.718 20.676C111.837 24.9668 114.329 29.6802 116.118 34.674Z" fill="#7661D6"/>
<path d="M107.4 34.372C107.686 35.0272 108.3 35.4802 109.01 35.5603C109.72 35.6404 110.42 35.3354 110.844 34.7603C111.269 34.1852 111.354 33.4272 111.068 32.772C107.849 25.4308 102.991 18.9239 96.8683 13.75C96.3234 13.2877 95.5734 13.1512 94.9006 13.3919C94.2278 13.6326 93.7345 14.2139 93.6066 14.9169C93.4786 15.6199 93.7355 16.3377 94.2803 16.8C99.9382 21.5785 104.426 27.5896 107.4 34.372Z" fill="#7661D6"/>
<path d="M18 84C19.1046 84 20 83.1046 20 82C20 80.8954 19.1046 80 18 80C16.8954 80 16 80.8954 16 82C16 83.1046 16.8954 84 18 84Z" fill="#7661D6"/>
<path d="M16 56V74C16 75.1046 16.8954 76 18 76C19.1046 76 20 75.1046 20 74V56C20 33.9086 37.9086 16 60 16C82.0914 16 100 33.9086 100 56V88H90C88.8954 88 88 88.8954 88 90C88 91.1046 88.8954 92 90 92H102C105.314 92 108 94.6863 108 98C108 101.314 105.314 104 102 104H18C14.6863 104 12 101.314 12 98C12 94.6863 14.6863 92 18 92H80C81.1046 92 82 91.1046 82 90C82 88.8954 81.1046 88 80 88H18C12.4772 88 8 92.4772 8 98C8 103.523 12.4772 108 18 108H46.16C47.1486 114.884 53.0458 119.994 60 119.994C66.9542 119.994 72.8514 114.884 73.84 108H102C107.138 108.005 111.443 104.117 111.959 99.005C112.476 93.8935 109.035 89.2224 104 88.2V56C103.973 36.3322 90.9161 19.0633 72 13.678V12C72 5.37258 66.6274 0 60 0C53.3726 0 48 5.37258 48 12V13.678C29.0839 19.0633 16.0267 36.3322 16 56ZM60 116C55.2498 115.994 51.1569 112.653 50.2 108H69.8C68.8431 112.653 64.7502 115.994 60 116ZM52 12C52 7.58172 55.5817 4 60 4C64.4183 4 68 7.58172 68 12V12.742C62.7125 11.7527 57.2875 11.7527 52 12.742V12Z" fill="#7661D6"/>
<path d="M51.2683 21.072C49.9199 21.4088 48.5923 21.8242 47.2923 22.316C46.3869 22.6565 45.8549 23.5962 46.0289 24.5478C46.2029 25.4993 47.033 26.19 48.0003 26.188C48.2424 26.1881 48.4825 26.1433 48.7083 26.056C49.8621 25.6205 51.04 25.2518 52.2363 24.952C52.9442 24.7927 53.5103 24.2626 53.7155 23.5666C53.9208 22.8707 53.7331 22.1182 53.2249 21.6002C52.7168 21.0823 51.968 20.8801 51.2683 21.072Z" fill="#7661D6"/>
<path d="M28.0005 56C27.9991 46.5597 32.1722 37.6021 39.4005 31.53C40.2455 30.8181 40.3534 29.556 39.6415 28.711C38.9296 27.866 37.6675 27.7581 36.8225 28.47C28.6919 35.3023 23.9983 45.3799 24.0005 56C24.0005 57.1045 24.8959 58 26.0005 58C27.1051 58 28.0005 57.1045 28.0005 56Z" fill="#7661D6"/>
<path d="M90.0005 84H94.0005C95.1051 84 96.0005 83.1046 96.0005 82C96.0005 80.8954 95.1051 80 94.0005 80H90.0005C88.8959 80 88.0005 80.8954 88.0005 82C88.0005 83.1046 88.8959 84 90.0005 84Z" fill="#7661D6"/>
<path d="M50.0005 82C50.0005 83.1046 50.8959 84 52.0005 84H80.0005C81.1051 84 82.0005 83.1046 82.0005 82C82.0005 80.8954 81.1051 80 80.0005 80H52.0005C50.8959 80 50.0005 80.8954 50.0005 82Z" fill="#7661D6"/>
</g>
<defs>
<clipPath id="clip0">
<rect width="120" height="120" fill="white"/>
</clipPath>
</defs>
</svg>
