<svg width="120" height="120" viewBox="0 0 120 120" fill="none" xmlns="http://www.w3.org/2000/svg">
<g clip-path="url(#clip0)">
<path d="M24 22H12C10.8954 22 10 21.1046 10 20C10 18.8954 10.8954 18 12 18H24C25.1046 18 26 18.8954 26 20C26 21.1046 25.1046 22 24 22Z" fill="#7661D6"/>
<path d="M52 22H34C32.8954 22 32 21.1046 32 20C32 18.8954 32.8954 18 34 18H52C53.1046 18 54 18.8954 54 20C54 21.1046 53.1046 22 52 22Z" fill="#7661D6"/>
<path d="M76 44H12C10.8954 44 10 43.1046 10 42C10 40.8954 10.8954 40 12 40H76C77.1046 40 78 40.8954 78 42C78 43.1046 77.1046 44 76 44Z" fill="#7661D6"/>
<path d="M40 52H12C10.8954 52 10 51.1046 10 50C10 48.8954 10.8954 48 12 48H40C41.1046 48 42 48.8954 42 50C42 51.1046 41.1046 52 40 52Z" fill="#7661D6"/>
<path d="M76 52H48C46.8954 52 46 51.1046 46 50C46 48.8954 46.8954 48 48 48H76C77.1046 48 78 48.8954 78 50C78 51.1046 77.1046 52 76 52Z" fill="#7661D6"/>
<path d="M66.86 60H12C10.8954 60 10 59.1046 10 58C10 56.8954 10.8954 56 12 56H66.86C67.9646 56 68.86 56.8954 68.86 58C68.86 59.1046 67.9646 60 66.86 60Z" fill="#7661D6"/>
<path d="M40 68H12C10.8954 68 10 67.1046 10 66C10 64.8954 10.8954 64 12 64H40C41.1046 64 42 64.8954 42 66C42 67.1046 41.1046 68 40 68Z" fill="#7661D6"/>
<path d="M62 68H48C46.8954 68 46 67.1046 46 66C46 64.8954 46.8954 64 48 64H62C63.1046 64 64 64.8954 64 66C64 67.1046 63.1046 68 62 68Z" fill="#7661D6"/>
<path d="M62 76H12C10.8954 76 10 75.1046 10 74C10 72.8954 10.8954 72 12 72H62C63.1046 72 64 72.8954 64 74C64 75.1046 63.1046 76 62 76Z" fill="#7661D6"/>
<path d="M40 84H12C10.8954 84 10 83.1046 10 82C10 80.8954 10.8954 80 12 80H40C41.1046 80 42 80.8954 42 82C42 83.1046 41.1046 84 40 84Z" fill="#7661D6"/>
<path d="M62 84H48C46.8954 84 46 83.1046 46 82C46 80.8954 46.8954 80 48 80H62C63.1046 80 64 80.8954 64 82C64 83.1046 63.1046 84 62 84Z" fill="#7661D6"/>
<path d="M62.04 92H12C10.8954 92 10 91.1046 10 90C10 88.8954 10.8954 88 12 88H62.04C63.1446 88 64.04 88.8954 64.04 90C64.04 91.1046 63.1446 92 62.04 92Z" fill="#7661D6"/>
<path d="M72.64 108H12C10.8954 108 10 107.105 10 106C10 104.895 10.8954 104 12 104H72.64C73.7446 104 74.64 104.895 74.64 106C74.64 107.105 73.7446 108 72.64 108Z" fill="#7661D6"/>
<path d="M40 100H12C10.8954 100 10 99.1046 10 98C10 96.8954 10.8954 96 12 96H40C41.1046 96 42 96.8954 42 98C42 99.1046 41.1046 100 40 100Z" fill="#7661D6"/>
<path d="M64.38 100H48C46.8954 100 46 99.1046 46 98C46 96.8954 46.8954 96 48 96H64.38C65.4846 96 66.38 96.8954 66.38 98C66.38 99.1046 65.4846 100 64.38 100Z" fill="#7661D6"/>
<path d="M2 64C0.89543 64 0 64.8954 0 66V74H4V66C4 64.8954 3.10457 64 2 64Z" fill="#7661D6"/>
<path d="M4 14H0V50C0 51.1046 0.89543 52 2 52C3.10457 52 4 51.1046 4 50V14Z" fill="#7661D6"/>
<path d="M0 58C0.00776077 58.5295 0.21487 59.0365 0.58 59.42L0.88 59.66C0.991454 59.7358 1.11252 59.7963 1.24 59.84C1.35333 59.8978 1.47468 59.9382 1.6 59.96C1.73229 59.9823 1.86592 59.9956 2 60C2.52945 59.9922 3.03651 59.7851 3.42 59.42C3.60079 59.2288 3.74335 59.0048 3.84 58.76C4.14175 58.0141 3.9773 57.1604 3.42 56.58C3.22879 56.3992 3.00476 56.2566 2.76 56.16C2.51956 56.0575 2.26135 56.0032 2 56C1.47055 56.0078 0.963486 56.2149 0.58 56.58C0.21487 56.9635 0.00776077 57.4705 0 58H0Z" fill="#7661D6"/>
<path d="M82 120H6C2.68629 120 0 117.314 0 114V74C0 72.8954 0.895431 72 2 72C3.10457 72 4 72.8954 4 74V114C4 115.105 4.89543 116 6 116H82C82.8397 115.996 83.5874 115.468 83.872 114.678C84.1082 114.004 84.6862 113.506 85.3885 113.373C86.0907 113.241 86.8104 113.493 87.2765 114.034C87.7425 114.576 87.8842 115.326 87.648 116C86.8015 118.394 84.5395 119.996 82 120Z" fill="#7661D6"/>
<path d="M86 51.72C84.8954 51.72 84 50.8246 84 49.72V34.828L61.172 12H6C4.89543 12 4 12.8954 4 14C4 15.1046 3.10457 16 2 16C0.89543 16 0 15.1046 0 14C0 10.6863 2.68629 8 6 8H62C62.5304 8.00011 63.039 8.2109 63.414 8.586L87.414 32.586C87.7891 32.961 87.9999 33.4696 88 34V49.72C88 50.8246 87.1046 51.72 86 51.72Z" fill="#7661D6"/>
<path d="M86 36H66C62.6863 36 60 33.3137 60 30V10C60.0002 9.19121 60.4875 8.46213 61.2347 8.15264C61.9819 7.84315 62.842 8.01418 63.414 8.586L87.414 32.586C87.9858 33.158 88.1568 34.0181 87.8474 34.7653C87.5379 35.5125 86.8088 35.9998 86 36ZM64 14.828V30C64 31.1046 64.8954 32 66 32H81.172L64 14.828Z" fill="#7661D6"/>
<path d="M86.0001 36C85.4697 35.9999 84.9611 35.7891 84.5861 35.414L60.5861 11.414C59.8281 10.6293 59.839 9.38185 60.6104 8.61038C61.3819 7.83892 62.6293 7.82808 63.4141 8.58602L87.4141 32.586C87.9859 33.158 88.1569 34.0181 87.8474 34.7653C87.5379 35.5126 86.8089 35.9998 86.0001 36Z" fill="#7661D6"/>
<path d="M94 51.72C92.8954 51.72 92 50.8246 92 49.72V6C92 4.89543 91.1046 4 90 4H14C12.8954 4 12 4.89543 12 6V10C12 11.1046 11.1046 12 10 12C8.89543 12 8 11.1046 8 10V6C8 2.68629 10.6863 0 14 0H90C93.3137 0 96 2.68629 96 6V49.72C96 50.8246 95.1046 51.72 94 51.72Z" fill="#7661D6"/>
<path d="M90 120C89.2582 120 88.5347 119.77 87.93 119.34L68.578 105.564C63.2153 101.757 60.0206 95.5947 60 89.018V60.096C59.9988 59.2997 60.4702 58.5785 61.2 58.26L89.2 46.164C89.7055 45.946 90.2785 45.946 90.784 46.164L118.784 58.26C119.514 58.5785 119.985 59.2997 119.984 60.096V89.018C119.963 95.5947 116.769 101.757 111.406 105.564L92.056 119.338C91.4555 119.766 90.7373 119.997 90 120ZM64 61.41V89.01C64.0195 94.2932 66.5884 99.2419 70.898 102.298L90 115.904L109.102 102.304C113.411 99.2483 115.98 94.3004 116 89.018V61.418L90 50.178L64 61.41Z" fill="#7661D6"/>
<path d="M90 110.54C89.5841 110.54 89.1786 110.41 88.84 110.168L73.216 99.046C69.9607 96.7412 68.0182 93.0066 68 89.018V65.354C67.9988 64.5577 68.4702 63.8365 69.2 63.518L89.2 54.878C89.7055 54.66 90.2785 54.66 90.784 54.878L110.784 63.518C111.514 63.8365 111.985 64.5577 111.984 65.354V89.018C111.965 93.0065 110.023 96.7407 106.768 99.046L91.16 110.168C90.8214 110.41 90.4159 110.54 90 110.54ZM75.538 95.788L90 106.084L104.462 95.8C106.668 94.2436 107.985 91.7175 108 89.018V66.668L90 58.894L72 66.668V89.018C72.0175 91.7135 73.3351 94.2347 75.538 95.788Z" fill="#7661D6"/>
<path d="M86.0001 94C85.5674 94 85.1463 93.8596 84.8001 93.6L76.8001 87.6C75.9165 86.9372 75.7374 85.6836 76.4001 84.8C77.0629 83.9163 78.3165 83.7372 79.2001 84.4L85.6501 89.238L100.438 70.75C101.128 69.8873 102.387 69.7476 103.25 70.438C104.113 71.1283 104.252 72.3873 103.562 73.25L87.5621 93.25C87.1824 93.7243 86.6077 94.0002 86.0001 94Z" fill="#7661D6"/>
</g>
<defs>
<clipPath id="clip0">
<rect width="120" height="120" fill="white"/>
</clipPath>
</defs>
</svg>
