<svg width="120" height="120" viewBox="0 0 120 120" fill="none" xmlns="http://www.w3.org/2000/svg">
<path d="M25.2017 51.9177C26.2546 51.6888 26.9421 50.6726 26.7636 49.6097C26.3397 47.0947 26.1154 44.5505 26.0934 41.9998H22.0935C22.1155 44.7849 22.3599 47.5644 22.8259 50.3101C22.9202 50.842 23.226 51.3135 23.6737 51.6165C24.1214 51.9186 24.6725 52.0276 25.2017 51.9177Z" fill="#7661D6"/>
<path d="M41.9421 80.5041L44.3417 77.3044C39.9416 74.035 36.1413 70.0296 33.1072 65.4639L32.0818 63.8516C31.5051 62.9306 30.2975 62.6385 29.3627 63.1943C28.4289 63.7509 28.1103 64.9521 28.6459 65.8978L29.7656 67.662C33.0541 72.6123 37.1731 76.9574 41.9421 80.5041Z" fill="#7661D6"/>
<path d="M28.7741 56.9659C28.5956 56.488 28.2412 56.0953 27.7835 55.87L27.4237 55.7437C27.2928 55.7089 27.1591 55.6915 27.0236 55.6897C26.8973 55.6723 26.7682 55.6723 26.6418 55.6897C26.5063 55.7089 26.3727 55.7373 26.2417 55.7757C25.7382 55.9424 25.3216 56.3022 25.0836 56.7764C24.9756 57.0236 24.9161 57.29 24.9078 57.5601C24.8694 58.3969 25.3445 59.1742 26.1081 59.5202C26.3534 59.62 26.6162 59.6686 26.8817 59.664C27.1426 59.6676 27.4026 59.6182 27.6434 59.5184C28.1241 59.3005 28.5113 58.9187 28.7356 58.4418C28.9306 57.9712 28.9435 57.4457 28.7741 56.9659Z" fill="#7661D6"/>
<path d="M108.094 120H12.0941C8.77991 120 6.09375 117.314 6.09375 114V90C6.09375 86.6867 8.77991 83.9996 12.0941 83.9996C13.1982 83.9996 14.0936 84.895 14.0936 86.0001C14.0936 87.1042 13.1982 87.9996 12.0941 87.9996C10.9891 87.9996 10.0937 88.8959 10.0937 90V114C10.0937 115.105 10.9891 116 12.0941 116H108.094C109.199 116 110.094 115.105 110.094 114V90C110.094 88.8959 109.199 87.9996 108.094 87.9996C106.989 87.9996 106.094 87.1042 106.094 86.0001C106.094 84.895 106.989 83.9996 108.094 83.9996C111.408 83.9996 114.094 86.6867 114.094 90V114C114.094 117.314 111.408 120 108.094 120Z" fill="#7661D6"/>
<path d="M108.094 120H12.0941C8.77991 120 6.09375 117.314 6.09375 114V90C6.09375 86.6867 8.77991 83.9996 12.0941 83.9996H52.0935C53.1985 83.9996 54.0939 84.895 54.0939 86.0001C54.0939 87.1042 53.1985 87.9996 52.0935 87.9996H12.0941C10.9891 87.9996 10.0937 88.8959 10.0937 90V114C10.0937 115.105 10.9891 116 12.0941 116H108.094C109.199 116 110.094 115.105 110.094 114V90C110.094 88.8959 109.199 87.9996 108.094 87.9996H68.0942C66.9891 87.9996 66.0938 87.1042 66.0938 86.0001C66.0938 84.895 66.9891 83.9996 68.0942 83.9996H108.094C111.408 83.9996 114.094 86.6867 114.094 90V114C114.094 117.314 111.408 120 108.094 120Z" fill="#7661D6"/>
<path d="M24.0939 104C23.9291 104 23.7652 103.98 23.6059 103.94L15.606 101.94C14.9084 101.771 14.3545 101.24 14.1558 100.551C13.9572 99.8602 14.1439 99.1168 14.6438 98.6023C15.1446 98.0878 15.8825 97.8809 16.5774 98.0603L24.5773 100.06C25.5569 100.305 26.1996 101.242 26.0769 102.244C25.9533 103.246 25.1028 103.999 24.0939 104Z" fill="#7661D6"/>
<path d="M18.0935 112C17.3363 112 16.6433 111.572 16.3045 110.894C15.9658 110.217 16.039 109.406 16.4941 108.8L22.4935 100.8C23.1564 99.9161 24.4097 99.7375 25.2941 100.4C26.1776 101.062 26.3561 102.317 25.6933 103.2L19.6938 111.2C19.3157 111.703 18.7234 112 18.0935 112Z" fill="#7661D6"/>
<path d="M30.0934 112C29.4644 112 28.8712 111.703 28.494 111.2L22.4936 103.2C21.8307 102.317 22.0102 101.062 22.8937 100.4C23.7772 99.7375 25.0314 99.9161 25.6934 100.8L31.6937 108.8C32.1478 109.406 32.2211 110.217 31.8823 110.894C31.5436 111.572 30.8514 112 30.0934 112Z" fill="#7661D6"/>
<path d="M24.094 104C23.0841 103.999 22.2336 103.246 22.1109 102.244C21.9882 101.242 22.6309 100.305 23.6096 100.06L31.6095 98.0603C32.3053 97.8809 33.0432 98.0878 33.5431 98.6023C34.0439 99.1168 34.2298 99.8602 34.0311 100.551C33.8324 101.24 33.2794 101.771 32.5818 101.94L24.5819 103.94C24.4226 103.98 24.2588 104 24.094 104Z" fill="#7661D6"/>
<path d="M24.0939 104C22.9889 104 22.0935 103.105 22.0935 102V93.9999C22.0935 92.8958 22.9889 92.0004 24.0939 92.0004C25.1981 92.0004 26.0934 92.8958 26.0934 93.9999V102C26.0934 103.105 25.1981 104 24.0939 104Z" fill="#7661D6"/>
<path d="M48.0936 104C47.9288 104 47.7649 103.98 47.6056 103.94L39.6057 101.94C38.5419 101.666 37.8983 100.583 38.1656 99.5178C38.4329 98.4512 39.5096 97.8003 40.578 98.0603L48.5779 100.06C49.5566 100.305 50.1993 101.242 50.0766 102.244C49.9539 103.246 49.1034 103.999 48.0936 104Z" fill="#7661D6"/>
<path d="M42.0942 112C41.3361 112 40.644 111.572 40.3052 110.894C39.9665 110.217 40.0397 109.406 40.4938 108.8L46.4942 100.8C46.9227 100.228 47.6239 99.9289 48.3335 100.014C49.0421 100.1 49.6528 100.557 49.9329 101.214C50.214 101.872 50.1224 102.629 49.694 103.2L43.6936 111.2C43.3164 111.703 42.7231 112 42.0942 112Z" fill="#7661D6"/>
<path d="M54.094 112C53.4641 112 52.8717 111.703 52.4936 111.2L46.4942 103.2C45.8313 102.317 46.0098 101.062 46.8933 100.4C47.7777 99.7375 49.0311 99.9161 49.6939 100.8L55.6934 108.8C56.1484 109.406 56.2216 110.217 55.8829 110.894C55.5442 111.572 54.8511 112 54.094 112Z" fill="#7661D6"/>
<path d="M48.0936 104C47.0847 103.999 46.2342 103.246 46.1106 102.244C45.9879 101.242 46.6306 100.305 47.6102 100.06L55.6101 98.0603C56.305 97.8809 57.0429 98.0878 57.5437 98.6023C58.0435 99.1168 58.2303 99.8602 58.0316 100.551C57.833 101.24 57.2791 101.771 56.5815 101.94L48.5816 103.94C48.4223 103.98 48.2584 104 48.0936 104Z" fill="#7661D6"/>
<path d="M48.0935 104C46.9894 104 46.094 103.105 46.094 102V93.9999C46.094 92.8958 46.9894 92.0004 48.0935 92.0004C49.1985 92.0004 50.0939 92.8958 50.0939 93.9999V102C50.0939 103.105 49.1985 104 48.0935 104Z" fill="#7661D6"/>
<path d="M72.0942 104C71.9294 104 71.7655 103.98 71.6062 103.94L63.6054 101.94C62.5416 101.666 61.8989 100.583 62.1653 99.5178C62.4326 98.4512 63.5102 97.8003 64.5777 98.0603L72.5776 100.06C73.5572 100.305 74.1999 101.242 74.0763 102.244C73.9536 103.246 73.1031 103.999 72.0942 104Z" fill="#7661D6"/>
<path d="M66.0938 112C65.3367 112 64.6436 111.572 64.3049 110.894C63.9661 110.217 64.0394 109.406 64.4935 108.8L70.4938 100.8C71.1567 99.9161 72.41 99.7375 73.2935 100.4C74.1779 101.062 74.3564 102.317 73.6936 103.2L67.6941 111.2C67.316 111.703 66.7237 112 66.0938 112Z" fill="#7661D6"/>
<path d="M78.0935 112C77.4645 112 76.8712 111.703 76.494 111.2L70.4937 103.2C70.0652 102.629 69.9737 101.872 70.2547 101.214C70.5349 100.557 71.1446 100.1 71.8542 100.014C72.5637 99.9289 73.265 100.228 73.6934 100.8L79.6938 108.8C80.1479 109.406 80.2212 110.217 79.8824 110.894C79.5437 111.572 78.8515 112 78.0935 112Z" fill="#7661D6"/>
<path d="M72.0942 104C71.0843 103.999 70.2338 103.246 70.1111 102.244C69.9875 101.242 70.6302 100.305 71.6098 100.06L79.6097 98.0603C80.3046 97.8809 81.0425 98.0878 81.5433 98.6023C82.0441 99.1168 82.23 99.8602 82.0313 100.551C81.8326 101.24 81.2796 101.771 80.582 101.94L72.5821 103.94C72.4219 103.98 72.258 104 72.0942 104Z" fill="#7661D6"/>
<path d="M72.0942 104C70.9891 104 70.0938 103.105 70.0938 102V93.9999C70.0938 92.8958 70.9891 92.0004 72.0942 92.0004C73.1983 92.0004 74.0937 92.8958 74.0937 93.9999V102C74.0937 103.105 73.1983 104 72.0942 104Z" fill="#7661D6"/>
<path d="M96.0938 104C95.929 104 95.7651 103.98 95.6058 103.94L87.6059 101.94C86.9083 101.771 86.3553 101.24 86.1557 100.551C85.9571 99.8602 86.1438 99.1168 86.6437 98.6023C87.1445 98.0878 87.8824 97.8809 88.5782 98.0603L96.5781 100.06C97.5568 100.305 98.1995 101.242 98.0768 102.244C97.9532 103.246 97.1036 103.999 96.0938 104Z" fill="#7661D6"/>
<path d="M90.0934 112C89.3362 112 88.6441 111.572 88.3044 110.894C87.9657 110.217 88.0389 109.406 88.4939 108.8L94.4934 100.8C94.9228 100.228 95.6231 99.9289 96.3327 100.014C97.0422 100.1 97.652 100.557 97.933 101.214C98.2141 101.872 98.1225 102.629 97.6941 103.2L91.6937 111.2C91.3156 111.703 90.7232 112 90.0934 112Z" fill="#7661D6"/>
<path d="M102.094 112C101.464 112 100.872 111.703 100.494 111.2L94.4935 103.2C93.8306 102.317 94.0101 101.062 94.8935 100.4C95.777 99.7375 97.0313 99.9161 97.6941 100.8L103.694 108.8C104.149 109.406 104.222 110.217 103.883 110.894C103.543 111.572 102.851 112 102.094 112Z" fill="#7661D6"/>
<path d="M96.0938 104C95.084 103.999 94.2344 103.246 94.1108 102.244C93.9881 101.242 94.6308 100.305 95.6095 100.06L103.609 98.0603C104.678 97.8003 105.755 98.4512 106.022 99.5178C106.289 100.583 105.646 101.666 104.582 101.94L96.5818 103.94C96.4225 103.98 96.2586 104 96.0938 104Z" fill="#7661D6"/>
<path d="M96.0937 104C94.9896 104 94.0933 103.105 94.0933 102V93.9999C94.0933 92.8958 94.9896 92.0004 96.0937 92.0004C97.1978 92.0004 98.0941 92.8958 98.0941 93.9999V102C98.0941 103.105 97.1978 104 96.0937 104Z" fill="#7661D6"/>
<path d="M60.0934 92.5644C58.797 92.5671 57.5336 92.1506 56.4935 91.376L41.9376 80.5023C41.0541 79.8395 40.8746 78.5852 41.5375 77.7017C42.2003 76.8182 43.4537 76.6397 44.3381 77.3016L58.894 88.1717C59.6072 88.6981 60.5804 88.6981 61.2936 88.1717L75.8478 77.298C87.2736 69.1699 94.0695 56.022 94.0933 41.9998V11.2784C83.3524 6.63116 71.7966 4.15741 60.0934 3.99994C48.3911 4.15741 36.8353 6.63116 26.0934 11.2784V41.9998C26.0934 43.1049 25.1981 44.0002 24.0939 44.0002C22.9889 44.0002 22.0935 43.1049 22.0935 41.9998V10.0003C22.0935 9.24225 22.522 8.54919 23.1995 8.21045C34.7818 2.90314 47.3547 0.105286 60.0934 0C72.8329 0.105286 85.4059 2.90314 96.9873 8.21045C97.6657 8.54919 98.0942 9.24225 98.0942 10.0003V41.9998C98.0841 57.2864 90.6912 71.6272 78.2437 80.5023L63.6942 91.376C62.6541 92.1506 61.3907 92.5671 60.0934 92.5644Z" fill="#7661D6"/>
<path d="M60.0934 81.2C58.9078 81.1991 57.7496 80.8466 56.7636 80.1883L46.9839 73.6679L46.8933 73.6002C35.7477 65.2716 30.0934 54.6396 30.0934 41.9998V15.9998C30.0925 15.2033 30.564 14.4827 31.2936 14.1641C49.6179 5.98207 70.5579 5.98207 88.8821 14.1641C89.6164 14.4791 90.0925 15.2005 90.0934 15.9998V41.9998C90.0934 54.6396 84.44 65.2716 73.2935 73.6002L63.4259 80.1819C62.4399 80.8438 61.2808 81.1981 60.0934 81.2ZM49.248 70.3702L58.9819 76.8604C59.6548 77.3099 60.5328 77.3099 61.2057 76.8604L70.9836 70.34C80.9793 62.8638 86.0934 53.3103 86.0934 41.9998V17.3264C69.4876 10.2246 50.7001 10.2246 34.0933 17.3264V41.9998C34.0933 53.2938 39.1919 62.8363 49.248 70.3656V70.3702Z" fill="#7661D6"/>
<path d="M68.0941 60H52.0934C48.7802 60 46.094 57.3138 46.094 53.9996V41.9998C46.094 38.6865 48.7802 36.0004 52.0934 36.0004H68.0941C71.4074 36.0004 74.0936 38.6865 74.0936 41.9998V53.9996C74.0936 57.3138 71.4074 60 68.0941 60ZM52.0934 40.0003C50.9893 40.0003 50.0939 40.8957 50.0939 41.9998V53.9996C50.0939 55.1047 50.9893 56.0001 52.0934 56.0001H68.0941C69.1982 56.0001 70.0936 55.1047 70.0936 53.9996V41.9998C70.0936 40.8957 69.1982 40.0003 68.0941 40.0003H52.0934Z" fill="#7661D6"/>
<path d="M60.0934 52.0001C58.9893 52.0001 58.0939 51.1047 58.0939 49.9997V45.9998C58.0939 44.8956 58.9893 44.0002 60.0934 44.0002C61.1984 44.0002 62.0938 44.8956 62.0938 45.9998V49.9997C62.0938 51.1047 61.1984 52.0001 60.0934 52.0001Z" fill="#7661D6"/>
<path d="M68.0942 40.0003H52.0935C50.9894 40.0003 50.094 39.1049 50.094 37.9999V33.9999C50.094 28.4775 54.5709 23.9996 60.0934 23.9996C65.6168 23.9996 70.0937 28.4775 70.0937 33.9999V37.9999C70.0937 39.1049 69.1983 40.0003 68.0942 40.0003ZM54.0939 36.0004H66.0938V33.9999C66.0938 30.6866 63.4076 27.9996 60.0934 27.9996C56.7801 27.9996 54.0939 30.6866 54.0939 33.9999V36.0004Z" fill="#7661D6"/>
</svg>
