<svg width="120" height="120" viewBox="0 0 120 120" fill="none" xmlns="http://www.w3.org/2000/svg">
<path d="M2.03981 43C0.935241 43.0055 0.0353335 42.1146 0.0298107 41.01C0.0242879 39.9054 0.915241 39.0055 2.01981 39H2.03981C3.14438 39 4.03981 39.8954 4.03981 41C4.03981 42.1046 3.14438 43 2.03981 43Z" fill="#7661D6"/>
<path d="M14 83H43.918C44.5802 83.0026 45.1988 83.331 45.572 83.878L56.722 99.294C57.4675 100.359 58.6844 100.996 59.9848 101.001C61.2852 101.006 62.5067 100.378 63.26 99.318L74.446 83.852C74.82 83.3185 75.4304 83.0006 76.082 83H106C113.728 82.9912 119.991 76.7283 120 69V33C119.991 25.2717 113.728 19.0088 106 19H14C6.27167 19.0088 0.00881728 25.2717 0 33C0 34.1046 0.89543 35 2 35C3.10457 35 4 34.1046 4 33C4.00661 27.4799 8.47989 23.0066 14 23H106C111.52 23.0066 115.993 27.4799 116 33V69C115.993 74.5201 111.52 78.9934 106 79H76.082C74.1356 79.0005 72.3104 79.9452 71.186 81.534L59.986 96.974L48.832 81.56C47.7097 79.9562 45.8755 79.0006 43.918 79H14C8.47989 78.9934 4.00661 74.5201 4 69V49C4 47.8954 3.10457 47 2 47C0.89543 47 0 47.8954 0 49V69C0.00881728 76.7283 6.27167 82.9912 14 83Z" fill="#7661D6"/>
<path d="M70 37H62C60.8954 37 60 36.1046 60 35C60 33.8954 60.8954 33 62 33H70C71.1046 33 72 33.8954 72 35C72 36.1046 71.1046 37 70 37Z" fill="#7661D6"/>
<path d="M108 37H80C78.8954 37 78 36.1046 78 35C78 33.8954 78.8954 33 80 33H108C109.105 33 110 33.8954 110 35C110 36.1046 109.105 37 108 37Z" fill="#7661D6"/>
<path d="M84 47H62C60.8954 47 60 46.1046 60 45C60 43.8954 60.8954 43 62 43H84C85.1046 43 86 43.8954 86 45C86 46.1046 85.1046 47 84 47Z" fill="#7661D6"/>
<path d="M108 47H96C94.8954 47 94 46.1046 94 45C94 43.8954 94.8954 43 96 43H108C109.105 43 110 43.8954 110 45C110 46.1046 109.105 47 108 47Z" fill="#7661D6"/>
<path d="M47.9999 69.0002H16.0004C12.6862 69.0002 10 66.3141 10 62.9999V39.0002C10 35.686 12.6862 32.9999 16.0004 32.9999H47.9999C51.3141 32.9999 54.0002 35.686 54.0002 39.0002V62.9999C54.0002 66.3141 51.3141 69.0002 47.9999 69.0002ZM16.0004 36.9998C14.8953 36.9998 13.9999 37.8952 13.9999 39.0002V62.9999C13.9999 64.1049 14.8953 65.0003 16.0004 65.0003H47.9999C49.1049 65.0003 50.0003 64.1049 50.0003 62.9999V39.0002C50.0003 37.8952 49.1049 36.9998 47.9999 36.9998H16.0004Z" fill="#7661D6"/>
<path d="M31.9999 57.0004C27.5815 57.0004 24 53.418 24 48.9996C24 44.5813 27.5815 40.9998 31.9999 40.9998C36.4182 40.9998 39.9998 44.5813 39.9998 48.9996C39.9998 51.1218 39.1575 53.1561 37.6569 54.6567C36.1564 56.1572 34.1212 57.0004 31.9999 57.0004ZM31.9999 44.9997C29.7907 44.9997 27.9999 46.7905 27.9999 48.9996C27.9999 51.2088 29.7907 52.9996 31.9999 52.9996C34.209 52.9996 35.9998 51.2088 35.9998 48.9996C35.9998 46.7905 34.209 44.9997 31.9999 44.9997Z" fill="#7661D6"/>
<path d="M44.0001 69.0002C42.8959 69.0002 42.0005 68.1049 42.0005 66.9998C42.0005 61.4774 37.5227 57.0004 32.0002 57.0004C26.4778 57.0004 21.9999 61.4774 21.9999 66.9998C21.9999 68.1049 21.1046 69.0002 20.0004 69.0002C18.8954 69.0002 18 68.1049 18 66.9998C18 59.2682 24.2686 52.9996 32.0002 52.9996C39.7319 52.9996 46.0005 59.2682 46.0005 66.9998C46.0005 67.5308 45.7899 68.0389 45.4146 68.4143C45.0392 68.7897 44.5311 69.0002 44.0001 69.0002Z" fill="#7661D6"/>
<path d="M108 66.9999C106.896 66.9999 106 66.1045 106 65.0004V61.0004H91.9999C90.8949 61.0004 89.9995 60.1041 89.9995 59C89.9995 57.8959 90.8949 56.9996 91.9999 56.9996H108C109.105 56.9996 110 57.8959 110 59V65.0004C110 66.1045 109.105 66.9999 108 66.9999Z" fill="#7661D6"/>
<path d="M88.0004 65.0004C84.6862 65.0004 82 62.3133 82 59C82 55.6867 84.6862 52.9996 88.0004 52.9996C91.3137 52.9996 93.9998 55.6867 93.9998 59C93.9998 62.3133 91.3137 65.0004 88.0004 65.0004ZM88.0004 56.9996C86.8953 56.9996 85.9999 57.8959 85.9999 59C85.9999 60.1041 86.8953 61.0004 88.0004 61.0004C89.1045 61.0004 89.9999 60.1041 89.9999 59C89.9999 57.8959 89.1045 56.9996 88.0004 56.9996Z" fill="#7661D6"/>
<path d="M99.9999 65.0004C98.8958 65.0004 97.9995 64.105 97.9995 62.9999V59C97.9995 57.8959 98.8958 56.9996 99.9999 56.9996C101.104 56.9996 102 57.8959 102 59V62.9999C102 64.105 101.104 65.0004 99.9999 65.0004Z" fill="#7661D6"/>
</svg>
