<svg width="120" height="120" viewBox="0 0 120 120" fill="none" xmlns="http://www.w3.org/2000/svg">
<g clip-path="url(#clip0)">
<path d="M2.00528 42.0072C2.53469 41.9994 3.04159 41.7923 3.42523 41.4271C4.1986 40.6385 4.1986 39.3761 3.42523 38.5875L3.12526 38.3475C3.01371 38.2718 2.89278 38.2113 2.76529 38.1675C2.65186 38.1096 2.5307 38.0693 2.40532 38.0475C2.27315 38.0253 2.13933 38.0119 2.00528 38.0074C1.47588 38.0152 0.968971 38.2224 0.585334 38.5875C0.404648 38.7787 0.261927 39.0027 0.165373 39.2474C-0.13624 39.9934 0.0280417 40.8469 0.585334 41.4271C0.776567 41.6078 1.00061 41.7505 1.24527 41.8471C1.48572 41.9497 1.74398 42.0041 2.00528 42.0072Z" fill="#7661D6"/>
<path d="M113.995 0.0110146H89.9974C86.6841 0.0110146 83.9979 2.69717 83.9979 6.01046V10.0102H81.9982C78.6849 10.0102 75.9987 12.6963 75.9987 16.0096V58.0058H71.999V24.0088C71.999 19.591 68.4176 16.0096 63.9998 16.0096H56.0006C55.8832 16.0216 55.7674 16.045 55.6547 16.0797C54.8314 13.656 52.561 12.0216 50.0012 12.0101H49.8592C48.8697 5.11758 42.9652 0 36.0023 0C29.0394 0 23.1347 5.11758 22.1455 12.0099H22.0034C19.4438 12.0214 17.1734 13.6558 16.3499 16.0795C16.2372 16.0448 16.1212 16.0213 16.004 16.0094H8.0048C3.58701 16.0094 0.00561523 19.5908 0.00561523 24.0086V32.0078C0.00561523 33.1123 0.90108 34.0075 2.00535 34.0075C3.10963 34.0075 4.00509 33.1123 4.00509 32.0078V24.0086C4.00509 21.7996 5.79579 20.0089 8.0048 20.0089H16.004V24.0086H12.0045C9.7955 24.0086 8.0048 25.7993 8.0048 28.0083V108.001C8.0048 110.21 9.7955 112.001 12.0045 112.001H60.0001C62.2091 112.001 63.9998 110.21 63.9998 108.001V28.0085C63.9998 25.7995 62.2091 24.0088 60.0001 24.0088H56.0004V20.0093H63.9996C66.2086 20.0093 67.9993 21.8 67.9993 24.009V112.001C67.9993 114.21 66.2086 116.001 63.9996 116.001H8.0048C5.79579 116.001 4.00509 114.21 4.00509 112.001V48.0066C4.00509 46.9021 3.10963 46.0069 2.00535 46.0069C0.90108 46.0069 0.00561523 46.9023 0.00561523 48.0066V112.001C0.00561523 116.419 3.58701 120 8.0048 120H63.9996C68.4174 120 71.9988 116.419 71.9988 112.001V62.0055H75.9985V104.002C75.9985 107.315 78.6846 110.001 81.9979 110.001H83.9977V114.001C83.9977 117.314 86.6838 120 89.9971 120H113.995C117.308 120 119.994 117.314 119.994 114.001V102.002C119.994 98.6886 117.308 96.0024 113.995 96.0024H89.9971C86.6838 96.0024 83.9977 98.6886 83.9977 102.002V106.002H81.9979C80.8934 106.002 79.9982 105.106 79.9982 104.002V62.0057H83.9979V66.0054C83.9979 69.3187 86.6841 72.0049 89.9974 72.0049H113.995C117.308 72.0049 119.995 69.3187 119.995 66.0054V54.0065C119.995 50.6932 117.309 48.0071 113.995 48.0071H89.9974C86.6841 48.0071 83.9979 50.6932 83.9979 54.0065V58.0062H79.9982V16.0101C79.9982 14.9056 80.8937 14.0104 81.9979 14.0104H83.9977V18.0101C83.9977 21.3234 86.6838 24.0095 89.9971 24.0095H113.995C117.308 24.0095 119.994 21.3234 119.994 18.0101V6.01117C119.995 2.69717 117.308 0.0110146 113.995 0.0110146ZM20.0037 18.0094C20.0037 16.9049 20.8992 16.0096 22.0034 16.0096H24.0032C25.1077 16.0096 26.0029 15.1142 26.0029 14.0099C26.0029 8.48758 30.4798 4.01073 36.0021 4.01073C41.5244 4.01073 46.0012 8.48758 46.0012 14.0099C46.0012 15.1144 46.8967 16.0096 48.001 16.0096H50.0007C51.1052 16.0096 52.0005 16.9049 52.0005 18.0094V26.0086C52.0005 27.1131 51.105 28.0083 50.0007 28.0083H22.0034C20.8989 28.0083 20.0037 27.1128 20.0037 26.0086V18.0094ZM60.0001 28.0085V108.001H12.0045V28.0085H16.004C16.1214 27.9966 16.2372 27.9731 16.3499 27.9384C17.1732 30.3621 19.4436 31.9965 22.0034 32.008H50.0009C52.5606 31.9965 54.831 30.3621 55.6545 27.9384C55.7672 27.9731 55.8832 27.9966 56.0004 28.0085H60.0001ZM115.995 102.002V114.001C115.995 115.105 115.1 116 113.995 116H97.9965V100.002H113.995C115.099 100.002 115.995 100.897 115.995 102.002ZM87.9974 102.002C87.9974 100.897 88.8929 100.002 89.9971 100.002H93.9968V116.001H89.9971C88.8926 116.001 87.9974 115.105 87.9974 114.001V102.002ZM115.995 54.0061V66.005C115.995 67.1095 115.1 68.0047 113.995 68.0047H97.9965V52.0061H113.995C115.099 52.0063 115.995 52.9016 115.995 54.0061ZM87.9974 54.0061C87.9974 52.9016 88.8929 52.0063 89.9971 52.0063H93.9968V68.0049H89.9971C88.8926 68.0049 87.9974 67.1097 87.9974 66.0052V54.0061ZM87.9974 18.0094V6.01046C87.9974 4.90596 88.8929 4.01073 89.9971 4.01073H93.9968V20.0093H89.9971C88.8929 20.0093 87.9974 19.1139 87.9974 18.0094ZM115.995 18.0094C115.995 19.1139 115.1 20.0091 113.995 20.0091H97.9965V4.01073H113.995C115.1 4.01073 115.995 4.90619 115.995 6.01046V18.0094Z" fill="#7661D6"/>
<path d="M109.995 10.0102H103.996C102.891 10.0102 101.996 10.9057 101.996 12.0099C101.996 13.1142 102.892 14.0097 103.996 14.0097H109.995C111.1 14.0097 111.995 13.1142 111.995 12.0099C111.995 10.9057 111.1 10.0102 109.995 10.0102Z" fill="#7661D6"/>
<path d="M103.996 62.0054H109.995C111.1 62.0054 111.995 61.11 111.995 60.0057C111.995 58.9012 111.1 58.006 109.995 58.006H103.996C102.891 58.006 101.996 58.9014 101.996 60.0057C101.996 61.11 102.891 62.0054 103.996 62.0054Z" fill="#7661D6"/>
<path d="M103.996 110.001H109.995C111.1 110.001 111.995 109.106 111.995 108.001C111.995 106.897 111.1 106.002 109.995 106.002H103.996C102.891 106.002 101.996 106.897 101.996 108.001C101.996 109.106 102.891 110.001 103.996 110.001Z" fill="#7661D6"/>
<path d="M32.5884 36.5938L24.0031 45.1791L21.4174 42.5933C20.6328 41.8354 19.3854 41.8462 18.6141 42.6176C17.8426 43.3891 17.8318 44.6364 18.5897 45.421L22.5894 49.4207C23.3703 50.2013 24.6363 50.2013 25.4172 49.4207L35.4163 39.4215C36.1742 38.6369 36.1634 37.3895 35.3919 36.6182C34.6205 35.8467 33.3732 35.8359 32.5884 36.5938Z" fill="#7661D6"/>
<path d="M32.5884 74.5903L24.0031 83.1756L21.4174 80.5897C20.6328 79.8318 19.3854 79.8426 18.6141 80.6141C17.8426 81.3856 17.8318 82.6328 18.5897 83.4175L22.5894 87.4172C23.3703 88.1978 24.6363 88.1978 25.4172 87.4172L35.4163 77.418C36.1742 76.6334 36.1634 75.3859 35.3919 74.6147C34.6205 73.8432 33.3732 73.8324 32.5884 74.5903Z" fill="#7661D6"/>
<path d="M32.5884 90.5889L24.0031 99.1742L21.4174 96.5883C20.6328 95.8304 19.3854 95.8412 18.6141 96.6127C17.8426 97.3842 17.8318 98.6314 18.5897 99.416L22.5894 103.416C23.3703 104.196 24.6363 104.196 25.4172 103.416L35.4163 93.4166C36.1742 92.632 36.1634 91.3845 35.3919 90.6132C34.6205 89.8418 33.3732 89.831 32.5884 90.5889Z" fill="#7661D6"/>
<path d="M18.5899 69.4188C19.3707 70.1995 20.6367 70.1995 21.4176 69.4188L25.0032 65.8332L28.5888 69.4188C29.3734 70.1767 30.6209 70.1659 31.3921 69.3945C32.1634 68.623 32.1744 67.3757 31.4165 66.5911L27.8309 63.0055L31.4165 59.4199C32.1744 58.6353 32.1636 57.3878 31.3921 56.6165C30.6206 55.8451 29.3734 55.8343 28.5888 56.5922L25.0032 60.1778L21.4176 56.5922C20.633 55.8343 19.3855 55.8451 18.6142 56.6165C17.8428 57.388 17.832 58.6353 18.5899 59.4199L22.1755 63.0055L18.5899 66.5911C17.8092 67.372 17.8092 68.6377 18.5899 69.4188Z" fill="#7661D6"/>
<path d="M52.0006 42.0071H42.0014C40.8969 42.0071 40.0017 42.9024 40.0017 44.0069C40.0017 45.1114 40.8972 46.0066 42.0014 46.0066H52.0006C53.1051 46.0066 54.0003 45.1112 54.0003 44.0069C54.0003 42.9026 53.1051 42.0071 52.0006 42.0071Z" fill="#7661D6"/>
<path d="M52.0006 60.0055H42.0014C40.8969 60.0055 40.0017 60.901 40.0017 62.0052C40.0017 63.1095 40.8972 64.005 42.0014 64.005H52.0006C53.1051 64.005 54.0003 63.1097 54.0003 62.0052C54.0003 60.9007 53.1051 60.0055 52.0006 60.0055Z" fill="#7661D6"/>
<path d="M52.0006 80.0038H42.0014C40.8969 80.0038 40.0017 80.8993 40.0017 82.0036C40.0017 83.1081 40.8972 84.0033 42.0014 84.0033H52.0006C53.1051 84.0033 54.0003 83.1079 54.0003 82.0036C54.0006 80.8991 53.1051 80.0038 52.0006 80.0038Z" fill="#7661D6"/>
<path d="M52.0006 98.0022H42.0014C40.8969 98.0022 40.0017 98.8974 40.0017 100.002C40.0017 101.106 40.8972 102.002 42.0014 102.002H52.0006C53.1051 102.002 54.0003 101.106 54.0003 100.002C54.0003 98.8974 53.1051 98.0022 52.0006 98.0022Z" fill="#7661D6"/>
<path d="M36.0023 14.0099C36.5343 14.0153 37.0461 13.8063 37.4222 13.4301C37.7984 13.054 38.0074 12.5422 38.002 12.0102C38.0088 11.7479 37.9542 11.4876 37.842 11.2502C37.7405 11.0078 37.5985 10.7847 37.422 10.5902C36.62 9.85038 35.3843 9.85038 34.5823 10.5902C34.4059 10.7847 34.2638 11.0078 34.1624 11.2502C34.0599 11.4906 34.0056 11.7489 34.0023 12.0102C33.9969 12.5422 34.206 13.054 34.5821 13.4301C34.9585 13.8063 35.4701 14.0153 36.0023 14.0099Z" fill="#7661D6"/>
</g>
<defs>
<clipPath id="clip0">
<rect width="120" height="120" fill="white"/>
</clipPath>
</defs>
</svg>
