<svg width="120" height="120" viewBox="0 0 120 120" fill="none" xmlns="http://www.w3.org/2000/svg">
<g clip-path="url(#clip0_1754_2963)">
<path d="M6.04005 92C4.93549 92.0055 4.03558 91.1146 4.03005 90.01C4.02453 88.9054 4.91549 88.0055 6.02006 88H6.04005C7.14462 88 8.04005 88.8954 8.04005 90C8.04005 91.1046 7.14462 92 6.04005 92Z" fill="#7661D6"/>
<path d="M30 104H24C22.8954 104 22 104.895 22 106C22 107.105 22.8954 108 24 108H30C31.1046 108 32 107.105 32 106C32 104.895 31.1046 104 30 104Z" fill="#7661D6"/>
<path d="M12 108C13.1046 108 14 107.105 14 106C14 104.895 13.1046 104 12 104C10.8954 104 10 104.895 10 106C10 107.105 10.8954 108 12 108Z" fill="#7661D6"/>
<path d="M18 108C19.1046 108 20 107.105 20 106C20 104.895 19.1046 104 18 104C16.8954 104 16 104.895 16 106C16 107.105 16.8954 108 18 108Z" fill="#7661D6"/>
<path d="M102 8.16511e-05C96.5184 -0.0163868 91.3297 2.4735 87.9129 6.76013C84.496 11.0468 83.2258 16.66 84.4641 22.0001H77.5361C79.2093 14.7745 76.2792 7.26228 70.1555 3.07781C64.0318 -1.10667 55.9684 -1.10667 49.8448 3.07781C43.7211 7.26228 40.791 14.7745 42.4641 22.0001H35.5361C37.4384 13.7368 33.3155 5.26642 25.6386 1.66562C17.9617 -1.93518 8.81279 0.310147 3.67513 7.05589C-1.46254 13.8016 -1.19553 23.2183 4.31611 29.6621C4.11506 30.4255 4.00892 31.2107 4.00011 32.0001V82.0001C4.00011 83.1046 4.89555 84.0001 6.00012 84.0001C7.10469 84.0001 8.00012 83.1046 8.00012 82.0001V32.9561C12.4252 35.9317 17.947 36.7779 23.0601 35.2641L41.8821 52.3081C33.4753 61.9851 34.1573 76.5605 43.4309 85.4104C52.7045 94.2602 67.2958 94.2602 76.5694 85.4104C85.843 76.5605 86.5249 61.9851 78.1181 52.3081L96.9401 35.2641C102.053 36.7779 107.575 35.9317 112 32.9561V96.0001H4.00011C1.79098 96.0001 0.000113843 97.7909 0.000113843 100V106C0.00893113 113.728 6.27178 119.991 14.0001 120H106C113.728 119.991 119.991 113.728 120 106V100C120 97.7909 118.209 96.0001 116 96.0001V32.0001C115.991 31.2107 115.885 30.4255 115.684 29.6621C120.249 24.3266 121.289 16.8217 118.348 10.4459C115.406 4.06999 109.022 -0.00960789 102 8.16511e-05V8.16511e-05ZM78.0001 100V102C78.0001 104.209 76.2093 106 74.0001 106H46.0001C43.791 106 42.0001 104.209 42.0001 102V100H78.0001ZM116 106C115.994 111.52 111.52 115.993 106 116H14.0001C8.48001 115.993 4.00673 111.52 4.00011 106V100H38.0001V102C38.0001 106.418 41.5818 110 46.0001 110H74.0001C78.4184 110 82.0001 106.418 82.0001 102V100H116V106ZM102 4.00008C107.254 3.99003 112.069 6.92724 114.464 11.6029C116.859 16.2785 116.43 21.9024 113.352 26.1601C112.521 23.719 110.925 21.6112 108.8 20.1501C110.872 16.7961 110.192 12.4325 107.197 9.86852C104.202 7.30452 99.786 7.30452 96.7912 9.86852C93.7965 12.4325 93.1161 16.7961 95.1881 20.1501C93.0657 21.6122 91.4714 23.7198 90.6421 26.1601C87.564 21.9016 87.135 16.2763 89.5317 11.6002C91.9284 6.92411 96.7456 3.98777 102 4.00008V4.00008ZM98.0001 16.0001C98.0001 13.7909 99.791 12.0001 102 12.0001C104.209 12.0001 106 13.7909 106 16.0001C106 18.2092 104.209 20.0001 102 20.0001C99.791 20.0001 98.0001 18.2092 98.0001 16.0001ZM60.0001 4.00008C65.2535 3.99003 70.0687 6.92724 72.4639 11.6029C74.8591 16.2785 74.4296 21.9024 71.3521 26.1601C70.5213 23.719 68.9248 21.6112 66.8001 20.1501C68.8722 16.7961 68.1918 12.4325 65.197 9.86852C62.2023 7.30452 57.786 7.30452 54.7912 9.86852C51.7965 12.4325 51.1161 16.7961 53.1881 20.1501C51.0657 21.6122 49.4714 23.7198 48.6421 26.1601C45.564 21.9016 45.135 16.2763 47.5317 11.6002C49.9284 6.92411 54.7456 3.98777 60.0001 4.00008V4.00008ZM60.0001 32.0001C57.1528 32.0015 54.3736 31.1289 52.0381 29.5001C52.208 26.762 53.7691 24.3019 56.1741 22.9821C58.5442 24.3396 61.4561 24.3396 63.8261 22.9821C66.2312 24.3019 67.7922 26.762 67.9621 29.5001C65.6267 31.1289 62.8475 32.0015 60.0001 32.0001V32.0001ZM60.0001 20.0001C57.791 20.0001 56.0001 18.2092 56.0001 16.0001C56.0001 13.7909 57.791 12.0001 60.0001 12.0001C62.2093 12.0001 64.0001 13.7909 64.0001 16.0001C64.0001 17.0609 63.5787 18.0784 62.8286 18.8285C62.0784 19.5787 61.061 20.0001 60.0001 20.0001V20.0001ZM18.0001 4.00008C23.2535 3.99003 28.0687 6.92724 30.4639 11.6029C32.8591 16.2785 32.4296 21.9024 29.3521 26.1601C28.5213 23.719 26.9248 21.6112 24.8001 20.1501C26.8721 16.7961 26.1918 12.4325 23.197 9.86852C20.2022 7.30452 15.786 7.30452 12.7912 9.86852C9.79646 12.4325 9.11609 16.7961 11.1881 20.1501C9.0679 21.6131 7.47582 23.7207 6.64812 26.1601C3.57064 21.9024 3.14111 16.2785 5.53632 11.6029C7.93152 6.92724 12.7467 3.99003 18.0001 4.00008V4.00008ZM14.0001 16.0001C14.0001 13.7909 15.791 12.0001 18.0001 12.0001C20.2093 12.0001 22.0001 13.7909 22.0001 16.0001C22.0001 18.2092 20.2093 20.0001 18.0001 20.0001C15.791 20.0001 14.0001 18.2092 14.0001 16.0001ZM10.0381 29.5001C10.208 26.762 11.7691 24.3019 14.1741 22.9821C16.5442 24.3396 19.4561 24.3396 21.8261 22.9821C24.2312 24.3019 25.7922 26.762 25.9621 29.5001C21.1775 32.8336 14.8227 32.8336 10.0381 29.5001ZM34.1001 26.0001H43.9001C46.6203 31.4719 51.9285 35.1922 58.0001 35.8821V44.1021C53.1299 44.5031 48.4998 46.3878 44.7341 49.5021L27.0861 33.5201C30.1021 31.7443 32.5384 29.1322 34.1001 26.0001V26.0001ZM48.0001 83.9641C48.0106 79.9461 50.0395 76.2024 53.4001 74.0001C57.4009 76.6507 62.5993 76.6507 66.6001 74.0001C69.9608 76.2024 71.9897 79.9461 72.0001 83.9641C64.9057 89.3473 55.0945 89.3473 48.0001 83.9641ZM60.0001 72.0001C55.5818 72.0001 52.0001 68.4184 52.0001 64.0001C52.0001 59.5818 55.5818 56.0001 60.0001 56.0001C64.4184 56.0001 68.0001 59.5818 68.0001 64.0001C68.0001 68.4184 64.4184 72.0001 60.0001 72.0001ZM75.5821 80.5081C74.7606 76.7884 72.6316 73.487 69.5821 71.2041C73.3196 66.258 72.6743 59.2792 68.0934 55.1023C63.5124 50.9253 56.5038 50.9253 51.9229 55.1023C47.3419 59.2792 46.6967 66.258 50.4341 71.2041C47.3847 73.487 45.2556 76.7884 44.4341 80.5081C37.859 72.3366 38.7133 60.4739 46.3913 53.3289C54.0694 46.1838 65.9628 46.1838 73.6409 53.3289C81.319 60.4739 82.1733 72.3366 75.5981 80.5081H75.5821ZM75.2661 49.4941C71.4994 46.3827 66.8694 44.5008 62.0001 44.1021V35.8821C68.0718 35.1922 73.3799 31.4719 76.1001 26.0001H85.9001C87.4631 29.1293 89.8993 31.7385 92.9141 33.5121L75.2661 49.4941ZM94.0381 29.4941C94.208 26.756 95.7691 24.2959 98.1741 22.9761C100.544 24.3336 103.456 24.3336 105.826 22.9761C108.231 24.2959 109.792 26.756 109.962 29.4941C105.178 32.8276 98.8228 32.8276 94.0381 29.4941Z" fill="#7661D6"/>
<path d="M16 82H18C19.1046 82 20 81.1046 20 80C20 78.8954 19.1046 78 18 78H16C14.8954 78 14 78.8954 14 80C14 81.1046 14.8954 82 16 82Z" fill="#7661D6"/>
<path d="M30 82C31.1046 82 32 81.1046 32 80C32 78.8954 31.1046 78 30 78H26C24.8954 78 24 78.8954 24 80C24 81.1046 24.8954 82 26 82H30Z" fill="#7661D6"/>
<path d="M16 90H30C31.1046 90 32 89.1046 32 88C32 86.8954 31.1046 86 30 86H16C14.8954 86 14 86.8954 14 88C14 89.1046 14.8954 90 16 90Z" fill="#7661D6"/>
<path d="M90 82H92C93.1046 82 94 81.1046 94 80C94 78.8954 93.1046 78 92 78H90C88.8954 78 88 78.8954 88 80C88 81.1046 88.8954 82 90 82Z" fill="#7661D6"/>
<path d="M104 82C105.105 82 106 81.1046 106 80C106 78.8954 105.105 78 104 78H100C98.8954 78 98 78.8954 98 80C98 81.1046 98.8954 82 100 82H104Z" fill="#7661D6"/>
<path d="M90 90H104C105.105 90 106 89.1046 106 88C106 86.8954 105.105 86 104 86H90C88.8954 86 88 86.8954 88 88C88 89.1046 88.8954 90 90 90Z" fill="#7661D6"/>
</g>
<defs>
<clipPath id="clip0_1754_2963">
<rect width="120" height="120" fill="white"/>
</clipPath>
</defs>
</svg>
