<svg width="120" height="120" viewBox="0 0 120 120" fill="none" xmlns="http://www.w3.org/2000/svg">
<g clip-path="url(#clip0)">
<path d="M60.0001 28.9655C52.0016 28.9655 45.5173 22.4813 45.5173 14.4827C45.5173 6.48422 52.0016 0 60.0001 0C67.9986 0 74.4828 6.48422 74.4828 14.4827C74.4734 22.4775 67.9948 28.9561 60.0001 28.9655ZM60.0001 4.13789C54.2867 4.13789 49.6552 8.76937 49.6552 14.4827C49.6552 20.1961 54.2867 24.8276 60.0001 24.8276C65.7134 24.8276 70.3449 20.1961 70.3449 14.4827C70.3381 8.77219 65.7106 4.14469 60.0001 4.13789Z" fill="#7661D6"/>
<path d="M14.4827 105.517C6.48422 105.517 0 99.0331 0 91.0346C0 83.036 6.48422 76.5518 14.4827 76.5518C22.4813 76.5518 28.9655 83.036 28.9655 91.0346C28.9563 99.0293 22.4775 105.508 14.4827 105.517ZM14.4827 80.6897C8.76937 80.6897 4.13789 85.3212 4.13789 91.0346C4.13789 96.7479 8.76937 101.379 14.4827 101.379C20.1961 101.379 24.8276 96.7479 24.8276 91.0346C24.821 85.324 20.1933 80.6963 14.4827 80.6897Z" fill="#7661D6"/>
<path d="M105.517 105.517C97.5186 105.517 91.0344 99.0331 91.0344 91.0346C91.0344 83.036 97.5186 76.5518 105.517 76.5518C113.516 76.5518 120 83.0358 120 91.0346C119.991 99.0293 113.512 105.508 105.517 105.517ZM105.517 80.6897C99.8038 80.6897 95.1723 85.3212 95.1723 91.0346C95.1723 96.7479 99.8038 101.379 105.517 101.379C111.231 101.379 115.862 96.7479 115.862 91.0346C115.855 85.324 111.228 80.6963 105.517 80.6897Z" fill="#7661D6"/>
<path d="M109.992 81.5341C109.349 81.5346 108.743 81.2367 108.351 80.7279C107.959 80.2191 107.826 79.5567 107.99 78.9359C113.622 57.7439 104.679 35.3676 85.9915 23.8962C85.0224 23.2952 84.7221 22.0235 85.32 21.0525C85.9179 20.0815 87.1887 19.7773 88.1616 20.3723C108.402 32.8012 118.089 57.0387 111.991 79.9945C111.75 80.9018 110.93 81.5337 109.992 81.5341Z" fill="#7661D6"/>
<path d="M60.0001 120C44.879 119.981 30.4611 113.612 20.2644 102.446C19.7664 101.9 19.5974 101.13 19.8215 100.425C20.0453 99.7209 20.6279 99.1894 21.35 99.0312C22.0719 98.873 22.8236 99.1118 23.3216 99.6579C37.4038 115.108 59.6549 120.082 78.9756 112.1C79.6597 111.81 80.4465 111.91 81.0369 112.361C81.6273 112.812 81.9306 113.545 81.8315 114.281C81.7323 115.017 81.246 115.644 80.5574 115.923C74.0411 118.624 67.0543 120.01 60.0001 120Z" fill="#7661D6"/>
<path d="M8.42346 64.5844C8.37494 64.5844 8.32549 64.5822 8.27603 64.5783C7.72877 64.5401 7.219 64.286 6.859 63.8716C6.49924 63.4575 6.31877 62.917 6.35744 62.3697C7.94627 39.0494 24.4735 19.4522 47.1912 13.9511C48.3005 13.6828 49.4175 14.3629 49.6882 15.4715C49.9589 16.5801 49.2811 17.6988 48.173 17.9719C27.2053 23.0494 11.9513 41.137 10.4853 62.6608C10.4093 63.7439 9.50908 64.5836 8.42346 64.5844Z" fill="#7661D6"/>
<path d="M67.9994 81.0069H52.0012C48.6874 81.0069 46.0015 78.3201 46.0015 75.0071V63.0085C46.0015 59.6946 48.6874 57.0087 52.0012 57.0087H67.9994C71.3133 57.0087 73.9991 59.6946 73.9991 63.0085V75.0071C73.9991 78.3201 71.3133 81.0069 67.9994 81.0069ZM52.0012 61.0083C50.8963 61.0083 50.001 61.9036 50.001 63.0085V75.0071C50.001 76.1111 50.8963 77.0064 52.0012 77.0064H67.9994C69.1043 77.0064 69.9996 76.1111 69.9996 75.0071V63.0085C69.9996 61.9036 69.1043 61.0083 67.9994 61.0083H52.0012Z" fill="#7661D6"/>
<path d="M60.0003 73.0069C58.8963 73.0069 58.001 72.1116 58.001 71.0076V67.008C58.001 65.9031 58.8963 65.0078 60.0003 65.0078C61.1052 65.0078 62.0005 65.9031 62.0005 67.008V71.0076C62.0005 72.1116 61.1052 73.0069 60.0003 73.0069Z" fill="#7661D6"/>
<path d="M67.9994 61.0082H52.0012C50.8963 61.0082 50.001 60.1129 50.001 59.0089V55.0094C50.001 49.4866 54.4784 45.0101 60.0003 45.0101C65.5222 45.0101 69.9996 49.4866 69.9996 55.0094V59.0089C69.9996 60.1129 69.1043 61.0082 67.9994 61.0082ZM54.0005 57.0087H66.0001V55.0094C66.0001 51.6955 63.3142 49.0096 60.0003 49.0096C56.6873 49.0096 54.0005 51.6955 54.0005 55.0094V57.0087Z" fill="#7661D6"/>
</g>
<defs>
<clipPath id="clip0">
<rect width="120" height="120" fill="white"/>
</clipPath>
</defs>
</svg>
