<svg width="120" height="120" viewBox="0 0 120 120" fill="none" xmlns="http://www.w3.org/2000/svg">
<g clip-path="url(#clip0)">
<path d="M14 31.522C15.1046 31.522 16 30.6266 16 29.522C16 28.4174 15.1046 27.522 14 27.522C12.8954 27.522 12 28.4174 12 29.522C12 30.6266 12.8954 31.522 14 31.522Z" fill="#7661D6"/>
<path d="M59.414 119.912C59.7958 120.03 60.2043 120.03 60.586 119.912C107.458 105.512 108 65.912 108 65.512V21.03C108.01 18.8913 106.336 17.1229 104.2 17.016C97.526 16.704 74.82 14.648 62.94 1.31401C62.172 0.513189 61.1105 0.0604248 60.001 0.0604248C58.8915 0.0604248 57.83 0.513189 57.062 1.31401C45.18 14.648 22.474 16.704 15.8 17.016C11.698 17.216 10.662 23.016 14 23.016C15.1046 23.016 16 22.1206 16 21.016C23.07 20.686 47.142 18.478 59.966 3.97801C72.886 18.478 96.966 20.686 104.014 21.034V65.506C104.014 65.874 103.51 102.22 60.014 115.906C16.616 102.264 16 67 16 65.504V37.522C16 36.4174 15.1046 35.522 14 35.522C12.8954 35.522 12 36.4174 12 37.522V66H12.016C12.234 70.6 15.37 106.38 59.414 119.912Z" fill="#7661D6"/>
<path d="M59.362 111.496C59.7753 111.635 60.2227 111.635 60.636 111.496C99.098 98.57 99.982 67.382 100 66.034V29.324C99.9991 27.3173 98.5115 25.6219 96.522 25.36C86.804 24.128 73.002 20.96 62.44 12.834C61.0021 11.7279 58.9999 11.7279 57.562 12.834C47 20.956 33.2 24.128 23.478 25.36C21.4885 25.6219 20.0009 27.3173 20 29.324V66.034C20 66.356 20.45 98.41 59.362 111.496ZM23.982 29.328C34.2 28.034 48.724 24.672 60 16C71.276 24.668 85.81 28.03 96 29.32V66C95.984 67.2 95.178 95.328 60 107.484C24.706 95.284 24 66.312 24 66.03L23.982 29.328Z" fill="#7661D6"/>
<path d="M59.9999 89.9999C48.9543 89.9999 40 81.0456 40 70C40 58.9544 48.9543 50.0001 59.9999 50.0001C71.0455 50.0001 79.9998 58.9544 79.9998 70C79.9876 81.0405 71.0406 89.9875 59.9999 89.9999ZM59.9999 53.9999C51.1633 53.9999 43.9998 61.1634 43.9998 70C43.9998 78.8367 51.1633 86.0001 59.9999 86.0001C68.8366 86.0001 76 78.8367 76 70C75.9899 61.1676 68.8323 54.01 59.9999 53.9999Z" fill="#7661D6"/>
<path d="M59.9999 75.9998C55.5817 75.9998 52 72.418 52 67.9998C52 63.5816 55.5817 59.9999 59.9999 59.9999C64.4181 59.9999 67.9998 63.5816 67.9998 67.9998C67.9949 72.4159 64.4163 75.9948 59.9999 75.9998ZM59.9999 63.9998C57.7907 63.9998 55.9998 65.7906 55.9998 67.9998C55.9998 70.2091 57.7907 71.9999 59.9999 71.9999C62.2091 71.9999 64 70.2091 64 67.9998C63.9979 65.7916 62.2082 64.0021 59.9999 63.9998Z" fill="#7661D6"/>
<path d="M71.9999 58.5995C70.8953 58.5995 70 57.704 70 56.5996V47.9999C69.9904 42.4811 65.5187 38.0097 59.9999 37.9998C54.4797 38.0064 50.0064 42.4797 49.9998 47.9999V56.5996C49.9998 57.7042 49.1043 58.5995 47.9999 58.5995C46.8953 58.5995 46 57.704 46 56.5996V47.9999C46.0087 40.2716 52.2716 34.0087 59.9999 34C67.7284 34.0084 73.9914 40.2714 73.9998 47.9999V56.5996C74.0001 57.704 73.1045 58.5995 71.9999 58.5995Z" fill="#7661D6"/>
<path d="M59.9999 81.9998C58.8953 81.9998 58 81.1042 58 79.9998V73.9998C58 72.8952 58.8955 71.9999 59.9999 71.9999C61.1045 71.9999 61.9998 72.8955 61.9998 73.9998V79.9998C62.0001 81.1044 61.1045 81.9998 59.9999 81.9998Z" fill="#7661D6"/>
</g>
<defs>
<clipPath id="clip0">
<rect width="120" height="120" fill="white"/>
</clipPath>
</defs>
</svg>
