<svg width="120" height="120" viewBox="0 0 120 120" fill="none" xmlns="http://www.w3.org/2000/svg">
<g clip-path="url(#clip0_1753_556)">
<path d="M16.0195 67.47C16.8319 67.4747 17.5663 66.9875 17.878 66.2372C18.1894 65.4869 18.0162 64.6227 17.4393 64.0507L17.1393 63.8107C17.0278 63.735 16.9069 63.6743 16.7794 63.6308C16.666 63.5729 16.5449 63.5326 16.4195 63.5108C16.2873 63.4885 16.1535 63.4752 16.0195 63.4707C15.4901 63.4784 14.9833 63.6856 14.5997 64.0507C14.419 64.2419 14.2763 64.4659 14.1798 64.7105C13.8782 65.4564 14.0424 66.3098 14.5997 66.89C14.7909 67.0707 15.0149 67.2134 15.2596 67.31C15.5002 67.4126 15.7582 67.467 16.0195 67.47Z" fill="#7661D6"/>
<path d="M112.001 22.0191H53.5302C51.2171 9.68566 40.7105 0.572574 28.1741 0.025883C15.6377 -0.520808 4.37765 7.64324 0.999786 19.7283C-2.37808 31.8134 3.0169 44.6326 14.0198 50.6655V57.4641C14.0198 58.5685 14.915 59.4636 16.0194 59.4636C17.1238 59.4636 18.0189 58.5682 18.0189 57.4641V52.437C23.1575 54.2992 28.7482 54.5164 34.0159 53.0589V65.1826L28.6029 70.5957C27.8223 71.3764 27.8223 72.6423 28.6029 73.4231L33.188 78.0082L28.6029 82.5933C27.8223 83.3741 27.8223 84.64 28.6029 85.4208L33.188 90.0059L28.6029 94.591C27.8223 95.3718 27.8223 96.6376 28.6029 97.4184L34.0159 102.831V105.863C34.0204 106.355 33.8552 106.834 33.5479 107.219L26.9853 115.257C26.6551 115.673 26.1715 115.938 25.6435 115.993C25.1289 116.047 24.6148 115.887 24.2219 115.551L18.7969 111.124C18.3032 110.714 18.018 110.104 18.0192 109.462V73.4692C18.0192 72.3648 17.1238 71.4697 16.0196 71.4697C14.9152 71.4697 14.0201 72.3651 14.0201 73.4692V109.462C14.0182 111.3 14.8384 113.042 16.2556 114.211L21.6866 118.644C22.7439 119.521 24.0745 120.001 25.4479 120C25.6438 120 25.8439 119.99 26.0478 119.97C27.6344 119.814 29.0915 119.025 30.0909 117.783L36.6556 109.74C37.5381 108.641 38.018 107.273 38.0154 105.863V102.004C38.0126 101.473 37.8015 100.965 37.4275 100.588L32.8445 96.0052L37.4296 91.4201C38.2102 90.6393 38.2102 89.3734 37.4296 88.5926L32.8445 84.0075L37.4296 79.4224C38.2102 78.6416 38.2102 77.3758 37.4296 76.595L32.8445 72.0098L37.4275 67.4268C37.8015 67.0503 38.0126 66.5418 38.0154 66.011V51.6478C42.6521 49.5697 46.6128 46.2326 49.4472 42.0156H116V90.0064C116 92.2152 114.21 94.0057 112.001 94.0057H40.0147C38.9103 94.0057 38.0152 94.901 38.0152 96.0052C38.0152 97.1096 38.9106 98.0047 40.0147 98.0047H112.001C116.418 98.0047 119.999 94.4237 119.999 90.0064V30.018C119.999 25.6002 116.418 22.0191 112.001 22.0191ZM27.0174 50.0136C14.3172 50.0136 4.02194 39.718 4.02194 27.0181C4.02194 14.3181 14.3174 4.02261 27.0174 4.02261C39.7174 4.02261 50.0129 14.3181 50.0129 27.0181C49.9986 39.7122 39.7115 49.9993 27.0174 50.0136ZM51.6466 38.0159C52.2219 36.7219 52.6948 35.3848 53.0603 34.0166H86.0059C87.1103 34.0166 88.0055 33.1212 88.0055 32.017C88.0055 30.9129 87.1103 30.0175 86.0059 30.0175H53.8362C53.9494 29.0216 54.0082 28.0203 54.0122 27.0181C54.0122 26.6802 53.9742 26.3521 53.9623 26.0182H112.001C114.21 26.0182 116 27.8087 116 30.0175V38.0159H51.6466V38.0159Z" fill="#7661D6"/>
<path d="M110.001 30.0176H106.002C104.898 30.0176 104.002 30.913 104.002 32.0171C104.002 33.1213 104.898 34.0166 106.002 34.0166H110.001C111.106 34.0166 112.001 33.1213 112.001 32.0171C112.001 30.913 111.106 30.0176 110.001 30.0176Z" fill="#7661D6"/>
<path d="M98.0037 30.0176H94.0044C92.9 30.0176 92.0049 30.913 92.0049 32.0171C92.0049 33.1213 92.9 34.0166 94.0044 34.0166H98.0037C99.1081 34.0166 100.003 33.1213 100.003 32.0171C100.003 30.913 99.1081 30.0176 98.0037 30.0176Z" fill="#7661D6"/>
<path d="M27.0173 8.02148C22.0476 8.02148 18.019 12.0501 18.019 17.0197C18.019 21.9894 22.0476 26.018 27.0173 26.018C31.987 26.018 36.0156 21.9894 36.0156 17.0197C36.0099 12.0524 31.9846 8.02711 27.0173 8.02148ZM27.0173 22.0189C24.2564 22.0189 22.0183 19.7809 22.0183 17.02C22.0183 14.2591 24.2564 12.021 27.0173 12.021C29.7782 12.021 32.0163 14.2591 32.0163 17.02C32.0163 19.7809 29.7782 22.0189 27.0173 22.0189Z" fill="#7661D6"/>
<path d="M24.0181 68.0096C25.1225 68.0096 26.0176 67.1142 26.0176 66.0101V60.0113C26.0176 58.9069 25.1223 58.0117 24.0181 58.0117C22.9137 58.0117 22.0186 58.9071 22.0186 60.0113V66.0101C22.0183 67.1145 22.9137 68.0096 24.0181 68.0096Z" fill="#7661D6"/>
<path d="M22.0183 80.0076C22.0183 81.112 22.9137 82.0072 24.0178 82.0072C25.1222 82.0072 26.0174 81.1118 26.0174 80.0076V76.0083C26.0174 74.9039 25.122 74.0088 24.0178 74.0088C22.9135 74.0088 22.0183 74.9042 22.0183 76.0083V80.0076Z" fill="#7661D6"/>
<path d="M22.0183 92.0057C22.0183 93.1101 22.9137 94.0052 24.0178 94.0052C25.1222 94.0052 26.0174 93.1101 26.0174 92.0057V88.0064C26.0174 86.902 25.122 86.0068 24.0178 86.0068C22.9135 86.0068 22.0183 86.902 22.0183 88.0064V92.0057Z" fill="#7661D6"/>
<path d="M22.0183 106.003C22.0183 107.107 22.9137 108.002 24.0178 108.002C25.1222 108.002 26.0174 107.107 26.0174 106.003V102.003C26.0174 100.899 25.122 100.004 24.0178 100.004C22.9135 100.004 22.0183 100.899 22.0183 102.003V106.003Z" fill="#7661D6"/>
<path d="M48.0135 62.0108H56.0118C57.1162 62.0108 58.0114 61.1154 58.0114 60.0113C58.0114 58.9069 57.116 58.0117 56.0118 58.0117H48.0135C46.9091 58.0117 46.0139 58.9071 46.0139 60.0113C46.0137 61.1157 46.9091 62.0108 48.0135 62.0108Z" fill="#7661D6"/>
<path d="M86.0059 62.0108C87.1103 62.0108 88.0054 61.1154 88.0054 60.0113C88.0054 58.9069 87.1103 58.0117 86.0059 58.0117H64.01C62.9056 58.0117 62.0105 58.9071 62.0105 60.0113C62.0105 61.1157 62.9059 62.0108 64.01 62.0108H86.0059Z" fill="#7661D6"/>
<path d="M48.0135 78.0079H56.0118C57.1162 78.0079 58.0114 77.1127 58.0114 76.0083C58.0114 74.9039 57.116 74.0088 56.0118 74.0088H48.0135C46.9091 74.0088 46.0139 74.9042 46.0139 76.0083C46.0139 77.1125 46.9091 78.0079 48.0135 78.0079Z" fill="#7661D6"/>
<path d="M64.01 74.0088C62.9056 74.0088 62.0105 74.9042 62.0105 76.0083C62.0105 77.1125 62.9059 78.0079 64.01 78.0079H86.0059C87.1103 78.0079 88.0054 77.1127 88.0054 76.0083C88.0054 74.9039 87.1103 74.0088 86.0059 74.0088H64.01Z" fill="#7661D6"/>
<path d="M110.001 62.0108C111.106 62.0108 112.001 61.1154 112.001 60.0113C112.001 58.9069 111.106 58.0117 110.001 58.0117H94.0044C92.9 58.0117 92.0049 58.9071 92.0049 60.0113C92.0049 61.1157 92.9 62.0108 94.0044 62.0108H110.001Z" fill="#7661D6"/>
<path d="M48.0135 70.0098H110.001C111.106 70.0098 112.001 69.1144 112.001 68.0103C112.001 66.9059 111.106 66.0107 110.001 66.0107H48.0135C46.9091 66.0107 46.0139 66.9061 46.0139 68.0103C46.0137 69.1144 46.9091 70.0098 48.0135 70.0098Z" fill="#7661D6"/>
</g>
<defs>
<clipPath id="clip0_1753_556">
<rect width="120" height="120" fill="white"/>
</clipPath>
</defs>
</svg>
