<svg width="120" height="120" viewBox="0 0 120 120" fill="none" xmlns="http://www.w3.org/2000/svg">
<path d="M118 116H110V60C109.997 56.6878 107.312 54.0035 104 54V42C103.997 38.6878 101.312 36.0035 98.0002 36V24C97.9966 20.6878 95.3123 18.0035 92.0002 18V6C91.9966 2.68781 89.3123 0.00351562 86.0002 0H34.0001C30.6879 0.00351562 28.0036 2.68781 28.0001 6V18C24.6879 18.0035 22.0036 20.6878 22.0001 24V36C18.6879 36.0035 16.0036 38.6878 16.0001 42V54C12.6879 54.0035 10.0036 56.6878 10.0001 60V67.9999C10.0001 69.1045 10.8956 69.9998 12 69.9998C13.1044 69.9998 13.9999 69.1043 13.9999 67.9999V60C14.0006 58.8956 14.8957 58.0008 15.9998 58.0001H104C105.104 58.0008 105.999 58.8959 106 60V116H13.9999V84C13.9999 82.8954 13.1044 82.0001 12 82.0001C10.8956 82.0001 10.0001 82.8954 10.0001 84V116H1.99992C0.895313 116 0 116.895 0 118C0 119.105 0.895547 120 1.99992 120H118C119.104 120 120 119.105 120 118C120 116.895 119.105 116 118 116ZM31.9999 6C32.0006 4.89563 32.8957 4.00078 33.9998 4.00008H85.9999C87.1043 4.00078 87.9991 4.89586 87.9998 6V18H57.7978C56.8474 13.3441 52.752 10.0001 48 10.0001C43.248 10.0001 39.1526 13.3441 38.2022 18H32.0002V6H31.9999ZM53.6316 18H42.3687C43.2042 15.6047 45.4634 13.9999 48.0002 13.9999C50.5369 13.9999 52.796 15.6047 53.6316 18ZM25.9999 24C26.0006 22.8956 26.8957 22.0008 27.9998 22.0001H91.9999C93.1043 22.0008 93.9991 22.8959 93.9998 24V36H51.7978C50.8474 31.3441 46.752 28.0001 42 28.0001C37.248 28.0001 33.1526 31.3441 32.2022 36H26.0002V24H25.9999ZM47.6316 36H36.3687C37.2042 33.6047 39.4634 31.9999 42.0002 31.9999C44.5371 31.9999 46.796 33.6047 47.6316 36ZM30.3684 54C31.204 51.6047 33.4631 49.9999 36 49.9999C38.5369 49.9999 40.796 51.6047 41.6316 54H30.3684ZM45.7978 54C44.8474 49.3441 40.752 46.0001 36 46.0001C31.248 46.0001 27.1526 49.3441 26.2022 54H19.9999V42C20.0006 40.8956 20.8957 40.0008 21.9998 40.0001H97.9999C99.1043 40.0008 99.9991 40.8959 99.9998 42V54H45.7978V54Z" fill="#7661D6"/>
<path d="M11.9999 78.0001C12.8085 77.9968 13.5365 77.5088 13.8466 76.7621C14.1566 76.0152 13.9886 75.1552 13.42 74.5801L13.1202 74.3398C13.0087 74.2639 12.8875 74.2032 12.7598 74.1591C12.6463 74.1015 12.5247 74.0614 12.3993 74.0401C12.2673 74.0176 12.1338 74.0042 11.9999 74C11.4705 74.0073 10.9633 74.2145 10.5798 74.5801C10.0947 75.0474 9.88165 75.7304 10.0152 76.3909C10.1488 77.0513 10.6103 77.5977 11.2391 77.84C11.4798 77.9424 11.7384 77.997 11.9999 78.0001Z" fill="#7661D6"/>
<path d="M34 90C40.6274 90 46 84.6274 46 78C46 71.3726 40.6274 66 34 66C27.3726 66 22 71.3726 22 78C22.0073 84.6244 27.3756 89.9927 34 90ZM34 70.0001C38.4182 70.0001 41.9999 73.5818 41.9999 78C41.9999 82.4182 38.4182 85.9999 34 85.9999C29.5818 85.9999 26.0001 82.4182 26.0001 78C26.0043 73.5834 29.5834 70.0043 34 70.0001Z" fill="#7661D6"/>
<path d="M53.9999 69.9998H95.9999C97.1045 69.9998 97.9998 69.1043 97.9998 67.9999C97.9998 66.8953 97.1043 66 95.9999 66H53.9999C52.8953 66 52 66.8955 52 67.9999C52 69.1043 52.8953 69.9998 53.9999 69.9998Z" fill="#7661D6"/>
<path d="M53.9999 79.9998H95.9999C97.1045 79.9998 97.9998 79.1045 97.9998 77.9999C97.9998 76.8953 97.1043 76 95.9999 76H53.9999C52.8953 76 52 76.8953 52 77.9999C52 79.1045 52.8953 79.9998 53.9999 79.9998Z" fill="#7661D6"/>
<path d="M53.9999 89.9998H95.9999C97.1045 89.9998 97.9998 89.1043 97.9998 87.9999C97.9998 86.8953 97.1043 86 95.9999 86H53.9999C52.8953 86 52 86.8956 52 87.9999C52 89.1045 52.8953 89.9998 53.9999 89.9998Z" fill="#7661D6"/>
<path d="M23.9999 99.9998H95.9999C97.1045 99.9998 97.9998 99.1045 97.9998 97.9999C97.9998 96.8953 97.1043 96 95.9999 96H23.9999C22.8953 96 22 96.8953 22 97.9999C22 99.1045 22.8953 99.9998 23.9999 99.9998Z" fill="#7661D6"/>
<path d="M23.9999 110H95.9999C97.1045 110 97.9998 109.105 97.9998 108C97.9998 106.895 97.1043 106 95.9999 106H23.9999C22.8953 106 22 106.895 22 108C22 109.105 22.8953 110 23.9999 110Z" fill="#7661D6"/>
</svg>
