<svg width="120" height="120" viewBox="0 0 120 120" fill="none" xmlns="http://www.w3.org/2000/svg">
<path d="M59.8 71.2C59.8 71.1 59.7 70.9 59.6 70.8C59.5 70.7 59.4 70.6 59.4 70.5C58.6 69.7 57.3 69.7 56.6 70.5C55.8 71.3 55.8 72.6 56.6 73.3C56.7 73.4 56.8 73.5 56.9 73.5C57 73.6 57.1 73.6 57.3 73.7C57.4 73.8 57.6 73.8 57.7 73.8C57.8 73.8 58 73.8 58.1 73.8C58.6 73.8 59.1 73.6 59.5 73.2C59.6 73.1 59.7 73 59.7 72.9C59.8 72.8 59.8 72.7 59.9 72.5C59.9 72.4 60 72.3 60 72.1C60 71.8 60 71.6 60 71.3C59.9 71.5 59.9 71.4 59.8 71.2Z" fill="#7661D6"/>
<path d="M66 74H74C75.1 74 76 73.1 76 72C76 70.9 75.1 70 74 70H66C64.9 70 64 70.9 64 72C64 73.1 64.9 74 66 74Z" fill="#7661D6"/>
<path d="M82 74H106C107.1 74 108 73.1 108 72C108 70.9 107.1 70 106 70H82C80.9 70 80 70.9 80 72C80 73.1 80.9 74 82 74Z" fill="#7661D6"/>
<path d="M59.4 78.6C58.9 78.1 58.3 77.9 57.6 78.1C57.5 78.1 57.3 78.1 57.2 78.2C57.1 78.2 56.9 78.3 56.8 78.4C56.7 78.5 56.6 78.6 56.5 78.6C56.3 78.8 56.2 79 56.1 79.3C56.1 79.5 56 79.7 56 80C56 80.5 56.2 81 56.6 81.4C56.7 81.5 56.8 81.6 56.9 81.6C57 81.7 57.1 81.7 57.3 81.8C57.4 81.9 57.6 81.9 57.7 81.9C57.8 81.9 58 81.9 58.1 81.9C58.6 81.9 59.2 81.7 59.5 81.3C59.8 80.9 60 80.5 60 80C60 79.7 60 79.5 59.8 79.2C59.7 79 59.6 78.8 59.4 78.6Z" fill="#7661D6"/>
<path d="M66 82H74C75.1 82 76 81.1 76 80C76 78.9 75.1 78 74 78H66C64.9 78 64 78.9 64 80C64 81.1 64.9 82 66 82Z" fill="#7661D6"/>
<path d="M82 82H106C107.1 82 108 81.1 108 80C108 78.9 107.1 78 106 78H82C80.9 78 80 78.9 80 80C80 81.1 80.9 82 82 82Z" fill="#7661D6"/>
<path d="M59.4 86.6C58.9 86.1 58.3 85.9 57.6 86.1C57.5 86.1 57.3 86.1 57.2 86.2C57.1 86.2 56.9 86.3 56.8 86.4C56.7 86.5 56.6 86.6 56.5 86.6C56.3 86.8 56.2 87 56.1 87.3C56.1 87.5 56 87.7 56 88C56 88.5 56.2 89 56.6 89.4C56.7 89.5 56.8 89.6 56.9 89.6C57 89.7 57.1 89.7 57.3 89.8C57.4 89.9 57.6 89.9 57.7 89.9C57.8 89.9 58 89.9 58.1 89.9C58.6 89.9 59.2 89.7 59.5 89.3C59.8 88.9 60 88.5 60 88C60 87.7 60 87.5 59.8 87.2C59.7 87 59.6 86.8 59.4 86.6Z" fill="#7661D6"/>
<path d="M66 90H74C75.1 90 76 89.1 76 88C76 86.9 75.1 86 74 86H66C64.9 86 64 86.9 64 88C64 89.1 64.9 90 66 90Z" fill="#7661D6"/>
<path d="M82 90H106C107.1 90 108 89.1 108 88C108 86.9 107.1 86 106 86H82C80.9 86 80 86.9 80 88C80 89.1 80.9 90 82 90Z" fill="#7661D6"/>
<path d="M58.6999 94.2C57.8999 93.9 57.0999 94.1 56.4999 94.6C55.6999 95.4 55.6999 96.7 56.4999 97.4C56.5999 97.5 56.6999 97.6 56.7999 97.6C56.8999 97.7 56.9999 97.7 57.1999 97.8C57.2999 97.9 57.4999 97.9 57.5999 97.9C57.6999 97.9 57.8999 97.9 57.9999 97.9C58.4999 97.9 58.9999 97.7 59.3999 97.3C59.4999 97.2 59.5999 97.1 59.5999 97C59.6999 96.9 59.6999 96.8 59.7999 96.6C59.7999 96.5 59.8999 96.4 59.8999 96.2C59.8999 96.1 59.8999 95.9 59.8999 95.8C59.8999 95.3 59.6999 94.8 59.2999 94.4C59.1999 94.4 58.9999 94.3 58.6999 94.2Z" fill="#7661D6"/>
<path d="M76 96C76 94.9 75.1 94 74 94H66C64.9 94 64 94.9 64 96C64 97.1 64.9 98 66 98H74C75.1 98 76 97.1 76 96Z" fill="#7661D6"/>
<path d="M82 98H106C107.1 98 108 97.1 108 96C108 94.9 107.1 94 106 94H82C80.9 94 80 94.9 80 96C80 97.1 80.9 98 82 98Z" fill="#7661D6"/>
<path d="M118 106H116V64C116 61.6 114.6 59.5 112.5 58.6C111.7 58.2 110.9 58 110 58H73.1C71.8 58 66.4 57.9 65.1 57.9H61.7V57.8C62 57.5 62.3 57.2 62.6 57C68.4 52 68.3 47.2 68.1 43C71.6 41.4 74.3 38.3 75.4 34.6C75.8 32 76.5 25.7 72.9 24.6C71.9 24.3 70.8 24.2 69.8 24.5C69.8 22.7 69.8 20.6 69.6 18.2C68.8 4.8 54.8 0.699994 47.3 0.399994H44.1C36.8 0.699994 22.7 4.8 22 18.2C21.9 20.6 21.8 22.7 21.8 24.5C20.8 24.2 19.7 24.2 18.7 24.6C15.1 25.8 15.7 32 16.2 34.8C17.3 38.5 19.9 41.5 23.5 43.1C23.3 47.3 23.1 52.1 28.9 57.1C29.2 57.4 29.5 57.7 29.8 57.9V61C27.2 62.8 24.2 64.2 21.1 65.1C18.2 65.7 15.5 66.8 13 68.3C10.8 69.5 8.6 70.7 6.4 71.9C6.1 72.1 5.7 72.2 5.3 72.4C3.4 73.1 1.8 74.3 0.6 75.9C0.1 76.9 0 78 0 79.3C0 79.5 0 111.7 0 111.9V113.9C0 117.3 2.8 120 6.2 120H51.4C51.6 120 51.8 120 51.9 120H111.9C116.3 120 119.9 116.4 119.9 112V108C120 106.9 119.1 106 118 106ZM68.5 35.8C69 33.5 69.3 31.2 69.5 28.9C70 28.5 70.7 28.3 71.3 28.3C71.7 30.1 71.7 32 71.4 33.9C70.8 35.7 69.6 37.3 68.1 38.4C68.2 37.5 68.3 36.7 68.5 35.8ZM20.2 34C19.8 32.1 19.8 30.2 20.3 28.3C21 28.3 21.6 28.5 22.1 28.9C22.3 31.2 22.6 33.5 23.1 35.8C23.3 36.7 23.4 37.5 23.5 38.3C22 37.2 20.8 35.7 20.2 34ZM110 62C111.1 62 112 62.9 112 64V106H92C91.8 106 91.7 106 91.5 106.1C90.6 106.3 90 107.1 90 108H74C74 106.9 73.1 106 72 106H52V64C52 63.5 52.2 63 52.6 62.6C53 62.2 53.5 62 54 62H110ZM27.5 43C27.5 42.6 27.5 42.2 27.5 41.8C27.5 41.7 27.5 41.6 27.5 41.5C27.5 41.1 27.5 40.6 27.5 40.2C27.5 38.4 27.3 36.7 26.8 34.9C26.3 32.5 26 30.1 25.8 27.6C25.7 24.5 25.7 21.4 25.9 18.3C26.6 5.19999 43.5 4.29999 44.1 4.29999H47.1C47.8 4.29999 64.7 5.19999 65.4 18.3C65.6 21.4 65.6 24.5 65.5 27.6C65.4 30 65 32.5 64.5 34.9C64.1 36.6 63.9 38.4 63.8 40.2C63.8 40.6 63.8 41.1 63.8 41.5C63.8 41.6 63.8 41.7 63.8 41.8C63.8 42.2 63.8 42.6 63.8 43C64 47.1 64.2 50.1 59.8 53.9C58.4 55.1 57.1 56.4 56 57.9H54C53.1 57.9 52.2 58.1 51.5 58.5C49.8 59.3 48.6 60.8 48.2 62.7C48.2 62.8 48.1 63 48.1 63.1C48.1 63.4 48.1 63.6 48.1 63.9V64H42.8C40.1 64 39.2 62.8 37.1 60C35.6 57.7 33.7 55.7 31.7 53.9C27.2 50.2 27.3 47.2 27.5 43ZM27.2 67C28.2 66.5 29.1 66 29.9 65.6V68.4C29.9 69.5 30.8 70.4 31.9 70.4C33 70.4 33.9 69.5 33.9 68.4V62.6C36 65.5 38 68.1 42.7 68.1H48V87.8C47.3 87.9 46.6 87.9 45.8 87.9H45.7C32.7 87.9 27 81.7 26.8 67.1C27 67 27.1 67 27.2 67ZM45.1 116H17.5V110.4C17.5 109.3 16.6 108.4 15.5 108.4C14.4 108.4 13.5 109.3 13.5 110.4V116H6.2C5 116 4 115.1 4 113.9V112C4 111.7 4 79.5 4 79.2C3.9 78.7 4 78.2 4.1 77.8C5 77 6 76.3 7.1 75.9C7.6 75.7 8 75.5 8.4 75.3C10.6 74.1 12.9 72.9 15.1 71.6C17.2 70.3 19.6 69.4 22 68.8C22.1 68.8 22.5 68.6 23.1 68.4C23.7 84 31.2 91.6 45.9 91.7H46C46.7 91.7 47.5 91.7 48.2 91.6V106H46.2C45.1 106 44.2 106.9 44.2 108V112C44 113.4 44.4 114.8 45.1 116ZM112 116H52C51.8 116 51.7 116 51.5 116C49.5 115.8 48 114.1 48 112V110H70C70 111.1 70.9 112 72 112H92C93.1 112 94 111.1 94 110H116V112C116 114.2 114.2 116 112 116Z" fill="#7661D6"/>
</svg>
