<svg width="120" height="120" viewBox="0 0 120 120" fill="none" xmlns="http://www.w3.org/2000/svg">
  <g clip-path="url(#clip0_1005_2939)">
    <path d="M2.00238 21.9999C3.10559 21.9962 3.99915 21.1027 4.00189 19.9995V11.9996H0.00195312V19.9995C0.00561522 21.1027 0.89917 21.9962 2.00238 21.9999Z" fill="white
"/>
    <path d="M0.00195312 97.9982H4.00182V35.9998C4.00182 34.8947 3.10645 33.9994 2.00235 33.9994C0.897324 33.9994 0.00195312 34.8947 0.00195312 35.9998V97.9982Z" fill="white"/>
    <path d="M4.00185 28.0001C3.99452 27.47 3.7867 26.9628 3.42232 26.5792L3.12202 26.3393C3.01033 26.2642 2.88948 26.2038 2.76222 26.1599C2.6487 26.1022 2.52693 26.061 2.40242 26.0399C2.26967 26.017 2.136 26.0033 2.00233 25.9996C1.47224 26.007 0.965042 26.2139 0.582352 26.5792C-0.172958 27.3757 -0.172958 28.6235 0.582352 29.42C0.773697 29.6004 0.997086 29.7432 1.24245 29.8394C1.48232 29.9419 1.74049 29.9968 2.00233 29.9996C2.53151 29.9913 3.03871 29.7844 3.42232 29.42C3.7867 29.0355 3.99361 28.5292 4.00185 28.0001Z" fill="white"/>
    <path d="M94.0003 109.998H44.581C43.4769 109.998 42.5815 109.102 42.5815 107.998C42.5815 106.893 43.4769 105.998 44.581 105.998H94.0003C95.1054 105.998 96.0007 106.893 96.0007 107.998C96.0007 109.102 95.1054 109.998 94.0003 109.998Z" fill="white"/>
    <path d="M14.6823 109.998H12.0016C10.8975 109.998 10.0021 109.103 10.0021 107.998C10.0021 106.893 10.8975 105.998 12.0016 105.998H14.6823C15.7864 105.998 16.6818 106.893 16.6818 107.998C16.6818 109.103 15.7864 109.998 14.6823 109.998Z" fill="white"/>
    <path d="M108 14H26.0016C24.8974 14 24.0021 13.1046 24.0021 11.9996C24.0021 10.8955 24.8974 10.0001 26.0016 10.0001H108C109.104 10.0001 110 10.8955 110 11.9996C110 13.1046 109.104 14 108 14Z" fill="white"/>
    <path d="M118 109.998C116.895 109.998 116 109.102 116 107.998V21.9998C116 20.8947 116.895 19.9994 118 19.9994C119.105 19.9994 120 20.8947 120 21.9998V107.998C120 109.102 119.105 109.998 118 109.998Z" fill="white"/>
    <path d="M54.7139 96.5892C53.7727 96.5901 52.9579 95.9346 52.7583 95.0145C52.5578 94.0944 53.0266 93.1597 53.8826 92.7688L68.4401 86.1295C69.4417 85.691 70.609 86.1368 71.0631 87.1311C71.5163 88.1253 71.0878 89.2999 70.1 89.7677L55.5433 96.4079C55.2824 96.527 55.0004 96.5892 54.7139 96.5892Z" fill="white"/>
    <path d="M29.2389 108.208C28.2978 108.209 27.483 107.553 27.2825 106.633C27.0829 105.713 27.5517 104.778 28.4077 104.388L44.7853 96.9188C45.7868 96.4794 46.9541 96.9261 47.4082 97.9204C47.8614 98.9146 47.4329 100.089 46.446 100.557L30.0675 108.027C29.8075 108.146 29.5255 108.208 29.2389 108.208Z" fill="white"/>
    <path d="M54.7139 96.5892C53.7727 96.5901 52.9579 95.9346 52.7583 95.0145C52.5578 94.0944 53.0266 93.1597 53.8826 92.7688L68.4401 86.1295C69.4417 85.691 70.609 86.1368 71.0631 87.1311C71.5163 88.1253 71.0878 89.2999 70.1 89.7677L55.5433 96.4079C55.2824 96.527 55.0004 96.5892 54.7139 96.5892Z" fill="white"/>
    <path d="M29.2389 108.208C28.2978 108.209 27.483 107.553 27.2825 106.633C27.0829 105.713 27.5517 104.778 28.4077 104.388L44.7853 96.9188C45.7868 96.4794 46.9541 96.9261 47.4082 97.9204C47.8614 98.9146 47.4329 100.089 46.446 100.557L30.0675 108.027C29.8075 108.146 29.5255 108.208 29.2389 108.208Z" fill="white"/>
    <path d="M21.804 120C21.0853 119.999 20.373 119.87 19.7001 119.618C18.2078 119.065 16.9984 117.937 16.342 116.487L13.0215 109.208C11.6519 106.193 12.9793 102.638 15.9905 101.259L25.0888 97.1102C25.5713 96.8895 26.1215 96.8694 26.6186 97.0552C27.1158 97.2411 27.5186 97.6164 27.7383 98.0989L34.3785 112.656C34.8363 113.66 34.3941 114.846 33.3888 115.305L24.2896 119.456C23.5096 119.814 22.6618 119.999 21.804 120ZM24.9295 101.581L17.6494 104.9C16.6469 105.361 16.2056 106.545 16.6615 107.549L19.9821 114.827C20.4408 115.831 21.6264 116.274 22.6316 115.816L29.909 112.495L24.9295 101.581Z" fill="white"/>
    <path d="M72.5892 97.2273C72.472 97.2282 72.3549 97.2172 72.2395 97.1962C71.5922 97.0818 71.0429 96.656 70.7701 96.0582L64.1317 81.5016C63.8589 80.9037 63.8974 80.2098 64.2343 79.6458C64.5712 79.0819 65.1635 78.7184 65.819 78.6754L81.4322 77.6473C83.1204 77.4935 84.7207 78.4282 85.4156 79.9745L85.8788 80.9889C86.5947 82.5553 86.2267 84.4047 84.9642 85.5765L74.011 96.635C73.6347 97.0149 73.1239 97.2282 72.5892 97.2273ZM68.973 82.4766L73.2081 91.7617L82.1811 82.7046L81.7755 81.6325L68.973 82.4766Z" fill="white"/>
    <path d="M21.8085 119.998C19.4557 120 17.3189 118.627 16.342 116.487L13.0215 109.208C11.6519 106.193 12.9793 102.638 15.9905 101.259L65.1214 78.8521C65.6039 78.6315 66.1541 78.6122 66.6512 78.7972C67.1474 78.983 67.5503 79.3584 67.77 79.8418L74.4093 94.3984C74.867 95.4036 74.4248 96.5892 73.4196 97.0479L24.2896 119.456C23.5114 119.813 22.6645 119.998 21.8085 119.998ZM64.9612 83.3207L17.6503 104.898C16.646 105.358 16.2047 106.544 16.6615 107.549L19.9821 114.827C20.2018 115.31 20.6046 115.685 21.1018 115.871C21.5989 116.056 22.1491 116.037 22.6316 115.816L69.9407 94.2382L64.9612 83.3207Z" fill="white"/>
    <path d="M10.0021 69.9991C8.89708 69.9991 8.00171 69.1037 8.00171 67.9987V23.9992C8.00171 22.8951 8.89708 21.9997 10.0021 21.9997C11.1062 21.9997 12.0016 22.8951 12.0016 23.9992V67.9987C12.0016 69.1037 11.1062 69.9991 10.0021 69.9991Z" fill="white"/>
    <path d="M10.0024 18.0002C8.89734 18.0002 8.00195 17.1048 8.00195 15.9998V11.9998C8.00195 10.8957 8.89734 10.0003 10.0024 10.0003C11.1065 10.0003 12.0019 10.8957 12.0019 11.9998V15.9998C12.0019 17.1048 11.1065 18.0002 10.0024 18.0002Z" fill="white"/>
    <path d="M60.001 55.9991C55.5827 55.9991 52.0012 52.4176 52.0012 47.9993C52.0012 43.5811 55.5827 39.9996 60.001 39.9996C64.4192 39.9996 68.0007 43.5811 68.0007 47.9993C67.9961 52.4158 64.4174 55.9945 60.001 55.9991ZM60.001 43.9995C57.7918 43.9995 56.0011 45.7902 56.0011 47.9993C56.0011 50.2085 57.7918 51.9992 60.001 51.9992C62.2101 51.9992 64.0008 50.2085 64.0008 47.9993C63.999 45.7911 62.2092 44.0013 60.001 43.9995Z" fill="white"/>
    <path d="M67.5466 73.0514C67.1941 73.0514 66.8426 73.0047 66.502 72.9132C65.4757 72.6413 64.6014 71.9711 64.0723 71.0519L62.2339 67.8641C60.7517 68.0335 59.2557 68.0344 57.7735 67.8669L55.9233 71.0611C55.385 71.9803 54.5033 72.6486 53.4725 72.9187C52.4489 73.1896 51.3585 73.0377 50.4476 72.4975L43.5446 68.5178C41.6459 67.4155 40.9812 64.9949 42.0505 63.0778L43.9008 59.869C43.4595 59.2693 43.053 58.6458 42.6804 58.0004C42.3087 57.3559 41.9718 56.6903 41.6724 56.0082L37.9957 56.0064C35.7875 55.9863 34.0078 54.1928 34.0032 51.9855L34.0078 43.9995C33.9995 42.9476 34.4133 41.9368 35.1558 41.1925C35.9047 40.4363 36.9227 40.0069 37.9866 39.9996L41.6807 39.9941C42.2785 38.6282 43.0274 37.3327 43.9136 36.1334L42.0725 32.9465C40.9721 31.0331 41.6276 28.5887 43.5382 27.4827L50.465 23.4829C52.3784 22.3815 54.8228 23.0361 55.9297 24.9468L57.769 28.1346C59.2502 27.9652 60.7471 27.9643 62.2284 28.1309L64.0796 24.9376C64.6179 24.0184 65.4986 23.3501 66.5286 23.08C67.5521 22.809 68.6416 22.9601 69.5525 23.4993L76.4582 27.4818C78.357 28.585 79.0207 31.0065 77.9496 32.9245L76.1012 36.1307C76.9828 37.3318 77.7299 38.6254 78.3295 39.9904L82.0062 39.9923H82.0309C84.23 40.0234 85.9969 41.8141 85.9979 44.0132L85.9951 51.9992C86.0024 53.0502 85.5886 54.0609 84.8461 54.8053C84.0982 55.5624 83.0801 55.9918 82.0154 55.9991L78.3213 56.0037C77.7235 57.3705 76.9755 58.666 76.0883 59.8653L77.9285 63.0522C79.029 64.9656 78.3735 67.4091 76.4628 68.515L69.536 72.5158C68.9318 72.8656 68.2452 73.0505 67.5466 73.0514ZM63.2849 63.6866C63.9999 63.6866 64.66 64.0675 65.018 64.6864L67.5375 69.0515L74.4651 65.0507L71.9447 60.6865C71.5218 59.9513 71.6069 59.0294 72.159 58.3849C73.4324 56.9027 74.4185 55.1953 75.0666 53.3514C75.3459 52.5476 76.103 52.0075 76.9535 52.0056L82.0062 51.9992L81.9989 43.9922L76.9691 43.9894C76.1195 43.9885 75.3633 43.452 75.0822 42.6509C74.4267 40.8089 73.4407 39.1015 72.1727 37.6138C71.6188 36.9693 71.5328 36.0455 71.9566 35.3104L74.4725 30.9479L67.5366 26.9526L65.007 31.3151C64.5804 32.0511 63.7344 32.4366 62.8995 32.2754C60.9778 31.9147 59.0058 31.9156 57.0841 32.2782C56.2501 32.4366 55.4069 32.0484 54.984 31.3123L52.4645 26.9472L45.5368 30.9479L48.0563 35.3122C48.4802 36.0464 48.395 36.9693 47.843 37.6138C46.5695 39.096 45.5835 40.8025 44.9344 42.6463C44.6561 43.4511 43.8989 43.9912 43.0484 43.9922L37.9957 43.9995L38.003 51.9946L43.0338 52.0093C43.8825 52.0093 44.6396 52.5467 44.9207 53.3478C45.5752 55.1898 46.5613 56.8972 47.8292 58.3849C48.3831 59.0285 48.4701 59.9523 48.0453 60.6883L45.5286 65.0507L52.4663 69.0442L54.995 64.6836C55.4207 63.9466 56.2675 63.5603 57.1025 63.7223C59.025 64.0812 60.9961 64.0803 62.9178 63.7205C63.0396 63.6976 63.1622 63.6866 63.2849 63.6866Z" fill="white"/>
    <path d="M108 119.998H96.0008C93.7925 119.996 92.0027 118.206 92.0009 115.998V33.9993C92.0027 31.7911 93.7925 30.0013 96.0008 29.9995H107.518C109.876 29.9885 112.13 29.0244 113.768 27.3271C115.248 25.8366 116.053 23.806 115.996 21.7068C115.855 17.3984 112.312 13.9835 108 14H74.001C72.896 14 72.0006 13.1046 72.0006 11.9996C72.0006 10.8955 72.896 10.0001 74.001 10.0001H108C114.466 9.98271 119.775 15.1041 119.993 21.5648C120.093 24.749 118.884 27.8361 116.646 30.1038C114.254 32.5812 110.962 33.9856 107.518 33.9993H96.0008V115.998H108C112.417 115.993 115.996 112.415 116 107.998C116 106.893 116.895 105.998 118 105.998C119.105 105.998 120 106.893 120 107.998C119.993 114.622 114.625 119.991 108 119.998Z" fill="white"/>
    <path d="M46.001 109.998H44.5811C43.4769 109.998 42.5815 109.102 42.5815 107.998C42.5815 106.893 43.4769 105.998 44.5811 105.998H46.001C47.1061 105.998 48.0015 106.893 48.0015 107.998C48.0015 109.102 47.1061 109.998 46.001 109.998Z" fill="white"/>
    <path d="M14.6822 109.998H12.4823C5.76697 110.025 0.242773 104.716 0.00199323 98.0055V97.6384C0.1027 94.5861 1.35146 91.6839 3.49925 89.5123C5.75507 87.2602 8.81379 85.9958 12.0016 85.9986H24.0021V3.99985H12.0016C9.87762 3.99161 7.83786 4.83205 6.33642 6.33349C4.83406 7.83584 3.99362 9.8756 4.00186 11.9996C4.00186 12.7146 3.62101 13.3747 3.00213 13.7317C2.38324 14.0888 1.62062 14.0888 1.00173 13.7317C0.383761 13.3747 0.00199323 12.7146 0.00199323 11.9996C-0.00624637 8.81453 1.25533 5.75763 3.50749 3.50547C5.75965 1.25331 8.81654 -0.00826052 12.0016 -2.09267e-05H24.0021C26.2103 0.0018101 27.9993 1.79164 28.002 3.99985V85.9986C27.9993 88.2068 26.2103 89.9966 24.0021 89.9985H12.0016C7.68772 89.9847 4.14377 93.4023 4.00186 97.7144V97.9982C4.20877 102.515 7.96054 106.055 12.4823 105.998H14.6822C15.7863 105.998 16.6817 106.893 16.6817 107.998C16.6817 109.102 15.7863 109.998 14.6822 109.998Z" fill="white"/>
  </g>
  <defs>
    <clipPath id="clip0_1005_2939">
      <rect width="120" height="120" fill="white"/>
    </clipPath>
  </defs>
</svg>
