<svg width="120" height="120" viewBox="0 0 120 120" fill="none" xmlns="http://www.w3.org/2000/svg">
  <g clip-path="url(#clip0)">
    <path d="M89.0157 90.9714C80.7956 90.9944 72.9078 87.7279 67.1109 81.8998C66.3303 81.1193 66.3303 79.8536 67.1109 79.0731C67.8914 78.2925 69.1571 78.2925 69.9376 79.0731C79.0427 88.1744 93.3089 89.5769 104.012 82.4227C114.715 75.2685 118.874 61.5505 113.947 49.6571C109.019 37.7637 96.3758 31.0072 83.7496 33.5196C71.1232 36.032 62.0296 47.1133 62.0296 59.9871C62.0352 74.7902 51.578 87.5335 37.0586 90.4174C22.5392 93.3013 8.00548 85.5221 2.35311 71.8407C-3.29925 58.1592 1.50534 42.3905 13.8265 34.1854C26.1477 25.9804 42.5498 27.6269 52.9941 38.1172C53.7737 38.8993 53.7714 40.1653 52.9892 40.9449C52.207 41.7245 50.9411 41.7221 50.1615 40.9399C41.0712 31.8171 26.801 30.3893 16.0833 37.5301C5.36565 44.6709 1.18746 58.3904 6.10543 70.2929C11.0234 82.1955 23.6669 88.9643 36.2992 86.4571C48.9314 83.9498 58.0316 72.8658 58.0313 59.9871C58.0313 42.8749 71.9035 29.0027 89.0157 29.0027C106.128 29.0027 120 42.8749 120 59.9871C120 77.0992 106.128 90.9714 89.0157 90.9714Z" fill="#171044"/>
    <path d="M30.9999 67.9997C26.5815 67.9997 23 64.4182 23 59.9998C23 55.5815 26.5815 51.9999 30.9999 51.9999C35.4182 51.9999 38.9998 55.5815 38.9998 59.9998C38.9998 62.122 38.1575 64.1563 36.6569 65.6569C35.1564 67.1574 33.1221 67.9997 30.9999 67.9997ZM30.9999 55.9999C28.7907 55.9999 26.9999 57.7906 26.9999 59.9998C26.9999 62.209 28.7907 63.9998 30.9999 63.9998C33.209 63.9998 34.9998 62.209 34.9998 59.9998C34.9998 58.9387 34.5787 57.9216 33.8289 57.1718C33.0781 56.421 32.061 55.9999 30.9999 55.9999Z" fill="#171044"/>
    <path d="M31 71.9996C29.8959 71.9996 29.0005 71.1042 29.0005 70.0001V66.0002C29.0005 64.8951 29.8959 63.9998 31 63.9998C32.105 63.9998 33.0004 64.8951 33.0004 66.0002V70.0001C33.0004 71.1042 32.105 71.9996 31 71.9996Z" fill="#171044"/>
    <path d="M38.0702 69.0718C37.5392 69.0718 37.0311 68.8612 36.6558 68.4858L33.8277 65.6559C33.3077 65.1542 33.0989 64.4099 33.282 63.7114C33.4651 63.0119 34.0117 62.4653 34.7112 62.2822C35.4097 62.0991 36.154 62.3079 36.6558 62.8279L39.4838 65.6578C40.056 66.23 40.2263 67.0897 39.9169 67.8376C39.6074 68.5847 38.8787 69.0718 38.0702 69.0718Z" fill="#171044"/>
    <path d="M41.0004 62.0002H37.0004C35.8954 62.0002 35 61.1049 35 59.9998C35 58.8957 35.8954 58.0003 37.0004 58.0003H41.0004C42.1045 58.0003 42.9999 58.8957 42.9999 59.9998C42.9999 61.1049 42.1045 62.0002 41.0004 62.0002Z" fill="#171044"/>
    <path d="M35.2424 57.7577C34.4331 57.7577 33.7043 57.2706 33.3949 56.5236C33.0854 55.7765 33.2567 54.9159 33.8279 54.3437L36.656 51.5138C37.4406 50.7557 38.6885 50.7667 39.4594 51.5385C40.2311 52.3094 40.2421 53.5573 39.4841 54.3419L36.656 57.1718C36.2806 57.5471 35.7725 57.7577 35.2424 57.7577Z" fill="#171044"/>
    <path d="M31 55.9999C29.8959 55.9999 29.0005 55.1045 29.0005 54.0004V50.0004C29.0005 48.8954 29.8959 48 31 48C32.105 48 33.0004 48.8954 33.0004 50.0004V54.0004C33.0004 55.1045 32.105 55.9999 31 55.9999Z" fill="#171044"/>
    <path d="M26.7582 57.7577C26.2272 57.7577 25.7191 57.5471 25.3437 57.1718L22.5157 54.3419C21.7585 53.5573 21.7686 52.3094 22.5404 51.5385C23.3122 50.7667 24.5591 50.7557 25.3437 51.5138L28.1718 54.3437C28.744 54.9159 28.9152 55.7765 28.6057 56.5236C28.2963 57.2706 27.5666 57.7577 26.7582 57.7577Z" fill="#171044"/>
    <path d="M25.0004 62.0002H21.0004C19.8954 62.0002 19 61.1049 19 59.9998C19 58.8957 19.8954 58.0003 21.0004 58.0003H25.0004C26.1045 58.0003 26.9999 58.8957 26.9999 59.9998C26.9999 61.1049 26.1045 62.0002 25.0004 62.0002Z" fill="#171044"/>
    <path d="M23.9299 69.0718C23.1206 69.0718 22.3918 68.5847 22.0824 67.8376C21.7729 67.0897 21.9442 66.23 22.5154 65.6578L25.3435 62.8279C25.8461 62.3079 26.5895 62.0991 27.289 62.2822C27.9885 62.4653 28.5341 63.0119 28.7172 63.7114C28.9003 64.4099 28.6916 65.1542 28.1716 65.6559L25.3435 68.4858C24.9691 68.8612 24.46 69.0718 23.9299 69.0718Z" fill="#171044"/>
    <path d="M90.0002 74.0004C82.2677 74.0004 76 67.7318 76 60.0002C76 52.2676 82.2677 45.9999 90.0002 45.9999C97.7319 45.9999 104 52.2676 104 60.0002C103.991 67.7281 97.7282 73.9913 90.0002 74.0004ZM90.0002 49.9999C84.4769 49.9999 79.9999 54.4768 79.9999 60.0002C79.9999 65.5226 84.4769 69.9996 90.0002 69.9996C95.5227 69.9996 99.9996 65.5226 99.9996 60.0002C99.9932 54.4796 95.52 50.0063 90.0002 49.9999Z" fill="#171044"/>
    <path d="M90.0004 65.9996C86.6862 65.9996 84 63.3135 84 60.0002C84 56.686 86.6862 53.9998 90.0004 53.9998C93.3137 53.9998 95.9998 56.686 95.9998 60.0002C95.9998 61.5914 95.3681 63.1176 94.2429 64.2427C93.1177 65.3679 91.5916 65.9996 90.0004 65.9996ZM90.0004 57.9998C88.8953 57.9998 87.9999 58.8951 87.9999 60.0002C87.9999 61.1043 88.8953 61.9997 90.0004 61.9997C91.1045 61.9997 91.9999 61.1043 91.9999 60.0002C91.9999 58.8951 91.1045 57.9998 90.0004 57.9998Z" fill="#171044"/>
    <path d="M90.0004 49.9999C88.8954 49.9999 88 49.1045 88 48.0004V44.0004C88 42.8954 88.8954 42 90.0004 42C91.1046 42 91.9999 42.8954 91.9999 44.0004V48.0004C91.9999 49.1045 91.1046 49.9999 90.0004 49.9999Z" fill="#171044"/>
    <path d="M84 51.6002C83.285 51.6011 82.624 51.2194 82.266 50.5995L80.2665 47.1361C79.7227 46.1803 80.0522 44.9654 81.0044 44.4152C81.9565 43.8658 83.1742 44.1872 83.7299 45.1357L85.7303 48.6C86.0874 49.2189 86.0874 49.9807 85.7303 50.5995C85.3742 51.2175 84.7141 51.5993 84 51.6002Z" fill="#171044"/>
    <path d="M79.5997 56.0003C79.2491 56.0012 78.9039 55.9087 78.6 55.732L75.1356 53.7316C74.1871 53.1759 73.8658 51.9591 74.4151 51.007C74.9653 50.0548 76.1802 49.7243 77.136 50.2681L80.5995 52.2677C81.3841 52.7208 81.7659 53.6437 81.5315 54.518C81.2971 55.3923 80.5052 56.0003 79.5997 56.0003Z" fill="#171044"/>
    <path d="M77.9995 61.9997H73.9995C72.8954 61.9997 72 61.1043 72 60.0002C72 58.8951 72.8954 57.9998 73.9995 57.9998H77.9995C79.1045 57.9998 79.9999 58.8951 79.9999 60.0002C79.9999 61.1043 79.1045 61.9997 77.9995 61.9997Z" fill="#171044"/>
    <path d="M76.1457 69.9996C75.2412 69.9996 74.4483 69.3917 74.214 68.5174C73.9805 67.6431 74.3623 66.7211 75.146 66.2679L78.6103 64.2684C79.2292 63.905 79.9955 63.9013 80.6181 64.2593C81.2397 64.6163 81.6233 65.2801 81.6215 65.9979C81.6197 66.7156 81.2342 67.3776 80.6098 67.7319L77.1464 69.7323C76.8424 69.9081 76.4973 70.0005 76.1457 69.9996Z" fill="#171044"/>
    <path d="M82.0002 75.8562C81.2852 75.8552 80.626 75.4735 80.2689 74.8555C79.9128 74.2366 79.9128 73.4749 80.2699 72.856L82.2694 69.3916C82.6246 68.7681 83.2865 68.3818 84.0043 68.3809C84.7221 68.379 85.3849 68.7617 85.7429 69.3843C86.0999 70.0068 86.0972 70.7731 85.7337 71.392L83.7342 74.8564C83.3762 75.4753 82.7152 75.8571 82.0002 75.8562Z" fill="#171044"/>
    <path d="M90.0004 78.0004C88.8954 78.0004 88 77.105 88 75.9999V72C88 70.8959 88.8954 69.9996 90.0004 69.9996C91.1046 69.9996 91.9999 70.8959 91.9999 72V75.9999C91.9999 77.105 91.1046 78.0004 90.0004 78.0004Z" fill="#171044"/>
    <path d="M98 75.8562C97.285 75.8571 96.623 75.4753 96.266 74.8564L94.2655 71.392C93.903 70.7731 93.8993 70.0068 94.2573 69.3843C94.6144 68.7617 95.2781 68.379 95.9959 68.3809C96.7137 68.3818 97.3747 68.7681 97.7299 69.3916L99.7294 72.856C100.086 73.4749 100.087 74.2366 99.7303 74.8555C99.3733 75.4735 98.7141 75.8552 98 75.8562Z" fill="#171044"/>
    <path d="M103.854 69.9996C103.503 70.0005 103.157 69.9081 102.854 69.7323L99.3901 67.7319C98.7666 67.3776 98.3803 66.7156 98.3784 65.9979C98.3775 65.2801 98.7602 64.6163 99.3828 64.2593C100.004 63.9013 100.771 63.905 101.391 64.2684L104.854 66.2679C105.638 66.7211 106.02 67.6431 105.786 68.5174C105.552 69.3917 104.76 69.9996 103.854 69.9996Z" fill="#171044"/>
    <path d="M106 61.9997H102C100.895 61.9997 99.9995 61.1043 99.9995 60.0002C99.9995 58.8951 100.895 57.9998 102 57.9998H106C107.104 57.9998 107.999 58.8951 107.999 60.0002C107.999 61.1043 107.104 61.9997 106 61.9997Z" fill="#171044"/>
    <path d="M100.4 56.0003C99.4954 56.0003 98.7026 55.3923 98.4682 54.518C98.2339 53.6437 98.6165 52.7208 99.4002 52.2677L102.865 50.2681C103.819 49.7243 105.035 50.0548 105.585 51.007C106.135 51.9591 105.813 53.1759 104.864 53.7316L101.401 55.732C101.097 55.9087 100.752 56.0012 100.4 56.0003Z" fill="#171044"/>
    <path d="M95.9996 51.6002C95.2855 51.5993 94.6263 51.2175 94.2693 50.5995C93.9122 49.9807 93.9131 49.2189 94.2702 48.6L96.2697 45.1357C96.8254 44.1872 98.0431 43.8658 98.9952 44.4152C99.9474 44.9654 100.277 46.1803 99.7341 47.1361L97.7336 50.5995C97.3766 51.2194 96.7147 51.6011 95.9996 51.6002Z" fill="#171044"/>
    <path d="M50.2821 22.075C49.5966 21.6456 48.7201 21.6712 48.0611 22.1399C47.4021 22.6087 47.09 23.4282 47.2708 24.2165L51.0646 40.7576C51.3196 41.825 52.3871 42.4873 53.4567 42.2421C54.5264 41.9968 55.1984 40.9354 54.9627 39.8635L51.1689 23.3225C51.0511 22.8052 50.732 22.3562 50.2821 22.075Z" fill="#171044"/>
    <path d="M54.0756 38.616C53.6263 38.3336 53.0832 38.2421 52.5663 38.3615L36.0253 42.1553C34.9578 42.4103 34.2956 43.4778 34.5407 44.5474C34.786 45.6171 35.8474 46.2891 36.9193 46.0534L53.4604 42.2596C54.2487 42.0788 54.8503 41.4407 54.985 40.6433C55.1197 39.8459 54.7609 39.0456 54.0756 38.616Z" fill="#171044"/>
  </g>
  <defs>
    <clipPath id="clip0">
      <rect width="120" height="120" fill="#171044"/>
    </clipPath>
  </defs>
</svg>
