<svg xmlns="http://www.w3.org/2000/svg" viewBox="0 0 255.34 44.55"><defs><style>.cls-1{fill:#7661d6;}.cls-2{fill:#332a63;}.cls-3{fill:#462c7c;}</style></defs><g id="Calque_2" data-name="Calque 2"><g id="Calque_1-2" data-name="Calque 1"><path class="cls-1" d="M173.4,11.84a20,20,0,0,0-2.61,10.26v1.07a.86.86,0,0,1-.87.87h-5.23a1,1,0,0,1-1-.87V1.77a1,1,0,0,1,1-1h4.94a1,1,0,0,1,1,1V8.84h.3a16.3,16.3,0,0,1,5.12-6A18.06,18.06,0,0,1,186.18,0c5.13,0,9.58,1.26,12.58,4,3.48,3,5.22,7.84,5.22,14.61V43.68a.86.86,0,0,1-.87.87h-5.22a.89.89,0,0,1-1-.87V20.07c0-4.94-.87-8.81-3.49-11.42-1.93-1.75-4.74-2.81-8.71-2.81-5,0-8.9,2-11.32,6"/><path class="cls-2" d="M98.89,42.17,73.35,1.28C73,.65,72.57,0,71.7,0H66.88a2,2,0,0,0-1.63,1.26L39.7,42.17a1.68,1.68,0,0,0-.14,1.69,1.23,1.23,0,0,0,1.12.63h4.56a1.78,1.78,0,0,0,1.62-1L69.29,7.35,91.72,43.44a1.77,1.77,0,0,0,1.62,1.05H97.9A1.23,1.23,0,0,0,99,43.86a1.67,1.67,0,0,0-.13-1.69"/><path class="cls-1" d="M118.71,6.47a23.82,23.82,0,0,1,32.58,0,21.7,21.7,0,0,1,6.35,15.82,21.69,21.69,0,0,1-6.35,15.82,23.82,23.82,0,0,1-32.58,0,21.69,21.69,0,0,1-6.35-15.82,21.7,21.7,0,0,1,6.35-15.82m4.73,27.38a15.81,15.81,0,0,0,23.11,0,16.71,16.71,0,0,0,4.27-11.56,16.68,16.68,0,0,0-4.27-11.55,15.81,15.81,0,0,0-23.11,0,16.72,16.72,0,0,0-4.26,11.55,16.74,16.74,0,0,0,4.26,11.56"/><path class="cls-2" d="M106.11.63A1.21,1.21,0,0,0,105,0h-4.57c-.81,0-1.25.7-1.6,1.2L87.34,17.57l3.49,5.58L105.91,2.42a1.75,1.75,0,0,0,.2-1.79"/><path class="cls-1" d="M251.47,35.17h0a.87.87,0,0,0-.24-1.21L247.4,31a.84.84,0,0,0-1.14.11h0l0,0-1.37,2c-.19.24-.37.48-.58.71a15.81,15.81,0,0,1-23.11,0,16.69,16.69,0,0,1-4.26-11.55,16.7,16.7,0,0,1,4.26-11.56,15.81,15.81,0,0,1,23.11,0A15.73,15.73,0,0,1,248,17.83H231.72a.86.86,0,0,0-.85.94v5.12a.83.83,0,0,0,.56.79l-.05.06h23.11a.88.88,0,0,0,.85-.95V22.5c0-.07,0-.13,0-.2s0-.14,0-.21v-.62a.26.26,0,0,0,0-.11A21.53,21.53,0,0,0,249,6.48a23.82,23.82,0,0,0-32.58,0,21.7,21.7,0,0,0-6.34,15.82,21.71,21.71,0,0,0,6.34,15.81,23.82,23.82,0,0,0,32.58,0,18.92,18.92,0,0,0,2.48-2.94"/><path class="cls-3" d="M140.45,22.25A5.45,5.45,0,1,1,135,16.8a5.45,5.45,0,0,1,5.45,5.45"/><path class="cls-1" d="M74.74,28.27a5.45,5.45,0,1,1-5.45-5.45,5.45,5.45,0,0,1,5.45,5.45"/><path class="cls-3" d="M.31,42.17a1.68,1.68,0,0,0-.14,1.69,1.23,1.23,0,0,0,1.12.63H5.85a1.78,1.78,0,0,0,1.62-1l7-11.32-4-6.36Z"/><path class="cls-2" d="M33,2.42a1.77,1.77,0,0,0,.2-1.79A1.22,1.22,0,0,0,32.05,0H27.49a1.74,1.74,0,0,0-1.63,1.26l-7,11.24,3.94,6.32Z"/><path class="cls-2" d="M33,42.17,7.48,1.28C7.2.71,6.85,0,5.83,0H1.27A1.2,1.2,0,0,0,.17.63,1.74,1.74,0,0,0,.36,2.42l25.49,41a1.77,1.77,0,0,0,1.62,1.05H32a1.23,1.23,0,0,0,1.12-.63A1.67,1.67,0,0,0,33,42.17"/></g></g></svg>